G04*
G04 #@! TF.GenerationSoftware,Altium Limited,Altium Designer,23.10.1 (27)*
G04*
G04 Layer_Color=15132400*
%FSLAX25Y25*%
%MOIN*%
G70*
G04*
G04 #@! TF.SameCoordinates,F1345391-9F32-4E0E-91B1-EC67AA166F81*
G04*
G04*
G04 #@! TF.FilePolarity,Positive*
G04*
G01*
G75*
%ADD10C,0.00984*%
%ADD11C,0.01000*%
%ADD12C,0.01575*%
%ADD13C,0.00787*%
%ADD14C,0.00551*%
%ADD15C,0.00800*%
%ADD16C,0.00700*%
G36*
X86948Y94709D02*
X86045Y95611D01*
X86948D01*
Y94709D01*
D02*
G37*
G36*
X34694Y99477D02*
X32241D01*
X29918D01*
Y96293D01*
X29454D01*
X28994D01*
Y101200D01*
X31844D01*
X34694D01*
Y99477D01*
D02*
G37*
G36*
Y90588D02*
X34230D01*
X33896D01*
Y89794D01*
X32638D01*
X31384D01*
Y90588D01*
X31046D01*
X30586D01*
Y93772D01*
X29855D01*
X28994D01*
Y95495D01*
X31844D01*
X34694D01*
Y90588D01*
D02*
G37*
G36*
X33102Y88202D02*
X33436D01*
X33896D01*
Y87404D01*
X34230D01*
X34694D01*
Y84089D01*
X34230D01*
X33896D01*
Y83295D01*
X33436D01*
X32976D01*
Y85018D01*
X33436D01*
X33770D01*
Y86479D01*
X33436D01*
X32976D01*
Y87273D01*
X31844D01*
X30712D01*
Y86479D01*
X30252D01*
X29918D01*
Y85018D01*
X30252D01*
X30712D01*
Y83295D01*
X30252D01*
X29792D01*
Y84089D01*
X29454D01*
X28994D01*
Y87404D01*
X29454D01*
X29792D01*
Y88202D01*
X30252D01*
X30586D01*
Y88996D01*
X31844D01*
X33102D01*
Y88202D01*
D02*
G37*
G36*
X34694Y77590D02*
X34230D01*
X33770D01*
Y80774D01*
X33436D01*
X33102D01*
Y77590D01*
X32638D01*
X32304D01*
Y76796D01*
X31046D01*
X29792D01*
Y77590D01*
X29454D01*
X28994D01*
Y81703D01*
X29454D01*
X29792D01*
Y82497D01*
X30252D01*
X30712D01*
Y80774D01*
X30252D01*
X29918D01*
Y78519D01*
X31046D01*
X32178D01*
Y82497D01*
X33436D01*
X34694D01*
Y77590D01*
D02*
G37*
G36*
Y71091D02*
X34230D01*
X33770D01*
Y74275D01*
X33436D01*
X33102D01*
Y71091D01*
X32638D01*
X32304D01*
Y70297D01*
X31046D01*
X29792D01*
Y71091D01*
X29454D01*
X28994D01*
Y75204D01*
X29454D01*
X29792D01*
Y75998D01*
X30252D01*
X30712D01*
Y74275D01*
X30252D01*
X29918D01*
Y72020D01*
X31046D01*
X32178D01*
Y75998D01*
X33436D01*
X34694D01*
Y71091D01*
D02*
G37*
G36*
X33896Y68705D02*
X34230D01*
X34694D01*
Y65391D01*
X34230D01*
X33896D01*
Y64592D01*
X33436D01*
X32976D01*
Y66315D01*
X33436D01*
X33770D01*
Y67776D01*
X33039D01*
X32304D01*
Y64592D01*
X31844D01*
X31510D01*
Y63799D01*
X30649D01*
X29792D01*
Y64592D01*
X29454D01*
X28994D01*
Y68705D01*
X29454D01*
X29792D01*
Y69499D01*
X30252D01*
X30712D01*
Y67776D01*
X30252D01*
X29918D01*
Y65521D01*
X30649D01*
X31384D01*
Y68705D01*
X31844D01*
X32178D01*
Y69499D01*
X33039D01*
X33896D01*
Y68705D01*
D02*
G37*
G36*
X33102Y62207D02*
X33436D01*
X33896D01*
Y61408D01*
X34230D01*
X34694D01*
Y58093D01*
X34230D01*
X33770D01*
Y60484D01*
X33436D01*
X32976D01*
Y61278D01*
X32638D01*
X32304D01*
Y58093D01*
X31844D01*
X31510D01*
Y57300D01*
X30649D01*
X29792D01*
Y58093D01*
X29454D01*
X28994D01*
Y62207D01*
X29454D01*
X29792D01*
Y63000D01*
X31447D01*
X33102D01*
Y62207D01*
D02*
G37*
G36*
X33896Y55708D02*
X34230D01*
X34694D01*
Y51595D01*
X34230D01*
X33896D01*
Y50801D01*
X32241D01*
X30586D01*
Y51595D01*
X30252D01*
X29792D01*
Y52393D01*
X29454D01*
X28994D01*
Y55708D01*
X29454D01*
X29918D01*
Y53317D01*
X30252D01*
X30712D01*
Y52524D01*
X31046D01*
X31384D01*
Y55708D01*
X31844D01*
X32178D01*
Y56501D01*
X33039D01*
X33896D01*
Y55708D01*
D02*
G37*
G36*
X39713Y7967D02*
X8400D01*
Y49400D01*
X39713D01*
Y7967D01*
D02*
G37*
G36*
X27133Y99728D02*
X26790D01*
X26447D01*
Y99043D01*
X26104D01*
X25761D01*
Y98357D01*
X26104D01*
X26447D01*
Y97671D01*
X26790D01*
X27133D01*
Y96299D01*
X24733D01*
X22332D01*
Y97671D01*
X23361D01*
X24390D01*
Y98357D01*
X24047D01*
X23704D01*
Y99043D01*
X24047D01*
X24390D01*
Y99728D01*
X23361D01*
X22332D01*
Y101100D01*
X24733D01*
X27133D01*
Y99728D01*
D02*
G37*
G36*
X20686D02*
X20344D01*
X20001D01*
Y99043D01*
X19658D01*
X19315D01*
Y98357D01*
X19658D01*
X20001D01*
Y97671D01*
X20344D01*
X20686D01*
Y96299D01*
X18286D01*
X15886D01*
Y97671D01*
X16915D01*
X17943D01*
Y98357D01*
X17600D01*
X17257D01*
Y99043D01*
X17600D01*
X17943D01*
Y99728D01*
X16915D01*
X15886D01*
Y101100D01*
X18286D01*
X20686D01*
Y99728D01*
D02*
G37*
G36*
X27133Y92185D02*
X26790D01*
X26447D01*
Y93556D01*
X26790D01*
X27133D01*
Y92185D01*
D02*
G37*
G36*
X18629Y94928D02*
X18972D01*
X19315D01*
Y91499D01*
X18972D01*
X18629D01*
Y90813D01*
X17600D01*
X16572D01*
Y91499D01*
X16229D01*
X15886D01*
Y94928D01*
X16229D01*
X16572D01*
Y95614D01*
X17600D01*
X18629D01*
Y94928D01*
D02*
G37*
G36*
X23018Y93556D02*
X24047D01*
X25076D01*
Y94242D01*
X25418D01*
X25761D01*
Y92185D01*
X24390D01*
X23018D01*
Y90813D01*
X22675D01*
X22332D01*
Y94928D01*
X22675D01*
X23018D01*
Y93556D01*
D02*
G37*
G36*
X25761Y86012D02*
X25418D01*
X25076D01*
Y85327D01*
X23704D01*
X22332D01*
Y86698D01*
X23704D01*
X25076D01*
Y88756D01*
X23704D01*
X22332D01*
Y90127D01*
X24047D01*
X25761D01*
Y86012D01*
D02*
G37*
G36*
X19315D02*
X18972D01*
X18629D01*
Y85327D01*
X17257D01*
X15886D01*
Y86698D01*
X17257D01*
X18629D01*
Y88756D01*
X17257D01*
X15886D01*
Y90127D01*
X17600D01*
X19315D01*
Y86012D01*
D02*
G37*
G36*
X27133Y81212D02*
X26790D01*
X26447D01*
Y82583D01*
X26790D01*
X27133D01*
Y81212D01*
D02*
G37*
G36*
X20686Y83269D02*
X19658D01*
X18629D01*
Y81898D01*
X18972D01*
X19315D01*
Y79840D01*
X18972D01*
X18629D01*
Y80526D01*
X18286D01*
X17943D01*
Y81212D01*
X17600D01*
X17257D01*
Y80526D01*
X16915D01*
X16572D01*
Y79840D01*
X16229D01*
X15886D01*
Y81898D01*
X16229D01*
X16572D01*
Y82583D01*
X16915D01*
X17257D01*
Y83269D01*
X16572D01*
X15886D01*
Y84641D01*
X18286D01*
X20686D01*
Y83269D01*
D02*
G37*
G36*
X23018Y82583D02*
X24047D01*
X25076D01*
Y83269D01*
X25418D01*
X25761D01*
Y81212D01*
X24390D01*
X23018D01*
Y79840D01*
X22675D01*
X22332D01*
Y83955D01*
X22675D01*
X23018D01*
Y82583D01*
D02*
G37*
G36*
X18629Y78469D02*
X18972D01*
X19315D01*
Y75040D01*
X18972D01*
X18629D01*
Y74354D01*
X17943D01*
X17257D01*
Y77783D01*
X16915D01*
X16572D01*
Y75040D01*
X16229D01*
X15886D01*
Y78469D01*
X16229D01*
X16572D01*
Y79154D01*
X17600D01*
X18629D01*
Y78469D01*
D02*
G37*
G36*
X19315Y72296D02*
X18286D01*
X17257D01*
Y70239D01*
X18286D01*
X19315D01*
Y68867D01*
X17600D01*
X15886D01*
Y69553D01*
X15543D01*
X15200D01*
Y72982D01*
X15543D01*
X15886D01*
Y70239D01*
X16229D01*
X16572D01*
Y72982D01*
X16915D01*
X17257D01*
Y73668D01*
X18286D01*
X19315D01*
Y72296D01*
D02*
G37*
G36*
X26572Y49883D02*
X8581D01*
Y66000D01*
X26572D01*
Y49883D01*
D02*
G37*
G36*
X13462Y100563D02*
X13680D01*
X13899D01*
Y98376D01*
X13680D01*
X13462D01*
Y97938D01*
X13024D01*
X12587D01*
Y98376D01*
X12368D01*
X12150D01*
Y98813D01*
X11931D01*
X11712D01*
Y99688D01*
X11494D01*
X11275D01*
Y97938D01*
X11056D01*
X10837D01*
Y101000D01*
X11275D01*
X11712D01*
Y100563D01*
X11931D01*
X12150D01*
Y100125D01*
X12368D01*
X12587D01*
Y99250D01*
X12806D01*
X13024D01*
Y98813D01*
X13243D01*
X13462D01*
Y100125D01*
X13243D01*
X13024D01*
Y101000D01*
X13243D01*
X13462D01*
Y100563D01*
D02*
G37*
G36*
X13024Y97063D02*
X13243D01*
X13462D01*
Y96626D01*
X12587D01*
X11712D01*
Y96189D01*
X11494D01*
X11275D01*
Y95314D01*
X11056D01*
X10837D01*
Y96626D01*
X11056D01*
X11275D01*
Y97063D01*
X11494D01*
X11712D01*
Y97501D01*
X12368D01*
X13024D01*
Y97063D01*
D02*
G37*
G36*
X13899Y95314D02*
X13680D01*
X13462D01*
Y94876D01*
X13243D01*
X13024D01*
Y94439D01*
X12368D01*
X11712D01*
Y94876D01*
X11494D01*
X11275D01*
Y95314D01*
X12150D01*
X13024D01*
Y95751D01*
X13243D01*
X13462D01*
Y96626D01*
X13680D01*
X13899D01*
Y95314D01*
D02*
G37*
G36*
X13462Y93564D02*
X13680D01*
X13899D01*
Y91377D01*
X13680D01*
X13462D01*
Y90940D01*
X13024D01*
X12587D01*
Y91377D01*
X12368D01*
X12150D01*
Y91815D01*
X11931D01*
X11712D01*
Y92689D01*
X11494D01*
X11275D01*
Y90940D01*
X11056D01*
X10837D01*
Y94002D01*
X11275D01*
X11712D01*
Y93564D01*
X11931D01*
X12150D01*
Y93127D01*
X12368D01*
X12587D01*
Y92252D01*
X12806D01*
X13024D01*
Y91815D01*
X13243D01*
X13462D01*
Y93127D01*
X13243D01*
X13024D01*
Y94002D01*
X13243D01*
X13462D01*
Y93564D01*
D02*
G37*
G36*
X13024Y90065D02*
X13243D01*
X13462D01*
Y89628D01*
X12587D01*
X11712D01*
Y89190D01*
X11494D01*
X11275D01*
Y88315D01*
X11056D01*
X10837D01*
Y89628D01*
X11056D01*
X11275D01*
Y90065D01*
X11494D01*
X11712D01*
Y90502D01*
X12368D01*
X13024D01*
Y90065D01*
D02*
G37*
G36*
X13899Y88315D02*
X13680D01*
X13462D01*
Y87878D01*
X13243D01*
X13024D01*
Y87441D01*
X12368D01*
X11712D01*
Y87878D01*
X11494D01*
X11275D01*
Y88315D01*
X12150D01*
X13024D01*
Y88753D01*
X13243D01*
X13462D01*
Y89628D01*
X13680D01*
X13899D01*
Y88315D01*
D02*
G37*
G36*
X12587Y83941D02*
X12368D01*
X12150D01*
Y86566D01*
X12368D01*
X12587D01*
Y83941D01*
D02*
G37*
G36*
X11275Y82192D02*
X12150D01*
X13024D01*
Y82629D01*
X13243D01*
X13462D01*
Y82192D01*
X13680D01*
X13899D01*
Y81317D01*
X12587D01*
X11275D01*
Y80442D01*
X11056D01*
X10837D01*
Y83067D01*
X11056D01*
X11275D01*
Y82192D01*
D02*
G37*
G36*
Y78693D02*
X12150D01*
X13024D01*
Y79130D01*
X13243D01*
X13462D01*
Y78693D01*
X13680D01*
X13899D01*
Y77818D01*
X12587D01*
X11275D01*
Y76943D01*
X11056D01*
X10837D01*
Y79567D01*
X11056D01*
X11275D01*
Y78693D01*
D02*
G37*
G36*
X12587Y73444D02*
X12368D01*
X12150D01*
Y76068D01*
X12368D01*
X12587D01*
Y73444D01*
D02*
G37*
G36*
X13462Y72569D02*
X13680D01*
X13899D01*
Y70382D01*
X13680D01*
X13462D01*
Y69945D01*
X13024D01*
X12587D01*
Y70382D01*
X12368D01*
X12150D01*
Y70819D01*
X11931D01*
X11712D01*
Y71694D01*
X11494D01*
X11275D01*
Y69945D01*
X11056D01*
X10837D01*
Y73006D01*
X11275D01*
X11712D01*
Y72569D01*
X11931D01*
X12150D01*
Y72132D01*
X12368D01*
X12587D01*
Y71257D01*
X12806D01*
X13024D01*
Y70819D01*
X13243D01*
X13462D01*
Y72132D01*
X13243D01*
X13024D01*
Y73006D01*
X13243D01*
X13462D01*
Y72569D01*
D02*
G37*
G36*
X11712Y68632D02*
X11494D01*
X11275D01*
Y67320D01*
X11712D01*
X12150D01*
Y68632D01*
X12368D01*
X12587D01*
Y68195D01*
X12806D01*
X13024D01*
Y67758D01*
X13243D01*
X13462D01*
Y69070D01*
X13680D01*
X13899D01*
Y66445D01*
X13680D01*
X13462D01*
Y66883D01*
X13243D01*
X13024D01*
Y67320D01*
X12806D01*
X12587D01*
Y66883D01*
X12368D01*
X12150D01*
Y66445D01*
X11712D01*
X11275D01*
Y66883D01*
X11056D01*
X10837D01*
Y69070D01*
X11056D01*
X11275D01*
Y69507D01*
X11494D01*
X11712D01*
Y68632D01*
D02*
G37*
G36*
X-4475Y47908D02*
X-4444Y47906D01*
X-4408Y47900D01*
X-4367Y47894D01*
X-4322Y47886D01*
X-4275Y47875D01*
X-4228Y47861D01*
X-4178Y47845D01*
X-4128Y47825D01*
X-4081Y47800D01*
X-4034Y47773D01*
X-3987Y47742D01*
X-3946Y47706D01*
X-3943Y47703D01*
X-3937Y47698D01*
X-3926Y47684D01*
X-3912Y47670D01*
X-3896Y47651D01*
X-3876Y47626D01*
X-3857Y47598D01*
X-3835Y47565D01*
X-3815Y47532D01*
X-3796Y47493D01*
X-3777Y47451D01*
X-3760Y47407D01*
X-3746Y47357D01*
X-3735Y47307D01*
X-3729Y47255D01*
X-3727Y47199D01*
Y47196D01*
Y47191D01*
Y47183D01*
Y47169D01*
X-3729Y47155D01*
Y47136D01*
X-3735Y47094D01*
X-3743Y47041D01*
X-3754Y46986D01*
X-3768Y46928D01*
X-3790Y46870D01*
Y46867D01*
X-3793Y46864D01*
X-3796Y46853D01*
X-3802Y46842D01*
X-3810Y46828D01*
X-3818Y46812D01*
X-3838Y46770D01*
X-3865Y46723D01*
X-3898Y46667D01*
X-3940Y46606D01*
X-3987Y46543D01*
X-3993Y46537D01*
X-4004Y46521D01*
X-4029Y46496D01*
X-4059Y46460D01*
X-4081Y46437D01*
X-4103Y46413D01*
X-4131Y46388D01*
X-4159Y46357D01*
X-4192Y46327D01*
X-4228Y46291D01*
X-4267Y46255D01*
X-4308Y46216D01*
X-4311Y46213D01*
X-4320Y46208D01*
X-4330Y46196D01*
X-4344Y46183D01*
X-4364Y46166D01*
X-4386Y46147D01*
X-4433Y46102D01*
X-4483Y46055D01*
X-4530Y46008D01*
X-4552Y45986D01*
X-4572Y45967D01*
X-4588Y45947D01*
X-4602Y45933D01*
X-4605Y45931D01*
X-4613Y45922D01*
X-4624Y45908D01*
X-4638Y45892D01*
X-4652Y45870D01*
X-4668Y45847D01*
X-4702Y45800D01*
X-3727D01*
Y45346D01*
X-5444D01*
Y45349D01*
X-5441Y45357D01*
Y45371D01*
X-5438Y45390D01*
X-5433Y45413D01*
X-5427Y45440D01*
X-5422Y45471D01*
X-5414Y45504D01*
X-5391Y45579D01*
X-5361Y45662D01*
X-5325Y45748D01*
X-5278Y45834D01*
X-5275Y45836D01*
X-5272Y45845D01*
X-5261Y45859D01*
X-5250Y45875D01*
X-5234Y45897D01*
X-5211Y45928D01*
X-5187Y45958D01*
X-5156Y45997D01*
X-5123Y46039D01*
X-5081Y46083D01*
X-5037Y46136D01*
X-4987Y46188D01*
X-4932Y46246D01*
X-4868Y46310D01*
X-4801Y46377D01*
X-4727Y46446D01*
X-4724Y46449D01*
X-4713Y46460D01*
X-4696Y46476D01*
X-4674Y46496D01*
X-4646Y46521D01*
X-4619Y46548D01*
X-4585Y46582D01*
X-4552Y46615D01*
X-4480Y46684D01*
X-4414Y46753D01*
X-4386Y46784D01*
X-4358Y46814D01*
X-4336Y46842D01*
X-4320Y46864D01*
Y46867D01*
X-4314Y46870D01*
X-4311Y46878D01*
X-4303Y46889D01*
X-4286Y46920D01*
X-4267Y46958D01*
X-4250Y47003D01*
X-4234Y47052D01*
X-4222Y47108D01*
X-4217Y47163D01*
Y47166D01*
Y47172D01*
Y47180D01*
Y47191D01*
X-4222Y47219D01*
X-4228Y47257D01*
X-4239Y47296D01*
X-4253Y47338D01*
X-4275Y47379D01*
X-4306Y47415D01*
X-4308Y47418D01*
X-4322Y47429D01*
X-4342Y47443D01*
X-4369Y47460D01*
X-4405Y47476D01*
X-4447Y47490D01*
X-4494Y47501D01*
X-4549Y47504D01*
X-4574D01*
X-4602Y47498D01*
X-4638Y47493D01*
X-4677Y47482D01*
X-4718Y47465D01*
X-4760Y47440D01*
X-4796Y47410D01*
X-4799Y47404D01*
X-4810Y47393D01*
X-4824Y47371D01*
X-4843Y47338D01*
X-4860Y47296D01*
X-4876Y47244D01*
X-4890Y47180D01*
X-4896Y47144D01*
X-4898Y47105D01*
X-5386Y47152D01*
Y47158D01*
X-5383Y47169D01*
X-5380Y47191D01*
X-5375Y47219D01*
X-5369Y47252D01*
X-5361Y47291D01*
X-5350Y47332D01*
X-5336Y47376D01*
X-5319Y47424D01*
X-5300Y47471D01*
X-5278Y47521D01*
X-5253Y47568D01*
X-5225Y47615D01*
X-5192Y47659D01*
X-5156Y47698D01*
X-5114Y47734D01*
X-5112Y47737D01*
X-5103Y47742D01*
X-5090Y47750D01*
X-5073Y47762D01*
X-5051Y47775D01*
X-5023Y47789D01*
X-4993Y47806D01*
X-4957Y47822D01*
X-4915Y47839D01*
X-4874Y47856D01*
X-4826Y47870D01*
X-4774Y47883D01*
X-4721Y47894D01*
X-4663Y47903D01*
X-4602Y47908D01*
X-4538Y47911D01*
X-4502D01*
X-4475Y47908D01*
D02*
G37*
G36*
X-6857Y47942D02*
X-6818Y47939D01*
X-6771Y47933D01*
X-6716Y47925D01*
X-6655Y47914D01*
X-6585Y47900D01*
X-6516Y47883D01*
X-6444Y47859D01*
X-6369Y47831D01*
X-6292Y47798D01*
X-6220Y47756D01*
X-6145Y47712D01*
X-6076Y47656D01*
X-6012Y47595D01*
X-6009Y47593D01*
X-5998Y47579D01*
X-5982Y47559D01*
X-5959Y47532D01*
X-5934Y47496D01*
X-5907Y47451D01*
X-5876Y47401D01*
X-5843Y47343D01*
X-5813Y47277D01*
X-5782Y47205D01*
X-5754Y47124D01*
X-5729Y47039D01*
X-5707Y46944D01*
X-5691Y46845D01*
X-5680Y46737D01*
X-5677Y46623D01*
Y46620D01*
Y46609D01*
Y46590D01*
Y46568D01*
X-5680Y46537D01*
X-5682Y46504D01*
X-5685Y46468D01*
X-5688Y46426D01*
X-5693Y46382D01*
X-5699Y46335D01*
X-5715Y46238D01*
X-5740Y46138D01*
X-5771Y46041D01*
Y46039D01*
X-5774Y46033D01*
X-5779Y46022D01*
X-5785Y46008D01*
X-5790Y45992D01*
X-5801Y45972D01*
X-5824Y45922D01*
X-5857Y45867D01*
X-5896Y45803D01*
X-5940Y45737D01*
X-5995Y45670D01*
X-5993Y45667D01*
X-5987Y45665D01*
X-5976Y45656D01*
X-5962Y45648D01*
X-5943Y45637D01*
X-5923Y45623D01*
X-5898Y45606D01*
X-5871Y45593D01*
X-5810Y45557D01*
X-5740Y45521D01*
X-5663Y45485D01*
X-5580Y45454D01*
X-5771Y45086D01*
X-5776Y45088D01*
X-5790Y45091D01*
X-5813Y45100D01*
X-5843Y45111D01*
X-5879Y45125D01*
X-5918Y45141D01*
X-6001Y45183D01*
X-6004D01*
X-6009Y45188D01*
X-6015Y45194D01*
X-6026Y45199D01*
X-6037Y45205D01*
X-6051Y45216D01*
X-6070Y45230D01*
X-6095Y45244D01*
X-6123Y45263D01*
X-6156Y45282D01*
X-6192Y45307D01*
X-6236Y45338D01*
X-6286Y45371D01*
X-6344Y45407D01*
X-6347D01*
X-6355Y45401D01*
X-6369Y45396D01*
X-6389Y45390D01*
X-6411Y45382D01*
X-6438Y45374D01*
X-6472Y45363D01*
X-6508Y45354D01*
X-6547Y45343D01*
X-6588Y45332D01*
X-6635Y45324D01*
X-6682Y45316D01*
X-6787Y45305D01*
X-6898Y45299D01*
X-6923D01*
X-6937Y45302D01*
X-6954D01*
X-6995Y45305D01*
X-7045Y45310D01*
X-7103Y45318D01*
X-7167Y45327D01*
X-7236Y45343D01*
X-7308Y45360D01*
X-7383Y45385D01*
X-7461Y45413D01*
X-7538Y45446D01*
X-7613Y45485D01*
X-7688Y45532D01*
X-7757Y45584D01*
X-7824Y45645D01*
X-7826Y45648D01*
X-7837Y45662D01*
X-7854Y45681D01*
X-7876Y45709D01*
X-7901Y45745D01*
X-7929Y45789D01*
X-7959Y45839D01*
X-7990Y45897D01*
X-8020Y45964D01*
X-8051Y46036D01*
X-8078Y46116D01*
X-8103Y46202D01*
X-8125Y46296D01*
X-8142Y46399D01*
X-8153Y46507D01*
X-8156Y46620D01*
Y46623D01*
Y46629D01*
Y46637D01*
Y46648D01*
Y46662D01*
X-8153Y46681D01*
X-8150Y46723D01*
X-8145Y46775D01*
X-8139Y46836D01*
X-8128Y46906D01*
X-8114Y46978D01*
X-8098Y47055D01*
X-8076Y47133D01*
X-8048Y47216D01*
X-8015Y47296D01*
X-7979Y47376D01*
X-7934Y47454D01*
X-7882Y47526D01*
X-7824Y47595D01*
X-7821Y47598D01*
X-7807Y47609D01*
X-7788Y47629D01*
X-7763Y47651D01*
X-7729Y47676D01*
X-7688Y47706D01*
X-7638Y47737D01*
X-7582Y47770D01*
X-7522Y47803D01*
X-7452Y47834D01*
X-7378Y47864D01*
X-7297Y47889D01*
X-7211Y47911D01*
X-7117Y47930D01*
X-7017Y47942D01*
X-6912Y47944D01*
X-6887D01*
X-6857Y47942D01*
D02*
G37*
G36*
X52809Y119270D02*
X52046D01*
X50513Y121754D01*
Y119270D01*
X49808D01*
Y123054D01*
X50546D01*
X52104Y120512D01*
Y123054D01*
X52809D01*
Y119270D01*
D02*
G37*
G36*
X47442Y123111D02*
X47499Y123107D01*
X47569Y123099D01*
X47651Y123087D01*
X47741Y123070D01*
X47840Y123050D01*
X47946Y123021D01*
X48053Y122988D01*
X48164Y122947D01*
X48278Y122894D01*
X48389Y122837D01*
X48496Y122767D01*
X48598Y122685D01*
X48697Y122595D01*
X48701Y122591D01*
X48717Y122570D01*
X48742Y122541D01*
X48775Y122501D01*
X48816Y122447D01*
X48857Y122382D01*
X48902Y122308D01*
X48951Y122218D01*
X48996Y122123D01*
X49041Y122013D01*
X49086Y121894D01*
X49123Y121767D01*
X49156Y121627D01*
X49180Y121480D01*
X49197Y121320D01*
X49201Y121152D01*
Y121148D01*
Y121139D01*
Y121127D01*
Y121111D01*
Y121090D01*
X49197Y121065D01*
X49193Y121000D01*
X49185Y120922D01*
X49176Y120836D01*
X49160Y120733D01*
X49139Y120627D01*
X49111Y120516D01*
X49078Y120397D01*
X49037Y120278D01*
X48992Y120159D01*
X48935Y120041D01*
X48865Y119926D01*
X48791Y119819D01*
X48701Y119717D01*
X48697Y119712D01*
X48676Y119696D01*
X48652Y119667D01*
X48611Y119635D01*
X48561Y119598D01*
X48500Y119553D01*
X48430Y119508D01*
X48348Y119458D01*
X48258Y119409D01*
X48160Y119364D01*
X48049Y119319D01*
X47930Y119282D01*
X47803Y119249D01*
X47668Y119220D01*
X47520Y119204D01*
X47368Y119200D01*
X47331D01*
X47286Y119204D01*
X47229Y119208D01*
X47159Y119216D01*
X47073Y119229D01*
X46983Y119241D01*
X46885Y119266D01*
X46778Y119290D01*
X46671Y119327D01*
X46556Y119368D01*
X46446Y119417D01*
X46335Y119475D01*
X46229Y119544D01*
X46126Y119622D01*
X46028Y119712D01*
X46023Y119721D01*
X46007Y119737D01*
X45983Y119766D01*
X45950Y119807D01*
X45913Y119860D01*
X45872Y119926D01*
X45827Y120000D01*
X45782Y120086D01*
X45732Y120180D01*
X45687Y120287D01*
X45646Y120401D01*
X45609Y120528D01*
X45577Y120664D01*
X45552Y120811D01*
X45536Y120967D01*
X45531Y121131D01*
Y121139D01*
Y121156D01*
Y121188D01*
X45536Y121230D01*
Y121279D01*
X45540Y121336D01*
X45548Y121398D01*
X45552Y121471D01*
X45564Y121545D01*
X45573Y121623D01*
X45605Y121787D01*
X45646Y121947D01*
X45675Y122029D01*
X45704Y122103D01*
Y122107D01*
X45708Y122115D01*
X45716Y122132D01*
X45728Y122152D01*
X45741Y122177D01*
X45757Y122205D01*
X45794Y122279D01*
X45843Y122357D01*
X45905Y122447D01*
X45974Y122533D01*
X46052Y122624D01*
X46056Y122628D01*
X46064Y122632D01*
X46077Y122644D01*
X46093Y122660D01*
X46114Y122681D01*
X46138Y122701D01*
X46200Y122751D01*
X46270Y122808D01*
X46356Y122865D01*
X46446Y122919D01*
X46544Y122964D01*
X46548D01*
X46561Y122972D01*
X46581Y122976D01*
X46606Y122988D01*
X46639Y123001D01*
X46679Y123013D01*
X46725Y123025D01*
X46778Y123042D01*
X46835Y123054D01*
X46897Y123066D01*
X46966Y123079D01*
X47036Y123091D01*
X47192Y123107D01*
X47360Y123116D01*
X47397D01*
X47442Y123111D01*
D02*
G37*
G36*
X-5841Y120104D02*
Y109600D01*
X-10155D01*
Y120104D01*
X-5841D01*
D02*
G37*
G36*
X6857Y80648D02*
X6854Y80614D01*
Y80576D01*
X6851Y80531D01*
X6848Y80487D01*
X6840Y80387D01*
X6826Y80290D01*
X6821Y80243D01*
X6810Y80196D01*
X6798Y80155D01*
X6787Y80119D01*
Y80116D01*
X6785Y80110D01*
X6779Y80102D01*
X6774Y80088D01*
X6765Y80072D01*
X6757Y80055D01*
X6732Y80011D01*
X6696Y79963D01*
X6655Y79916D01*
X6602Y79866D01*
X6541Y79822D01*
X6538D01*
X6533Y79817D01*
X6524Y79811D01*
X6510Y79806D01*
X6494Y79795D01*
X6475Y79786D01*
X6449Y79775D01*
X6425Y79764D01*
X6366Y79745D01*
X6297Y79725D01*
X6222Y79714D01*
X6139Y79709D01*
X6137D01*
X6125D01*
X6112D01*
X6092Y79711D01*
X6067Y79714D01*
X6040Y79717D01*
X6006Y79722D01*
X5973Y79731D01*
X5895Y79750D01*
X5857Y79764D01*
X5818Y79781D01*
X5776Y79800D01*
X5738Y79822D01*
X5699Y79847D01*
X5663Y79878D01*
X5660Y79880D01*
X5655Y79886D01*
X5646Y79894D01*
X5632Y79908D01*
X5618Y79927D01*
X5602Y79950D01*
X5582Y79975D01*
X5563Y80005D01*
X5541Y80038D01*
X5522Y80074D01*
X5502Y80116D01*
X5483Y80163D01*
X5466Y80213D01*
X5449Y80265D01*
X5436Y80324D01*
X5425Y80384D01*
Y80382D01*
X5419Y80376D01*
X5416Y80368D01*
X5408Y80357D01*
X5389Y80326D01*
X5361Y80288D01*
X5330Y80243D01*
X5294Y80196D01*
X5253Y80149D01*
X5211Y80107D01*
X5206Y80102D01*
X5198Y80097D01*
X5189Y80088D01*
X5175Y80077D01*
X5159Y80063D01*
X5139Y80047D01*
X5117Y80030D01*
X5090Y80011D01*
X5059Y79988D01*
X5026Y79963D01*
X4987Y79939D01*
X4945Y79911D01*
X4898Y79880D01*
X4851Y79847D01*
X4796Y79814D01*
X4300Y79501D01*
Y80119D01*
X4857Y80493D01*
X4860Y80495D01*
X4871Y80501D01*
X4885Y80512D01*
X4904Y80526D01*
X4929Y80540D01*
X4954Y80559D01*
X5015Y80601D01*
X5078Y80648D01*
X5139Y80692D01*
X5167Y80714D01*
X5192Y80734D01*
X5214Y80750D01*
X5231Y80767D01*
X5234Y80770D01*
X5245Y80778D01*
X5256Y80795D01*
X5272Y80814D01*
X5292Y80836D01*
X5308Y80864D01*
X5325Y80891D01*
X5336Y80922D01*
X5339Y80925D01*
X5342Y80939D01*
X5347Y80958D01*
X5353Y80986D01*
X5358Y81022D01*
X5361Y81066D01*
X5366Y81119D01*
Y81285D01*
X4300D01*
Y81800D01*
X6857D01*
Y80648D01*
D02*
G37*
G36*
Y77326D02*
X6425D01*
Y78706D01*
X5860D01*
Y77423D01*
X5427D01*
Y78706D01*
X4732D01*
Y77277D01*
X4300D01*
Y79221D01*
X6857D01*
Y77326D01*
D02*
G37*
G36*
X5178Y76473D02*
X5175D01*
X5167Y76471D01*
X5153Y76468D01*
X5136Y76465D01*
X5114Y76459D01*
X5092Y76451D01*
X5037Y76434D01*
X4976Y76410D01*
X4912Y76376D01*
X4854Y76338D01*
X4829Y76315D01*
X4804Y76291D01*
Y76288D01*
X4799Y76285D01*
X4793Y76277D01*
X4785Y76266D01*
X4776Y76252D01*
X4768Y76232D01*
X4757Y76213D01*
X4746Y76191D01*
X4724Y76135D01*
X4707Y76072D01*
X4693Y75997D01*
X4688Y75914D01*
Y75889D01*
X4691Y75872D01*
Y75850D01*
X4693Y75828D01*
X4702Y75773D01*
X4713Y75712D01*
X4732Y75648D01*
X4757Y75587D01*
X4774Y75559D01*
X4793Y75534D01*
Y75532D01*
X4799Y75529D01*
X4812Y75515D01*
X4835Y75493D01*
X4862Y75471D01*
X4898Y75448D01*
X4943Y75426D01*
X4990Y75412D01*
X5015Y75407D01*
X5040D01*
X5042D01*
X5056D01*
X5073Y75410D01*
X5092Y75412D01*
X5117Y75421D01*
X5145Y75429D01*
X5170Y75443D01*
X5195Y75462D01*
X5198Y75465D01*
X5206Y75473D01*
X5217Y75487D01*
X5234Y75504D01*
X5250Y75532D01*
X5269Y75562D01*
X5286Y75601D01*
X5305Y75648D01*
X5308Y75653D01*
Y75659D01*
X5311Y75667D01*
X5314Y75678D01*
X5319Y75695D01*
X5325Y75712D01*
X5330Y75734D01*
X5339Y75759D01*
X5347Y75789D01*
X5355Y75822D01*
X5366Y75861D01*
X5378Y75903D01*
X5389Y75950D01*
X5403Y76002D01*
X5416Y76061D01*
Y76066D01*
X5422Y76080D01*
X5427Y76099D01*
X5436Y76127D01*
X5444Y76163D01*
X5458Y76202D01*
X5472Y76243D01*
X5486Y76288D01*
X5524Y76385D01*
X5566Y76482D01*
X5591Y76526D01*
X5616Y76570D01*
X5641Y76609D01*
X5668Y76642D01*
X5671Y76645D01*
X5680Y76653D01*
X5691Y76664D01*
X5707Y76678D01*
X5727Y76698D01*
X5751Y76717D01*
X5779Y76739D01*
X5812Y76759D01*
X5848Y76781D01*
X5887Y76803D01*
X5931Y76822D01*
X5976Y76842D01*
X6023Y76856D01*
X6076Y76867D01*
X6128Y76875D01*
X6184Y76878D01*
X6186D01*
X6192D01*
X6203D01*
X6217Y76875D01*
X6233D01*
X6256Y76872D01*
X6303Y76864D01*
X6358Y76850D01*
X6422Y76831D01*
X6486Y76803D01*
X6549Y76767D01*
X6552D01*
X6558Y76761D01*
X6566Y76756D01*
X6577Y76748D01*
X6607Y76720D01*
X6646Y76687D01*
X6688Y76639D01*
X6729Y76587D01*
X6771Y76520D01*
X6807Y76448D01*
Y76446D01*
X6810Y76440D01*
X6815Y76426D01*
X6821Y76412D01*
X6829Y76390D01*
X6835Y76368D01*
X6843Y76340D01*
X6854Y76307D01*
X6862Y76271D01*
X6871Y76235D01*
X6876Y76193D01*
X6884Y76149D01*
X6890Y76099D01*
X6895Y76052D01*
X6898Y75944D01*
Y75897D01*
X6895Y75867D01*
X6893Y75825D01*
X6887Y75781D01*
X6882Y75728D01*
X6871Y75673D01*
X6859Y75617D01*
X6846Y75556D01*
X6829Y75495D01*
X6810Y75437D01*
X6785Y75379D01*
X6754Y75321D01*
X6724Y75268D01*
X6685Y75221D01*
X6682Y75218D01*
X6677Y75210D01*
X6663Y75199D01*
X6646Y75182D01*
X6627Y75163D01*
X6599Y75144D01*
X6569Y75121D01*
X6535Y75097D01*
X6497Y75074D01*
X6455Y75052D01*
X6408Y75030D01*
X6358Y75011D01*
X6306Y74991D01*
X6247Y74977D01*
X6186Y74969D01*
X6123Y74964D01*
X6103Y75479D01*
X6106D01*
X6112Y75482D01*
X6123D01*
X6134Y75484D01*
X6150Y75490D01*
X6170Y75495D01*
X6211Y75509D01*
X6256Y75529D01*
X6303Y75554D01*
X6347Y75584D01*
X6383Y75623D01*
X6386Y75628D01*
X6397Y75642D01*
X6411Y75667D01*
X6427Y75703D01*
X6444Y75750D01*
X6458Y75806D01*
X6469Y75872D01*
X6472Y75950D01*
Y75986D01*
X6469Y76005D01*
X6466Y76027D01*
X6461Y76080D01*
X6449Y76135D01*
X6433Y76196D01*
X6408Y76252D01*
X6378Y76304D01*
X6375Y76307D01*
X6366Y76315D01*
X6353Y76329D01*
X6336Y76343D01*
X6314Y76360D01*
X6286Y76371D01*
X6256Y76382D01*
X6220Y76385D01*
X6217D01*
X6206D01*
X6186Y76382D01*
X6167Y76376D01*
X6142Y76365D01*
X6114Y76354D01*
X6089Y76335D01*
X6064Y76310D01*
X6062Y76304D01*
X6056Y76299D01*
X6051Y76288D01*
X6042Y76277D01*
X6034Y76260D01*
X6023Y76238D01*
X6012Y76213D01*
X6001Y76185D01*
X5987Y76152D01*
X5973Y76113D01*
X5959Y76069D01*
X5943Y76019D01*
X5926Y75964D01*
X5909Y75903D01*
X5893Y75836D01*
Y75831D01*
X5890Y75820D01*
X5884Y75800D01*
X5879Y75775D01*
X5871Y75742D01*
X5860Y75709D01*
X5848Y75667D01*
X5837Y75626D01*
X5810Y75534D01*
X5779Y75443D01*
X5763Y75398D01*
X5746Y75354D01*
X5727Y75315D01*
X5710Y75279D01*
Y75277D01*
X5704Y75271D01*
X5699Y75263D01*
X5693Y75249D01*
X5671Y75216D01*
X5643Y75174D01*
X5605Y75130D01*
X5560Y75083D01*
X5508Y75036D01*
X5449Y74994D01*
X5447D01*
X5441Y74989D01*
X5433Y74986D01*
X5419Y74977D01*
X5403Y74969D01*
X5383Y74961D01*
X5361Y74953D01*
X5336Y74941D01*
X5308Y74933D01*
X5278Y74925D01*
X5209Y74908D01*
X5128Y74897D01*
X5042Y74892D01*
X5040D01*
X5034D01*
X5020D01*
X5006Y74894D01*
X4987D01*
X4962Y74897D01*
X4937Y74903D01*
X4909Y74908D01*
X4846Y74922D01*
X4776Y74944D01*
X4704Y74975D01*
X4666Y74994D01*
X4630Y75016D01*
X4627D01*
X4621Y75022D01*
X4610Y75030D01*
X4599Y75038D01*
X4583Y75052D01*
X4563Y75066D01*
X4522Y75105D01*
X4477Y75155D01*
X4427Y75213D01*
X4383Y75282D01*
X4344Y75362D01*
Y75365D01*
X4342Y75374D01*
X4336Y75385D01*
X4330Y75401D01*
X4322Y75424D01*
X4317Y75451D01*
X4308Y75482D01*
X4300Y75515D01*
X4289Y75554D01*
X4281Y75595D01*
X4275Y75642D01*
X4267Y75692D01*
X4261Y75742D01*
X4256Y75800D01*
X4253Y75858D01*
Y75941D01*
X4256Y75966D01*
Y76000D01*
X4258Y76038D01*
X4264Y76086D01*
X4272Y76138D01*
X4281Y76193D01*
X4292Y76254D01*
X4308Y76315D01*
X4325Y76376D01*
X4347Y76437D01*
X4372Y76498D01*
X4403Y76556D01*
X4436Y76612D01*
X4474Y76664D01*
X4477Y76667D01*
X4486Y76675D01*
X4499Y76689D01*
X4516Y76706D01*
X4541Y76725D01*
X4569Y76750D01*
X4602Y76775D01*
X4641Y76800D01*
X4685Y76828D01*
X4732Y76856D01*
X4787Y76881D01*
X4846Y76905D01*
X4909Y76928D01*
X4976Y76947D01*
X5051Y76964D01*
X5128Y76975D01*
X5178Y76473D01*
D02*
G37*
G36*
X6857Y72562D02*
X6425D01*
Y73941D01*
X5860D01*
Y72659D01*
X5427D01*
Y73941D01*
X4732D01*
Y72512D01*
X4300D01*
Y74457D01*
X6857D01*
Y72562D01*
D02*
G37*
G36*
Y70227D02*
X6425D01*
Y70980D01*
X4300D01*
Y71496D01*
X6425D01*
Y72255D01*
X6857D01*
Y70227D01*
D02*
G37*
%LPC*%
G36*
X33770Y93772D02*
X32638D01*
X31510D01*
Y91517D01*
X32638D01*
X33770D01*
Y93772D01*
D02*
G37*
G36*
X31384Y61278D02*
X30649D01*
X29918D01*
Y59022D01*
X30649D01*
X31384D01*
Y61278D01*
D02*
G37*
G36*
X33770Y54779D02*
X33039D01*
X32304D01*
Y52524D01*
X33039D01*
X33770D01*
Y54779D01*
D02*
G37*
G36*
X37213Y46900D02*
D01*
Y27003D01*
X36869Y27232D01*
X36525Y27423D01*
X36258Y27614D01*
X36029Y27767D01*
X35647Y28072D01*
X35380Y28302D01*
X35227Y28454D01*
X35113Y28569D01*
X35074Y28645D01*
Y28683D01*
X35494D01*
X35876Y28760D01*
X36144Y28836D01*
X36411Y28912D01*
X36564Y28989D01*
X36716Y29065D01*
X36755Y29103D01*
X36793Y29142D01*
X36640Y29409D01*
X35953Y29600D01*
X35380Y29829D01*
X34883Y30058D01*
X34501Y30287D01*
X34196Y30478D01*
X33967Y30669D01*
X33814Y30784D01*
X33776Y30822D01*
X33699Y31509D01*
X33661Y32120D01*
X33585Y32693D01*
X33509Y33190D01*
X33432Y33610D01*
X33356Y33992D01*
X33279Y34297D01*
X33203Y34565D01*
X33127Y34794D01*
X33050Y34985D01*
X32974Y35138D01*
X32936Y35252D01*
X32859Y35367D01*
X32821Y35405D01*
X32592Y35710D01*
X32286Y36016D01*
X31981Y36283D01*
X31599Y36551D01*
X30797Y37009D01*
X29995Y37391D01*
X29231Y37696D01*
X28888Y37811D01*
X28582Y37925D01*
X28315Y38002D01*
X28124Y38078D01*
X28009Y38116D01*
X27971D01*
X28429Y38651D01*
X28773Y39224D01*
X29040Y39759D01*
X29193Y40255D01*
X29308Y40713D01*
X29346Y41057D01*
X29384Y41286D01*
Y41363D01*
X29346Y41935D01*
X29269Y42546D01*
X29193Y42814D01*
X29155Y43005D01*
X29117Y43157D01*
Y43196D01*
X28773Y43845D01*
X28315Y44418D01*
X27856Y44914D01*
X27360Y45334D01*
X26825Y45678D01*
X26252Y45983D01*
X25718Y46251D01*
X25183Y46442D01*
X24648Y46595D01*
X24152Y46709D01*
X23732Y46785D01*
X23312Y46824D01*
X23006Y46862D01*
X22777Y46900D01*
X22281D01*
X21402Y46824D01*
X20600Y46633D01*
X19875Y46365D01*
X19264Y45983D01*
X18729Y45525D01*
X18271Y45029D01*
X17889Y44494D01*
X17545Y43921D01*
X17278Y43348D01*
X17049Y42814D01*
X16896Y42317D01*
X16781Y41859D01*
X16667Y41477D01*
X16628Y41210D01*
X16590Y41019D01*
Y40942D01*
X16705Y40064D01*
X16819Y39338D01*
X16972Y38727D01*
X17125Y38269D01*
X17240Y37925D01*
X17354Y37696D01*
X17392Y37543D01*
X17431Y37505D01*
Y37391D01*
X17125D01*
X16858Y37582D01*
X16590Y37734D01*
X16361Y37811D01*
X16208Y37887D01*
X16056Y37925D01*
X15941Y37964D01*
X15903D01*
X15865D01*
X15674Y37925D01*
X15445Y37849D01*
X15215Y37734D01*
X15024Y37543D01*
X14795Y37314D01*
X14566Y37047D01*
X14146Y36398D01*
X13726Y35634D01*
X13306Y34794D01*
X12924Y33915D01*
X12542Y32961D01*
X12199Y32044D01*
X11893Y31166D01*
X11626Y30325D01*
X11358Y29562D01*
X11167Y28912D01*
X11091Y28645D01*
X11015Y28416D01*
X10976Y28225D01*
X10938Y28111D01*
X10900Y28034D01*
Y27690D01*
X10976Y27347D01*
X11129Y26927D01*
X11396Y26468D01*
X11702Y26010D01*
X11969Y25552D01*
X12237Y25208D01*
X12313Y25055D01*
X12389Y24941D01*
X12466Y24903D01*
Y24864D01*
X12771Y23833D01*
X13077Y22917D01*
X13382Y22153D01*
X13688Y21504D01*
X13955Y20931D01*
X14222Y20434D01*
X14490Y20052D01*
X14719Y19747D01*
X14948Y19518D01*
X15139Y19327D01*
X15292Y19212D01*
X15445Y19098D01*
X15636Y19021D01*
X15712D01*
X15865Y19060D01*
X16094Y19136D01*
X16399Y19250D01*
X16743Y19365D01*
X17049Y19518D01*
X17316Y19632D01*
X17507Y19709D01*
X17583Y19747D01*
X17698D01*
X17469Y19212D01*
X17316Y18639D01*
X17163Y18105D01*
X17087Y17647D01*
X17049Y17226D01*
X17010Y16883D01*
Y16157D01*
X17049Y15699D01*
X17087Y15279D01*
X17201Y14859D01*
X17316Y14477D01*
X17392Y14171D01*
X17507Y13942D01*
X17545Y13789D01*
X17583Y13751D01*
X17851Y13178D01*
X18194Y12682D01*
X18538Y12224D01*
X18958Y11842D01*
X19378Y11536D01*
X19798Y11269D01*
X20218Y11040D01*
X20639Y10887D01*
X21058Y10734D01*
X21440Y10658D01*
X21784Y10581D01*
X22090Y10505D01*
X22357D01*
X22548Y10467D01*
X10900D01*
D01*
X37213D01*
Y46900D01*
D02*
G37*
%LPD*%
G36*
X23312Y43883D02*
X23655Y43807D01*
X23961Y43654D01*
X24228Y43463D01*
X24725Y43043D01*
X25145Y42508D01*
X25450Y41974D01*
X25641Y41553D01*
X25718Y41363D01*
X25794Y41210D01*
X25832Y41133D01*
Y40217D01*
X25679Y39720D01*
X25527Y39338D01*
X25374Y39071D01*
X25259Y38880D01*
X25145Y38765D01*
X25069Y38727D01*
X24992Y38689D01*
X24687D01*
X23770Y38651D01*
X22930Y38536D01*
X22204Y38422D01*
X21593Y38231D01*
X21097Y38078D01*
X20715Y37964D01*
X20486Y37849D01*
X20448Y37811D01*
X20409D01*
X19989Y38040D01*
X19646Y38307D01*
X19416Y38575D01*
X19264Y38804D01*
X19187Y39033D01*
X19149Y39224D01*
X19111Y39338D01*
Y40102D01*
X19149Y40599D01*
X19264Y41057D01*
X19416Y41477D01*
X19646Y41859D01*
X19913Y42203D01*
X20218Y42508D01*
X20829Y43043D01*
X21479Y43425D01*
X21746Y43578D01*
X22013Y43692D01*
X22242Y43807D01*
X22395Y43883D01*
X22510Y43921D01*
X22548D01*
X22968D01*
X23312Y43883D01*
D02*
G37*
G36*
X23388Y32693D02*
X22701Y32808D01*
X22281D01*
X21746Y32770D01*
X21288Y32617D01*
X20982Y32464D01*
X20715Y32235D01*
X20562Y32044D01*
X20486Y31853D01*
X20409Y31739D01*
Y31700D01*
X20448Y31471D01*
X20486Y31280D01*
X20715Y30937D01*
X21020Y30707D01*
X21364Y30555D01*
X21708Y30478D01*
X21975Y30402D01*
X22204D01*
X22242D01*
X22281D01*
X23388Y30669D01*
X23579D01*
X23503Y30402D01*
X23426Y30173D01*
X23350Y30020D01*
X23274Y29944D01*
X23235Y29867D01*
X23159Y29829D01*
X23121D01*
X22701D01*
X22166Y29906D01*
X21708Y29982D01*
X21288Y30096D01*
X20944Y30211D01*
X20677Y30364D01*
X20409Y30516D01*
X20218Y30669D01*
X20066Y30860D01*
X19837Y31166D01*
X19722Y31433D01*
X19684Y31624D01*
Y31853D01*
X19875Y32159D01*
X20104Y32388D01*
X20639Y32808D01*
X21211Y33113D01*
X21822Y33304D01*
X22395Y33457D01*
X22853Y33495D01*
X23006Y33533D01*
X23159D01*
X23235D01*
X23274D01*
X23388D01*
Y32693D01*
D02*
G37*
G36*
X22815Y34794D02*
X22930Y34679D01*
X23121Y34450D01*
X23235Y34221D01*
X23274Y34144D01*
Y34106D01*
X22395Y33877D01*
X21670Y33610D01*
X21020Y33342D01*
X20524Y33113D01*
X20142Y32884D01*
X19875Y32693D01*
X19722Y32579D01*
X19684Y32541D01*
Y32693D01*
X19722Y33075D01*
X19798Y33381D01*
X19951Y33686D01*
X20142Y33915D01*
X20600Y34297D01*
X21135Y34565D01*
X21631Y34717D01*
X22090Y34794D01*
X22281Y34832D01*
X22433D01*
X22510D01*
X22548D01*
X22701D01*
X22815Y34794D01*
D02*
G37*
G36*
X22701Y31662D02*
X22777Y31548D01*
X22853Y31433D01*
Y30975D01*
X21975D01*
Y31395D01*
X22013Y31548D01*
X22128Y31624D01*
X22242Y31700D01*
X22281D01*
X22548D01*
X22701Y31662D01*
D02*
G37*
G36*
X24076Y33304D02*
X24457Y33190D01*
X24725Y33113D01*
X24992Y32961D01*
X25221Y32846D01*
X25412Y32732D01*
X25679Y32464D01*
X25832Y32235D01*
X25909Y32044D01*
X25947Y31891D01*
Y31853D01*
X25909Y31624D01*
X25870Y31395D01*
X25603Y31013D01*
X25298Y30707D01*
X24916Y30440D01*
X24496Y30249D01*
X24190Y30096D01*
X23923Y30020D01*
X23885Y29982D01*
X23846D01*
X23694D01*
X23732Y30287D01*
X23770Y30593D01*
X23999Y31128D01*
X24076Y31357D01*
X24190Y31548D01*
X24228Y31662D01*
X24266Y31700D01*
X24228Y31853D01*
X24190Y32006D01*
X23999Y32311D01*
X23885Y32464D01*
X23770Y32579D01*
X23732Y32655D01*
X23694Y32693D01*
Y33381D01*
X24076Y33304D01*
D02*
G37*
G36*
X21211Y29753D02*
X21479Y29676D01*
X22051Y29600D01*
X22281Y29562D01*
X22510D01*
X22662D01*
X22701D01*
Y29409D01*
X21822D01*
X20868Y29715D01*
Y29829D01*
X20982D01*
X21211Y29753D01*
D02*
G37*
G36*
X22395Y27767D02*
X22624Y27690D01*
X22777Y27614D01*
X22853Y27576D01*
X22930Y27499D01*
X22968Y27461D01*
Y27423D01*
X22472Y27385D01*
X21975Y27308D01*
X21555Y27194D01*
X21173Y27041D01*
X20868Y26927D01*
X20600Y26812D01*
X20448Y26736D01*
X20409Y26697D01*
X20295D01*
X20600Y27079D01*
X20906Y27347D01*
X21211Y27576D01*
X21479Y27690D01*
X21746Y27767D01*
X21937Y27805D01*
X22090Y27843D01*
X22128D01*
X22395Y27767D01*
D02*
G37*
G36*
X23579Y26277D02*
Y26163D01*
X23159Y26316D01*
X22777Y26392D01*
X22624Y26430D01*
X22510D01*
X22433D01*
X22395D01*
X22281D01*
X21860Y26392D01*
X21517Y26277D01*
X21211Y26163D01*
X20982Y25972D01*
X20791Y25819D01*
X20677Y25705D01*
X20600Y25590D01*
X20562Y25552D01*
Y24979D01*
X20829Y24673D01*
X21135Y24444D01*
X21440Y24253D01*
X21708Y24139D01*
X21975Y24062D01*
X22204Y24024D01*
X22357D01*
X22395D01*
X23388Y24139D01*
Y23451D01*
X22548D01*
X22166Y23490D01*
X21822Y23528D01*
X21249Y23719D01*
X20791Y24024D01*
X20409Y24368D01*
X20142Y24712D01*
X19989Y24979D01*
X19875Y25208D01*
X19837Y25246D01*
Y25284D01*
X19875Y25590D01*
X19951Y25857D01*
X20104Y26087D01*
X20256Y26277D01*
X20677Y26583D01*
X21211Y26774D01*
X21708Y26927D01*
X22128Y26965D01*
X22281Y27003D01*
X22433D01*
X22510D01*
X22548D01*
X23388D01*
X23579Y26277D01*
D02*
G37*
G36*
X22853Y25972D02*
X22930Y25857D01*
X22968Y25743D01*
Y25552D01*
X22930Y25399D01*
X22853Y25323D01*
X22739Y25284D01*
X22701D01*
X22128D01*
Y25705D01*
X22166Y25857D01*
X22281Y25934D01*
X22357Y26010D01*
X22395D01*
X22701D01*
X22853Y25972D01*
D02*
G37*
G36*
X24114Y26850D02*
X24496Y26736D01*
X24801Y26583D01*
X25069Y26430D01*
X25336Y26316D01*
X25527Y26163D01*
X25794Y25896D01*
X25985Y25628D01*
X26061Y25437D01*
X26100Y25323D01*
Y25284D01*
X26061Y25017D01*
X25985Y24750D01*
X25870Y24559D01*
X25718Y24368D01*
X25336Y24024D01*
X24916Y23795D01*
X24457Y23642D01*
X24076Y23528D01*
X23923Y23490D01*
X23808Y23451D01*
X23732D01*
X23694D01*
Y24139D01*
X23732Y24177D01*
X23770Y24292D01*
X23999Y24521D01*
X24190Y24750D01*
X24228Y24826D01*
X24266Y24864D01*
Y25552D01*
X23999Y25972D01*
X23808Y26392D01*
X23770Y26583D01*
X23732Y26697D01*
X23694Y26812D01*
Y27003D01*
X24114Y26850D01*
D02*
G37*
G36*
X20868Y23566D02*
X21249Y23451D01*
X21631Y23337D01*
X21899Y23260D01*
X22166Y23146D01*
X22395Y23069D01*
X22586Y23031D01*
X22853Y22917D01*
X23006Y22802D01*
X23083Y22764D01*
X23121Y22726D01*
X23083Y22649D01*
X23044Y22573D01*
X22853Y22420D01*
X22624Y22306D01*
X22586Y22267D01*
X22548D01*
X22051Y22306D01*
X21593Y22344D01*
X21211Y22458D01*
X20906Y22611D01*
X20600Y22764D01*
X20371Y22955D01*
X20180Y23146D01*
X20027Y23337D01*
X19837Y23719D01*
X19722Y24062D01*
X19684Y24330D01*
Y24559D01*
X20868Y23566D01*
D02*
G37*
G36*
X16017Y37047D02*
X16285Y37009D01*
X16514Y36932D01*
X16743Y36818D01*
X16896Y36703D01*
X17010Y36627D01*
X17087Y36589D01*
X17125Y36551D01*
X17316Y36054D01*
X17469Y35596D01*
X17621Y35214D01*
X17774Y34908D01*
X17927Y34603D01*
X18042Y34374D01*
X18156Y34183D01*
X18271Y34030D01*
X18462Y33839D01*
X18614Y33724D01*
X18691Y33686D01*
X18729D01*
X18844Y33724D01*
X18996Y33763D01*
X19073Y33801D01*
X19111Y33839D01*
X19455Y34144D01*
X19798Y34450D01*
X20562Y34908D01*
X21402Y35214D01*
X22166Y35443D01*
X22853Y35558D01*
X23159Y35634D01*
X23426D01*
X23655Y35672D01*
X23808D01*
X23923D01*
X23961D01*
X24916Y35634D01*
X25756Y35519D01*
X26520Y35367D01*
X27169Y35176D01*
X27742Y34908D01*
X28238Y34641D01*
X28658Y34336D01*
X29040Y34030D01*
X29308Y33763D01*
X29575Y33457D01*
X29766Y33190D01*
X29880Y32923D01*
X29995Y32732D01*
X30071Y32579D01*
X30110Y32464D01*
Y32426D01*
X29880Y31586D01*
X29689Y30784D01*
X29575Y30058D01*
X29460Y29409D01*
X29422Y28912D01*
X29384Y28492D01*
Y27843D01*
X29460Y27385D01*
X29537Y26965D01*
X29575Y26583D01*
X29613Y26277D01*
X29651Y26010D01*
X29689Y25743D01*
X29766Y25399D01*
Y25170D01*
X29804Y25055D01*
Y24559D01*
X29575Y24024D01*
X29308Y23566D01*
X28964Y23184D01*
X28582Y22840D01*
X28162Y22535D01*
X27742Y22306D01*
X27322Y22115D01*
X26863Y21962D01*
X26061Y21733D01*
X25679Y21656D01*
X25336Y21618D01*
X25069Y21580D01*
X24878D01*
X24725D01*
X24687D01*
X22281Y21886D01*
Y22000D01*
X22662Y22038D01*
X22930Y22115D01*
X23121Y22229D01*
X23235Y22344D01*
X23350Y22497D01*
X23388Y22611D01*
Y22726D01*
X24037Y22840D01*
X24610Y22955D01*
X25107Y23108D01*
X25565Y23260D01*
X25909Y23451D01*
X26214Y23604D01*
X26482Y23795D01*
X26673Y23986D01*
X26825Y24139D01*
X26940Y24330D01*
X27093Y24597D01*
X27131Y24788D01*
Y24864D01*
X27093Y25170D01*
X26978Y25475D01*
X26825Y25743D01*
X26634Y26010D01*
X26367Y26201D01*
X26100Y26430D01*
X25489Y26736D01*
X24878Y26965D01*
X24610Y27079D01*
X24343Y27156D01*
X24152Y27194D01*
X23999Y27232D01*
X23885Y27270D01*
X23846D01*
X23464Y27576D01*
X23159Y27767D01*
X22892Y27920D01*
X22662Y28034D01*
X22510Y28111D01*
X22395Y28149D01*
X22319D01*
X22281D01*
Y28989D01*
X22548Y29065D01*
X22777Y29103D01*
X22930Y29180D01*
X23006Y29256D01*
X23083Y29333D01*
X23121Y29371D01*
Y29409D01*
X23808Y29600D01*
X24381Y29791D01*
X24916Y29982D01*
X25336Y30211D01*
X25718Y30402D01*
X26023Y30631D01*
X26291Y30822D01*
X26482Y31013D01*
X26673Y31204D01*
X26787Y31395D01*
X26902Y31700D01*
X26978Y31891D01*
Y32273D01*
X26863Y32579D01*
X26673Y32884D01*
X26252Y33342D01*
X25756Y33648D01*
X25259Y33877D01*
X24763Y33992D01*
X24343Y34068D01*
X24190Y34106D01*
X24076D01*
X23999D01*
X23961D01*
X23808Y34144D01*
X23655Y34259D01*
X23464Y34412D01*
X23312Y34603D01*
X23121Y34794D01*
X22968Y34947D01*
X22892Y35061D01*
X22853Y35099D01*
X22281D01*
X21746Y35061D01*
X21288Y34985D01*
X20868Y34870D01*
X20524Y34679D01*
X20256Y34488D01*
X19989Y34297D01*
X19798Y34068D01*
X19646Y33801D01*
X19416Y33342D01*
X19302Y32923D01*
Y32770D01*
X19264Y32655D01*
Y32541D01*
X19302Y32235D01*
Y31968D01*
X19378Y31548D01*
X19455Y31242D01*
X19531Y31051D01*
X19569Y30898D01*
X19646Y30860D01*
X19684Y30822D01*
X19722Y30669D01*
X19798Y30478D01*
X20027Y30135D01*
X20333Y29791D01*
X20715Y29485D01*
X21097Y29218D01*
X21402Y29027D01*
X21631Y28874D01*
X21670Y28836D01*
X21708D01*
Y28149D01*
X21288Y27958D01*
X20906Y27767D01*
X20562Y27499D01*
X20295Y27270D01*
X20066Y26965D01*
X19875Y26697D01*
X19569Y26125D01*
X19378Y25590D01*
X19302Y25132D01*
X19264Y24941D01*
Y24712D01*
X19302Y24406D01*
X19340Y24139D01*
X19493Y23642D01*
X19569Y23451D01*
X19607Y23299D01*
X19684Y23184D01*
Y22993D01*
X18423Y23871D01*
X18156Y23299D01*
X18042Y22688D01*
X17927Y22191D01*
X17774Y21733D01*
X17621Y21351D01*
X17469Y21007D01*
X17316Y20740D01*
X17163Y20511D01*
X17010Y20320D01*
X16858Y20167D01*
X16743Y20091D01*
X16514Y19938D01*
X16361Y19900D01*
X16285D01*
X15865D01*
X15559Y19938D01*
X15292Y20091D01*
X15024Y20358D01*
X14757Y20663D01*
X14528Y21007D01*
X14299Y21427D01*
X13879Y22306D01*
X13535Y23184D01*
X13382Y23604D01*
X13268Y23948D01*
X13153Y24253D01*
X13115Y24521D01*
X13039Y24673D01*
Y24712D01*
X12733Y25170D01*
X12466Y25552D01*
X12237Y25896D01*
X12046Y26201D01*
X11893Y26468D01*
X11740Y26697D01*
X11549Y27079D01*
X11396Y27308D01*
X11358Y27461D01*
X11320Y27538D01*
Y27576D01*
X11358Y27958D01*
X11473Y28416D01*
X11626Y28874D01*
X11817Y29294D01*
X12008Y29676D01*
X12160Y30020D01*
X12275Y30211D01*
X12313Y30249D01*
Y30287D01*
X12466Y30898D01*
X12619Y31471D01*
X12924Y32541D01*
X13230Y33419D01*
X13535Y34221D01*
X13802Y34870D01*
X14108Y35443D01*
X14375Y35863D01*
X14604Y36245D01*
X14834Y36512D01*
X15063Y36742D01*
X15254Y36894D01*
X15406Y36971D01*
X15521Y37047D01*
X15636Y37085D01*
X15674D01*
X15712D01*
X16017Y37047D01*
D02*
G37*
G36*
X23274Y18868D02*
X23808Y18830D01*
X24266Y18792D01*
X24648Y18716D01*
X24992Y18563D01*
X25298Y18448D01*
X25527Y18296D01*
X25718Y18105D01*
X25870Y17952D01*
X26100Y17608D01*
X26214Y17303D01*
X26252Y17112D01*
Y16730D01*
X26214Y16310D01*
X26138Y15928D01*
X25985Y15546D01*
X25794Y15240D01*
X25336Y14668D01*
X24839Y14209D01*
X24305Y13904D01*
X23846Y13675D01*
X23655Y13560D01*
X23503Y13522D01*
X23426Y13484D01*
X23388D01*
X22815Y13522D01*
X22281Y13675D01*
X21784Y13866D01*
X21402Y14133D01*
X21020Y14477D01*
X20677Y14820D01*
X20409Y15240D01*
X20180Y15622D01*
X19989Y16004D01*
X19798Y16424D01*
X19684Y16768D01*
X19569Y17074D01*
X19493Y17379D01*
X19455Y17570D01*
X19416Y17723D01*
Y17761D01*
X19455Y18181D01*
X19607Y18525D01*
X19798Y18830D01*
X19989Y19060D01*
X20218Y19212D01*
X20371Y19327D01*
X20524Y19403D01*
X20562Y19441D01*
X23274Y18868D01*
D02*
G37*
G36*
X36946Y26697D02*
X37098Y26736D01*
X37175Y26850D01*
X37213Y26965D01*
Y10467D01*
X23274D01*
X24228Y10505D01*
X25069Y10658D01*
X25832Y10925D01*
X26482Y11231D01*
X27093Y11574D01*
X27627Y11994D01*
X28047Y12453D01*
X28429Y12873D01*
X28773Y13331D01*
X29040Y13789D01*
X29231Y14209D01*
X29384Y14553D01*
X29498Y14859D01*
X29613Y15126D01*
X29651Y15279D01*
Y16157D01*
X29613Y16768D01*
X29498Y17303D01*
X29346Y17761D01*
X29155Y18143D01*
X28964Y18448D01*
X28811Y18678D01*
X28697Y18830D01*
X28658Y18868D01*
Y19174D01*
X28926Y19212D01*
X29269Y19327D01*
X29613Y19480D01*
X29957Y19670D01*
X30301Y19861D01*
X30568Y20014D01*
X30721Y20129D01*
X30797Y20167D01*
X31102Y20778D01*
X31484Y21313D01*
X31866Y21771D01*
X32248Y22153D01*
X32554Y22458D01*
X32821Y22688D01*
X33012Y22840D01*
X33088Y22878D01*
X33318Y23604D01*
X33547Y24253D01*
X33776Y24788D01*
X33967Y25246D01*
X34158Y25666D01*
X34349Y26010D01*
X34501Y26277D01*
X34654Y26468D01*
X34769Y26659D01*
X34883Y26774D01*
X35074Y26927D01*
X35189Y27003D01*
X35227D01*
X36946Y26697D01*
D02*
G37*
%LPC*%
G36*
X18576Y29562D02*
X18423Y29485D01*
X18347Y29409D01*
X18194Y29256D01*
X18156Y29180D01*
Y29142D01*
X18194Y28951D01*
X18309Y28874D01*
X18385Y28836D01*
X18423D01*
X18844D01*
X18996Y28912D01*
X19073Y28989D01*
X19225Y29142D01*
X19264Y29218D01*
Y29409D01*
X18576Y29562D01*
D02*
G37*
G36*
X17354Y28836D02*
X17316D01*
X16590D01*
X16399Y28798D01*
X16323Y28683D01*
X16285Y28569D01*
Y28531D01*
X16323Y28454D01*
X16399Y28340D01*
X16552Y28302D01*
X16705Y28225D01*
X16858Y28187D01*
X17010D01*
X17087Y28149D01*
X17125D01*
X17278D01*
X17392Y28187D01*
X17545Y28263D01*
X17583Y28378D01*
Y28531D01*
X17545Y28683D01*
X17469Y28798D01*
X17354Y28836D01*
D02*
G37*
G36*
X18805Y30822D02*
X18729D01*
X18423D01*
X18271Y30746D01*
X18194Y30669D01*
X18042Y30516D01*
X18003Y30440D01*
Y30135D01*
X18156Y29829D01*
X18233D01*
X18309Y29906D01*
X18385Y30058D01*
X18423Y30211D01*
Y30287D01*
X18576D01*
X18920Y30020D01*
X19149Y29715D01*
X19340Y29409D01*
X19455Y29065D01*
X19531Y28760D01*
X19569Y28492D01*
Y27996D01*
X19416Y28072D01*
X19302Y28149D01*
X19187Y28302D01*
X19111Y28378D01*
Y28416D01*
X18423Y28263D01*
Y27843D01*
X18462Y27690D01*
X18576Y27614D01*
X18691Y27576D01*
X18729D01*
X18996D01*
X19416Y27843D01*
X19378Y27652D01*
X19340Y27461D01*
X19149Y27194D01*
X18920Y27041D01*
X18882Y27003D01*
X18844D01*
X18576D01*
Y27156D01*
X18538Y27232D01*
X18423Y27385D01*
X18309Y27423D01*
X18271D01*
X18003Y27270D01*
X18042Y27041D01*
X18118Y26850D01*
X18271Y26697D01*
X18423Y26583D01*
X18576Y26507D01*
X18729Y26468D01*
X18805Y26430D01*
X18844D01*
X19073Y26468D01*
X19264Y26507D01*
X19607Y26697D01*
X19837Y27003D01*
X19989Y27347D01*
X20066Y27690D01*
X20142Y27958D01*
Y28722D01*
X20066Y29103D01*
X20027Y29447D01*
X19913Y29753D01*
X19798Y29982D01*
X19684Y30211D01*
X19455Y30516D01*
X19187Y30669D01*
X18958Y30784D01*
X18805Y30822D01*
D02*
G37*
G36*
X15903Y34679D02*
X15865D01*
X15826Y34603D01*
X15788Y34526D01*
X15750D01*
X15712D01*
X15750Y34412D01*
X15788Y34259D01*
X15826Y34144D01*
X15865Y34106D01*
X15750Y33877D01*
X15636Y33648D01*
X15330Y33228D01*
X15215Y33075D01*
X15101Y32923D01*
X15024Y32846D01*
X14986Y32808D01*
X14452Y32273D01*
X13955Y31777D01*
X13535Y31280D01*
X13191Y30822D01*
X12886Y30440D01*
X12657Y30058D01*
X12428Y29676D01*
X12275Y29371D01*
X12046Y28836D01*
X11931Y28454D01*
Y28340D01*
X11893Y28225D01*
Y28149D01*
X12008Y27423D01*
X12046Y27308D01*
X12199Y27118D01*
X12389Y26850D01*
X12695Y26545D01*
X13001Y26163D01*
X13344Y25781D01*
X14146Y24941D01*
X14948Y24101D01*
X15292Y23719D01*
X15636Y23413D01*
X15903Y23108D01*
X16094Y22917D01*
X16247Y22764D01*
X16285Y22726D01*
X16132Y22420D01*
X16170Y22267D01*
X16285Y22191D01*
X16399Y22153D01*
X16438D01*
X16590D01*
X16667Y22191D01*
X16743Y22229D01*
X16858Y22420D01*
X16972Y22649D01*
X17010Y22688D01*
Y22726D01*
X16705Y23146D01*
X16438Y23566D01*
X16017Y24521D01*
X15712Y25475D01*
X15521Y26354D01*
X15445Y26774D01*
X15368Y27194D01*
X15330Y27538D01*
Y27843D01*
X15292Y28072D01*
Y28416D01*
X15330Y29562D01*
X15483Y30593D01*
X15712Y31509D01*
X15941Y32311D01*
X16056Y32655D01*
X16170Y32961D01*
X16285Y33228D01*
X16399Y33419D01*
X16476Y33610D01*
X16552Y33724D01*
X16590Y33801D01*
Y33839D01*
X16552Y34068D01*
X16476Y34221D01*
X16247Y34488D01*
X15979Y34641D01*
X15903Y34679D01*
D02*
G37*
%LPD*%
G36*
X13879Y30669D02*
X13841Y30516D01*
X13726Y30440D01*
X13611Y30402D01*
X13573D01*
Y30555D01*
X13611Y30707D01*
X13726Y30784D01*
X13841Y30822D01*
X13879D01*
Y30669D01*
D02*
G37*
G36*
X15139Y31433D02*
X15063Y30822D01*
X14986Y30325D01*
X14910Y29944D01*
Y29638D01*
X14872Y29409D01*
Y28531D01*
X14719Y28263D01*
X14795Y28225D01*
X14872Y28187D01*
Y26850D01*
X14719Y26545D01*
X14834Y26468D01*
X14910Y26316D01*
X14986Y26048D01*
X15063Y25743D01*
X15101Y25475D01*
X15139Y25208D01*
X15177Y25055D01*
Y24979D01*
X14986Y25017D01*
X14834Y25093D01*
X14681Y25208D01*
X14566Y25323D01*
X14375Y25705D01*
X14222Y26125D01*
X14108Y26545D01*
X14070Y26927D01*
X14032Y27041D01*
Y27270D01*
X13726D01*
Y26545D01*
X13420D01*
X13191Y26812D01*
X13039Y27041D01*
X12886Y27308D01*
X12810Y27538D01*
X12771Y27729D01*
X12733Y27881D01*
Y28149D01*
X12848Y28416D01*
X12771D01*
X12733Y28454D01*
Y28683D01*
X12810Y29218D01*
X12924Y29600D01*
X13039Y29906D01*
X13153Y30096D01*
X13268Y30211D01*
X13344Y30249D01*
X13382Y30287D01*
X13420D01*
X13726D01*
Y29562D01*
X14032D01*
Y29791D01*
X14070Y29982D01*
X14108Y30211D01*
X14146Y30364D01*
Y30402D01*
X14032D01*
X14070Y30784D01*
X14222Y31128D01*
X14413Y31433D01*
X14681Y31662D01*
X14910Y31853D01*
X15101Y32006D01*
X15254Y32082D01*
X15292Y32120D01*
X15139Y31433D01*
D02*
G37*
%LPC*%
G36*
X13879Y29256D02*
X13573D01*
Y28531D01*
X13420Y28263D01*
X13459Y28225D01*
X13497Y28149D01*
X13573Y27920D01*
Y27576D01*
X13879D01*
Y27805D01*
X13917Y27996D01*
X13955Y28225D01*
X13993Y28378D01*
X14032Y28416D01*
X13955D01*
X13917Y28454D01*
X13879Y28492D01*
Y29256D01*
D02*
G37*
G36*
X18629Y94242D02*
X17600D01*
X16572D01*
Y92185D01*
X17600D01*
X18629D01*
Y94242D01*
D02*
G37*
G36*
Y77783D02*
X18286D01*
X17943D01*
Y75725D01*
X18286D01*
X18629D01*
Y77783D01*
D02*
G37*
G36*
X25071Y64500D02*
X15702D01*
Y62626D01*
X14766D01*
X13829D01*
Y60752D01*
X12892D01*
X11955D01*
Y51383D01*
Y53257D01*
X12892D01*
X13829D01*
Y51383D01*
X11955D01*
X18513D01*
X15702D01*
Y55131D01*
X14766D01*
X13829D01*
Y58879D01*
X14766D01*
X15702D01*
Y60752D01*
X18513D01*
X21324D01*
Y58879D01*
X22261D01*
X23198D01*
Y55131D01*
X22261D01*
X21324D01*
Y51383D01*
X23198D01*
Y53257D01*
X24135D01*
X25071D01*
Y60752D01*
X24135D01*
X23198D01*
Y62626D01*
X22261D01*
X21324D01*
Y64500D01*
X25071D01*
D02*
G37*
G36*
X-6918Y47504D02*
X-6948D01*
X-6970Y47501D01*
X-6998Y47498D01*
X-7028Y47493D01*
X-7062Y47485D01*
X-7101Y47476D01*
X-7139Y47465D01*
X-7181Y47451D01*
X-7225Y47432D01*
X-7267Y47410D01*
X-7311Y47385D01*
X-7353Y47354D01*
X-7391Y47321D01*
X-7430Y47282D01*
X-7433Y47280D01*
X-7439Y47271D01*
X-7447Y47260D01*
X-7461Y47241D01*
X-7474Y47219D01*
X-7491Y47191D01*
X-7508Y47158D01*
X-7527Y47119D01*
X-7544Y47075D01*
X-7563Y47025D01*
X-7580Y46969D01*
X-7594Y46911D01*
X-7608Y46848D01*
X-7616Y46775D01*
X-7621Y46701D01*
X-7624Y46620D01*
Y46615D01*
Y46601D01*
Y46579D01*
X-7621Y46545D01*
X-7619Y46510D01*
X-7613Y46468D01*
X-7608Y46418D01*
X-7599Y46368D01*
X-7591Y46316D01*
X-7577Y46260D01*
X-7560Y46205D01*
X-7541Y46149D01*
X-7519Y46094D01*
X-7494Y46041D01*
X-7463Y45994D01*
X-7430Y45950D01*
X-7427Y45947D01*
X-7422Y45942D01*
X-7411Y45931D01*
X-7394Y45917D01*
X-7375Y45897D01*
X-7353Y45881D01*
X-7325Y45859D01*
X-7294Y45839D01*
X-7258Y45820D01*
X-7222Y45798D01*
X-7181Y45781D01*
X-7136Y45764D01*
X-7090Y45748D01*
X-7040Y45737D01*
X-6987Y45731D01*
X-6932Y45728D01*
X-6912D01*
X-6890Y45731D01*
X-6862Y45734D01*
X-6832Y45737D01*
X-6796Y45745D01*
X-6760Y45753D01*
X-6721Y45764D01*
X-6724D01*
X-6729Y45770D01*
X-6738Y45775D01*
X-6749Y45781D01*
X-6763Y45789D01*
X-6779Y45800D01*
X-6821Y45823D01*
X-6868Y45847D01*
X-6923Y45875D01*
X-6979Y45903D01*
X-7040Y45925D01*
X-6896Y46224D01*
X-6893D01*
X-6884Y46221D01*
X-6871Y46216D01*
X-6851Y46208D01*
X-6829Y46199D01*
X-6801Y46188D01*
X-6774Y46174D01*
X-6740Y46158D01*
X-6666Y46122D01*
X-6583Y46075D01*
X-6497Y46022D01*
X-6411Y45958D01*
X-6405Y45964D01*
X-6394Y45981D01*
X-6378Y46003D01*
X-6355Y46039D01*
X-6330Y46077D01*
X-6306Y46127D01*
X-6281Y46180D01*
X-6261Y46241D01*
Y46244D01*
X-6259Y46249D01*
X-6256Y46257D01*
X-6253Y46271D01*
X-6250Y46285D01*
X-6245Y46305D01*
X-6239Y46327D01*
X-6233Y46352D01*
X-6225Y46407D01*
X-6217Y46474D01*
X-6211Y46545D01*
X-6209Y46623D01*
Y46629D01*
Y46643D01*
Y46665D01*
X-6211Y46695D01*
X-6214Y46731D01*
X-6220Y46775D01*
X-6225Y46820D01*
X-6233Y46870D01*
X-6245Y46922D01*
X-6256Y46978D01*
X-6272Y47033D01*
X-6292Y47089D01*
X-6314Y47141D01*
X-6342Y47191D01*
X-6369Y47238D01*
X-6405Y47282D01*
X-6408Y47285D01*
X-6414Y47291D01*
X-6425Y47302D01*
X-6441Y47318D01*
X-6461Y47335D01*
X-6483Y47352D01*
X-6510Y47374D01*
X-6544Y47393D01*
X-6577Y47412D01*
X-6616Y47435D01*
X-6660Y47451D01*
X-6704Y47471D01*
X-6754Y47485D01*
X-6804Y47496D01*
X-6860Y47501D01*
X-6918Y47504D01*
D02*
G37*
G36*
X47368Y122464D02*
X47323D01*
X47290Y122459D01*
X47249Y122455D01*
X47204Y122447D01*
X47151Y122435D01*
X47098Y122423D01*
X47036Y122406D01*
X46975Y122386D01*
X46913Y122357D01*
X46848Y122324D01*
X46786Y122287D01*
X46720Y122242D01*
X46663Y122193D01*
X46606Y122136D01*
X46602Y122132D01*
X46593Y122119D01*
X46581Y122103D01*
X46561Y122074D01*
X46540Y122041D01*
X46516Y122000D01*
X46491Y121951D01*
X46462Y121894D01*
X46438Y121828D01*
X46409Y121754D01*
X46384Y121676D01*
X46364Y121586D01*
X46343Y121492D01*
X46331Y121389D01*
X46323Y121279D01*
X46319Y121160D01*
Y121152D01*
Y121131D01*
X46323Y121098D01*
Y121053D01*
X46327Y121000D01*
X46335Y120938D01*
X46343Y120869D01*
X46356Y120795D01*
X46372Y120717D01*
X46393Y120639D01*
X46413Y120557D01*
X46442Y120475D01*
X46479Y120397D01*
X46516Y120323D01*
X46561Y120250D01*
X46614Y120184D01*
X46618Y120180D01*
X46626Y120172D01*
X46643Y120155D01*
X46667Y120131D01*
X46696Y120106D01*
X46733Y120077D01*
X46774Y120049D01*
X46819Y120020D01*
X46872Y119987D01*
X46930Y119958D01*
X46991Y119930D01*
X47057Y119905D01*
X47126Y119885D01*
X47204Y119868D01*
X47286Y119856D01*
X47368Y119852D01*
X47389D01*
X47413Y119856D01*
X47446D01*
X47483Y119860D01*
X47528Y119868D01*
X47577Y119881D01*
X47635Y119893D01*
X47692Y119909D01*
X47750Y119934D01*
X47815Y119958D01*
X47877Y119991D01*
X47938Y120028D01*
X48000Y120073D01*
X48061Y120123D01*
X48119Y120180D01*
X48123Y120184D01*
X48131Y120196D01*
X48147Y120213D01*
X48164Y120241D01*
X48188Y120274D01*
X48213Y120319D01*
X48237Y120369D01*
X48266Y120426D01*
X48295Y120492D01*
X48320Y120565D01*
X48344Y120647D01*
X48369Y120733D01*
X48385Y120832D01*
X48401Y120934D01*
X48410Y121049D01*
X48414Y121168D01*
Y121176D01*
Y121197D01*
Y121230D01*
X48410Y121275D01*
X48406Y121328D01*
X48397Y121389D01*
X48389Y121459D01*
X48377Y121533D01*
X48365Y121611D01*
X48344Y121693D01*
X48320Y121775D01*
X48295Y121853D01*
X48258Y121931D01*
X48221Y122004D01*
X48176Y122078D01*
X48127Y122140D01*
X48123Y122144D01*
X48114Y122152D01*
X48098Y122168D01*
X48074Y122189D01*
X48045Y122213D01*
X48012Y122242D01*
X47971Y122271D01*
X47926Y122304D01*
X47873Y122332D01*
X47815Y122361D01*
X47754Y122390D01*
X47684Y122414D01*
X47614Y122435D01*
X47536Y122451D01*
X47454Y122459D01*
X47368Y122464D01*
D02*
G37*
G36*
X-6400Y119604D02*
X-9603D01*
X-8052D01*
X-8132Y119601D01*
X-8204Y119594D01*
X-8277Y119587D01*
X-8343Y119580D01*
X-8406Y119570D01*
X-8465Y119559D01*
X-8517Y119552D01*
X-8562Y119542D01*
X-8603Y119532D01*
X-8642Y119521D01*
X-8669Y119514D01*
X-8694Y119507D01*
X-8711Y119500D01*
X-8721Y119497D01*
X-8725D01*
X-8836Y119455D01*
X-8937Y119406D01*
X-9027Y119354D01*
X-9065Y119330D01*
X-9100Y119306D01*
X-9134Y119282D01*
X-9162Y119261D01*
X-9186Y119240D01*
X-9207Y119226D01*
X-9225Y119212D01*
X-9235Y119202D01*
X-9242Y119195D01*
X-9245Y119191D01*
X-9318Y119112D01*
X-9381Y119032D01*
X-9433Y118952D01*
X-9471Y118876D01*
X-9502Y118810D01*
X-9516Y118782D01*
X-9523Y118758D01*
X-9530Y118737D01*
X-9537Y118723D01*
X-9540Y118712D01*
Y118709D01*
X-9551Y118667D01*
X-9561Y118622D01*
X-9575Y118525D01*
X-9589Y118424D01*
X-9596Y118327D01*
X-9599Y118282D01*
Y118202D01*
X-9603Y118168D01*
Y118605D01*
Y116922D01*
X-6400D01*
Y118202D01*
X-6403Y118265D01*
X-6407Y118324D01*
X-6410Y118376D01*
X-6414Y118428D01*
X-6421Y118477D01*
X-6428Y118518D01*
X-6435Y118556D01*
X-6438Y118591D01*
X-6445Y118622D01*
X-6452Y118650D01*
X-6455Y118671D01*
X-6459Y118688D01*
X-6463Y118699D01*
X-6466Y118706D01*
Y118709D01*
X-6504Y118810D01*
X-6546Y118900D01*
X-6587Y118976D01*
X-6629Y119042D01*
X-6646Y119070D01*
X-6664Y119094D01*
X-6681Y119112D01*
X-6695Y119129D01*
X-6705Y119143D01*
X-6716Y119153D01*
X-6719Y119157D01*
X-6723Y119160D01*
X-6809Y119240D01*
X-6903Y119309D01*
X-6997Y119368D01*
X-7087Y119417D01*
X-7129Y119438D01*
X-7167Y119455D01*
X-7202Y119469D01*
X-7229Y119483D01*
X-7254Y119490D01*
X-7274Y119497D01*
X-7285Y119504D01*
X-7288D01*
X-7399Y119538D01*
X-7514Y119563D01*
X-7628Y119580D01*
X-7736Y119590D01*
X-7784Y119597D01*
X-7830Y119601D01*
X-7868D01*
X-7903Y119604D01*
X-6400D01*
D02*
G37*
G36*
Y116238D02*
X-9603D01*
Y113698D01*
X-6400D01*
Y114295D01*
X-8503D01*
X-6400Y115593D01*
Y116238D01*
D02*
G37*
G36*
X-6341Y113095D02*
X-9655D01*
X-8114D01*
Y111703D01*
X-7573D01*
Y112442D01*
X-7163D01*
X-7122Y112383D01*
X-7087Y112324D01*
X-7056Y112265D01*
X-7028Y112210D01*
X-7004Y112161D01*
X-6986Y112123D01*
X-6979Y112109D01*
X-6976Y112099D01*
X-6972Y112092D01*
Y112088D01*
X-6945Y112012D01*
X-6927Y111939D01*
X-6914Y111873D01*
X-6903Y111811D01*
X-6896Y111759D01*
Y111734D01*
X-6893Y111717D01*
Y111682D01*
X-6896Y111606D01*
X-6907Y111537D01*
X-6921Y111471D01*
X-6938Y111405D01*
X-6959Y111346D01*
X-6983Y111294D01*
X-7007Y111242D01*
X-7035Y111196D01*
X-7063Y111158D01*
X-7087Y111120D01*
X-7111Y111092D01*
X-7132Y111065D01*
X-7149Y111047D01*
X-7167Y111030D01*
X-7174Y111023D01*
X-7177Y111020D01*
X-7233Y110974D01*
X-7295Y110936D01*
X-7361Y110902D01*
X-7431Y110874D01*
X-7503Y110849D01*
X-7573Y110829D01*
X-7646Y110811D01*
X-7712Y110798D01*
X-7778Y110787D01*
X-7840Y110780D01*
X-7892Y110773D01*
X-7941Y110770D01*
X-7979D01*
X-8010Y110766D01*
X-8027D01*
X-8034D01*
X-8132Y110770D01*
X-8222Y110777D01*
X-8305Y110791D01*
X-8381Y110804D01*
X-8454Y110825D01*
X-8520Y110846D01*
X-8579Y110867D01*
X-8631Y110891D01*
X-8680Y110916D01*
X-8718Y110936D01*
X-8753Y110957D01*
X-8780Y110978D01*
X-8805Y110992D01*
X-8819Y111006D01*
X-8829Y111013D01*
X-8833Y111016D01*
X-8881Y111065D01*
X-8923Y111117D01*
X-8957Y111172D01*
X-8989Y111228D01*
X-9016Y111283D01*
X-9037Y111339D01*
X-9055Y111394D01*
X-9068Y111446D01*
X-9079Y111495D01*
X-9089Y111544D01*
X-9096Y111585D01*
X-9100Y111620D01*
X-9103Y111648D01*
Y111689D01*
X-9096Y111790D01*
X-9082Y111880D01*
X-9058Y111960D01*
X-9034Y112026D01*
X-9020Y112054D01*
X-9009Y112081D01*
X-8996Y112102D01*
X-8985Y112119D01*
X-8978Y112137D01*
X-8971Y112147D01*
X-8964Y112151D01*
Y112154D01*
X-8909Y112220D01*
X-8850Y112272D01*
X-8787Y112317D01*
X-8728Y112352D01*
X-8676Y112380D01*
X-8652Y112390D01*
X-8631Y112397D01*
X-8617Y112404D01*
X-8603Y112408D01*
X-8597Y112411D01*
X-8593D01*
X-8715Y113053D01*
X-8794Y113032D01*
X-8871Y113008D01*
X-8944Y112977D01*
X-9009Y112945D01*
X-9068Y112911D01*
X-9127Y112873D01*
X-9179Y112838D01*
X-9225Y112800D01*
X-9266Y112765D01*
X-9304Y112730D01*
X-9332Y112699D01*
X-9360Y112675D01*
X-9381Y112651D01*
X-9395Y112633D01*
X-9402Y112623D01*
X-9405Y112619D01*
X-9450Y112553D01*
X-9488Y112484D01*
X-9520Y112411D01*
X-9551Y112335D01*
X-9575Y112255D01*
X-9592Y112179D01*
X-9610Y112102D01*
X-9624Y112029D01*
X-9634Y111960D01*
X-9641Y111898D01*
X-9648Y111838D01*
X-9651Y111786D01*
X-9655Y111748D01*
Y110100D01*
D01*
Y111606D01*
X-9648Y111526D01*
X-9641Y111450D01*
X-9631Y111377D01*
X-9617Y111308D01*
X-9603Y111245D01*
X-9589Y111186D01*
X-9575Y111134D01*
X-9561Y111085D01*
X-9547Y111044D01*
X-9533Y111009D01*
X-9520Y110978D01*
X-9509Y110954D01*
X-9502Y110936D01*
X-9499Y110926D01*
X-9495Y110922D01*
X-9454Y110849D01*
X-9409Y110780D01*
X-9363Y110714D01*
X-9315Y110655D01*
X-9263Y110600D01*
X-9214Y110551D01*
X-9166Y110503D01*
X-9117Y110464D01*
X-9072Y110426D01*
X-9030Y110395D01*
X-8992Y110371D01*
X-8961Y110346D01*
X-8933Y110329D01*
X-8912Y110319D01*
X-8898Y110312D01*
X-8895Y110308D01*
X-8822Y110270D01*
X-8746Y110239D01*
X-8669Y110211D01*
X-8593Y110187D01*
X-8517Y110169D01*
X-8444Y110152D01*
X-8371Y110138D01*
X-8305Y110128D01*
X-8243Y110117D01*
X-8187Y110110D01*
X-8135Y110107D01*
X-8090Y110103D01*
X-8055Y110100D01*
X-6341D01*
X-8007D01*
X-7920Y110103D01*
X-7837Y110107D01*
X-7757Y110117D01*
X-7677Y110128D01*
X-7604Y110145D01*
X-7535Y110159D01*
X-7469Y110176D01*
X-7406Y110194D01*
X-7351Y110211D01*
X-7302Y110228D01*
X-7257Y110246D01*
X-7222Y110260D01*
X-7191Y110270D01*
X-7170Y110280D01*
X-7157Y110284D01*
X-7153Y110287D01*
X-7080Y110326D01*
X-7014Y110364D01*
X-6952Y110409D01*
X-6893Y110454D01*
X-6841Y110499D01*
X-6789Y110548D01*
X-6743Y110593D01*
X-6705Y110638D01*
X-6667Y110679D01*
X-6636Y110718D01*
X-6612Y110756D01*
X-6587Y110784D01*
X-6570Y110811D01*
X-6560Y110829D01*
X-6553Y110843D01*
X-6549Y110846D01*
X-6511Y110919D01*
X-6480Y110992D01*
X-6452Y111065D01*
X-6428Y111141D01*
X-6410Y111217D01*
X-6393Y111290D01*
X-6379Y111360D01*
X-6369Y111425D01*
X-6358Y111488D01*
X-6351Y111544D01*
X-6348Y111596D01*
X-6345Y111641D01*
X-6341Y111675D01*
Y111724D01*
X-6345Y111797D01*
X-6348Y111870D01*
X-6365Y112012D01*
X-6376Y112081D01*
X-6390Y112144D01*
X-6403Y112206D01*
X-6417Y112262D01*
X-6431Y112314D01*
X-6442Y112362D01*
X-6455Y112404D01*
X-6466Y112439D01*
X-6476Y112467D01*
X-6483Y112487D01*
X-6490Y112501D01*
Y112505D01*
X-6518Y112574D01*
X-6549Y112640D01*
X-6577Y112703D01*
X-6608Y112758D01*
X-6636Y112813D01*
X-6664Y112862D01*
X-6691Y112904D01*
X-6719Y112945D01*
X-6743Y112980D01*
X-6764Y113011D01*
X-6785Y113036D01*
X-6803Y113056D01*
X-6816Y113074D01*
X-6827Y113084D01*
X-6830Y113091D01*
X-6834Y113095D01*
X-6341D01*
D02*
G37*
%LPD*%
G36*
X-7868Y118935D02*
X-7809Y118931D01*
X-7750Y118928D01*
X-7698Y118924D01*
X-7653Y118917D01*
X-7608Y118910D01*
X-7566Y118907D01*
X-7531Y118900D01*
X-7500Y118893D01*
X-7476Y118886D01*
X-7451Y118883D01*
X-7434Y118879D01*
X-7424Y118876D01*
X-7417Y118872D01*
X-7413D01*
X-7337Y118844D01*
X-7274Y118817D01*
X-7222Y118789D01*
X-7177Y118761D01*
X-7146Y118740D01*
X-7122Y118719D01*
X-7108Y118706D01*
X-7104Y118702D01*
X-7073Y118660D01*
X-7045Y118619D01*
X-7021Y118574D01*
X-7000Y118532D01*
X-6986Y118497D01*
X-6976Y118470D01*
X-6972Y118449D01*
X-6969Y118445D01*
Y118442D01*
X-6966Y118418D01*
X-6959Y118390D01*
X-6952Y118331D01*
X-6948Y118265D01*
X-6945Y118199D01*
X-6941Y118143D01*
Y117567D01*
X-9061D01*
Y117991D01*
X-9058Y118050D01*
Y118105D01*
X-9055Y118154D01*
X-9051Y118199D01*
X-9048Y118237D01*
Y118268D01*
X-9044Y118300D01*
X-9041Y118324D01*
X-9037Y118345D01*
X-9034Y118359D01*
Y118372D01*
X-9030Y118379D01*
Y118386D01*
X-9013Y118452D01*
X-8989Y118511D01*
X-8964Y118563D01*
X-8940Y118605D01*
X-8916Y118640D01*
X-8895Y118667D01*
X-8881Y118681D01*
X-8878Y118688D01*
X-8833Y118730D01*
X-8784Y118768D01*
X-8732Y118799D01*
X-8683Y118824D01*
X-8638Y118844D01*
X-8600Y118862D01*
X-8590Y118865D01*
X-8579Y118869D01*
X-8572Y118872D01*
X-8569D01*
X-8531Y118883D01*
X-8489Y118893D01*
X-8395Y118910D01*
X-8302Y118921D01*
X-8211Y118931D01*
X-8166D01*
X-8128Y118935D01*
X-8093D01*
X-8062Y118938D01*
X-8034D01*
X-8017D01*
X-8003D01*
X-8000D01*
X-7934D01*
X-7868Y118935D01*
D02*
G37*
G36*
X-9603Y114323D02*
Y115642D01*
X-7451D01*
X-9603Y114323D01*
D02*
G37*
%LPC*%
G36*
X6425Y81285D02*
X5774D01*
Y80814D01*
X5776Y80781D01*
Y80706D01*
X5782Y80625D01*
X5787Y80551D01*
X5790Y80518D01*
X5793Y80487D01*
X5799Y80459D01*
X5804Y80440D01*
X5807Y80434D01*
X5810Y80423D01*
X5818Y80407D01*
X5829Y80387D01*
X5843Y80362D01*
X5862Y80337D01*
X5884Y80315D01*
X5912Y80293D01*
X5915Y80290D01*
X5926Y80285D01*
X5943Y80277D01*
X5965Y80265D01*
X5993Y80257D01*
X6026Y80249D01*
X6064Y80243D01*
X6106Y80240D01*
X6109D01*
X6112D01*
X6128D01*
X6150Y80243D01*
X6181Y80249D01*
X6214Y80257D01*
X6247Y80271D01*
X6281Y80288D01*
X6314Y80310D01*
X6317Y80313D01*
X6328Y80324D01*
X6341Y80337D01*
X6355Y80360D01*
X6375Y80387D01*
X6389Y80421D01*
X6402Y80462D01*
X6414Y80506D01*
Y80509D01*
X6416Y80520D01*
Y80542D01*
X6419Y80556D01*
Y80598D01*
X6422Y80625D01*
Y80692D01*
X6425Y80731D01*
Y81285D01*
D02*
G37*
%LPD*%
D10*
X-4851Y42087D02*
G03*
X-4851Y42087I-492J0D01*
G01*
X87406Y114265D02*
G03*
X87406Y114265I-492J0D01*
G01*
X89482Y95611D02*
G03*
X89482Y95611I-492J0D01*
G01*
X58685Y37132D02*
G03*
X58685Y37132I-492J0D01*
G01*
X70279Y126335D02*
G03*
X70279Y126335I-492J0D01*
G01*
X85479Y123787D02*
G03*
X85479Y123787I-492J0D01*
G01*
D11*
X104300Y106580D02*
G03*
X104300Y106580I-200J0D01*
G01*
X97136Y97497D02*
G03*
X97136Y97497I-500J0D01*
G01*
X134144Y69027D02*
X147924D01*
X134144Y79460D02*
X147924D01*
X134144Y69027D02*
Y79460D01*
X147924Y69027D02*
Y79460D01*
X8758Y103980D02*
X41042D01*
Y139413D01*
X8758D02*
X41042D01*
X8758Y103980D02*
Y139413D01*
X44532Y114200D02*
Y136200D01*
X54532Y114200D02*
Y136200D01*
X112810Y100239D02*
Y130161D01*
Y100239D02*
X131432D01*
Y130161D01*
X112810D02*
X131432D01*
D12*
X55929Y32309D02*
G03*
X55929Y32309I-787J0D01*
G01*
D13*
X1645Y28898D02*
Y32244D01*
X-1505Y28898D02*
X1645D01*
Y37756D02*
Y41102D01*
X-1505D02*
X1645D01*
X87701Y120268D02*
X99906D01*
X87701Y116332D02*
X99906D01*
Y120268D01*
X87701Y116332D02*
Y120268D01*
X52109Y14178D02*
X53291D01*
X52109Y11422D02*
X53291D01*
X59380Y45906D02*
Y46694D01*
X56820Y45906D02*
Y46694D01*
X86045Y95611D02*
X86948Y94709D01*
X59389Y95611D02*
X86948D01*
X59389Y68052D02*
X86948D01*
Y95611D01*
X59389Y68052D02*
Y95611D01*
X45594Y34672D02*
X57406D01*
X45594Y22959D02*
X57406D01*
Y34672D01*
X45594Y22959D02*
Y34672D01*
X56795Y120332D02*
X68999D01*
X56795Y124268D02*
X68999D01*
X56795Y120332D02*
Y124268D01*
X68999Y120332D02*
Y124268D01*
X84002Y116798D02*
Y119948D01*
X80656Y116798D02*
X84002D01*
X71798D02*
Y119948D01*
Y116798D02*
X75144D01*
D14*
X93800Y103480D02*
X105300D01*
X93800D02*
Y107780D01*
X105300D01*
Y103480D02*
Y107780D01*
D15*
X99000Y139200D02*
X101000D01*
X91000Y135200D02*
Y138200D01*
X99000Y134200D02*
X101000D01*
X119124Y134300D02*
X121124D01*
X111124Y135300D02*
Y138300D01*
X119124Y139300D02*
X121124D01*
X65311Y113911D02*
X67311D01*
X57311Y109911D02*
Y112911D01*
X65311Y108911D02*
X67311D01*
D16*
X43901Y83932D02*
X45476Y82358D01*
X49019D01*
X43901Y83932D02*
Y84326D01*
Y100074D01*
X45869Y102042D01*
X54531D01*
X56499Y100074D01*
Y84326D02*
Y100074D01*
X54531Y82358D02*
X56499Y84326D01*
X49019Y82358D02*
X54531D01*
M02*
