G04*
G04 #@! TF.GenerationSoftware,Altium Limited,Altium Designer,20.1.14 (287)*
G04*
G04 Layer_Color=12040119*
%FSLAX25Y25*%
%MOIN*%
G70*
G04*
G04 #@! TF.SameCoordinates,CE59E18C-A3DC-4852-8C87-7D8AF6908A11*
G04*
G04*
G04 #@! TF.FilePolarity,Positive*
G04*
G01*
G75*
%ADD12C,0.01000*%
%ADD17R,0.03347X0.02362*%
%ADD18R,0.02165X0.01772*%
%ADD19R,0.01772X0.02165*%
%ADD20C,0.01200*%
%ADD21R,0.03150X0.03543*%
%ADD22R,0.01181X0.05709*%
%ADD23R,0.05906X0.13386*%
%ADD24R,0.03937X0.13780*%
%ADD25R,0.11000X0.02900*%
G04:AMPARAMS|DCode=26|XSize=29mil|YSize=110mil|CornerRadius=7.25mil|HoleSize=0mil|Usage=FLASHONLY|Rotation=270.000|XOffset=0mil|YOffset=0mil|HoleType=Round|Shape=RoundedRectangle|*
%AMROUNDEDRECTD26*
21,1,0.02900,0.09550,0,0,270.0*
21,1,0.01450,0.11000,0,0,270.0*
1,1,0.01450,-0.04775,-0.00725*
1,1,0.01450,-0.04775,0.00725*
1,1,0.01450,0.04775,0.00725*
1,1,0.01450,0.04775,-0.00725*
%
%ADD26ROUNDEDRECTD26*%
%ADD27R,0.10000X0.02900*%
%ADD28R,0.09449X0.07874*%
%ADD29R,0.03937X0.06299*%
%ADD30R,0.05315X0.02756*%
%ADD31R,0.04921X0.05512*%
%ADD32R,0.04724X0.02362*%
%ADD33R,0.05512X0.04921*%
%ADD34R,0.02362X0.03347*%
%ADD35R,0.02362X0.04724*%
%ADD36R,0.11024X0.03937*%
%ADD37R,0.07480X0.05118*%
%ADD38R,0.04724X0.03937*%
%ADD39R,0.03150X0.03937*%
%ADD40R,0.04724X0.02756*%
%ADD41R,0.02055X0.02362*%
%ADD42R,0.02756X0.05610*%
%ADD43R,0.09843X0.05610*%
%ADD44R,0.05512X0.01575*%
%ADD45R,0.04331X0.03150*%
%ADD46R,0.02362X0.02756*%
%ADD47R,0.01968X0.02559*%
%ADD48R,0.03347X0.02756*%
%ADD49R,0.06693X0.03150*%
D12*
X146559Y75237D02*
G03*
X144823Y76974I-2730J-994D01*
G01*
Y71513D02*
G03*
X146559Y73250I-994J2730D01*
G01*
X141099D02*
G03*
X142835Y71513I2730J994D01*
G01*
Y76974D02*
G03*
X141099Y75237I994J-2730D01*
G01*
D17*
X89136Y67769D02*
D03*
X93664D02*
D03*
X54164Y68700D02*
D03*
X49636D02*
D03*
D18*
X51900Y43832D02*
D03*
Y47769D02*
D03*
X47500Y43731D02*
D03*
Y47668D02*
D03*
X82300Y135468D02*
D03*
Y131532D02*
D03*
X127600Y73431D02*
D03*
Y77368D02*
D03*
X60000Y23787D02*
D03*
Y19850D02*
D03*
X76063Y135468D02*
D03*
Y131532D02*
D03*
X60000Y16228D02*
D03*
Y12291D02*
D03*
D19*
X87463Y109300D02*
D03*
X91400D02*
D03*
X87463Y105653D02*
D03*
X91400D02*
D03*
Y102208D02*
D03*
X87463D02*
D03*
D20*
X61357Y70021D02*
D03*
Y71989D02*
D03*
Y73958D02*
D03*
Y77895D02*
D03*
Y79863D02*
D03*
Y81832D02*
D03*
Y83800D02*
D03*
Y85769D02*
D03*
Y89705D02*
D03*
Y91674D02*
D03*
Y93642D02*
D03*
X63326Y70021D02*
D03*
Y71989D02*
D03*
Y73958D02*
D03*
Y77895D02*
D03*
Y79863D02*
D03*
Y81832D02*
D03*
Y83800D02*
D03*
Y85769D02*
D03*
Y89705D02*
D03*
Y91674D02*
D03*
Y93642D02*
D03*
X65294Y70021D02*
D03*
Y71989D02*
D03*
Y81832D02*
D03*
Y91674D02*
D03*
Y93642D02*
D03*
X69231Y70021D02*
D03*
Y71989D02*
D03*
Y77895D02*
D03*
Y79863D02*
D03*
Y81832D02*
D03*
Y83800D02*
D03*
Y85769D02*
D03*
Y91674D02*
D03*
Y93642D02*
D03*
X71200Y70021D02*
D03*
Y71989D02*
D03*
Y77895D02*
D03*
Y79863D02*
D03*
Y83800D02*
D03*
Y85769D02*
D03*
Y91674D02*
D03*
Y93642D02*
D03*
X73168Y70021D02*
D03*
Y71989D02*
D03*
Y73958D02*
D03*
Y77895D02*
D03*
Y79863D02*
D03*
Y83800D02*
D03*
Y85769D02*
D03*
Y89705D02*
D03*
Y91674D02*
D03*
Y93642D02*
D03*
X75137Y70021D02*
D03*
Y71989D02*
D03*
Y77895D02*
D03*
Y79863D02*
D03*
Y83800D02*
D03*
Y85769D02*
D03*
Y91674D02*
D03*
Y93642D02*
D03*
X77105Y70021D02*
D03*
Y71989D02*
D03*
Y77895D02*
D03*
Y79863D02*
D03*
Y81832D02*
D03*
Y83800D02*
D03*
Y85769D02*
D03*
Y91674D02*
D03*
Y93642D02*
D03*
X81042Y70021D02*
D03*
Y71989D02*
D03*
Y81832D02*
D03*
Y91674D02*
D03*
Y93642D02*
D03*
X83011Y70021D02*
D03*
Y71989D02*
D03*
Y73958D02*
D03*
Y77895D02*
D03*
Y79863D02*
D03*
Y81832D02*
D03*
Y83800D02*
D03*
Y85769D02*
D03*
Y89705D02*
D03*
Y91674D02*
D03*
Y93642D02*
D03*
X84979Y70021D02*
D03*
Y71989D02*
D03*
Y73958D02*
D03*
Y77895D02*
D03*
Y79863D02*
D03*
Y81832D02*
D03*
Y83800D02*
D03*
Y85769D02*
D03*
Y89705D02*
D03*
Y91674D02*
D03*
Y93642D02*
D03*
D21*
X55653Y12800D02*
D03*
X49747D02*
D03*
D22*
X47563Y20400D02*
D03*
X49531D02*
D03*
X51500D02*
D03*
X53469D02*
D03*
X55437D02*
D03*
X47563Y37132D02*
D03*
X49531D02*
D03*
X51500D02*
D03*
X53469D02*
D03*
X55437D02*
D03*
D23*
X38089Y110673D02*
D03*
X11711D02*
D03*
D24*
X28837Y132327D02*
D03*
X20963D02*
D03*
D25*
X118500Y73497D02*
D03*
Y78497D02*
D03*
Y83497D02*
D03*
Y88497D02*
D03*
Y93497D02*
D03*
X101500Y88497D02*
D03*
Y78497D02*
D03*
Y83497D02*
D03*
D26*
Y93497D02*
D03*
D27*
Y73497D02*
D03*
D28*
X50200Y84720D02*
D03*
Y99680D02*
D03*
D29*
X49531Y135200D02*
D03*
Y115200D02*
D03*
D30*
X95276Y136700D02*
D03*
X104724D02*
D03*
X61587Y111411D02*
D03*
X71035D02*
D03*
X124849Y136800D02*
D03*
X115400D02*
D03*
D31*
X60055Y134100D02*
D03*
X66945D02*
D03*
X90255Y129000D02*
D03*
X97145D02*
D03*
X41255Y54400D02*
D03*
X48145D02*
D03*
X48345Y62600D02*
D03*
X41455D02*
D03*
X46555Y74700D02*
D03*
X53445D02*
D03*
D32*
X-57Y34924D02*
D03*
X-7143Y31184D02*
D03*
Y38664D02*
D03*
D33*
X105100Y128945D02*
D03*
Y122055D02*
D03*
D34*
X60200Y62864D02*
D03*
Y58336D02*
D03*
X54900Y62928D02*
D03*
Y58400D02*
D03*
X90260Y113871D02*
D03*
X94000D02*
D03*
X97740D02*
D03*
Y122729D02*
D03*
X90260D02*
D03*
X41600Y84936D02*
D03*
Y89464D02*
D03*
Y95036D02*
D03*
Y99564D02*
D03*
X60400Y105864D02*
D03*
Y101336D02*
D03*
X66440Y126729D02*
D03*
X62700D02*
D03*
X58960D02*
D03*
Y117871D02*
D03*
X66440D02*
D03*
X91400Y86336D02*
D03*
Y90864D02*
D03*
X71200Y106558D02*
D03*
Y102031D02*
D03*
X76306D02*
D03*
Y106558D02*
D03*
D35*
X77900Y116700D02*
D03*
X74160Y123787D02*
D03*
X81640D02*
D03*
D36*
X123988Y11503D02*
D03*
D37*
X125760Y64653D02*
D03*
D38*
X83240Y11503D02*
D03*
X66311Y55401D02*
D03*
D39*
X107650Y11503D02*
D03*
D40*
X66311Y18983D02*
D03*
Y23314D02*
D03*
Y27645D02*
D03*
Y31976D02*
D03*
Y36306D02*
D03*
Y40637D02*
D03*
Y44968D02*
D03*
Y49298D02*
D03*
Y15243D02*
D03*
D41*
X135664Y74243D02*
D03*
Y77787D02*
D03*
X138900D02*
D03*
Y70700D02*
D03*
X135664D02*
D03*
D42*
X117653Y128192D02*
D03*
Y102208D02*
D03*
D43*
X125527Y111411D02*
D03*
Y118989D02*
D03*
D44*
X113657Y115200D02*
D03*
Y117759D02*
D03*
Y120318D02*
D03*
Y112641D02*
D03*
Y110082D02*
D03*
D45*
X102500Y109480D02*
D03*
X953Y74700D02*
D03*
D46*
X95800Y109480D02*
D03*
Y102000D02*
D03*
X103287D02*
D03*
D47*
X81142Y102424D02*
D03*
Y106165D02*
D03*
D48*
X58100Y43052D02*
D03*
Y49548D02*
D03*
D49*
X-5543Y81393D02*
D03*
Y68007D02*
D03*
M02*
