M48
;Layer_Color=6321
;FILE_FORMAT=2:5
INCH,LZ
;TYPE=PLATED
T1F00S00C0.00800
T2F00S00C0.02283
T3F00S00C0.03200
T4F00S00C0.03600
T5F00S00C0.03937
T6F00S00C0.07000
;TYPE=NON_PLATED
T7F00S00C0.04000
%
T01
X00045Y0028876
Y0035
X-0000004Y0041793
X00193Y00414
X00195Y00308
X00151Y00317
X0041388Y00316
Y0041199
X0039535Y005085
X00346Y0048285
X0028234Y005128
X0025425Y0065702
X0020963Y0072813
X00334Y00743
X0038089Y0078497
X00431Y00747
X0039Y006925
X00373Y0060313
X00394Y00897
X00393Y00948
X0018863Y01138
X0020963Y0122729
X00086Y01206
X00321Y01326
X00015Y0081393
X0001657Y00701
X0008Y00747
X0041255Y0017173
X00492Y0031
X0053288Y0029295
X006Y00255
X0062944Y0031405
X006322Y0036407
X00701Y00363
X0075137Y0036306
X007822Y0037928
X0077295Y0032107
X0072709Y0033757
X0071505Y0029074
X007822Y0021818
X0081991Y0021624
X0080833Y0014615
X00846Y0014872
X0083218Y0034012
X00988Y00361
X0098826Y0041265
X01Y00316
X010235Y0028252
X01023Y002125
X01064Y00313
X01113Y00276
X01154Y00266
X0117653Y00115
X01092
X0120232Y0064653
X01275Y007095
X01323Y0067964
X01306Y0077761
X01268Y00802
X012655Y0085489
X0107693Y0094599
X0106207Y010176
X0102607Y0112141
X0094Y0116408
X009026
X008324Y01144
X0079
X00811Y01096
X00779Y01086
X0073809Y0106558
X0066995Y0107086
X0063563Y010715
X00581
X0062793Y0102208
X006496Y00978
X0070294Y0098453
X00596Y00954
X005775Y00853
X0059246Y00835
X00581Y0081393
Y00789
X0057974Y0072907
X00596Y0066908
X0064427Y0064073
X00712Y0063635
X0073168Y0060228
X0078Y00591
X007822Y00562
X007Y0052837
X0062545Y0052986
X00606Y00548
X00586Y00532
X00562Y0056
X0050756Y00573
X0052406Y0053006
X00519Y0049594
X00502Y00452
X00449Y00438
X00474Y00409
X0046555Y00687
X0065328Y0074073
X0067238Y0076307
X0066945Y0079863
X00718Y00817
X008Y00806
X00806Y00841
X00794Y00863
X00812Y00884
X0078591Y008975
X0075377Y0088256
X0065621Y008664
X00751Y00751
X0081302Y0077787
X0086603Y0077957
X0086989Y007193
X0090602Y007246
X009125Y0079863
X00929Y00824
X0093884Y0086393
X0088396Y008786
X0087655Y0090372
X0090058Y0094342
X00932Y009415
X0085Y01006
X0085017Y0103706
X0085Y01061
X00848Y01085
X0085Y0111
X00853Y01235
X0095495Y0122729
X0089954Y01326
X0084719Y0135468
X0073809
X00627Y013
X0064476Y0117871
X00465Y01228
X00478Y01092
X00622Y00582
X0089031Y0059191
X0088396Y0065562
X00935
X008324Y0065106
X009455Y0077761
X0102327Y0070977
X01087Y01308
X0099883Y01387
T02
X011281Y0105653
Y0124747
T03
X0143829Y0074243
T04
X002Y00002
X003
X004
Y01477
X003
X002
X005
X006
X007
X008
X009
X01
X011
X012
Y00002
X011
X01
X009
X008
X007
X006
X005
T05
X0124739Y0104295
Y0126105
T06
X0Y00002
Y01477
X014
Y00002
T07
X011Y0075997
Y0090997
M30
