G04*
G04 #@! TF.GenerationSoftware,Altium Limited,Altium Designer,23.10.1 (27)*
G04*
G04 Layer_Color=13813960*
%FSLAX25Y25*%
%MOIN*%
G70*
G04*
G04 #@! TF.SameCoordinates,F1345391-9F32-4E0E-91B1-EC67AA166F81*
G04*
G04*
G04 #@! TF.FilePolarity,Positive*
G04*
G01*
G75*
%ADD11C,0.01000*%
%ADD104C,0.01500*%
G36*
X7434Y108400D02*
X2200D01*
Y121792D01*
X7434D01*
Y108400D01*
D02*
G37*
G36*
X53679Y38996D02*
X53757Y38881D01*
X53846Y38772D01*
X53934Y38678D01*
X54012Y38590D01*
X54048Y38559D01*
X54074Y38528D01*
X54100Y38502D01*
X54121Y38486D01*
X54132Y38476D01*
X54137Y38470D01*
X54277Y38351D01*
X54428Y38247D01*
X54574Y38148D01*
X54709Y38065D01*
X54766Y38034D01*
X54823Y38002D01*
X54875Y37971D01*
X54917Y37950D01*
X54953Y37935D01*
X54979Y37919D01*
X54995Y37914D01*
X55000Y37909D01*
Y37342D01*
X54896Y37384D01*
X54787Y37430D01*
X54683Y37482D01*
X54589Y37529D01*
X54506Y37576D01*
X54470Y37592D01*
X54438Y37612D01*
X54412Y37623D01*
X54397Y37633D01*
X54386Y37644D01*
X54381D01*
X54256Y37722D01*
X54147Y37794D01*
X54048Y37862D01*
X53970Y37924D01*
X53903Y37976D01*
X53856Y38013D01*
X53830Y38039D01*
X53820Y38049D01*
Y34300D01*
X53232D01*
Y39115D01*
X53612D01*
X53679Y38996D01*
D02*
G37*
G36*
X14558Y6562D02*
X14619Y6557D01*
X14677Y6548D01*
X14730Y6537D01*
X14782Y6523D01*
X14829Y6510D01*
X14871Y6493D01*
X14912Y6476D01*
X14949Y6460D01*
X14979Y6443D01*
X15007Y6429D01*
X15029Y6415D01*
X15045Y6404D01*
X15059Y6396D01*
X15068Y6391D01*
X15070Y6388D01*
X15112Y6352D01*
X15148Y6313D01*
X15181Y6269D01*
X15209Y6222D01*
X15234Y6174D01*
X15256Y6125D01*
X15275Y6078D01*
X15292Y6030D01*
X15306Y5986D01*
X15317Y5945D01*
X15325Y5906D01*
X15331Y5872D01*
X15336Y5845D01*
X15339Y5823D01*
X15342Y5812D01*
Y5806D01*
X14854Y5759D01*
X14852Y5798D01*
X14846Y5834D01*
X14832Y5897D01*
X14816Y5950D01*
X14799Y5992D01*
X14780Y6025D01*
X14766Y6047D01*
X14755Y6058D01*
X14752Y6064D01*
X14716Y6094D01*
X14674Y6119D01*
X14633Y6136D01*
X14594Y6147D01*
X14558Y6152D01*
X14530Y6158D01*
X14505D01*
X14450Y6155D01*
X14403Y6144D01*
X14361Y6130D01*
X14325Y6114D01*
X14298Y6097D01*
X14278Y6083D01*
X14264Y6072D01*
X14262Y6069D01*
X14231Y6033D01*
X14209Y5992D01*
X14195Y5950D01*
X14184Y5911D01*
X14178Y5872D01*
X14173Y5845D01*
Y5834D01*
Y5825D01*
Y5820D01*
Y5817D01*
X14178Y5762D01*
X14189Y5706D01*
X14206Y5657D01*
X14223Y5612D01*
X14242Y5573D01*
X14259Y5543D01*
X14267Y5532D01*
X14270Y5523D01*
X14275Y5521D01*
Y5518D01*
X14292Y5496D01*
X14314Y5468D01*
X14342Y5438D01*
X14370Y5407D01*
X14436Y5338D01*
X14508Y5269D01*
X14541Y5235D01*
X14574Y5202D01*
X14602Y5175D01*
X14630Y5150D01*
X14652Y5130D01*
X14669Y5113D01*
X14680Y5102D01*
X14683Y5100D01*
X14757Y5030D01*
X14824Y4964D01*
X14887Y4900D01*
X14943Y4842D01*
X14993Y4789D01*
X15037Y4737D01*
X15079Y4693D01*
X15112Y4651D01*
X15142Y4612D01*
X15167Y4582D01*
X15190Y4551D01*
X15206Y4529D01*
X15217Y4512D01*
X15228Y4499D01*
X15231Y4490D01*
X15234Y4487D01*
X15281Y4402D01*
X15317Y4316D01*
X15347Y4233D01*
X15370Y4158D01*
X15378Y4125D01*
X15383Y4094D01*
X15389Y4067D01*
X15394Y4044D01*
X15397Y4025D01*
Y4011D01*
X15400Y4003D01*
Y4000D01*
X13683D01*
Y4454D01*
X14658D01*
X14624Y4501D01*
X14608Y4524D01*
X14594Y4546D01*
X14580Y4562D01*
X14569Y4576D01*
X14561Y4584D01*
X14558Y4587D01*
X14544Y4601D01*
X14527Y4620D01*
X14508Y4640D01*
X14486Y4662D01*
X14439Y4709D01*
X14389Y4756D01*
X14342Y4800D01*
X14320Y4820D01*
X14300Y4837D01*
X14287Y4850D01*
X14275Y4862D01*
X14267Y4867D01*
X14264Y4870D01*
X14223Y4909D01*
X14184Y4945D01*
X14148Y4981D01*
X14115Y5011D01*
X14087Y5042D01*
X14059Y5066D01*
X14037Y5091D01*
X14015Y5113D01*
X13984Y5150D01*
X13960Y5175D01*
X13949Y5191D01*
X13943Y5197D01*
X13896Y5260D01*
X13854Y5321D01*
X13821Y5377D01*
X13793Y5424D01*
X13774Y5465D01*
X13766Y5482D01*
X13757Y5496D01*
X13752Y5507D01*
X13749Y5518D01*
X13746Y5521D01*
Y5523D01*
X13724Y5582D01*
X13710Y5640D01*
X13699Y5695D01*
X13691Y5748D01*
X13685Y5789D01*
Y5809D01*
X13683Y5823D01*
Y5836D01*
Y5845D01*
Y5850D01*
Y5853D01*
X13685Y5909D01*
X13691Y5961D01*
X13702Y6011D01*
X13716Y6061D01*
X13733Y6105D01*
X13752Y6147D01*
X13771Y6185D01*
X13791Y6219D01*
X13813Y6252D01*
X13832Y6280D01*
X13852Y6305D01*
X13868Y6324D01*
X13882Y6338D01*
X13893Y6352D01*
X13899Y6357D01*
X13901Y6360D01*
X13943Y6396D01*
X13990Y6426D01*
X14037Y6454D01*
X14084Y6479D01*
X14134Y6498D01*
X14184Y6515D01*
X14231Y6529D01*
X14278Y6540D01*
X14322Y6548D01*
X14364Y6554D01*
X14400Y6560D01*
X14431Y6562D01*
X14458Y6565D01*
X14494D01*
X14558Y6562D01*
D02*
G37*
G36*
X12572D02*
X12633Y6557D01*
X12691Y6548D01*
X12744Y6537D01*
X12796Y6523D01*
X12843Y6510D01*
X12885Y6493D01*
X12926Y6476D01*
X12962Y6460D01*
X12993Y6443D01*
X13021Y6429D01*
X13043Y6415D01*
X13059Y6404D01*
X13073Y6396D01*
X13081Y6391D01*
X13084Y6388D01*
X13126Y6352D01*
X13162Y6313D01*
X13195Y6269D01*
X13223Y6222D01*
X13248Y6174D01*
X13270Y6125D01*
X13289Y6078D01*
X13306Y6030D01*
X13320Y5986D01*
X13331Y5945D01*
X13339Y5906D01*
X13345Y5872D01*
X13350Y5845D01*
X13353Y5823D01*
X13356Y5812D01*
Y5806D01*
X12868Y5759D01*
X12866Y5798D01*
X12860Y5834D01*
X12846Y5897D01*
X12829Y5950D01*
X12813Y5992D01*
X12793Y6025D01*
X12780Y6047D01*
X12768Y6058D01*
X12766Y6064D01*
X12730Y6094D01*
X12688Y6119D01*
X12647Y6136D01*
X12608Y6147D01*
X12572Y6152D01*
X12544Y6158D01*
X12519D01*
X12464Y6155D01*
X12417Y6144D01*
X12375Y6130D01*
X12339Y6114D01*
X12312Y6097D01*
X12292Y6083D01*
X12278Y6072D01*
X12275Y6069D01*
X12245Y6033D01*
X12223Y5992D01*
X12209Y5950D01*
X12198Y5911D01*
X12192Y5872D01*
X12187Y5845D01*
Y5834D01*
Y5825D01*
Y5820D01*
Y5817D01*
X12192Y5762D01*
X12203Y5706D01*
X12220Y5657D01*
X12237Y5612D01*
X12256Y5573D01*
X12273Y5543D01*
X12281Y5532D01*
X12284Y5523D01*
X12289Y5521D01*
Y5518D01*
X12306Y5496D01*
X12328Y5468D01*
X12356Y5438D01*
X12383Y5407D01*
X12450Y5338D01*
X12522Y5269D01*
X12555Y5235D01*
X12588Y5202D01*
X12616Y5175D01*
X12644Y5150D01*
X12666Y5130D01*
X12683Y5113D01*
X12694Y5102D01*
X12697Y5100D01*
X12771Y5030D01*
X12838Y4964D01*
X12901Y4900D01*
X12957Y4842D01*
X13007Y4789D01*
X13051Y4737D01*
X13093Y4693D01*
X13126Y4651D01*
X13156Y4612D01*
X13181Y4582D01*
X13203Y4551D01*
X13220Y4529D01*
X13231Y4512D01*
X13242Y4499D01*
X13245Y4490D01*
X13248Y4487D01*
X13295Y4402D01*
X13331Y4316D01*
X13361Y4233D01*
X13383Y4158D01*
X13392Y4125D01*
X13397Y4094D01*
X13403Y4067D01*
X13408Y4044D01*
X13411Y4025D01*
Y4011D01*
X13414Y4003D01*
Y4000D01*
X11697D01*
Y4454D01*
X12672D01*
X12638Y4501D01*
X12622Y4524D01*
X12608Y4546D01*
X12594Y4562D01*
X12583Y4576D01*
X12575Y4584D01*
X12572Y4587D01*
X12558Y4601D01*
X12541Y4620D01*
X12522Y4640D01*
X12500Y4662D01*
X12453Y4709D01*
X12403Y4756D01*
X12356Y4800D01*
X12334Y4820D01*
X12314Y4837D01*
X12300Y4850D01*
X12289Y4862D01*
X12281Y4867D01*
X12278Y4870D01*
X12237Y4909D01*
X12198Y4945D01*
X12162Y4981D01*
X12129Y5011D01*
X12101Y5042D01*
X12073Y5066D01*
X12051Y5091D01*
X12029Y5113D01*
X11998Y5150D01*
X11974Y5175D01*
X11962Y5191D01*
X11957Y5197D01*
X11910Y5260D01*
X11868Y5321D01*
X11835Y5377D01*
X11807Y5424D01*
X11788Y5465D01*
X11780Y5482D01*
X11771Y5496D01*
X11766Y5507D01*
X11763Y5518D01*
X11760Y5521D01*
Y5523D01*
X11738Y5582D01*
X11724Y5640D01*
X11713Y5695D01*
X11705Y5748D01*
X11699Y5789D01*
Y5809D01*
X11697Y5823D01*
Y5836D01*
Y5845D01*
Y5850D01*
Y5853D01*
X11699Y5909D01*
X11705Y5961D01*
X11716Y6011D01*
X11730Y6061D01*
X11746Y6105D01*
X11766Y6147D01*
X11785Y6185D01*
X11805Y6219D01*
X11827Y6252D01*
X11846Y6280D01*
X11866Y6305D01*
X11882Y6324D01*
X11896Y6338D01*
X11907Y6352D01*
X11913Y6357D01*
X11915Y6360D01*
X11957Y6396D01*
X12004Y6426D01*
X12051Y6454D01*
X12098Y6479D01*
X12148Y6498D01*
X12198Y6515D01*
X12245Y6529D01*
X12292Y6540D01*
X12336Y6548D01*
X12378Y6554D01*
X12414Y6560D01*
X12444Y6562D01*
X12472Y6565D01*
X12508D01*
X12572Y6562D01*
D02*
G37*
G36*
X125866D02*
X125927Y6557D01*
X125985Y6548D01*
X126038Y6537D01*
X126090Y6523D01*
X126137Y6510D01*
X126179Y6493D01*
X126220Y6476D01*
X126256Y6460D01*
X126287Y6443D01*
X126314Y6429D01*
X126337Y6415D01*
X126353Y6404D01*
X126367Y6396D01*
X126375Y6391D01*
X126378Y6388D01*
X126420Y6352D01*
X126456Y6313D01*
X126489Y6269D01*
X126517Y6222D01*
X126542Y6174D01*
X126564Y6125D01*
X126583Y6078D01*
X126600Y6030D01*
X126614Y5986D01*
X126625Y5945D01*
X126633Y5906D01*
X126639Y5872D01*
X126644Y5845D01*
X126647Y5823D01*
X126650Y5812D01*
Y5806D01*
X126162Y5759D01*
X126159Y5798D01*
X126154Y5834D01*
X126140Y5897D01*
X126123Y5950D01*
X126107Y5992D01*
X126087Y6025D01*
X126074Y6047D01*
X126062Y6058D01*
X126060Y6064D01*
X126024Y6094D01*
X125982Y6119D01*
X125941Y6136D01*
X125902Y6147D01*
X125866Y6152D01*
X125838Y6158D01*
X125813D01*
X125758Y6155D01*
X125711Y6144D01*
X125669Y6130D01*
X125633Y6114D01*
X125605Y6097D01*
X125586Y6083D01*
X125572Y6072D01*
X125569Y6069D01*
X125539Y6033D01*
X125517Y5992D01*
X125503Y5950D01*
X125492Y5911D01*
X125486Y5872D01*
X125481Y5845D01*
Y5834D01*
Y5825D01*
Y5820D01*
Y5817D01*
X125486Y5762D01*
X125497Y5706D01*
X125514Y5657D01*
X125531Y5612D01*
X125550Y5573D01*
X125567Y5543D01*
X125575Y5532D01*
X125578Y5523D01*
X125583Y5521D01*
Y5518D01*
X125600Y5496D01*
X125622Y5468D01*
X125650Y5438D01*
X125677Y5407D01*
X125744Y5338D01*
X125816Y5269D01*
X125849Y5235D01*
X125882Y5202D01*
X125910Y5175D01*
X125938Y5150D01*
X125960Y5130D01*
X125977Y5113D01*
X125988Y5102D01*
X125990Y5100D01*
X126065Y5030D01*
X126132Y4964D01*
X126195Y4900D01*
X126251Y4842D01*
X126301Y4789D01*
X126345Y4737D01*
X126386Y4693D01*
X126420Y4651D01*
X126450Y4612D01*
X126475Y4582D01*
X126497Y4551D01*
X126514Y4529D01*
X126525Y4512D01*
X126536Y4499D01*
X126539Y4490D01*
X126542Y4487D01*
X126589Y4402D01*
X126625Y4316D01*
X126655Y4233D01*
X126677Y4158D01*
X126686Y4125D01*
X126691Y4094D01*
X126697Y4067D01*
X126702Y4044D01*
X126705Y4025D01*
Y4011D01*
X126708Y4003D01*
Y4000D01*
X124990D01*
Y4454D01*
X125965D01*
X125932Y4501D01*
X125916Y4524D01*
X125902Y4546D01*
X125888Y4562D01*
X125877Y4576D01*
X125868Y4584D01*
X125866Y4587D01*
X125852Y4601D01*
X125835Y4620D01*
X125816Y4640D01*
X125794Y4662D01*
X125747Y4709D01*
X125697Y4756D01*
X125650Y4800D01*
X125628Y4820D01*
X125608Y4837D01*
X125594Y4850D01*
X125583Y4862D01*
X125575Y4867D01*
X125572Y4870D01*
X125531Y4909D01*
X125492Y4945D01*
X125456Y4981D01*
X125423Y5011D01*
X125395Y5042D01*
X125367Y5066D01*
X125345Y5091D01*
X125323Y5113D01*
X125292Y5150D01*
X125267Y5175D01*
X125256Y5191D01*
X125251Y5197D01*
X125204Y5260D01*
X125162Y5321D01*
X125129Y5377D01*
X125101Y5424D01*
X125082Y5465D01*
X125074Y5482D01*
X125065Y5496D01*
X125060Y5507D01*
X125057Y5518D01*
X125054Y5521D01*
Y5523D01*
X125032Y5582D01*
X125018Y5640D01*
X125007Y5695D01*
X124999Y5748D01*
X124993Y5789D01*
Y5809D01*
X124990Y5823D01*
Y5836D01*
Y5845D01*
Y5850D01*
Y5853D01*
X124993Y5909D01*
X124999Y5961D01*
X125010Y6011D01*
X125024Y6061D01*
X125040Y6105D01*
X125060Y6147D01*
X125079Y6185D01*
X125098Y6219D01*
X125121Y6252D01*
X125140Y6280D01*
X125159Y6305D01*
X125176Y6324D01*
X125190Y6338D01*
X125201Y6352D01*
X125206Y6357D01*
X125209Y6360D01*
X125251Y6396D01*
X125298Y6426D01*
X125345Y6454D01*
X125392Y6479D01*
X125442Y6498D01*
X125492Y6515D01*
X125539Y6529D01*
X125586Y6540D01*
X125630Y6548D01*
X125672Y6554D01*
X125708Y6560D01*
X125738Y6562D01*
X125766Y6565D01*
X125802D01*
X125866Y6562D01*
D02*
G37*
G36*
X127794Y6521D02*
X127813Y6479D01*
X127860Y6402D01*
X127910Y6332D01*
X127963Y6271D01*
X127988Y6244D01*
X128010Y6222D01*
X128029Y6199D01*
X128049Y6183D01*
X128062Y6169D01*
X128073Y6161D01*
X128082Y6155D01*
X128085Y6152D01*
X128168Y6091D01*
X128245Y6041D01*
X128314Y6000D01*
X128375Y5970D01*
X128403Y5956D01*
X128428Y5945D01*
X128447Y5936D01*
X128467Y5928D01*
X128481Y5922D01*
X128492Y5920D01*
X128497Y5917D01*
X128500D01*
Y5471D01*
X128434Y5496D01*
X128370Y5521D01*
X128306Y5548D01*
X128248Y5579D01*
X128192Y5609D01*
X128140Y5640D01*
X128093Y5670D01*
X128049Y5701D01*
X128007Y5728D01*
X127974Y5756D01*
X127940Y5781D01*
X127916Y5801D01*
X127896Y5817D01*
X127880Y5831D01*
X127871Y5839D01*
X127868Y5842D01*
Y4000D01*
X127378D01*
Y6565D01*
X127777D01*
X127794Y6521D01*
D02*
G37*
G36*
X126094Y143721D02*
X126113Y143679D01*
X126160Y143602D01*
X126210Y143532D01*
X126263Y143471D01*
X126288Y143444D01*
X126310Y143421D01*
X126329Y143399D01*
X126348Y143383D01*
X126362Y143369D01*
X126373Y143361D01*
X126382Y143355D01*
X126384Y143352D01*
X126468Y143291D01*
X126545Y143242D01*
X126614Y143200D01*
X126675Y143169D01*
X126703Y143156D01*
X126728Y143145D01*
X126747Y143136D01*
X126767Y143128D01*
X126781Y143122D01*
X126792Y143120D01*
X126797Y143117D01*
X126800D01*
Y142671D01*
X126734Y142696D01*
X126670Y142721D01*
X126606Y142748D01*
X126548Y142779D01*
X126493Y142809D01*
X126440Y142840D01*
X126393Y142870D01*
X126348Y142901D01*
X126307Y142929D01*
X126274Y142956D01*
X126241Y142981D01*
X126216Y143000D01*
X126196Y143017D01*
X126180Y143031D01*
X126171Y143039D01*
X126168Y143042D01*
Y141200D01*
X125678D01*
Y143765D01*
X126077D01*
X126094Y143721D01*
D02*
G37*
G36*
X124108D02*
X124127Y143679D01*
X124174Y143602D01*
X124224Y143532D01*
X124276Y143471D01*
X124302Y143444D01*
X124324Y143421D01*
X124343Y143399D01*
X124362Y143383D01*
X124376Y143369D01*
X124387Y143361D01*
X124396Y143355D01*
X124398Y143352D01*
X124481Y143291D01*
X124559Y143242D01*
X124628Y143200D01*
X124689Y143169D01*
X124717Y143156D01*
X124742Y143145D01*
X124761Y143136D01*
X124781Y143128D01*
X124794Y143122D01*
X124806Y143120D01*
X124811Y143117D01*
X124814D01*
Y142671D01*
X124747Y142696D01*
X124684Y142721D01*
X124620Y142748D01*
X124562Y142779D01*
X124506Y142809D01*
X124454Y142840D01*
X124407Y142870D01*
X124362Y142901D01*
X124321Y142929D01*
X124288Y142956D01*
X124254Y142981D01*
X124229Y143000D01*
X124210Y143017D01*
X124193Y143031D01*
X124185Y143039D01*
X124182Y143042D01*
Y141200D01*
X123692D01*
Y143765D01*
X124091D01*
X124108Y143721D01*
D02*
G37*
G36*
X16194Y143621D02*
X16213Y143579D01*
X16260Y143502D01*
X16310Y143432D01*
X16363Y143371D01*
X16387Y143344D01*
X16410Y143322D01*
X16429Y143299D01*
X16448Y143283D01*
X16462Y143269D01*
X16473Y143261D01*
X16482Y143255D01*
X16485Y143252D01*
X16568Y143191D01*
X16645Y143141D01*
X16714Y143100D01*
X16775Y143070D01*
X16803Y143056D01*
X16828Y143044D01*
X16847Y143036D01*
X16867Y143028D01*
X16881Y143022D01*
X16892Y143020D01*
X16897Y143017D01*
X16900D01*
Y142571D01*
X16834Y142596D01*
X16770Y142621D01*
X16706Y142648D01*
X16648Y142679D01*
X16592Y142709D01*
X16540Y142740D01*
X16493Y142770D01*
X16448Y142801D01*
X16407Y142829D01*
X16374Y142856D01*
X16341Y142881D01*
X16316Y142901D01*
X16296Y142917D01*
X16280Y142931D01*
X16271Y142939D01*
X16268Y142942D01*
Y141100D01*
X15778D01*
Y143665D01*
X16177D01*
X16194Y143621D01*
D02*
G37*
G36*
X5446Y39939D02*
X5487Y39937D01*
X5565Y39923D01*
X5631Y39901D01*
X5690Y39876D01*
X5714Y39865D01*
X5737Y39851D01*
X5756Y39840D01*
X5773Y39831D01*
X5784Y39820D01*
X5792Y39815D01*
X5798Y39812D01*
X5800Y39809D01*
X5831Y39784D01*
X5859Y39757D01*
X5903Y39701D01*
X5942Y39643D01*
X5969Y39585D01*
X5989Y39538D01*
X5997Y39516D01*
X6003Y39496D01*
X6008Y39482D01*
X6011Y39471D01*
X6014Y39463D01*
Y39460D01*
X6053Y39524D01*
X6094Y39582D01*
X6138Y39632D01*
X6183Y39674D01*
X6227Y39709D01*
X6271Y39740D01*
X6316Y39762D01*
X6357Y39781D01*
X6396Y39798D01*
X6435Y39809D01*
X6468Y39818D01*
X6496Y39823D01*
X6518Y39826D01*
X6537Y39829D01*
X6548D01*
X6551D01*
X6595Y39826D01*
X6637Y39820D01*
X6679Y39812D01*
X6717Y39801D01*
X6789Y39770D01*
X6850Y39737D01*
X6878Y39721D01*
X6903Y39704D01*
X6925Y39687D01*
X6942Y39674D01*
X6955Y39662D01*
X6967Y39654D01*
X6972Y39649D01*
X6975Y39646D01*
X7016Y39604D01*
X7052Y39560D01*
X7083Y39513D01*
X7111Y39463D01*
X7133Y39416D01*
X7152Y39369D01*
X7166Y39322D01*
X7180Y39275D01*
X7188Y39233D01*
X7197Y39194D01*
X7199Y39158D01*
X7205Y39128D01*
Y39103D01*
X7208Y39083D01*
Y39067D01*
X7205Y38989D01*
X7197Y38917D01*
X7183Y38851D01*
X7169Y38795D01*
X7160Y38770D01*
X7152Y38748D01*
X7147Y38729D01*
X7141Y38712D01*
X7136Y38699D01*
X7130Y38690D01*
X7127Y38685D01*
Y38682D01*
X7094Y38621D01*
X7058Y38568D01*
X7022Y38524D01*
X6986Y38488D01*
X6955Y38458D01*
X6928Y38435D01*
X6911Y38424D01*
X6908Y38419D01*
X6906D01*
X6850Y38385D01*
X6789Y38358D01*
X6728Y38333D01*
X6667Y38313D01*
X6615Y38297D01*
X6593Y38291D01*
X6573Y38286D01*
X6557Y38283D01*
X6545Y38280D01*
X6537Y38277D01*
X6534D01*
X6460Y38729D01*
X6518Y38740D01*
X6570Y38754D01*
X6612Y38770D01*
X6648Y38790D01*
X6676Y38809D01*
X6695Y38823D01*
X6709Y38834D01*
X6712Y38837D01*
X6742Y38873D01*
X6764Y38909D01*
X6778Y38945D01*
X6789Y38978D01*
X6795Y39009D01*
X6800Y39031D01*
Y39053D01*
X6798Y39100D01*
X6789Y39142D01*
X6775Y39175D01*
X6762Y39205D01*
X6748Y39230D01*
X6734Y39247D01*
X6726Y39258D01*
X6723Y39261D01*
X6692Y39286D01*
X6659Y39305D01*
X6623Y39319D01*
X6593Y39330D01*
X6562Y39336D01*
X6540Y39338D01*
X6523D01*
X6521D01*
X6518D01*
X6462Y39333D01*
X6415Y39322D01*
X6374Y39305D01*
X6338Y39286D01*
X6310Y39263D01*
X6291Y39247D01*
X6280Y39236D01*
X6274Y39230D01*
X6246Y39186D01*
X6224Y39139D01*
X6208Y39089D01*
X6199Y39039D01*
X6194Y38995D01*
Y38976D01*
X6191Y38959D01*
Y38926D01*
X5792Y38873D01*
X5806Y38920D01*
X5814Y38964D01*
X5822Y39000D01*
X5825Y39034D01*
X5828Y39061D01*
X5831Y39081D01*
Y39097D01*
X5825Y39150D01*
X5814Y39197D01*
X5795Y39239D01*
X5776Y39275D01*
X5756Y39302D01*
X5737Y39325D01*
X5726Y39336D01*
X5720Y39341D01*
X5676Y39374D01*
X5629Y39399D01*
X5579Y39416D01*
X5532Y39430D01*
X5490Y39435D01*
X5474Y39438D01*
X5457D01*
X5443Y39441D01*
X5435D01*
X5429D01*
X5426D01*
X5357Y39435D01*
X5296Y39424D01*
X5244Y39408D01*
X5199Y39388D01*
X5163Y39369D01*
X5138Y39352D01*
X5122Y39341D01*
X5116Y39336D01*
X5077Y39294D01*
X5050Y39250D01*
X5030Y39208D01*
X5017Y39167D01*
X5008Y39131D01*
X5005Y39103D01*
X5003Y39092D01*
Y39078D01*
X5005Y39028D01*
X5017Y38981D01*
X5033Y38939D01*
X5050Y38903D01*
X5066Y38876D01*
X5083Y38854D01*
X5094Y38842D01*
X5097Y38837D01*
X5136Y38804D01*
X5183Y38776D01*
X5227Y38754D01*
X5274Y38740D01*
X5313Y38726D01*
X5346Y38721D01*
X5360Y38718D01*
X5368Y38715D01*
X5374D01*
X5377D01*
X5318Y38241D01*
X5260Y38250D01*
X5202Y38264D01*
X5149Y38280D01*
X5100Y38297D01*
X5052Y38319D01*
X5011Y38341D01*
X4972Y38363D01*
X4936Y38385D01*
X4903Y38410D01*
X4875Y38430D01*
X4850Y38452D01*
X4831Y38469D01*
X4814Y38482D01*
X4803Y38493D01*
X4798Y38502D01*
X4795Y38505D01*
X4759Y38549D01*
X4728Y38596D01*
X4704Y38643D01*
X4679Y38693D01*
X4659Y38740D01*
X4645Y38787D01*
X4631Y38834D01*
X4620Y38879D01*
X4612Y38920D01*
X4606Y38959D01*
X4601Y38995D01*
X4598Y39023D01*
Y39048D01*
X4595Y39064D01*
Y39081D01*
X4598Y39147D01*
X4606Y39214D01*
X4618Y39275D01*
X4631Y39333D01*
X4651Y39385D01*
X4670Y39438D01*
X4692Y39485D01*
X4715Y39527D01*
X4734Y39566D01*
X4756Y39599D01*
X4775Y39626D01*
X4795Y39651D01*
X4809Y39671D01*
X4820Y39685D01*
X4828Y39693D01*
X4831Y39696D01*
X4878Y39740D01*
X4925Y39776D01*
X4972Y39809D01*
X5022Y39837D01*
X5069Y39862D01*
X5116Y39881D01*
X5163Y39898D01*
X5208Y39912D01*
X5249Y39923D01*
X5285Y39928D01*
X5318Y39934D01*
X5349Y39939D01*
X5371D01*
X5390Y39942D01*
X5401D01*
X5404D01*
X5446Y39939D01*
D02*
G37*
G36*
X7199Y37347D02*
X5482D01*
X7199Y36294D01*
Y35796D01*
X4642D01*
Y36272D01*
X6321D01*
X4642Y37308D01*
Y37823D01*
X7199D01*
Y37347D01*
D02*
G37*
G36*
Y33430D02*
X6767D01*
Y34189D01*
X4642D01*
Y34704D01*
X6767D01*
Y35458D01*
X7199D01*
Y33430D01*
D02*
G37*
G36*
X5462Y33167D02*
X5537Y33153D01*
X5601Y33131D01*
X5659Y33109D01*
X5681Y33097D01*
X5703Y33086D01*
X5723Y33075D01*
X5740Y33064D01*
X5751Y33056D01*
X5759Y33050D01*
X5764Y33048D01*
X5767Y33045D01*
X5825Y32995D01*
X5872Y32937D01*
X5914Y32876D01*
X5944Y32820D01*
X5969Y32768D01*
X5978Y32746D01*
X5986Y32726D01*
X5991Y32710D01*
X5997Y32699D01*
X6000Y32690D01*
Y32688D01*
X6030Y32746D01*
X6066Y32798D01*
X6105Y32843D01*
X6141Y32882D01*
X6174Y32912D01*
X6199Y32934D01*
X6210Y32940D01*
X6219Y32945D01*
X6221Y32951D01*
X6224D01*
X6282Y32984D01*
X6338Y33006D01*
X6393Y33023D01*
X6446Y33037D01*
X6490Y33042D01*
X6507Y33045D01*
X6523D01*
X6537Y33048D01*
X6545D01*
X6551D01*
X6554D01*
X6615Y33045D01*
X6670Y33037D01*
X6723Y33023D01*
X6767Y33009D01*
X6803Y32992D01*
X6831Y32981D01*
X6839Y32976D01*
X6848Y32970D01*
X6850Y32967D01*
X6853D01*
X6900Y32937D01*
X6942Y32904D01*
X6978Y32870D01*
X7011Y32840D01*
X7033Y32812D01*
X7052Y32790D01*
X7063Y32776D01*
X7066Y32773D01*
Y32771D01*
X7094Y32726D01*
X7116Y32679D01*
X7136Y32635D01*
X7149Y32593D01*
X7160Y32557D01*
X7166Y32530D01*
X7169Y32519D01*
X7171Y32510D01*
Y32505D01*
X7177Y32474D01*
X7180Y32444D01*
X7188Y32372D01*
X7194Y32297D01*
X7197Y32222D01*
Y32189D01*
X7199Y32156D01*
Y31031D01*
X4642D01*
Y31989D01*
X4645Y32070D01*
Y32206D01*
X4648Y32264D01*
Y32314D01*
X4651Y32358D01*
Y32397D01*
X4654Y32427D01*
Y32455D01*
X4656Y32477D01*
Y32494D01*
X4659Y32508D01*
Y32521D01*
X4670Y32596D01*
X4687Y32663D01*
X4706Y32724D01*
X4728Y32773D01*
X4748Y32812D01*
X4756Y32829D01*
X4762Y32843D01*
X4770Y32854D01*
X4775Y32862D01*
X4778Y32865D01*
Y32868D01*
X4817Y32917D01*
X4861Y32962D01*
X4906Y33001D01*
X4947Y33031D01*
X4983Y33056D01*
X5014Y33075D01*
X5025Y33081D01*
X5033Y33086D01*
X5039Y33089D01*
X5041D01*
X5105Y33117D01*
X5166Y33136D01*
X5221Y33153D01*
X5274Y33161D01*
X5318Y33167D01*
X5338Y33169D01*
X5352Y33172D01*
X5365D01*
X5374D01*
X5379D01*
X5382D01*
X5424D01*
X5462Y33167D01*
D02*
G37*
G36*
X5909Y79381D02*
X5961Y79375D01*
X6011Y79364D01*
X6061Y79350D01*
X6105Y79334D01*
X6147Y79314D01*
X6185Y79295D01*
X6219Y79275D01*
X6252Y79253D01*
X6280Y79234D01*
X6305Y79214D01*
X6324Y79198D01*
X6338Y79184D01*
X6352Y79173D01*
X6357Y79167D01*
X6360Y79165D01*
X6396Y79123D01*
X6426Y79076D01*
X6454Y79029D01*
X6479Y78982D01*
X6498Y78932D01*
X6515Y78882D01*
X6529Y78835D01*
X6540Y78788D01*
X6548Y78743D01*
X6554Y78702D01*
X6560Y78666D01*
X6562Y78636D01*
X6565Y78608D01*
Y78572D01*
X6562Y78508D01*
X6557Y78447D01*
X6548Y78389D01*
X6537Y78336D01*
X6523Y78284D01*
X6510Y78237D01*
X6493Y78195D01*
X6476Y78154D01*
X6460Y78118D01*
X6443Y78087D01*
X6429Y78059D01*
X6415Y78037D01*
X6404Y78021D01*
X6396Y78007D01*
X6391Y77998D01*
X6388Y77996D01*
X6352Y77954D01*
X6313Y77918D01*
X6269Y77885D01*
X6222Y77857D01*
X6174Y77832D01*
X6125Y77810D01*
X6078Y77791D01*
X6030Y77774D01*
X5986Y77760D01*
X5945Y77749D01*
X5906Y77741D01*
X5872Y77735D01*
X5845Y77730D01*
X5823Y77727D01*
X5812Y77724D01*
X5806D01*
X5759Y78212D01*
X5798Y78214D01*
X5834Y78220D01*
X5897Y78234D01*
X5950Y78250D01*
X5992Y78267D01*
X6025Y78286D01*
X6047Y78300D01*
X6058Y78311D01*
X6064Y78314D01*
X6094Y78350D01*
X6119Y78392D01*
X6136Y78433D01*
X6147Y78472D01*
X6152Y78508D01*
X6158Y78536D01*
Y78561D01*
X6155Y78616D01*
X6144Y78663D01*
X6130Y78705D01*
X6114Y78741D01*
X6097Y78768D01*
X6083Y78788D01*
X6072Y78802D01*
X6069Y78804D01*
X6033Y78835D01*
X5992Y78857D01*
X5950Y78871D01*
X5911Y78882D01*
X5872Y78888D01*
X5845Y78893D01*
X5834D01*
X5825D01*
X5820D01*
X5817D01*
X5762Y78888D01*
X5706Y78877D01*
X5657Y78860D01*
X5612Y78843D01*
X5573Y78824D01*
X5543Y78807D01*
X5532Y78799D01*
X5523Y78796D01*
X5521Y78791D01*
X5518D01*
X5496Y78774D01*
X5468Y78752D01*
X5438Y78724D01*
X5407Y78696D01*
X5338Y78630D01*
X5269Y78558D01*
X5235Y78525D01*
X5202Y78491D01*
X5175Y78464D01*
X5150Y78436D01*
X5130Y78414D01*
X5113Y78397D01*
X5102Y78386D01*
X5100Y78383D01*
X5030Y78309D01*
X4964Y78242D01*
X4900Y78178D01*
X4842Y78123D01*
X4789Y78073D01*
X4737Y78029D01*
X4693Y77987D01*
X4651Y77954D01*
X4612Y77924D01*
X4582Y77899D01*
X4551Y77877D01*
X4529Y77860D01*
X4512Y77849D01*
X4499Y77838D01*
X4490Y77835D01*
X4487Y77832D01*
X4402Y77785D01*
X4316Y77749D01*
X4233Y77719D01*
X4158Y77697D01*
X4125Y77688D01*
X4094Y77683D01*
X4067Y77677D01*
X4044Y77671D01*
X4025Y77669D01*
X4011D01*
X4003Y77666D01*
X4000D01*
Y79383D01*
X4454D01*
Y78408D01*
X4501Y78442D01*
X4524Y78458D01*
X4546Y78472D01*
X4562Y78486D01*
X4576Y78497D01*
X4584Y78505D01*
X4587Y78508D01*
X4601Y78522D01*
X4620Y78539D01*
X4640Y78558D01*
X4662Y78580D01*
X4709Y78627D01*
X4756Y78677D01*
X4800Y78724D01*
X4820Y78746D01*
X4837Y78766D01*
X4850Y78780D01*
X4862Y78791D01*
X4867Y78799D01*
X4870Y78802D01*
X4909Y78843D01*
X4945Y78882D01*
X4981Y78918D01*
X5011Y78951D01*
X5042Y78979D01*
X5066Y79007D01*
X5091Y79029D01*
X5113Y79051D01*
X5150Y79081D01*
X5175Y79106D01*
X5191Y79118D01*
X5197Y79123D01*
X5260Y79170D01*
X5321Y79212D01*
X5377Y79245D01*
X5424Y79273D01*
X5465Y79292D01*
X5482Y79300D01*
X5496Y79309D01*
X5507Y79314D01*
X5518Y79317D01*
X5521Y79320D01*
X5523D01*
X5582Y79342D01*
X5640Y79356D01*
X5695Y79367D01*
X5748Y79375D01*
X5789Y79381D01*
X5809D01*
X5823Y79383D01*
X5836D01*
X5845D01*
X5850D01*
X5853D01*
X5909Y79381D01*
D02*
G37*
G36*
X6557Y76816D02*
X4839D01*
X6557Y75763D01*
Y75264D01*
X4000D01*
Y75741D01*
X5679D01*
X4000Y76777D01*
Y77292D01*
X6557D01*
Y76816D01*
D02*
G37*
G36*
Y72899D02*
X6125D01*
Y73658D01*
X4000D01*
Y74173D01*
X6125D01*
Y74927D01*
X6557D01*
Y72899D01*
D02*
G37*
G36*
X4820Y72636D02*
X4895Y72622D01*
X4958Y72600D01*
X5017Y72578D01*
X5039Y72566D01*
X5061Y72555D01*
X5080Y72544D01*
X5097Y72533D01*
X5108Y72525D01*
X5116Y72519D01*
X5122Y72517D01*
X5125Y72514D01*
X5183Y72464D01*
X5230Y72406D01*
X5271Y72345D01*
X5302Y72289D01*
X5327Y72237D01*
X5335Y72215D01*
X5343Y72195D01*
X5349Y72179D01*
X5354Y72167D01*
X5357Y72159D01*
Y72157D01*
X5388Y72215D01*
X5424Y72267D01*
X5463Y72312D01*
X5499Y72350D01*
X5532Y72381D01*
X5557Y72403D01*
X5568Y72408D01*
X5576Y72414D01*
X5579Y72420D01*
X5582D01*
X5640Y72453D01*
X5695Y72475D01*
X5751Y72492D01*
X5803Y72505D01*
X5848Y72511D01*
X5864Y72514D01*
X5881D01*
X5895Y72517D01*
X5903D01*
X5909D01*
X5911D01*
X5972Y72514D01*
X6028Y72505D01*
X6080Y72492D01*
X6125Y72478D01*
X6161Y72461D01*
X6188Y72450D01*
X6197Y72444D01*
X6205Y72439D01*
X6208Y72436D01*
X6211D01*
X6257Y72406D01*
X6299Y72373D01*
X6335Y72339D01*
X6368Y72309D01*
X6391Y72281D01*
X6410Y72259D01*
X6421Y72245D01*
X6424Y72242D01*
Y72240D01*
X6451Y72195D01*
X6474Y72148D01*
X6493Y72104D01*
X6507Y72062D01*
X6518Y72026D01*
X6523Y71999D01*
X6526Y71987D01*
X6529Y71979D01*
Y71974D01*
X6535Y71943D01*
X6537Y71913D01*
X6546Y71841D01*
X6551Y71766D01*
X6554Y71691D01*
Y71658D01*
X6557Y71625D01*
Y70500D01*
X4000D01*
Y71458D01*
X4003Y71539D01*
Y71675D01*
X4005Y71733D01*
Y71782D01*
X4008Y71827D01*
Y71866D01*
X4011Y71896D01*
Y71924D01*
X4014Y71946D01*
Y71963D01*
X4017Y71976D01*
Y71990D01*
X4028Y72065D01*
X4044Y72132D01*
X4064Y72193D01*
X4086Y72242D01*
X4105Y72281D01*
X4114Y72298D01*
X4119Y72312D01*
X4127Y72323D01*
X4133Y72331D01*
X4136Y72334D01*
Y72337D01*
X4174Y72386D01*
X4219Y72431D01*
X4263Y72470D01*
X4305Y72500D01*
X4341Y72525D01*
X4371Y72544D01*
X4382Y72550D01*
X4391Y72555D01*
X4396Y72558D01*
X4399D01*
X4463Y72586D01*
X4524Y72605D01*
X4579Y72622D01*
X4632Y72630D01*
X4676Y72636D01*
X4695Y72638D01*
X4709Y72641D01*
X4723D01*
X4731D01*
X4737D01*
X4740D01*
X4781D01*
X4820Y72636D01*
D02*
G37*
%LPC*%
G36*
X6413Y120025D02*
X3200D01*
Y118620D01*
D01*
Y119411D01*
X5508D01*
X5504Y119407D01*
X5494Y119397D01*
X5476Y119376D01*
X5455Y119352D01*
X5431Y119321D01*
X5400Y119279D01*
X5365Y119237D01*
X5331Y119185D01*
X5292Y119130D01*
X5254Y119071D01*
X5216Y119005D01*
X5178Y118936D01*
X5140Y118863D01*
X5105Y118783D01*
X5074Y118703D01*
X5043Y118620D01*
X5601D01*
Y118623D01*
X5605Y118630D01*
X5608Y118644D01*
X5615Y118661D01*
X5626Y118686D01*
X5636Y118710D01*
X5650Y118741D01*
X5667Y118776D01*
X5705Y118852D01*
X5757Y118939D01*
X5820Y119036D01*
X5896Y119140D01*
X5900Y119144D01*
X5907Y119154D01*
X5917Y119168D01*
X5934Y119185D01*
X5955Y119210D01*
X5983Y119234D01*
X6011Y119262D01*
X6045Y119293D01*
X6122Y119359D01*
X6208Y119421D01*
X6306Y119480D01*
X6358Y119505D01*
X6413Y119526D01*
Y120025D01*
D02*
G37*
G36*
X6403Y117908D02*
X3200D01*
Y117263D01*
X5303Y115965D01*
X3200D01*
Y115368D01*
X6403D01*
Y117908D01*
D02*
G37*
G36*
Y114945D02*
X3200D01*
Y112405D01*
Y113356D01*
X5861D01*
Y112405D01*
X6403D01*
Y114945D01*
D02*
G37*
G36*
Y112082D02*
X3200D01*
D01*
X4088D01*
X4071Y112079D01*
X4047Y112075D01*
X3991Y112068D01*
X3925Y112058D01*
X3856Y112037D01*
X3779Y112013D01*
X3700Y111978D01*
X3696D01*
X3689Y111975D01*
X3679Y111968D01*
X3665Y111961D01*
X3627Y111937D01*
X3582Y111905D01*
X3530Y111867D01*
X3474Y111819D01*
X3419Y111763D01*
X3370Y111701D01*
Y111697D01*
X3367Y111694D01*
X3360Y111683D01*
X3349Y111669D01*
X3342Y111652D01*
X3332Y111631D01*
X3308Y111583D01*
X3280Y111520D01*
X3255Y111444D01*
X3235Y111361D01*
X3221Y111267D01*
Y111249D01*
X3217Y111232D01*
Y111211D01*
X3214Y111184D01*
Y111149D01*
X3210Y111111D01*
Y111062D01*
X3207Y111007D01*
Y110944D01*
X3204Y110871D01*
Y110701D01*
X3200Y110601D01*
Y109400D01*
X6403D01*
Y110809D01*
X6399Y110851D01*
Y110892D01*
X6396Y110986D01*
X6389Y111080D01*
X6379Y111170D01*
X6375Y111208D01*
X6368Y111246D01*
Y111253D01*
X6365Y111263D01*
X6361Y111277D01*
X6354Y111312D01*
X6340Y111357D01*
X6323Y111409D01*
X6299Y111465D01*
X6271Y111524D01*
X6236Y111579D01*
Y111583D01*
X6233Y111586D01*
X6219Y111603D01*
X6195Y111631D01*
X6167Y111666D01*
X6125Y111704D01*
X6080Y111746D01*
X6028Y111787D01*
X5969Y111826D01*
X5966D01*
X5962Y111829D01*
X5952Y111836D01*
X5941Y111843D01*
X5907Y111857D01*
X5861Y111878D01*
X5806Y111895D01*
X5740Y111912D01*
X5671Y111923D01*
X5594Y111926D01*
X5591D01*
X5584D01*
X5573D01*
X5556Y111923D01*
X5535D01*
X5514Y111919D01*
X5459Y111912D01*
X5393Y111895D01*
X5324Y111874D01*
X5254Y111846D01*
X5181Y111805D01*
X5178D01*
X5174Y111798D01*
X5164Y111791D01*
X5150Y111784D01*
X5119Y111756D01*
X5077Y111718D01*
X5032Y111669D01*
X4984Y111614D01*
X4939Y111548D01*
X4900Y111475D01*
Y111478D01*
X4897Y111489D01*
X4890Y111503D01*
X4883Y111524D01*
X4873Y111548D01*
X4862Y111576D01*
X4831Y111642D01*
X4793Y111711D01*
X4741Y111787D01*
X4682Y111860D01*
X4609Y111923D01*
X4605Y111926D01*
X4598Y111930D01*
X4588Y111937D01*
X4574Y111947D01*
X4553Y111961D01*
X4529Y111975D01*
X4501Y111989D01*
X4473Y112003D01*
X4401Y112030D01*
X4321Y112058D01*
X4227Y112075D01*
X4179Y112082D01*
X6403D01*
D01*
D02*
G37*
%LPD*%
G36*
Y115993D02*
X4251Y117312D01*
X6403D01*
Y115993D01*
D02*
G37*
G36*
X5861Y114001D02*
X3200D01*
Y114945D01*
X5861D01*
Y114001D01*
D02*
G37*
G36*
X5556Y111295D02*
X5587Y111288D01*
X5626Y111277D01*
X5667Y111263D01*
X5705Y111243D01*
X5743Y111215D01*
X5747Y111211D01*
X5757Y111201D01*
X5775Y111180D01*
X5792Y111152D01*
X5813Y111118D01*
X5830Y111076D01*
X5844Y111027D01*
X5855Y110968D01*
Y110958D01*
X5858Y110948D01*
Y110916D01*
X5861Y110892D01*
Y110833D01*
X5865Y110792D01*
Y110698D01*
X5868Y110639D01*
Y110045D01*
X5129D01*
Y110670D01*
X5133Y110750D01*
Y110826D01*
X5136Y110861D01*
Y110892D01*
X5140Y110920D01*
Y110948D01*
X5143Y110968D01*
X5150Y111000D01*
X5161Y111034D01*
X5174Y111076D01*
X5195Y111121D01*
X5220Y111163D01*
X5251Y111201D01*
X5254Y111204D01*
X5268Y111215D01*
X5289Y111232D01*
X5320Y111249D01*
X5355Y111267D01*
X5400Y111284D01*
X5449Y111295D01*
X5504Y111298D01*
X5511D01*
X5528D01*
X5556Y111295D01*
D02*
G37*
G36*
X4210Y111413D02*
X4241Y111406D01*
X4279Y111399D01*
X4321Y111385D01*
X4362Y111367D01*
X4401Y111343D01*
X4404Y111340D01*
X4418Y111329D01*
X4435Y111316D01*
X4456Y111291D01*
X4480Y111263D01*
X4505Y111229D01*
X4526Y111187D01*
X4546Y111142D01*
X4550Y111135D01*
Y111128D01*
X4553Y111114D01*
X4557Y111097D01*
X4560Y111076D01*
X4567Y111052D01*
X4571Y111021D01*
X4574Y110986D01*
X4581Y110944D01*
X4584Y110896D01*
X4588Y110844D01*
X4592Y110784D01*
Y110719D01*
X4595Y110646D01*
Y110045D01*
X3741D01*
Y110757D01*
X3745Y110830D01*
Y110906D01*
X3748Y110979D01*
X3752Y111010D01*
Y111041D01*
X3755Y111066D01*
X3759Y111086D01*
Y111093D01*
X3766Y111111D01*
X3773Y111138D01*
X3786Y111170D01*
X3804Y111208D01*
X3825Y111246D01*
X3852Y111288D01*
X3887Y111322D01*
X3890Y111326D01*
X3904Y111336D01*
X3929Y111354D01*
X3960Y111371D01*
X3998Y111385D01*
X4043Y111402D01*
X4099Y111413D01*
X4158Y111416D01*
X4165D01*
X4182D01*
X4210Y111413D01*
D02*
G37*
%LPC*%
G36*
X6501Y32546D02*
X6487D01*
X6482D01*
X6437Y32544D01*
X6399Y32535D01*
X6363Y32521D01*
X6335Y32508D01*
X6310Y32494D01*
X6293Y32480D01*
X6282Y32471D01*
X6280Y32469D01*
X6255Y32438D01*
X6235Y32405D01*
X6219Y32369D01*
X6208Y32336D01*
X6199Y32308D01*
X6194Y32283D01*
X6191Y32267D01*
Y32244D01*
X6188Y32222D01*
Y32197D01*
X6185Y32170D01*
Y32109D01*
X6183Y32045D01*
Y31546D01*
X6773D01*
Y32020D01*
X6770Y32067D01*
Y32142D01*
X6767Y32175D01*
Y32222D01*
X6764Y32242D01*
Y32267D01*
X6762Y32275D01*
Y32283D01*
X6753Y32330D01*
X6742Y32369D01*
X6728Y32402D01*
X6712Y32430D01*
X6698Y32452D01*
X6684Y32469D01*
X6676Y32477D01*
X6673Y32480D01*
X6643Y32502D01*
X6612Y32519D01*
X6579Y32530D01*
X6548Y32538D01*
X6523Y32544D01*
X6501Y32546D01*
D02*
G37*
G36*
X5426Y32640D02*
X5413D01*
X5407D01*
X5360Y32638D01*
X5316Y32629D01*
X5280Y32616D01*
X5249Y32605D01*
X5224Y32591D01*
X5205Y32577D01*
X5194Y32568D01*
X5191Y32566D01*
X5163Y32538D01*
X5141Y32505D01*
X5125Y32474D01*
X5111Y32444D01*
X5100Y32419D01*
X5094Y32397D01*
X5088Y32383D01*
Y32377D01*
X5086Y32361D01*
X5083Y32341D01*
Y32316D01*
X5080Y32291D01*
X5077Y32233D01*
Y32172D01*
X5075Y32114D01*
Y31546D01*
X5756D01*
Y32026D01*
X5753Y32084D01*
Y32136D01*
X5751Y32183D01*
X5748Y32225D01*
X5745Y32264D01*
X5740Y32297D01*
X5737Y32325D01*
X5734Y32350D01*
X5728Y32369D01*
X5726Y32386D01*
X5723Y32399D01*
X5720Y32411D01*
Y32416D01*
X5717Y32422D01*
X5701Y32458D01*
X5684Y32491D01*
X5665Y32519D01*
X5645Y32541D01*
X5629Y32560D01*
X5615Y32571D01*
X5604Y32579D01*
X5601Y32582D01*
X5570Y32602D01*
X5537Y32616D01*
X5504Y32627D01*
X5474Y32632D01*
X5449Y32638D01*
X5426Y32640D01*
D02*
G37*
G36*
X5859Y72015D02*
X5845D01*
X5839D01*
X5795Y72012D01*
X5756Y72004D01*
X5720Y71990D01*
X5692Y71976D01*
X5667Y71963D01*
X5651Y71949D01*
X5640Y71940D01*
X5637Y71938D01*
X5612Y71907D01*
X5593Y71874D01*
X5576Y71838D01*
X5565Y71805D01*
X5557Y71777D01*
X5551Y71752D01*
X5548Y71735D01*
Y71713D01*
X5546Y71691D01*
Y71666D01*
X5543Y71639D01*
Y71578D01*
X5540Y71514D01*
Y71015D01*
X6130D01*
Y71489D01*
X6127Y71536D01*
Y71611D01*
X6125Y71644D01*
Y71691D01*
X6122Y71710D01*
Y71735D01*
X6119Y71744D01*
Y71752D01*
X6111Y71799D01*
X6100Y71838D01*
X6086Y71871D01*
X6069Y71899D01*
X6055Y71921D01*
X6041Y71938D01*
X6033Y71946D01*
X6030Y71949D01*
X6000Y71971D01*
X5970Y71987D01*
X5936Y71999D01*
X5906Y72007D01*
X5881Y72012D01*
X5859Y72015D01*
D02*
G37*
G36*
X4784Y72109D02*
X4770D01*
X4764D01*
X4717Y72107D01*
X4673Y72098D01*
X4637Y72084D01*
X4607Y72073D01*
X4582Y72060D01*
X4562Y72046D01*
X4551Y72037D01*
X4549Y72035D01*
X4521Y72007D01*
X4499Y71974D01*
X4482Y71943D01*
X4468Y71913D01*
X4457Y71888D01*
X4451Y71866D01*
X4446Y71852D01*
Y71846D01*
X4443Y71830D01*
X4440Y71810D01*
Y71785D01*
X4438Y71760D01*
X4435Y71702D01*
Y71641D01*
X4432Y71583D01*
Y71015D01*
X5113D01*
Y71494D01*
X5111Y71553D01*
Y71605D01*
X5108Y71652D01*
X5105Y71694D01*
X5102Y71733D01*
X5097Y71766D01*
X5094Y71794D01*
X5091Y71819D01*
X5086Y71838D01*
X5083Y71855D01*
X5080Y71868D01*
X5077Y71880D01*
Y71885D01*
X5075Y71890D01*
X5058Y71926D01*
X5042Y71960D01*
X5022Y71987D01*
X5003Y72010D01*
X4986Y72029D01*
X4972Y72040D01*
X4961Y72048D01*
X4958Y72051D01*
X4928Y72071D01*
X4895Y72084D01*
X4862Y72096D01*
X4831Y72101D01*
X4806Y72107D01*
X4784Y72109D01*
D02*
G37*
%LPD*%
D11*
X132000Y7609D02*
Y140365D01*
X7905Y7609D02*
X132000D01*
X7905D02*
Y140365D01*
X132000D01*
D104*
X146900Y80700D02*
G03*
X146900Y67700I0J-6500D01*
G01*
X134400Y70800D02*
X141300D01*
X134400Y77900D02*
X141500D01*
X146900Y67700D02*
Y80700D01*
M02*
