G04*
G04 #@! TF.GenerationSoftware,Altium Limited,Altium Designer,20.2.6 (244)*
G04*
G04 Layer_Color=12040119*
%FSLAX25Y25*%
%MOIN*%
G70*
G04*
G04 #@! TF.SameCoordinates,A8075328-C244-4C89-8B57-C0C48858537B*
G04*
G04*
G04 #@! TF.FilePolarity,Positive*
G04*
G01*
G75*
%ADD11C,0.01000*%
%ADD17R,0.02055X0.02362*%
%ADD18R,0.02362X0.03347*%
%ADD19R,0.04724X0.02362*%
%ADD20R,0.02362X0.02756*%
%ADD21R,0.04331X0.03150*%
%ADD22R,0.03937X0.13780*%
%ADD23R,0.05906X0.13386*%
%ADD24R,0.03150X0.03543*%
%ADD25R,0.03347X0.02756*%
%ADD26R,0.02165X0.01772*%
%ADD27R,0.11000X0.02900*%
%ADD28R,0.10000X0.02900*%
G04:AMPARAMS|DCode=29|XSize=29mil|YSize=110mil|CornerRadius=7.25mil|HoleSize=0mil|Usage=FLASHONLY|Rotation=270.000|XOffset=0mil|YOffset=0mil|HoleType=Round|Shape=RoundedRectangle|*
%AMROUNDEDRECTD29*
21,1,0.02900,0.09550,0,0,270.0*
21,1,0.01450,0.11000,0,0,270.0*
1,1,0.01450,-0.04775,-0.00725*
1,1,0.01450,-0.04775,0.00725*
1,1,0.01450,0.04775,0.00725*
1,1,0.01450,0.04775,-0.00725*
%
%ADD29ROUNDEDRECTD29*%
%ADD30R,0.04724X0.02756*%
%ADD31R,0.04724X0.03937*%
%ADD32R,0.03150X0.03937*%
%ADD33R,0.07480X0.05118*%
%ADD34R,0.11024X0.03937*%
%ADD35R,0.05315X0.02756*%
%ADD36R,0.03937X0.06299*%
%ADD37R,0.04921X0.05512*%
%ADD38R,0.01968X0.02559*%
%ADD39R,0.09449X0.07874*%
%ADD40C,0.01200*%
%ADD41R,0.05512X0.01575*%
%ADD42R,0.09843X0.05610*%
%ADD43R,0.02756X0.05610*%
%ADD44R,0.01181X0.05709*%
%ADD45R,0.06693X0.03150*%
%ADD46R,0.03347X0.02362*%
%ADD47R,0.01772X0.02165*%
%ADD48R,0.02362X0.04724*%
%ADD49R,0.05512X0.04921*%
D11*
X142835Y76974D02*
G03*
X141099Y75237I994J-2730D01*
G01*
Y73250D02*
G03*
X142835Y71513I2730J994D01*
G01*
X144823D02*
G03*
X146559Y73250I-994J2730D01*
G01*
Y75237D02*
G03*
X144823Y76974I-2730J-994D01*
G01*
D17*
X135664Y70700D02*
D03*
X138900D02*
D03*
Y77787D02*
D03*
X135664D02*
D03*
Y74243D02*
D03*
D18*
X90260Y122729D02*
D03*
X97740D02*
D03*
Y113871D02*
D03*
X94000D02*
D03*
X90260D02*
D03*
X60200Y58336D02*
D03*
Y62864D02*
D03*
X66440Y117871D02*
D03*
X58960D02*
D03*
Y126729D02*
D03*
X62700D02*
D03*
X66440D02*
D03*
X60400Y101336D02*
D03*
Y105864D02*
D03*
X91400Y90864D02*
D03*
Y86336D02*
D03*
X71200Y102031D02*
D03*
Y106558D02*
D03*
X76306D02*
D03*
Y102031D02*
D03*
X41600Y99564D02*
D03*
Y95036D02*
D03*
Y89464D02*
D03*
Y84936D02*
D03*
X54900Y58400D02*
D03*
Y62928D02*
D03*
D19*
X-7143Y38664D02*
D03*
Y31184D02*
D03*
X-57Y34924D02*
D03*
D20*
X103287Y102000D02*
D03*
X95800D02*
D03*
Y109480D02*
D03*
D21*
X102500D02*
D03*
X953Y74700D02*
D03*
D22*
X20963Y132327D02*
D03*
X28837D02*
D03*
D23*
X11711Y110673D02*
D03*
X38089D02*
D03*
D24*
X49747Y12800D02*
D03*
X55653D02*
D03*
D25*
X58100Y49548D02*
D03*
Y43052D02*
D03*
D26*
X47500Y47668D02*
D03*
Y43731D02*
D03*
X127600Y77368D02*
D03*
Y73431D02*
D03*
X60000Y12291D02*
D03*
Y16228D02*
D03*
Y19850D02*
D03*
Y23787D02*
D03*
X76063Y131532D02*
D03*
Y135468D02*
D03*
X82300Y131532D02*
D03*
Y135468D02*
D03*
X51900Y47769D02*
D03*
Y43832D02*
D03*
D27*
X101500Y83497D02*
D03*
Y78497D02*
D03*
Y88497D02*
D03*
X118500Y93497D02*
D03*
Y88497D02*
D03*
Y83497D02*
D03*
Y78497D02*
D03*
Y73497D02*
D03*
D28*
X101500D02*
D03*
D29*
Y93497D02*
D03*
D30*
X66311Y15243D02*
D03*
Y49298D02*
D03*
Y44968D02*
D03*
Y40637D02*
D03*
Y36306D02*
D03*
Y31976D02*
D03*
Y27645D02*
D03*
Y23314D02*
D03*
Y18983D02*
D03*
D31*
Y55401D02*
D03*
X83240Y11503D02*
D03*
D32*
X107650D02*
D03*
D33*
X125760Y64653D02*
D03*
D34*
X123988Y11503D02*
D03*
D35*
X104724Y136700D02*
D03*
X95276D02*
D03*
X115400Y136800D02*
D03*
X124849D02*
D03*
X71035Y111411D02*
D03*
X61587D02*
D03*
D36*
X49531Y115200D02*
D03*
Y135200D02*
D03*
D37*
X66945Y134100D02*
D03*
X60055D02*
D03*
X53445Y74700D02*
D03*
X46555D02*
D03*
X41455Y62600D02*
D03*
X48345D02*
D03*
X97145Y129000D02*
D03*
X90255D02*
D03*
X48145Y54400D02*
D03*
X41255D02*
D03*
D38*
X81142Y106165D02*
D03*
Y102424D02*
D03*
D39*
X50200Y99680D02*
D03*
Y84720D02*
D03*
D40*
X84979Y93642D02*
D03*
Y91674D02*
D03*
Y89705D02*
D03*
Y85769D02*
D03*
Y83800D02*
D03*
Y81832D02*
D03*
Y79863D02*
D03*
Y77895D02*
D03*
Y73958D02*
D03*
Y71989D02*
D03*
Y70021D02*
D03*
X83011Y93642D02*
D03*
Y91674D02*
D03*
Y89705D02*
D03*
Y85769D02*
D03*
Y83800D02*
D03*
Y81832D02*
D03*
Y79863D02*
D03*
Y77895D02*
D03*
Y73958D02*
D03*
Y71989D02*
D03*
Y70021D02*
D03*
X81042Y93642D02*
D03*
Y91674D02*
D03*
Y81832D02*
D03*
Y71989D02*
D03*
Y70021D02*
D03*
X77105Y93642D02*
D03*
Y91674D02*
D03*
Y85769D02*
D03*
Y83800D02*
D03*
Y81832D02*
D03*
Y79863D02*
D03*
Y77895D02*
D03*
Y71989D02*
D03*
Y70021D02*
D03*
X75137Y93642D02*
D03*
Y91674D02*
D03*
Y85769D02*
D03*
Y83800D02*
D03*
Y79863D02*
D03*
Y77895D02*
D03*
Y71989D02*
D03*
Y70021D02*
D03*
X73168Y93642D02*
D03*
Y91674D02*
D03*
Y89705D02*
D03*
Y85769D02*
D03*
Y83800D02*
D03*
Y79863D02*
D03*
Y77895D02*
D03*
Y73958D02*
D03*
Y71989D02*
D03*
Y70021D02*
D03*
X71200Y93642D02*
D03*
Y91674D02*
D03*
Y85769D02*
D03*
Y83800D02*
D03*
Y79863D02*
D03*
Y77895D02*
D03*
Y71989D02*
D03*
Y70021D02*
D03*
X69231Y93642D02*
D03*
Y91674D02*
D03*
Y85769D02*
D03*
Y83800D02*
D03*
Y81832D02*
D03*
Y79863D02*
D03*
Y77895D02*
D03*
Y71989D02*
D03*
Y70021D02*
D03*
X65294Y93642D02*
D03*
Y91674D02*
D03*
Y81832D02*
D03*
Y71989D02*
D03*
Y70021D02*
D03*
X63326Y93642D02*
D03*
Y91674D02*
D03*
Y89705D02*
D03*
Y85769D02*
D03*
Y83800D02*
D03*
Y81832D02*
D03*
Y79863D02*
D03*
Y77895D02*
D03*
Y73958D02*
D03*
Y71989D02*
D03*
Y70021D02*
D03*
X61357Y93642D02*
D03*
Y91674D02*
D03*
Y89705D02*
D03*
Y85769D02*
D03*
Y83800D02*
D03*
Y81832D02*
D03*
Y79863D02*
D03*
Y77895D02*
D03*
Y73958D02*
D03*
Y71989D02*
D03*
Y70021D02*
D03*
D41*
X113657Y110082D02*
D03*
Y112641D02*
D03*
Y120318D02*
D03*
Y117759D02*
D03*
Y115200D02*
D03*
D42*
X125527Y118989D02*
D03*
Y111411D02*
D03*
D43*
X117653Y102208D02*
D03*
Y128192D02*
D03*
D44*
X55437Y37132D02*
D03*
X53469D02*
D03*
X51500D02*
D03*
X49531D02*
D03*
X47563D02*
D03*
X55437Y20400D02*
D03*
X53469D02*
D03*
X51500D02*
D03*
X49531D02*
D03*
X47563D02*
D03*
D45*
X-5543Y68007D02*
D03*
Y81393D02*
D03*
D46*
X49636Y68700D02*
D03*
X54164D02*
D03*
X93664Y67769D02*
D03*
X89136D02*
D03*
D47*
X87463Y102208D02*
D03*
X91400D02*
D03*
Y105653D02*
D03*
X87463D02*
D03*
X91400Y109300D02*
D03*
X87463D02*
D03*
D48*
X81640Y123787D02*
D03*
X74160D02*
D03*
X77900Y116700D02*
D03*
D49*
X105100Y122055D02*
D03*
Y128945D02*
D03*
M02*
