G04*
G04 #@! TF.GenerationSoftware,Altium Limited,Altium Designer,20.1.14 (287)*
G04*
G04 Layer_Physical_Order=2*
G04 Layer_Color=16765976*
%FSLAX25Y25*%
%MOIN*%
G70*
G04*
G04 #@! TF.SameCoordinates,CE59E18C-A3DC-4852-8C87-7D8AF6908A11*
G04*
G04*
G04 #@! TF.FilePolarity,Positive*
G04*
G01*
G75*
%ADD94C,0.02000*%
%ADD97R,0.05000X0.09500*%
%ADD101C,0.01800*%
G36*
X100500Y142450D02*
X102431D01*
Y140961D01*
X102512Y140552D01*
X102744Y140204D01*
X103092Y139972D01*
X103501Y139891D01*
X106499D01*
X106908Y139972D01*
X107255Y140204D01*
X107488Y140552D01*
X107569Y140961D01*
Y141950D01*
X112431D01*
Y140961D01*
X112512Y140552D01*
X112744Y140204D01*
X113092Y139972D01*
X113502Y139891D01*
X116498D01*
X116908Y139972D01*
X117255Y140204D01*
X117488Y140552D01*
X117569Y140961D01*
Y141950D01*
X123500D01*
Y144269D01*
X124000Y144515D01*
X124458Y144164D01*
X125443Y143756D01*
X126500Y143617D01*
X127557Y143756D01*
X128542Y144164D01*
X129387Y144813D01*
X130036Y145658D01*
X130130Y145885D01*
X130594Y145842D01*
X130643Y145818D01*
X131181Y144047D01*
X132063Y142396D01*
X133250Y140950D01*
X134696Y139763D01*
X136347Y138881D01*
X137645Y138487D01*
Y137964D01*
X136291Y137554D01*
X134607Y136654D01*
X133130Y135442D01*
X131919Y133966D01*
X131735Y133623D01*
X131496Y133184D01*
X131434Y133090D01*
X131352Y132681D01*
Y82701D01*
X131434Y82292D01*
X131666Y81945D01*
X132013Y81712D01*
X132423Y81631D01*
X149431D01*
Y66769D01*
X133787D01*
X133519Y67269D01*
X133619Y67418D01*
X133727Y67964D01*
X133619Y68511D01*
X133309Y68974D01*
X132846Y69283D01*
X132300Y69392D01*
X131754Y69283D01*
X131291Y68974D01*
X130981Y68511D01*
X130873Y67964D01*
X130981Y67418D01*
X131291Y66955D01*
X131402Y66881D01*
X131441Y66818D01*
X131510Y66223D01*
X131434Y66108D01*
X131352Y65698D01*
Y15633D01*
X131352Y15618D01*
X131352Y15617D01*
X131352Y15586D01*
X131430Y15157D01*
X131430D01*
X132214Y13689D01*
X133356Y12297D01*
X134749Y11154D01*
X136337Y10305D01*
X137601Y9922D01*
Y9400D01*
X136347Y9019D01*
X134696Y8137D01*
X133250Y6950D01*
X132063Y5503D01*
X131181Y3853D01*
X130643Y2082D01*
X130594Y2058D01*
X130130Y2015D01*
X130036Y2242D01*
X129387Y3087D01*
X128542Y3736D01*
X127557Y4144D01*
X126500Y4283D01*
X125443Y4144D01*
X124458Y3736D01*
X124000Y3385D01*
X123500Y3631D01*
Y5950D01*
X117569D01*
Y7116D01*
X117488Y7525D01*
X117255Y7873D01*
X116908Y8105D01*
X116498Y8186D01*
X113502D01*
X113092Y8105D01*
X112744Y7873D01*
X112512Y7525D01*
X112431Y7116D01*
Y5950D01*
X107569D01*
Y7116D01*
X107488Y7525D01*
X107255Y7873D01*
X106908Y8105D01*
X106499Y8186D01*
X103501D01*
X103092Y8105D01*
X102744Y7873D01*
X102512Y7525D01*
X102431Y7116D01*
Y5950D01*
X97569D01*
Y7116D01*
X97488Y7525D01*
X97255Y7873D01*
X96908Y8105D01*
X96499Y8186D01*
X93502D01*
X93092Y8105D01*
X92744Y7873D01*
X92512Y7525D01*
X92431Y7116D01*
Y5950D01*
X87569D01*
Y7116D01*
X87488Y7525D01*
X87256Y7873D01*
X86908Y8105D01*
X86498Y8186D01*
X83501D01*
X83092Y8105D01*
X82744Y7873D01*
X82512Y7525D01*
X82431Y7116D01*
Y5950D01*
X77569D01*
Y7116D01*
X77488Y7525D01*
X77255Y7873D01*
X76908Y8105D01*
X76499Y8186D01*
X73501D01*
X73092Y8105D01*
X72745Y7873D01*
X72512Y7525D01*
X72431Y7116D01*
Y5950D01*
X67569D01*
Y7116D01*
X67488Y7525D01*
X67256Y7873D01*
X66908Y8105D01*
X66499Y8186D01*
X63502D01*
X63092Y8105D01*
X62744Y7873D01*
X62512Y7525D01*
X62431Y7116D01*
Y5950D01*
X57569D01*
Y7116D01*
X57488Y7525D01*
X57256Y7873D01*
X56908Y8105D01*
X56498Y8186D01*
X53501D01*
X53092Y8105D01*
X52745Y7873D01*
X52512Y7525D01*
X52431Y7116D01*
Y5950D01*
X47569D01*
Y7116D01*
X47488Y7525D01*
X47256Y7873D01*
X46908Y8105D01*
X46499Y8186D01*
X43501D01*
X43092Y8105D01*
X42744Y7873D01*
X42512Y7525D01*
X42431Y7116D01*
Y5950D01*
X37569D01*
Y7029D01*
X37488Y7439D01*
X37255Y7786D01*
X36908Y8018D01*
X36498Y8100D01*
X33501D01*
X33092Y8018D01*
X32745Y7786D01*
X32512Y7439D01*
X32431Y7029D01*
Y5950D01*
X27569D01*
Y7029D01*
X27488Y7439D01*
X27255Y7786D01*
X26908Y8018D01*
X26498Y8100D01*
X23502D01*
X23092Y8018D01*
X22745Y7786D01*
X22512Y7439D01*
X22431Y7029D01*
Y5950D01*
X16500D01*
Y3778D01*
X16000Y3531D01*
X15543Y3882D01*
X14558Y4290D01*
X13500Y4429D01*
X12442Y4290D01*
X11457Y3882D01*
X10610Y3232D01*
X9961Y2386D01*
X9853Y2125D01*
X9652Y2099D01*
X9330Y2169D01*
X8819Y3853D01*
X7937Y5503D01*
X6750Y6950D01*
X5303Y8137D01*
X3653Y9019D01*
X2408Y9397D01*
X2408Y9920D01*
X3167Y10150D01*
X4408Y10813D01*
X5495Y11705D01*
X6387Y12792D01*
X7050Y14033D01*
X7459Y15379D01*
X7597Y16779D01*
X7459Y18179D01*
X7050Y19525D01*
X6387Y20765D01*
X5495Y21852D01*
X4408Y22745D01*
X3167Y23408D01*
X1821Y23816D01*
X460Y23950D01*
X421Y23954D01*
X0Y24005D01*
X-40Y23989D01*
X-538Y23926D01*
X-9431D01*
Y46410D01*
X7404D01*
X7814Y46492D01*
X8161Y46724D01*
X8393Y47071D01*
X8475Y47481D01*
Y62226D01*
X8393Y62636D01*
X8161Y62983D01*
X7814Y63215D01*
X7404Y63297D01*
X-9431D01*
Y85781D01*
X7404D01*
X7814Y85862D01*
X8161Y86094D01*
X8393Y86441D01*
X8475Y86851D01*
Y101596D01*
X8393Y102006D01*
X8161Y102353D01*
X7814Y102585D01*
X7404Y102667D01*
X-9431D01*
Y125151D01*
X-502D01*
X-501Y125151D01*
X-487Y125150D01*
X-469Y125147D01*
X-0Y125072D01*
X0Y125072D01*
Y125072D01*
X25Y125126D01*
X471Y125183D01*
X1313Y125266D01*
X2546Y125640D01*
X3682Y126247D01*
X4677Y127064D01*
X5495Y128059D01*
X6102Y129195D01*
X6476Y130428D01*
X6602Y131710D01*
X6476Y132992D01*
X6102Y134224D01*
X5495Y135360D01*
X4677Y136356D01*
X3682Y137173D01*
X2546Y137780D01*
X2147Y137901D01*
Y138424D01*
X3653Y138881D01*
X5303Y139763D01*
X6750Y140950D01*
X7937Y142396D01*
X8819Y144047D01*
X9293Y145610D01*
X9824Y145636D01*
X9951Y145329D01*
X10602Y144481D01*
X11451Y143829D01*
X12439Y143420D01*
X13500Y143280D01*
X14561Y143420D01*
X15549Y143829D01*
X16000Y144175D01*
X16500Y143929D01*
Y141950D01*
X22431D01*
Y140875D01*
X22512Y140465D01*
X22745Y140118D01*
X23092Y139886D01*
X23502Y139804D01*
X26498D01*
X26908Y139886D01*
X27255Y140118D01*
X27488Y140465D01*
X27569Y140875D01*
Y141950D01*
X32431D01*
Y140875D01*
X32512Y140465D01*
X32745Y140118D01*
X33092Y139886D01*
X33501Y139804D01*
X36498D01*
X36908Y139886D01*
X37255Y140118D01*
X37488Y140465D01*
X37569Y140875D01*
Y141950D01*
X42431D01*
Y140875D01*
X42512Y140465D01*
X42744Y140118D01*
X43092Y139886D01*
X43501Y139804D01*
X46499D01*
X46908Y139886D01*
X47256Y140118D01*
X47488Y140465D01*
X47569Y140875D01*
Y141950D01*
X52431D01*
Y140875D01*
X52512Y140465D01*
X52745Y140118D01*
X53092Y139886D01*
X53501Y139804D01*
X56498D01*
X56908Y139886D01*
X57256Y140118D01*
X57488Y140465D01*
X57569Y140875D01*
Y141950D01*
X62431D01*
Y140875D01*
X62512Y140465D01*
X62744Y140118D01*
X63092Y139886D01*
X63502Y139804D01*
X66499D01*
X66908Y139886D01*
X67256Y140118D01*
X67488Y140465D01*
X67569Y140875D01*
Y141950D01*
X72431D01*
Y140875D01*
X72512Y140465D01*
X72745Y140118D01*
X73092Y139886D01*
X73501Y139804D01*
X76499D01*
X76908Y139886D01*
X77255Y140118D01*
X77488Y140465D01*
X77569Y140875D01*
Y141950D01*
X82431D01*
Y140875D01*
X82512Y140465D01*
X82744Y140118D01*
X83092Y139886D01*
X83501Y139804D01*
X86498D01*
X86908Y139886D01*
X87256Y140118D01*
X87488Y140465D01*
X87569Y140875D01*
Y141950D01*
X92431D01*
Y140875D01*
X92512Y140465D01*
X92744Y140118D01*
X93092Y139886D01*
X93502Y139804D01*
X96499D01*
X96908Y139886D01*
X97255Y140118D01*
X97488Y140465D01*
X97569Y140875D01*
Y142450D01*
X99500D01*
Y147700D01*
X100500D01*
Y142450D01*
D02*
G37*
%LPC*%
G36*
X84719Y136896D02*
X84172Y136787D01*
X83709Y136478D01*
X83400Y136015D01*
X83291Y135468D01*
X83400Y134922D01*
X83709Y134459D01*
X84172Y134150D01*
X84719Y134041D01*
X85265Y134150D01*
X85728Y134459D01*
X86037Y134922D01*
X86146Y135468D01*
X86037Y136015D01*
X85728Y136478D01*
X85265Y136787D01*
X84719Y136896D01*
D02*
G37*
G36*
X73809D02*
X73263Y136787D01*
X72800Y136478D01*
X72490Y136015D01*
X72382Y135468D01*
X72490Y134922D01*
X72800Y134459D01*
X73263Y134150D01*
X73809Y134041D01*
X74355Y134150D01*
X74818Y134459D01*
X75128Y134922D01*
X75236Y135468D01*
X75128Y136015D01*
X74818Y136478D01*
X74355Y136787D01*
X73809Y136896D01*
D02*
G37*
G36*
X89954Y134027D02*
X89408Y133919D01*
X88945Y133609D01*
X88636Y133146D01*
X88527Y132600D01*
X88636Y132054D01*
X88945Y131591D01*
X89408Y131281D01*
X89954Y131173D01*
X90501Y131281D01*
X90964Y131591D01*
X91273Y132054D01*
X91382Y132600D01*
X91273Y133146D01*
X90964Y133609D01*
X90501Y133919D01*
X89954Y134027D01*
D02*
G37*
G36*
X32100D02*
X31554Y133919D01*
X31091Y133609D01*
X30781Y133146D01*
X30673Y132600D01*
X30781Y132054D01*
X31091Y131591D01*
X31554Y131281D01*
X32100Y131173D01*
X32646Y131281D01*
X33109Y131591D01*
X33419Y132054D01*
X33527Y132600D01*
X33419Y133146D01*
X33109Y133609D01*
X32646Y133919D01*
X32100Y134027D01*
D02*
G37*
G36*
X108700Y132227D02*
X108154Y132119D01*
X107691Y131809D01*
X107381Y131346D01*
X107273Y130800D01*
X107381Y130254D01*
X107691Y129791D01*
X108154Y129481D01*
X108700Y129373D01*
X109246Y129481D01*
X109709Y129791D01*
X110019Y130254D01*
X110127Y130800D01*
X110019Y131346D01*
X109709Y131809D01*
X109246Y132119D01*
X108700Y132227D01*
D02*
G37*
G36*
X62700Y131427D02*
X62154Y131319D01*
X61691Y131009D01*
X61381Y130546D01*
X61273Y130000D01*
X61381Y129454D01*
X61691Y128991D01*
X62154Y128681D01*
X62700Y128573D01*
X63246Y128681D01*
X63709Y128991D01*
X64019Y129454D01*
X64127Y130000D01*
X64019Y130546D01*
X63709Y131009D01*
X63246Y131319D01*
X62700Y131427D01*
D02*
G37*
G36*
X124739Y129993D02*
X123733Y129861D01*
X122796Y129472D01*
X121990Y128854D01*
X121373Y128049D01*
X120984Y127112D01*
X120852Y126105D01*
X120984Y125099D01*
X121373Y124162D01*
X121990Y123357D01*
X122796Y122739D01*
X123733Y122350D01*
X124739Y122218D01*
X125746Y122350D01*
X126683Y122739D01*
X127488Y123357D01*
X128106Y124162D01*
X128495Y125099D01*
X128627Y126105D01*
X128495Y127112D01*
X128106Y128049D01*
X127488Y128854D01*
X126683Y129472D01*
X125746Y129861D01*
X124739Y129993D01*
D02*
G37*
G36*
X85300Y124927D02*
X84754Y124819D01*
X84291Y124509D01*
X83981Y124046D01*
X83873Y123500D01*
X83981Y122954D01*
X84291Y122491D01*
X84754Y122181D01*
X85300Y122073D01*
X85846Y122181D01*
X86309Y122491D01*
X86619Y122954D01*
X86727Y123500D01*
X86619Y124046D01*
X86309Y124509D01*
X85846Y124819D01*
X85300Y124927D01*
D02*
G37*
G36*
X112810Y127741D02*
X112035Y127639D01*
X111313Y127340D01*
X110693Y126864D01*
X110217Y126244D01*
X109918Y125522D01*
X109816Y124747D01*
X109918Y123972D01*
X110217Y123250D01*
X110693Y122630D01*
X111313Y122154D01*
X112035Y121855D01*
X112810Y121753D01*
X113585Y121855D01*
X114307Y122154D01*
X114927Y122630D01*
X115403Y123250D01*
X115702Y123972D01*
X115804Y124747D01*
X115702Y125522D01*
X115403Y126244D01*
X114927Y126864D01*
X114307Y127340D01*
X113585Y127639D01*
X112810Y127741D01*
D02*
G37*
G36*
X46500Y124227D02*
X45954Y124119D01*
X45491Y123809D01*
X45181Y123346D01*
X45073Y122800D01*
X45181Y122254D01*
X45491Y121791D01*
X45954Y121481D01*
X46500Y121373D01*
X47046Y121481D01*
X47509Y121791D01*
X47819Y122254D01*
X47927Y122800D01*
X47819Y123346D01*
X47509Y123809D01*
X47046Y124119D01*
X46500Y124227D01*
D02*
G37*
G36*
X95495Y124157D02*
X94949Y124048D01*
X94485Y123739D01*
X94176Y123275D01*
X94068Y122729D01*
X94176Y122183D01*
X94485Y121720D01*
X94949Y121410D01*
X95495Y121302D01*
X96041Y121410D01*
X96504Y121720D01*
X96814Y122183D01*
X96922Y122729D01*
X96814Y123275D01*
X96504Y123739D01*
X96041Y124048D01*
X95495Y124157D01*
D02*
G37*
G36*
X20963D02*
X20417Y124048D01*
X19954Y123739D01*
X19644Y123275D01*
X19536Y122729D01*
X19644Y122183D01*
X19954Y121720D01*
X20417Y121410D01*
X20963Y121302D01*
X21509Y121410D01*
X21972Y121720D01*
X22282Y122183D01*
X22390Y122729D01*
X22282Y123275D01*
X21972Y123739D01*
X21509Y124048D01*
X20963Y124157D01*
D02*
G37*
G36*
X8600Y122027D02*
X8054Y121919D01*
X7591Y121609D01*
X7281Y121146D01*
X7173Y120600D01*
X7281Y120054D01*
X7591Y119591D01*
X8054Y119281D01*
X8600Y119173D01*
X9146Y119281D01*
X9609Y119591D01*
X9919Y120054D01*
X10027Y120600D01*
X9919Y121146D01*
X9609Y121609D01*
X9146Y121919D01*
X8600Y122027D01*
D02*
G37*
G36*
X94000Y117835D02*
X93454Y117727D01*
X92991Y117417D01*
X92681Y116954D01*
X92573Y116408D01*
X92681Y115862D01*
X92991Y115399D01*
X93454Y115089D01*
X94000Y114981D01*
X94546Y115089D01*
X95009Y115399D01*
X95319Y115862D01*
X95427Y116408D01*
X95319Y116954D01*
X95009Y117417D01*
X94546Y117727D01*
X94000Y117835D01*
D02*
G37*
G36*
X90260D02*
X89714Y117727D01*
X89250Y117417D01*
X88941Y116954D01*
X88832Y116408D01*
X88941Y115862D01*
X89250Y115399D01*
X89714Y115089D01*
X90260Y114981D01*
X90806Y115089D01*
X91269Y115399D01*
X91579Y115862D01*
X91687Y116408D01*
X91579Y116954D01*
X91269Y117417D01*
X90806Y117727D01*
X90260Y117835D01*
D02*
G37*
G36*
X83240Y115827D02*
X82694Y115719D01*
X82231Y115409D01*
X81921Y114946D01*
X81813Y114400D01*
X81921Y113854D01*
X82231Y113391D01*
X82694Y113081D01*
X83240Y112973D01*
X83786Y113081D01*
X84250Y113391D01*
X84559Y113854D01*
X84668Y114400D01*
X84559Y114946D01*
X84250Y115409D01*
X83786Y115719D01*
X83240Y115827D01*
D02*
G37*
G36*
X79000D02*
X78454Y115719D01*
X77991Y115409D01*
X77681Y114946D01*
X77573Y114400D01*
X77681Y113854D01*
X77991Y113391D01*
X78454Y113081D01*
X79000Y112973D01*
X79546Y113081D01*
X80009Y113391D01*
X80319Y113854D01*
X80427Y114400D01*
X80319Y114946D01*
X80009Y115409D01*
X79546Y115719D01*
X79000Y115827D01*
D02*
G37*
G36*
X18863Y115227D02*
X18317Y115119D01*
X17854Y114809D01*
X17544Y114346D01*
X17436Y113800D01*
X17544Y113254D01*
X17854Y112791D01*
X18317Y112481D01*
X18863Y112373D01*
X19409Y112481D01*
X19872Y112791D01*
X20182Y113254D01*
X20290Y113800D01*
X20182Y114346D01*
X19872Y114809D01*
X19409Y115119D01*
X18863Y115227D01*
D02*
G37*
G36*
X102607Y113568D02*
X102061Y113459D01*
X101598Y113150D01*
X101289Y112687D01*
X101180Y112141D01*
X101289Y111594D01*
X101598Y111131D01*
X102061Y110822D01*
X102607Y110713D01*
X103154Y110822D01*
X103617Y111131D01*
X103926Y111594D01*
X104035Y112141D01*
X103926Y112687D01*
X103617Y113150D01*
X103154Y113459D01*
X102607Y113568D01*
D02*
G37*
G36*
X47800Y110627D02*
X47254Y110519D01*
X46791Y110209D01*
X46481Y109746D01*
X46373Y109200D01*
X46481Y108654D01*
X46791Y108191D01*
X47254Y107881D01*
X47800Y107773D01*
X48346Y107881D01*
X48809Y108191D01*
X49119Y108654D01*
X49227Y109200D01*
X49119Y109746D01*
X48809Y110209D01*
X48346Y110519D01*
X47800Y110627D01*
D02*
G37*
G36*
X77900Y110027D02*
X77354Y109919D01*
X76891Y109609D01*
X76581Y109146D01*
X76473Y108600D01*
X76581Y108054D01*
X76891Y107591D01*
X77354Y107281D01*
X77900Y107173D01*
X78446Y107281D01*
X78909Y107591D01*
X79219Y108054D01*
X79327Y108600D01*
X79219Y109146D01*
X78909Y109609D01*
X78446Y109919D01*
X77900Y110027D01*
D02*
G37*
G36*
X63563Y108577D02*
X63017Y108469D01*
X62554Y108159D01*
X62244Y107696D01*
X62136Y107150D01*
X62244Y106604D01*
X62554Y106141D01*
X63017Y105831D01*
X63563Y105723D01*
X64109Y105831D01*
X64572Y106141D01*
X64882Y106604D01*
X64990Y107150D01*
X64882Y107696D01*
X64572Y108159D01*
X64109Y108469D01*
X63563Y108577D01*
D02*
G37*
G36*
X58100D02*
X57554Y108469D01*
X57091Y108159D01*
X56781Y107696D01*
X56673Y107150D01*
X56781Y106604D01*
X57091Y106141D01*
X57554Y105831D01*
X58100Y105723D01*
X58646Y105831D01*
X59109Y106141D01*
X59419Y106604D01*
X59527Y107150D01*
X59419Y107696D01*
X59109Y108159D01*
X58646Y108469D01*
X58100Y108577D01*
D02*
G37*
G36*
X66995Y108514D02*
X66448Y108405D01*
X65985Y108096D01*
X65676Y107632D01*
X65567Y107086D01*
X65676Y106540D01*
X65985Y106077D01*
X66448Y105767D01*
X66995Y105659D01*
X67541Y105767D01*
X68004Y106077D01*
X68313Y106540D01*
X68422Y107086D01*
X68313Y107632D01*
X68004Y108096D01*
X67541Y108405D01*
X66995Y108514D01*
D02*
G37*
G36*
X73809Y107986D02*
X73263Y107877D01*
X72800Y107568D01*
X72490Y107105D01*
X72382Y106558D01*
X72490Y106012D01*
X72800Y105549D01*
X73263Y105239D01*
X73809Y105131D01*
X74355Y105239D01*
X74818Y105549D01*
X75128Y106012D01*
X75236Y106558D01*
X75128Y107105D01*
X74818Y107568D01*
X74355Y107877D01*
X73809Y107986D01*
D02*
G37*
G36*
X112810Y108647D02*
X112035Y108545D01*
X111313Y108246D01*
X110693Y107770D01*
X110217Y107150D01*
X109918Y106428D01*
X109816Y105653D01*
X109918Y104878D01*
X110217Y104156D01*
X110693Y103536D01*
X111313Y103060D01*
X112035Y102761D01*
X112810Y102659D01*
X113585Y102761D01*
X114307Y103060D01*
X114927Y103536D01*
X115403Y104156D01*
X115702Y104878D01*
X115804Y105653D01*
X115702Y106428D01*
X115403Y107150D01*
X114927Y107770D01*
X114307Y108246D01*
X113585Y108545D01*
X112810Y108647D01*
D02*
G37*
G36*
X124739Y108182D02*
X123733Y108050D01*
X122796Y107661D01*
X121990Y107043D01*
X121373Y106238D01*
X120984Y105301D01*
X120852Y104295D01*
X120984Y103288D01*
X121373Y102351D01*
X121990Y101546D01*
X122796Y100928D01*
X123733Y100539D01*
X124739Y100407D01*
X125746Y100539D01*
X126683Y100928D01*
X127488Y101546D01*
X128106Y102351D01*
X128495Y103288D01*
X128627Y104295D01*
X128495Y105301D01*
X128106Y106238D01*
X127488Y107043D01*
X126683Y107661D01*
X125746Y108050D01*
X124739Y108182D01*
D02*
G37*
G36*
X106207Y103188D02*
X105661Y103079D01*
X105198Y102770D01*
X104889Y102306D01*
X104780Y101760D01*
X104889Y101214D01*
X105198Y100751D01*
X105661Y100442D01*
X106207Y100333D01*
X106754Y100442D01*
X107217Y100751D01*
X107526Y101214D01*
X107635Y101760D01*
X107526Y102306D01*
X107217Y102770D01*
X106754Y103079D01*
X106207Y103188D01*
D02*
G37*
G36*
X85000Y112427D02*
X84454Y112319D01*
X83991Y112009D01*
X83681Y111546D01*
X83573Y111000D01*
X83681Y110454D01*
X83873Y110166D01*
X83835Y109539D01*
X83791Y109509D01*
X83481Y109046D01*
X83373Y108500D01*
X83481Y107954D01*
X83791Y107491D01*
X83991Y107357D01*
Y107109D01*
X83681Y106646D01*
X83573Y106100D01*
X83681Y105554D01*
X83991Y105091D01*
X83945Y104621D01*
X83698Y104252D01*
X83590Y103706D01*
X83698Y103159D01*
X84008Y102696D01*
X84419Y102422D01*
X84439Y102132D01*
X84409Y101889D01*
X83991Y101609D01*
X83681Y101146D01*
X83573Y100600D01*
X83681Y100054D01*
X83991Y99591D01*
X84454Y99281D01*
X85000Y99173D01*
X85546Y99281D01*
X86009Y99591D01*
X86319Y100054D01*
X86427Y100600D01*
X86319Y101146D01*
X86009Y101609D01*
X85598Y101884D01*
X85578Y102173D01*
X85608Y102416D01*
X86027Y102696D01*
X86336Y103159D01*
X86444Y103706D01*
X86336Y104252D01*
X86027Y104715D01*
X86072Y105185D01*
X86319Y105554D01*
X86427Y106100D01*
X86319Y106646D01*
X86009Y107109D01*
X85809Y107243D01*
Y107491D01*
X86119Y107954D01*
X86227Y108500D01*
X86119Y109046D01*
X85927Y109334D01*
X85965Y109961D01*
X86009Y109991D01*
X86319Y110454D01*
X86427Y111000D01*
X86319Y111546D01*
X86009Y112009D01*
X85546Y112319D01*
X85000Y112427D01*
D02*
G37*
G36*
X70294Y99881D02*
X69748Y99772D01*
X69285Y99463D01*
X68976Y99000D01*
X68867Y98453D01*
X68976Y97907D01*
X69285Y97444D01*
X69748Y97135D01*
X70294Y97026D01*
X70841Y97135D01*
X71304Y97444D01*
X71613Y97907D01*
X71722Y98453D01*
X71613Y99000D01*
X71304Y99463D01*
X70841Y99772D01*
X70294Y99881D01*
D02*
G37*
G36*
X64960Y99227D02*
X64414Y99119D01*
X63951Y98809D01*
X63641Y98346D01*
X63533Y97800D01*
X63641Y97254D01*
X63951Y96791D01*
X64414Y96481D01*
X64960Y96373D01*
X65507Y96481D01*
X65970Y96791D01*
X66279Y97254D01*
X66388Y97800D01*
X66279Y98346D01*
X65970Y98809D01*
X65507Y99119D01*
X64960Y99227D01*
D02*
G37*
G36*
X59600Y96827D02*
X59054Y96719D01*
X58591Y96409D01*
X58281Y95946D01*
X58173Y95400D01*
X58281Y94854D01*
X58591Y94391D01*
X59054Y94081D01*
X59600Y93973D01*
X60146Y94081D01*
X60609Y94391D01*
X60919Y94854D01*
X61027Y95400D01*
X60919Y95946D01*
X60609Y96409D01*
X60146Y96719D01*
X59600Y96827D01*
D02*
G37*
G36*
X39300Y96227D02*
X38754Y96119D01*
X38291Y95809D01*
X37981Y95346D01*
X37873Y94800D01*
X37981Y94254D01*
X38291Y93791D01*
X38754Y93481D01*
X39300Y93373D01*
X39846Y93481D01*
X40309Y93791D01*
X40619Y94254D01*
X40727Y94800D01*
X40619Y95346D01*
X40309Y95809D01*
X39846Y96119D01*
X39300Y96227D01*
D02*
G37*
G36*
X90058Y95770D02*
X89511Y95661D01*
X89048Y95352D01*
X88739Y94889D01*
X88630Y94342D01*
X88739Y93796D01*
X89048Y93333D01*
X89511Y93024D01*
X90058Y92915D01*
X90604Y93024D01*
X91067Y93333D01*
X91343Y93746D01*
X91541Y93761D01*
X91863Y93694D01*
X91881Y93604D01*
X92191Y93141D01*
X92654Y92831D01*
X93200Y92723D01*
X93746Y92831D01*
X94209Y93141D01*
X94519Y93604D01*
X94627Y94150D01*
X94519Y94696D01*
X94209Y95159D01*
X93746Y95469D01*
X93200Y95577D01*
X92654Y95469D01*
X92191Y95159D01*
X91915Y94746D01*
X91717Y94731D01*
X91394Y94799D01*
X91376Y94889D01*
X91067Y95352D01*
X90604Y95661D01*
X90058Y95770D01*
D02*
G37*
G36*
X39400Y91127D02*
X38854Y91019D01*
X38391Y90709D01*
X38081Y90246D01*
X37973Y89700D01*
X38081Y89154D01*
X38391Y88691D01*
X38854Y88381D01*
X39400Y88273D01*
X39946Y88381D01*
X40409Y88691D01*
X40719Y89154D01*
X40827Y89700D01*
X40719Y90246D01*
X40409Y90709D01*
X39946Y91019D01*
X39400Y91127D01*
D02*
G37*
G36*
X110000Y94023D02*
X109217Y93920D01*
X108487Y93618D01*
X107860Y93137D01*
X107379Y92510D01*
X107077Y91780D01*
X106974Y90997D01*
X107077Y90214D01*
X107379Y89484D01*
X107860Y88858D01*
X108487Y88377D01*
X109217Y88074D01*
X110000Y87971D01*
X110783Y88074D01*
X111513Y88377D01*
X112140Y88858D01*
X112620Y89484D01*
X112923Y90214D01*
X113026Y90997D01*
X112923Y91780D01*
X112620Y92510D01*
X112140Y93137D01*
X111513Y93618D01*
X110783Y93920D01*
X110000Y94023D01*
D02*
G37*
G36*
X78591Y91177D02*
X78045Y91069D01*
X77582Y90759D01*
X77273Y90296D01*
X77164Y89750D01*
X77273Y89204D01*
X77582Y88741D01*
X78045Y88431D01*
X78591Y88323D01*
X78961Y88396D01*
X79416Y88159D01*
X79467Y88109D01*
X79400Y87727D01*
X78854Y87619D01*
X78391Y87309D01*
X78081Y86846D01*
X77973Y86300D01*
X78081Y85754D01*
X78391Y85291D01*
X78854Y84981D01*
X78898Y84973D01*
X79281Y84646D01*
X79239Y84434D01*
X79173Y84100D01*
X79281Y83554D01*
X79591Y83091D01*
X80054Y82781D01*
X80600Y82673D01*
X81146Y82781D01*
X81609Y83091D01*
X81919Y83554D01*
X82027Y84100D01*
X81919Y84646D01*
X81609Y85109D01*
X81146Y85419D01*
X81102Y85427D01*
X80719Y85754D01*
X80761Y85966D01*
X80827Y86300D01*
X80778Y86547D01*
X81188Y86975D01*
X81200Y86973D01*
X81746Y87081D01*
X82209Y87391D01*
X82519Y87854D01*
X82627Y88400D01*
X82519Y88946D01*
X82209Y89409D01*
X81746Y89719D01*
X81200Y89827D01*
X80654Y89719D01*
X80502Y89618D01*
X80338Y89663D01*
X79993Y89879D01*
X79910Y90296D01*
X79601Y90759D01*
X79138Y91069D01*
X78591Y91177D01*
D02*
G37*
G36*
X75377Y89683D02*
X74831Y89574D01*
X74367Y89265D01*
X74058Y88802D01*
X73949Y88256D01*
X74058Y87709D01*
X74367Y87246D01*
X74831Y86937D01*
X75377Y86828D01*
X75923Y86937D01*
X76386Y87246D01*
X76696Y87709D01*
X76804Y88256D01*
X76696Y88802D01*
X76386Y89265D01*
X75923Y89574D01*
X75377Y89683D01*
D02*
G37*
G36*
X88396Y89288D02*
X87850Y89179D01*
X87387Y88869D01*
X87077Y88406D01*
X86969Y87860D01*
X87077Y87314D01*
X87387Y86851D01*
X87850Y86541D01*
X88396Y86433D01*
X88942Y86541D01*
X89406Y86851D01*
X89715Y87314D01*
X89824Y87860D01*
X89715Y88406D01*
X89406Y88869D01*
X88942Y89179D01*
X88396Y89288D01*
D02*
G37*
G36*
X65621Y88068D02*
X65074Y87959D01*
X64611Y87650D01*
X64302Y87187D01*
X64193Y86640D01*
X64302Y86094D01*
X64611Y85631D01*
X65074Y85322D01*
X65621Y85213D01*
X66167Y85322D01*
X66630Y85631D01*
X66940Y86094D01*
X67048Y86640D01*
X66940Y87187D01*
X66630Y87650D01*
X66167Y87959D01*
X65621Y88068D01*
D02*
G37*
G36*
X126550Y86916D02*
X126004Y86808D01*
X125541Y86498D01*
X125231Y86035D01*
X125123Y85489D01*
X125231Y84943D01*
X125541Y84479D01*
X126004Y84170D01*
X126550Y84061D01*
X127096Y84170D01*
X127559Y84479D01*
X127869Y84943D01*
X127977Y85489D01*
X127869Y86035D01*
X127559Y86498D01*
X127096Y86808D01*
X126550Y86916D01*
D02*
G37*
G36*
X57750Y86727D02*
X57204Y86619D01*
X56741Y86309D01*
X56431Y85846D01*
X56323Y85300D01*
X56431Y84754D01*
X56741Y84291D01*
X57204Y83981D01*
X57396Y83943D01*
X57818Y83500D01*
X57927Y82954D01*
X58236Y82491D01*
X58699Y82181D01*
X59246Y82073D01*
X59792Y82181D01*
X60255Y82491D01*
X60564Y82954D01*
X60673Y83500D01*
X60564Y84046D01*
X60255Y84509D01*
X59792Y84819D01*
X59599Y84857D01*
X59177Y85300D01*
X59069Y85846D01*
X58759Y86309D01*
X58296Y86619D01*
X57750Y86727D01*
D02*
G37*
G36*
X92900Y83827D02*
X92354Y83719D01*
X91891Y83409D01*
X91581Y82946D01*
X91473Y82400D01*
X91581Y81854D01*
X91673Y81716D01*
X91373Y81266D01*
X91250Y81290D01*
X90704Y81182D01*
X90241Y80872D01*
X89931Y80409D01*
X89823Y79863D01*
X89931Y79317D01*
X90241Y78854D01*
X90704Y78544D01*
X91250Y78436D01*
X91796Y78544D01*
X92259Y78854D01*
X92569Y79317D01*
X92677Y79863D01*
X92569Y80409D01*
X92477Y80547D01*
X92777Y80997D01*
X92900Y80973D01*
X93446Y81081D01*
X93909Y81391D01*
X94219Y81854D01*
X94327Y82400D01*
X94219Y82946D01*
X93909Y83409D01*
X93446Y83719D01*
X92900Y83827D01*
D02*
G37*
G36*
X71800Y83127D02*
X71254Y83019D01*
X70791Y82709D01*
X70481Y82246D01*
X70373Y81700D01*
X70481Y81154D01*
X70791Y80691D01*
X71254Y80381D01*
X71800Y80273D01*
X72346Y80381D01*
X72809Y80691D01*
X73119Y81154D01*
X73227Y81700D01*
X73119Y82246D01*
X72809Y82709D01*
X72346Y83019D01*
X71800Y83127D01*
D02*
G37*
G36*
X1500Y82820D02*
X954Y82712D01*
X491Y82402D01*
X181Y81939D01*
X73Y81393D01*
X181Y80847D01*
X491Y80384D01*
X954Y80074D01*
X1500Y79966D01*
X2046Y80074D01*
X2509Y80384D01*
X2819Y80847D01*
X2927Y81393D01*
X2819Y81939D01*
X2509Y82402D01*
X2046Y82712D01*
X1500Y82820D01*
D02*
G37*
G36*
X126800Y81627D02*
X126254Y81519D01*
X125791Y81209D01*
X125481Y80746D01*
X125373Y80200D01*
X125481Y79654D01*
X125791Y79191D01*
X126254Y78881D01*
X126800Y78773D01*
X127346Y78881D01*
X127809Y79191D01*
X128119Y79654D01*
X128227Y80200D01*
X128119Y80746D01*
X127809Y81209D01*
X127346Y81519D01*
X126800Y81627D01*
D02*
G37*
G36*
X66945Y81290D02*
X66399Y81182D01*
X65935Y80872D01*
X65626Y80409D01*
X65517Y79863D01*
X65626Y79317D01*
X65935Y78854D01*
X66399Y78544D01*
X66945Y78436D01*
X67491Y78544D01*
X67954Y78854D01*
X68264Y79317D01*
X68372Y79863D01*
X68264Y80409D01*
X67954Y80872D01*
X67491Y81182D01*
X66945Y81290D01*
D02*
G37*
G36*
X58100Y80327D02*
X57554Y80219D01*
X57091Y79909D01*
X56781Y79446D01*
X56673Y78900D01*
X56781Y78354D01*
X57091Y77891D01*
X57554Y77581D01*
X58100Y77473D01*
X58646Y77581D01*
X59109Y77891D01*
X59419Y78354D01*
X59527Y78900D01*
X59419Y79446D01*
X59109Y79909D01*
X58646Y80219D01*
X58100Y80327D01*
D02*
G37*
G36*
X38089Y79925D02*
X37543Y79816D01*
X37080Y79507D01*
X36770Y79044D01*
X36661Y78497D01*
X36770Y77951D01*
X37080Y77488D01*
X37543Y77179D01*
X38089Y77070D01*
X38635Y77179D01*
X39098Y77488D01*
X39408Y77951D01*
X39516Y78497D01*
X39408Y79044D01*
X39098Y79507D01*
X38635Y79816D01*
X38089Y79925D01*
D02*
G37*
G36*
X80000Y82027D02*
X79454Y81919D01*
X78991Y81609D01*
X78681Y81146D01*
X78573Y80600D01*
X78681Y80054D01*
X78991Y79591D01*
X79454Y79281D01*
X79990Y79175D01*
X80090Y79049D01*
X80234Y78709D01*
X79983Y78333D01*
X79874Y77787D01*
X79983Y77240D01*
X80292Y76777D01*
X80755Y76468D01*
X81302Y76359D01*
X81848Y76468D01*
X82311Y76777D01*
X82620Y77240D01*
X82729Y77787D01*
X82620Y78333D01*
X82311Y78796D01*
X81848Y79105D01*
X81312Y79212D01*
X81211Y79338D01*
X81067Y79677D01*
X81319Y80054D01*
X81427Y80600D01*
X81319Y81146D01*
X81009Y81609D01*
X80546Y81919D01*
X80000Y82027D01*
D02*
G37*
G36*
X94550Y79188D02*
X94004Y79079D01*
X93541Y78770D01*
X93231Y78307D01*
X93123Y77761D01*
X93231Y77214D01*
X93541Y76751D01*
X94004Y76442D01*
X94550Y76333D01*
X95096Y76442D01*
X95559Y76751D01*
X95869Y77214D01*
X95977Y77761D01*
X95869Y78307D01*
X95559Y78770D01*
X95096Y79079D01*
X94550Y79188D01*
D02*
G37*
G36*
X67238Y77735D02*
X66691Y77626D01*
X66228Y77317D01*
X65919Y76854D01*
X65810Y76307D01*
X65892Y75898D01*
X65647Y75560D01*
X65517Y75463D01*
X65328Y75501D01*
X64782Y75392D01*
X64319Y75083D01*
X64009Y74620D01*
X63901Y74073D01*
X64009Y73527D01*
X64319Y73064D01*
X64782Y72755D01*
X65328Y72646D01*
X65874Y72755D01*
X66338Y73064D01*
X66647Y73527D01*
X66756Y74073D01*
X66674Y74482D01*
X66919Y74821D01*
X67049Y74918D01*
X67238Y74880D01*
X67784Y74989D01*
X68247Y75298D01*
X68557Y75761D01*
X68665Y76307D01*
X68557Y76854D01*
X68247Y77317D01*
X67784Y77626D01*
X67238Y77735D01*
D02*
G37*
G36*
X75100Y76527D02*
X74554Y76419D01*
X74091Y76109D01*
X73781Y75646D01*
X73673Y75100D01*
X73781Y74554D01*
X74091Y74091D01*
X74554Y73781D01*
X75100Y73673D01*
X75646Y73781D01*
X76109Y74091D01*
X76419Y74554D01*
X76527Y75100D01*
X76419Y75646D01*
X76109Y76109D01*
X75646Y76419D01*
X75100Y76527D01*
D02*
G37*
G36*
X43100Y76127D02*
X42554Y76019D01*
X42091Y75709D01*
X41781Y75246D01*
X41673Y74700D01*
X41781Y74154D01*
X42091Y73691D01*
X42554Y73381D01*
X43100Y73273D01*
X43646Y73381D01*
X44109Y73691D01*
X44419Y74154D01*
X44527Y74700D01*
X44419Y75246D01*
X44109Y75709D01*
X43646Y76019D01*
X43100Y76127D01*
D02*
G37*
G36*
X8000D02*
X7454Y76019D01*
X6991Y75709D01*
X6681Y75246D01*
X6573Y74700D01*
X6681Y74154D01*
X6991Y73691D01*
X7454Y73381D01*
X8000Y73273D01*
X8546Y73381D01*
X9009Y73691D01*
X9319Y74154D01*
X9427Y74700D01*
X9319Y75246D01*
X9009Y75709D01*
X8546Y76019D01*
X8000Y76127D01*
D02*
G37*
G36*
X110000Y79023D02*
X109217Y78920D01*
X108487Y78618D01*
X107860Y78137D01*
X107379Y77510D01*
X107077Y76780D01*
X106974Y75997D01*
X107077Y75214D01*
X107379Y74484D01*
X107860Y73858D01*
X108487Y73377D01*
X109217Y73075D01*
X110000Y72971D01*
X110783Y73075D01*
X111513Y73377D01*
X112140Y73858D01*
X112620Y74484D01*
X112923Y75214D01*
X113026Y75997D01*
X112923Y76780D01*
X112620Y77510D01*
X112140Y78137D01*
X111513Y78618D01*
X110783Y78920D01*
X110000Y79023D01*
D02*
G37*
G36*
X33400Y75727D02*
X32854Y75619D01*
X32391Y75309D01*
X32081Y74846D01*
X31973Y74300D01*
X32081Y73754D01*
X32391Y73291D01*
X32854Y72981D01*
X33400Y72873D01*
X33946Y72981D01*
X34409Y73291D01*
X34719Y73754D01*
X34827Y74300D01*
X34719Y74846D01*
X34409Y75309D01*
X33946Y75619D01*
X33400Y75727D01*
D02*
G37*
G36*
X143829Y76866D02*
X143150Y76776D01*
X142518Y76514D01*
X141975Y76098D01*
X141558Y75555D01*
X141296Y74922D01*
X141207Y74243D01*
X141296Y73565D01*
X141558Y72932D01*
X141975Y72389D01*
X142518Y71972D01*
X143150Y71710D01*
X143829Y71621D01*
X144508Y71710D01*
X145140Y71972D01*
X145684Y72389D01*
X146100Y72932D01*
X146362Y73565D01*
X146452Y74243D01*
X146362Y74922D01*
X146100Y75555D01*
X145684Y76098D01*
X145140Y76514D01*
X144508Y76776D01*
X143829Y76866D01*
D02*
G37*
G36*
X57974Y74335D02*
X57427Y74226D01*
X56964Y73917D01*
X56655Y73453D01*
X56546Y72907D01*
X56655Y72361D01*
X56964Y71898D01*
X57427Y71588D01*
X57974Y71480D01*
X58520Y71588D01*
X58983Y71898D01*
X59292Y72361D01*
X59401Y72907D01*
X59292Y73453D01*
X58983Y73917D01*
X58520Y74226D01*
X57974Y74335D01*
D02*
G37*
G36*
X20963Y74240D02*
X20417Y74132D01*
X19954Y73822D01*
X19644Y73359D01*
X19536Y72813D01*
X19644Y72267D01*
X19954Y71803D01*
X20417Y71494D01*
X20963Y71385D01*
X21509Y71494D01*
X21972Y71803D01*
X22282Y72267D01*
X22390Y72813D01*
X22282Y73359D01*
X21972Y73822D01*
X21509Y74132D01*
X20963Y74240D01*
D02*
G37*
G36*
X90602Y73888D02*
X90055Y73779D01*
X89592Y73470D01*
X89283Y73007D01*
X89174Y72460D01*
X89283Y71914D01*
X89592Y71451D01*
X90055Y71142D01*
X90602Y71033D01*
X91148Y71142D01*
X91611Y71451D01*
X91920Y71914D01*
X92029Y72460D01*
X91920Y73007D01*
X91611Y73470D01*
X91148Y73779D01*
X90602Y73888D01*
D02*
G37*
G36*
X86989Y73357D02*
X86442Y73248D01*
X85979Y72939D01*
X85670Y72476D01*
X85561Y71930D01*
X85670Y71383D01*
X85979Y70920D01*
X86442Y70611D01*
X86989Y70502D01*
X87535Y70611D01*
X87998Y70920D01*
X88307Y71383D01*
X88416Y71930D01*
X88307Y72476D01*
X87998Y72939D01*
X87535Y73248D01*
X86989Y73357D01*
D02*
G37*
G36*
X102327Y72405D02*
X101781Y72296D01*
X101318Y71987D01*
X101009Y71524D01*
X100900Y70977D01*
X101009Y70431D01*
X101318Y69968D01*
X101781Y69659D01*
X102327Y69550D01*
X102874Y69659D01*
X103337Y69968D01*
X103646Y70431D01*
X103755Y70977D01*
X103646Y71524D01*
X103337Y71987D01*
X102874Y72296D01*
X102327Y72405D01*
D02*
G37*
G36*
X127500Y72377D02*
X126954Y72269D01*
X126491Y71959D01*
X126181Y71496D01*
X126073Y70950D01*
X126181Y70404D01*
X126491Y69941D01*
X126954Y69631D01*
X127500Y69523D01*
X128046Y69631D01*
X128509Y69941D01*
X128819Y70404D01*
X128927Y70950D01*
X128819Y71496D01*
X128509Y71959D01*
X128046Y72269D01*
X127500Y72377D01*
D02*
G37*
G36*
X1657Y71527D02*
X1110Y71419D01*
X647Y71109D01*
X338Y70646D01*
X229Y70100D01*
X338Y69554D01*
X647Y69091D01*
X1110Y68781D01*
X1657Y68673D01*
X2203Y68781D01*
X2666Y69091D01*
X2976Y69554D01*
X3084Y70100D01*
X2976Y70646D01*
X2666Y71109D01*
X2203Y71419D01*
X1657Y71527D01*
D02*
G37*
G36*
X39000Y70677D02*
X38454Y70569D01*
X37991Y70259D01*
X37681Y69796D01*
X37573Y69250D01*
X37681Y68704D01*
X37991Y68241D01*
X38454Y67931D01*
X39000Y67823D01*
X39546Y67931D01*
X40009Y68241D01*
X40319Y68704D01*
X40427Y69250D01*
X40319Y69796D01*
X40009Y70259D01*
X39546Y70569D01*
X39000Y70677D01*
D02*
G37*
G36*
X46555Y70127D02*
X46009Y70019D01*
X45546Y69709D01*
X45236Y69246D01*
X45128Y68700D01*
X45236Y68154D01*
X45546Y67691D01*
X46009Y67381D01*
X46555Y67273D01*
X47101Y67381D01*
X47565Y67691D01*
X47874Y68154D01*
X47982Y68700D01*
X47874Y69246D01*
X47565Y69709D01*
X47101Y70019D01*
X46555Y70127D01*
D02*
G37*
G36*
X59600Y68336D02*
X59054Y68227D01*
X58591Y67918D01*
X58281Y67454D01*
X58173Y66908D01*
X58281Y66362D01*
X58591Y65899D01*
X59054Y65589D01*
X59600Y65481D01*
X60146Y65589D01*
X60609Y65899D01*
X60919Y66362D01*
X61027Y66908D01*
X60919Y67454D01*
X60609Y67918D01*
X60146Y68227D01*
X59600Y68336D01*
D02*
G37*
G36*
X25425Y67130D02*
X24879Y67021D01*
X24416Y66712D01*
X24107Y66249D01*
X23998Y65702D01*
X24107Y65156D01*
X24416Y64693D01*
X24879Y64384D01*
X25425Y64275D01*
X25972Y64384D01*
X26435Y64693D01*
X26744Y65156D01*
X26853Y65702D01*
X26744Y66249D01*
X26435Y66712D01*
X25972Y67021D01*
X25425Y67130D01*
D02*
G37*
G36*
X93500Y66989D02*
X92954Y66881D01*
X92491Y66571D01*
X92181Y66108D01*
X92073Y65562D01*
X92181Y65016D01*
X92491Y64552D01*
X92954Y64243D01*
X93500Y64134D01*
X94046Y64243D01*
X94509Y64552D01*
X94819Y65016D01*
X94927Y65562D01*
X94819Y66108D01*
X94509Y66571D01*
X94046Y66881D01*
X93500Y66989D01*
D02*
G37*
G36*
X83240Y66533D02*
X82694Y66425D01*
X82231Y66115D01*
X81921Y65652D01*
X81813Y65106D01*
X81921Y64560D01*
X82231Y64097D01*
X82694Y63787D01*
X83240Y63678D01*
X83786Y63787D01*
X84250Y64097D01*
X84559Y64560D01*
X84668Y65106D01*
X84559Y65652D01*
X84250Y66115D01*
X83786Y66425D01*
X83240Y66533D01*
D02*
G37*
G36*
X120232Y66080D02*
X119686Y65971D01*
X119223Y65662D01*
X118913Y65199D01*
X118805Y64653D01*
X118913Y64107D01*
X119223Y63643D01*
X119686Y63334D01*
X120232Y63225D01*
X120779Y63334D01*
X121242Y63643D01*
X121551Y64107D01*
X121660Y64653D01*
X121551Y65199D01*
X121242Y65662D01*
X120779Y65971D01*
X120232Y66080D01*
D02*
G37*
G36*
X64427Y65500D02*
X63881Y65392D01*
X63418Y65082D01*
X63108Y64619D01*
X63000Y64073D01*
X63108Y63527D01*
X63418Y63064D01*
X63881Y62754D01*
X64427Y62646D01*
X64973Y62754D01*
X65436Y63064D01*
X65746Y63527D01*
X65855Y64073D01*
X65746Y64619D01*
X65436Y65082D01*
X64973Y65392D01*
X64427Y65500D01*
D02*
G37*
G36*
X71200Y65063D02*
X70654Y64954D01*
X70191Y64645D01*
X69881Y64182D01*
X69773Y63635D01*
X69881Y63089D01*
X70191Y62626D01*
X70654Y62317D01*
X71200Y62208D01*
X71746Y62317D01*
X72209Y62626D01*
X72519Y63089D01*
X72627Y63635D01*
X72519Y64182D01*
X72209Y64645D01*
X71746Y64954D01*
X71200Y65063D01*
D02*
G37*
G36*
X37300Y61740D02*
X36754Y61632D01*
X36291Y61322D01*
X35981Y60859D01*
X35873Y60313D01*
X35981Y59767D01*
X36291Y59304D01*
X36754Y58994D01*
X37300Y58886D01*
X37846Y58994D01*
X38309Y59304D01*
X38619Y59767D01*
X38727Y60313D01*
X38619Y60859D01*
X38309Y61322D01*
X37846Y61632D01*
X37300Y61740D01*
D02*
G37*
G36*
X73168Y61655D02*
X72622Y61546D01*
X72159Y61237D01*
X71850Y60774D01*
X71741Y60228D01*
X71850Y59681D01*
X72159Y59218D01*
X72622Y58909D01*
X73168Y58800D01*
X73715Y58909D01*
X74178Y59218D01*
X74487Y59681D01*
X74596Y60228D01*
X74487Y60774D01*
X74178Y61237D01*
X73715Y61546D01*
X73168Y61655D01*
D02*
G37*
G36*
X89031Y60618D02*
X88485Y60510D01*
X88022Y60200D01*
X87713Y59737D01*
X87604Y59191D01*
X87713Y58644D01*
X88022Y58181D01*
X88485Y57872D01*
X89031Y57763D01*
X89578Y57872D01*
X90041Y58181D01*
X90350Y58644D01*
X90459Y59191D01*
X90350Y59737D01*
X90041Y60200D01*
X89578Y60510D01*
X89031Y60618D01*
D02*
G37*
G36*
X62200Y59627D02*
X61654Y59519D01*
X61191Y59209D01*
X60881Y58746D01*
X60773Y58200D01*
X60881Y57654D01*
X61191Y57191D01*
X61654Y56881D01*
X62200Y56773D01*
X62746Y56881D01*
X63209Y57191D01*
X63519Y57654D01*
X63627Y58200D01*
X63519Y58746D01*
X63209Y59209D01*
X62746Y59519D01*
X62200Y59627D01*
D02*
G37*
G36*
X78000Y60527D02*
X77454Y60419D01*
X76991Y60109D01*
X76681Y59646D01*
X76573Y59100D01*
X76681Y58554D01*
X76991Y58091D01*
X77310Y57877D01*
X77371Y57416D01*
X77345Y57299D01*
X77211Y57209D01*
X76902Y56746D01*
X76793Y56200D01*
X76902Y55654D01*
X77211Y55191D01*
X77674Y54881D01*
X78220Y54773D01*
X78767Y54881D01*
X79230Y55191D01*
X79539Y55654D01*
X79648Y56200D01*
X79539Y56746D01*
X79230Y57209D01*
X78910Y57423D01*
X78849Y57884D01*
X78876Y58001D01*
X79009Y58091D01*
X79319Y58554D01*
X79427Y59100D01*
X79319Y59646D01*
X79009Y60109D01*
X78546Y60419D01*
X78000Y60527D01*
D02*
G37*
G36*
X60600Y56227D02*
X60054Y56119D01*
X59591Y55809D01*
X59281Y55346D01*
X59173Y54800D01*
X58701Y54607D01*
X58600Y54627D01*
X58054Y54519D01*
X57591Y54209D01*
X57281Y53746D01*
X57173Y53200D01*
X57281Y52654D01*
X57591Y52191D01*
X58054Y51881D01*
X58600Y51773D01*
X59146Y51881D01*
X59609Y52191D01*
X59919Y52654D01*
X60027Y53200D01*
X60499Y53393D01*
X60600Y53373D01*
X60688Y53390D01*
X61117Y52986D01*
X61226Y52440D01*
X61535Y51977D01*
X61998Y51668D01*
X62545Y51559D01*
X63091Y51668D01*
X63554Y51977D01*
X63863Y52440D01*
X63972Y52986D01*
X63863Y53533D01*
X63554Y53996D01*
X63091Y54305D01*
X62545Y54414D01*
X62457Y54396D01*
X62027Y54800D01*
X61919Y55346D01*
X61609Y55809D01*
X61146Y56119D01*
X60600Y56227D01*
D02*
G37*
G36*
X56200Y57427D02*
X55654Y57319D01*
X55191Y57009D01*
X54881Y56546D01*
X54773Y56000D01*
X54881Y55454D01*
X55191Y54991D01*
X55654Y54681D01*
X56200Y54573D01*
X56746Y54681D01*
X57209Y54991D01*
X57519Y55454D01*
X57627Y56000D01*
X57519Y56546D01*
X57209Y57009D01*
X56746Y57319D01*
X56200Y57427D01*
D02*
G37*
G36*
X52406Y54434D02*
X51860Y54325D01*
X51397Y54016D01*
X51087Y53553D01*
X50979Y53006D01*
X51087Y52460D01*
X51397Y51997D01*
X51860Y51688D01*
X52406Y51579D01*
X52953Y51688D01*
X53416Y51997D01*
X53725Y52460D01*
X53834Y53006D01*
X53725Y53553D01*
X53416Y54016D01*
X52953Y54325D01*
X52406Y54434D01*
D02*
G37*
G36*
X70000Y54265D02*
X69454Y54156D01*
X68991Y53847D01*
X68681Y53384D01*
X68573Y52837D01*
X68681Y52291D01*
X68991Y51828D01*
X69454Y51519D01*
X70000Y51410D01*
X70546Y51519D01*
X71009Y51828D01*
X71319Y52291D01*
X71427Y52837D01*
X71319Y53384D01*
X71009Y53847D01*
X70546Y54156D01*
X70000Y54265D01*
D02*
G37*
G36*
X28234Y52708D02*
X27688Y52599D01*
X27225Y52290D01*
X26915Y51827D01*
X26807Y51280D01*
X26915Y50734D01*
X27225Y50271D01*
X27688Y49962D01*
X28234Y49853D01*
X28780Y49962D01*
X29243Y50271D01*
X29553Y50734D01*
X29662Y51280D01*
X29553Y51827D01*
X29243Y52290D01*
X28780Y52599D01*
X28234Y52708D01*
D02*
G37*
G36*
X39535Y52278D02*
X38989Y52169D01*
X38526Y51860D01*
X38217Y51397D01*
X38108Y50850D01*
X38217Y50304D01*
X38526Y49841D01*
X38989Y49532D01*
X39535Y49423D01*
X40082Y49532D01*
X40545Y49841D01*
X40854Y50304D01*
X40963Y50850D01*
X40854Y51397D01*
X40545Y51860D01*
X40082Y52169D01*
X39535Y52278D01*
D02*
G37*
G36*
X51900Y51021D02*
X51354Y50912D01*
X50891Y50603D01*
X50581Y50140D01*
X50473Y49594D01*
X50581Y49047D01*
X50891Y48584D01*
X51354Y48275D01*
X51900Y48166D01*
X52446Y48275D01*
X52909Y48584D01*
X53219Y49047D01*
X53327Y49594D01*
X53219Y50140D01*
X52909Y50603D01*
X52446Y50912D01*
X51900Y51021D01*
D02*
G37*
G36*
X34600Y49712D02*
X34054Y49603D01*
X33591Y49294D01*
X33281Y48831D01*
X33173Y48285D01*
X33281Y47738D01*
X33591Y47275D01*
X34054Y46966D01*
X34600Y46857D01*
X35146Y46966D01*
X35609Y47275D01*
X35919Y47738D01*
X36027Y48285D01*
X35919Y48831D01*
X35609Y49294D01*
X35146Y49603D01*
X34600Y49712D01*
D02*
G37*
G36*
X50200Y46627D02*
X49654Y46519D01*
X49191Y46209D01*
X48881Y45746D01*
X48773Y45200D01*
X48881Y44654D01*
X49191Y44191D01*
X49654Y43881D01*
X50200Y43773D01*
X50746Y43881D01*
X51209Y44191D01*
X51519Y44654D01*
X51627Y45200D01*
X51519Y45746D01*
X51209Y46209D01*
X50746Y46519D01*
X50200Y46627D01*
D02*
G37*
G36*
X44900Y45227D02*
X44354Y45119D01*
X43891Y44809D01*
X43581Y44346D01*
X43473Y43800D01*
X43581Y43254D01*
X43891Y42791D01*
X44354Y42481D01*
X44900Y42373D01*
X45446Y42481D01*
X45909Y42791D01*
X46219Y43254D01*
X46327Y43800D01*
X46219Y44346D01*
X45909Y44809D01*
X45446Y45119D01*
X44900Y45227D01*
D02*
G37*
G36*
X-4Y43220D02*
X-550Y43112D01*
X-1013Y42802D01*
X-1323Y42339D01*
X-1431Y41793D01*
X-1323Y41247D01*
X-1013Y40784D01*
X-550Y40474D01*
X-4Y40365D01*
X542Y40474D01*
X1005Y40784D01*
X1315Y41247D01*
X1424Y41793D01*
X1315Y42339D01*
X1005Y42802D01*
X542Y43112D01*
X-4Y43220D01*
D02*
G37*
G36*
X19300Y42827D02*
X18754Y42719D01*
X18291Y42409D01*
X17981Y41946D01*
X17873Y41400D01*
X17981Y40854D01*
X18291Y40391D01*
X18754Y40081D01*
X19300Y39973D01*
X19846Y40081D01*
X20309Y40391D01*
X20619Y40854D01*
X20727Y41400D01*
X20619Y41946D01*
X20309Y42409D01*
X19846Y42719D01*
X19300Y42827D01*
D02*
G37*
G36*
X98826Y42693D02*
X98279Y42584D01*
X97816Y42275D01*
X97507Y41812D01*
X97398Y41265D01*
X97507Y40719D01*
X97816Y40256D01*
X98279Y39947D01*
X98826Y39838D01*
X99372Y39947D01*
X99835Y40256D01*
X100144Y40719D01*
X100253Y41265D01*
X100144Y41812D01*
X99835Y42275D01*
X99372Y42584D01*
X98826Y42693D01*
D02*
G37*
G36*
X41388Y42626D02*
X40842Y42518D01*
X40379Y42208D01*
X40070Y41745D01*
X39961Y41199D01*
X40070Y40652D01*
X40379Y40189D01*
X40842Y39880D01*
X41388Y39771D01*
X41935Y39880D01*
X42398Y40189D01*
X42707Y40652D01*
X42816Y41199D01*
X42707Y41745D01*
X42398Y42208D01*
X41935Y42518D01*
X41388Y42626D01*
D02*
G37*
G36*
X47400Y42327D02*
X46854Y42219D01*
X46391Y41909D01*
X46081Y41446D01*
X45973Y40900D01*
X46081Y40354D01*
X46391Y39891D01*
X46854Y39581D01*
X47400Y39473D01*
X47946Y39581D01*
X48409Y39891D01*
X48719Y40354D01*
X48827Y40900D01*
X48719Y41446D01*
X48409Y41909D01*
X47946Y42219D01*
X47400Y42327D01*
D02*
G37*
G36*
X78220Y39355D02*
X77674Y39246D01*
X77211Y38937D01*
X76902Y38474D01*
X76793Y37928D01*
X76902Y37381D01*
X77211Y36918D01*
X77674Y36609D01*
X78220Y36500D01*
X78767Y36609D01*
X79230Y36918D01*
X79539Y37381D01*
X79648Y37928D01*
X79539Y38474D01*
X79230Y38937D01*
X78767Y39246D01*
X78220Y39355D01*
D02*
G37*
G36*
X75137Y37734D02*
X74591Y37625D01*
X74128Y37316D01*
X73818Y36853D01*
X73710Y36306D01*
X73818Y35760D01*
X74128Y35297D01*
X74591Y34988D01*
X75137Y34879D01*
X75683Y34988D01*
X76146Y35297D01*
X76456Y35760D01*
X76564Y36306D01*
X76456Y36853D01*
X76146Y37316D01*
X75683Y37625D01*
X75137Y37734D01*
D02*
G37*
G36*
X98800Y37527D02*
X98254Y37419D01*
X97791Y37109D01*
X97481Y36646D01*
X97373Y36100D01*
X97481Y35554D01*
X97791Y35091D01*
X98254Y34781D01*
X98800Y34673D01*
X99346Y34781D01*
X99809Y35091D01*
X100119Y35554D01*
X100227Y36100D01*
X100119Y36646D01*
X99809Y37109D01*
X99346Y37419D01*
X98800Y37527D01*
D02*
G37*
G36*
X4500Y36427D02*
X3954Y36319D01*
X3491Y36009D01*
X3181Y35546D01*
X3073Y35000D01*
X3181Y34454D01*
X3491Y33991D01*
X3954Y33681D01*
X4500Y33573D01*
X5046Y33681D01*
X5509Y33991D01*
X5819Y34454D01*
X5927Y35000D01*
X5819Y35546D01*
X5509Y36009D01*
X5046Y36319D01*
X4500Y36427D01*
D02*
G37*
G36*
X83218Y35439D02*
X82672Y35330D01*
X82209Y35021D01*
X81899Y34558D01*
X81791Y34012D01*
X81899Y33465D01*
X82209Y33002D01*
X82672Y32693D01*
X83218Y32584D01*
X83764Y32693D01*
X84228Y33002D01*
X84537Y33465D01*
X84646Y34012D01*
X84537Y34558D01*
X84228Y35021D01*
X83764Y35330D01*
X83218Y35439D01*
D02*
G37*
G36*
X72709Y35184D02*
X72162Y35076D01*
X71699Y34766D01*
X71390Y34303D01*
X71281Y33757D01*
X71390Y33211D01*
X71699Y32748D01*
X72162Y32438D01*
X72709Y32330D01*
X73255Y32438D01*
X73718Y32748D01*
X74027Y33211D01*
X74136Y33757D01*
X74027Y34303D01*
X73718Y34766D01*
X73255Y35076D01*
X72709Y35184D01*
D02*
G37*
G36*
X77295Y33535D02*
X76749Y33426D01*
X76286Y33116D01*
X75976Y32653D01*
X75867Y32107D01*
X75976Y31561D01*
X76286Y31098D01*
X76749Y30788D01*
X77295Y30680D01*
X77841Y30788D01*
X78304Y31098D01*
X78614Y31561D01*
X78722Y32107D01*
X78614Y32653D01*
X78304Y33116D01*
X77841Y33426D01*
X77295Y33535D01*
D02*
G37*
G36*
X15100Y33127D02*
X14554Y33019D01*
X14091Y32709D01*
X13781Y32246D01*
X13673Y31700D01*
X13781Y31154D01*
X14091Y30691D01*
X14554Y30381D01*
X15100Y30273D01*
X15646Y30381D01*
X16109Y30691D01*
X16419Y31154D01*
X16527Y31700D01*
X16419Y32246D01*
X16109Y32709D01*
X15646Y33019D01*
X15100Y33127D01*
D02*
G37*
G36*
X100000Y33027D02*
X99454Y32919D01*
X98991Y32609D01*
X98681Y32146D01*
X98573Y31600D01*
X98681Y31054D01*
X98991Y30591D01*
X99454Y30281D01*
X100000Y30173D01*
X100546Y30281D01*
X101009Y30591D01*
X101319Y31054D01*
X101427Y31600D01*
X101319Y32146D01*
X101009Y32609D01*
X100546Y32919D01*
X100000Y33027D01*
D02*
G37*
G36*
X41388D02*
X40842Y32919D01*
X40379Y32609D01*
X40070Y32146D01*
X39961Y31600D01*
X40070Y31054D01*
X40379Y30591D01*
X40842Y30281D01*
X41388Y30173D01*
X41935Y30281D01*
X42398Y30591D01*
X42707Y31054D01*
X42816Y31600D01*
X42707Y32146D01*
X42398Y32609D01*
X41935Y32919D01*
X41388Y33027D01*
D02*
G37*
G36*
X62944Y32832D02*
X62397Y32724D01*
X61934Y32414D01*
X61625Y31951D01*
X61516Y31405D01*
X61625Y30859D01*
X61934Y30395D01*
X62397Y30086D01*
X62944Y29977D01*
X63490Y30086D01*
X63953Y30395D01*
X64262Y30859D01*
X64371Y31405D01*
X64262Y31951D01*
X63953Y32414D01*
X63490Y32724D01*
X62944Y32832D01*
D02*
G37*
G36*
X106400Y32727D02*
X105854Y32619D01*
X105391Y32309D01*
X105081Y31846D01*
X104973Y31300D01*
X105081Y30754D01*
X105391Y30291D01*
X105854Y29981D01*
X106400Y29873D01*
X106946Y29981D01*
X107409Y30291D01*
X107719Y30754D01*
X107827Y31300D01*
X107719Y31846D01*
X107409Y32309D01*
X106946Y32619D01*
X106400Y32727D01*
D02*
G37*
G36*
X49200Y32427D02*
X48654Y32319D01*
X48191Y32009D01*
X47881Y31546D01*
X47773Y31000D01*
X47881Y30454D01*
X48191Y29991D01*
X48654Y29681D01*
X49200Y29573D01*
X49746Y29681D01*
X50209Y29991D01*
X50519Y30454D01*
X50627Y31000D01*
X50519Y31546D01*
X50209Y32009D01*
X49746Y32319D01*
X49200Y32427D01*
D02*
G37*
G36*
X19500Y32227D02*
X18954Y32119D01*
X18491Y31809D01*
X18181Y31346D01*
X18073Y30800D01*
X18181Y30254D01*
X18491Y29791D01*
X18954Y29481D01*
X19500Y29373D01*
X20046Y29481D01*
X20509Y29791D01*
X20819Y30254D01*
X20927Y30800D01*
X20819Y31346D01*
X20509Y31809D01*
X20046Y32119D01*
X19500Y32227D01*
D02*
G37*
G36*
X53288Y30722D02*
X52741Y30614D01*
X52278Y30304D01*
X51969Y29841D01*
X51860Y29295D01*
X51969Y28749D01*
X52278Y28286D01*
X52741Y27976D01*
X53288Y27867D01*
X53834Y27976D01*
X54297Y28286D01*
X54606Y28749D01*
X54715Y29295D01*
X54606Y29841D01*
X54297Y30304D01*
X53834Y30614D01*
X53288Y30722D01*
D02*
G37*
G36*
X71505Y30501D02*
X70959Y30392D01*
X70496Y30083D01*
X70186Y29620D01*
X70078Y29074D01*
X70186Y28527D01*
X70496Y28064D01*
X70959Y27755D01*
X71505Y27646D01*
X72051Y27755D01*
X72514Y28064D01*
X72824Y28527D01*
X72932Y29074D01*
X72824Y29620D01*
X72514Y30083D01*
X72051Y30392D01*
X71505Y30501D01*
D02*
G37*
G36*
X4500Y30303D02*
X3954Y30195D01*
X3491Y29885D01*
X3181Y29422D01*
X3073Y28876D01*
X3181Y28330D01*
X3491Y27867D01*
X3954Y27557D01*
X4500Y27449D01*
X5046Y27557D01*
X5509Y27867D01*
X5819Y28330D01*
X5927Y28876D01*
X5819Y29422D01*
X5509Y29885D01*
X5046Y30195D01*
X4500Y30303D01*
D02*
G37*
G36*
X102350Y29679D02*
X101804Y29570D01*
X101341Y29261D01*
X101031Y28798D01*
X100923Y28252D01*
X101031Y27705D01*
X101341Y27242D01*
X101804Y26933D01*
X102350Y26824D01*
X102896Y26933D01*
X103359Y27242D01*
X103669Y27705D01*
X103777Y28252D01*
X103669Y28798D01*
X103359Y29261D01*
X102896Y29570D01*
X102350Y29679D01*
D02*
G37*
G36*
X111300Y29027D02*
X110754Y28919D01*
X110291Y28609D01*
X109981Y28146D01*
X109873Y27600D01*
X109981Y27054D01*
X110291Y26591D01*
X110754Y26281D01*
X111300Y26173D01*
X111846Y26281D01*
X112309Y26591D01*
X112619Y27054D01*
X112727Y27600D01*
X112619Y28146D01*
X112309Y28609D01*
X111846Y28919D01*
X111300Y29027D01*
D02*
G37*
G36*
X115400Y28027D02*
X114854Y27919D01*
X114391Y27609D01*
X114081Y27146D01*
X113973Y26600D01*
X114081Y26054D01*
X114391Y25591D01*
X114854Y25281D01*
X115400Y25173D01*
X115946Y25281D01*
X116409Y25591D01*
X116719Y26054D01*
X116827Y26600D01*
X116719Y27146D01*
X116409Y27609D01*
X115946Y27919D01*
X115400Y28027D01*
D02*
G37*
G36*
X78220Y23246D02*
X77674Y23137D01*
X77211Y22828D01*
X76902Y22365D01*
X76793Y21818D01*
X76902Y21272D01*
X77211Y20809D01*
X77674Y20500D01*
X78220Y20391D01*
X78767Y20500D01*
X79230Y20809D01*
X79539Y21272D01*
X79648Y21818D01*
X79539Y22365D01*
X79230Y22828D01*
X78767Y23137D01*
X78220Y23246D01*
D02*
G37*
G36*
X81991Y23052D02*
X81445Y22943D01*
X80982Y22634D01*
X80672Y22171D01*
X80563Y21624D01*
X80672Y21078D01*
X80982Y20615D01*
X81445Y20306D01*
X81991Y20197D01*
X82537Y20306D01*
X83000Y20615D01*
X83310Y21078D01*
X83418Y21624D01*
X83310Y22171D01*
X83000Y22634D01*
X82537Y22943D01*
X81991Y23052D01*
D02*
G37*
G36*
X102300Y22677D02*
X101754Y22569D01*
X101291Y22259D01*
X100981Y21796D01*
X100873Y21250D01*
X100981Y20704D01*
X101291Y20241D01*
X101754Y19931D01*
X102300Y19823D01*
X102846Y19931D01*
X103309Y20241D01*
X103619Y20704D01*
X103727Y21250D01*
X103619Y21796D01*
X103309Y22259D01*
X102846Y22569D01*
X102300Y22677D01*
D02*
G37*
G36*
X41255Y18600D02*
X40709Y18492D01*
X40246Y18182D01*
X39936Y17719D01*
X39828Y17173D01*
X39936Y16627D01*
X40246Y16163D01*
X40709Y15854D01*
X41255Y15745D01*
X41801Y15854D01*
X42265Y16163D01*
X42574Y16627D01*
X42682Y17173D01*
X42574Y17719D01*
X42265Y18182D01*
X41801Y18492D01*
X41255Y18600D01*
D02*
G37*
G36*
X84600Y16299D02*
X84054Y16190D01*
X83591Y15881D01*
X83281Y15418D01*
X83173Y14872D01*
X83281Y14325D01*
X83591Y13862D01*
X84054Y13553D01*
X84600Y13444D01*
X85146Y13553D01*
X85609Y13862D01*
X85919Y14325D01*
X86027Y14872D01*
X85919Y15418D01*
X85609Y15881D01*
X85146Y16190D01*
X84600Y16299D01*
D02*
G37*
G36*
X80833Y16042D02*
X80287Y15933D01*
X79824Y15624D01*
X79514Y15161D01*
X79406Y14615D01*
X79514Y14068D01*
X79824Y13605D01*
X80287Y13296D01*
X80833Y13187D01*
X81379Y13296D01*
X81842Y13605D01*
X82152Y14068D01*
X82261Y14615D01*
X82152Y15161D01*
X81842Y15624D01*
X81379Y15933D01*
X80833Y16042D01*
D02*
G37*
G36*
X117653Y12927D02*
X117106Y12819D01*
X116643Y12509D01*
X116334Y12046D01*
X116225Y11500D01*
X116334Y10954D01*
X116643Y10491D01*
X117106Y10181D01*
X117653Y10073D01*
X118199Y10181D01*
X118662Y10491D01*
X118972Y10954D01*
X119080Y11500D01*
X118972Y12046D01*
X118662Y12509D01*
X118199Y12819D01*
X117653Y12927D01*
D02*
G37*
G36*
X109200D02*
X108654Y12819D01*
X108191Y12509D01*
X107881Y12046D01*
X107773Y11500D01*
X107881Y10954D01*
X108191Y10491D01*
X108654Y10181D01*
X109200Y10073D01*
X109746Y10181D01*
X110209Y10491D01*
X110519Y10954D01*
X110627Y11500D01*
X110519Y12046D01*
X110209Y12509D01*
X109746Y12819D01*
X109200Y12927D01*
D02*
G37*
%LPD*%
D94*
X100000Y138700D02*
Y147700D01*
X99883Y138700D02*
X100000D01*
D97*
Y147700D02*
D03*
D101*
X63220Y36407D02*
D03*
X50756Y57300D02*
D03*
X81100Y109600D02*
D03*
X58100Y81393D02*
D03*
X70100Y36300D02*
D03*
X107693Y94599D02*
D03*
X130600Y77761D02*
D03*
X62793Y102208D02*
D03*
X86603Y77957D02*
D03*
X88396Y65562D02*
D03*
X93884Y86393D02*
D03*
X99883Y138700D02*
D03*
X64476Y117871D02*
D03*
X60000Y25500D02*
D03*
X87655Y90372D02*
D03*
M02*
