M48
;Layer_Color=6321
;FILE_FORMAT=2:5
INCH,LZ
;TYPE=PLATED
T1F00S00C0.00800
T2F00S00C0.02000
T3F00S00C0.02283
T4F00S00C0.03200
T5F00S00C0.03600
T6F00S00C0.03937
T7F00S00C0.07000
;TYPE=NON_PLATED
T8F00S00C0.03500
T9F00S00C0.04000
%
T01
X-0058135Y-01155
X-00562Y-01085
X-005765Y-01019
X-00372Y-0087772
Y-00603
X-0031045Y-0058845
X-00308Y-00477
X-00273Y-00419
X-0027066Y-0039117
X-0031882Y-00383
X-0034581Y-0038285
X-00328Y-00258
X-00382Y-00243
X-0044925Y-0023885
X-00438Y-00095
X-00488Y-00098
X-00589Y-00101
X-00622Y-0024226
X-0062443Y-00306
X-0060785Y-003835
X-00564Y-00389
X-00532Y-00431
X-00626Y-00434
X-0047893Y-0036611
X-00446Y-00475
X-00578Y-00655
X-0068104Y-00666
X-00642Y-0073
X-0076Y-00336
X-00336Y-0013
X-0013Y-00184
X-00104Y-002
X-00069Y-00154
X-0007Y-00109
X0001568Y-00093
X0010719Y-0008981
X00158Y-0011
X00187Y-001999
X00143Y-00231
X00135Y-00272
X0017Y-00263
X00159Y-0031
X0016031Y-0033851
X00222Y-0032
X00269Y-00234
X00331Y-00235
X00381Y-00262
X00379Y-00292
X00362Y-00378
X003Y-00391
X0035388Y-004893
X0028333Y-00543
X0028867Y-00587
X0024633Y-0066967
X0036519Y-0064319
X0042247Y-006974
X00417Y-00731
X0046513Y-0067515
X00521Y-00655
X00589Y-00671
X006092Y-0070547
X00604Y-0073
X00606Y-00775
X00592Y-00801
X0058Y-00904
X00473Y-00855
X00391Y-00821
X00283Y-00829
X0014Y-00922
X00088Y-00899
X00079Y-00938
X-0000047Y-0094326
X-00028Y-00941
X-00109Y-00946
X-00139Y-01101
X-00084Y-01121
X-00055Y-0112015
X-00027Y-01106
X0Y-01105
X00166Y-01101
X00169Y-01148
X00026Y-00828
X0012277Y-00707
X001225Y-00648
X0011259Y-0061829
X001Y-0054166
X00141Y-00541
X00158Y-00497
X00212
X00198Y-00473
X0006Y-0043
X00026Y-00426
X00003Y-0041
X00019Y-00353
X-00019
X-00059Y-00341
X-00069Y-00303
X-0015Y-00308
X-0016058Y-0033115
X-0014363Y-003925
X-00218Y-00392
X-0022126Y-0048074
X-0016269Y-0045464
X-00143Y-0053056
X-00156Y-00638
X-00073Y-00607
X-00046Y-00647
X-0006436Y-0068087
X-0001969Y-00496
X-00071Y-00423
X00065Y-00392
X0006Y-00365
X00079Y-0031063
X00044Y-00279
X0002
X00018Y-00212
X-00019Y-00204
X00099Y-0021342
X00378Y-00173
X00309Y-00088
X0053558Y-0014258
X00572Y-00495
T02
X001Y-01366
T03
X004281Y-0042047
Y-0022953
T04
X0073829Y-0073457
T05
X-005Y-01475
X-004
X-003
Y0
X-004
X-005
X-002
X-001
X0
X001
X002
X003
X004
X005
Y-01475
X004
X003
X002
X001
X0
X-001
X-002
T06
X0054739Y-0043406
Y-0021595
T07
X-007Y-01475
Y0
X007
Y-01475
T08
X-00579Y-00521
Y-00441
X-00379Y-00481
T09
X-00563Y-00225
X-00413
M30
