G04*
G04 #@! TF.GenerationSoftware,Altium Limited,Altium Designer,20.1.10 (176)*
G04*
G04 Layer_Color=16720538*
%FSLAX25Y25*%
%MOIN*%
G70*
G04*
G04 #@! TF.SameCoordinates,5BC12612-045E-4FBA-96B6-5BC6791460FD*
G04*
G04*
G04 #@! TF.FilePolarity,Positive*
G04*
G01*
G75*
%ADD97C,0.00010*%
D97*
X-70000Y-136998D02*
G03*
X-59499Y-147500I0J-10502D01*
G01*
X-69965Y-137000D02*
G03*
X-70000Y-136998I-35J-500D01*
G01*
X-69968Y-136999D02*
G03*
X-69965Y-137000I389J6078D01*
G01*
D02*
G03*
X-63488Y-130921I386J6078D01*
G01*
D02*
G03*
X-69968Y-124843I-6091J0D01*
G01*
X-70000Y-124844D02*
G03*
X-69968Y-124843I0J501D01*
G01*
X-80502Y-124343D02*
G03*
X-80000Y-124844I501J0D01*
G01*
Y-100219D02*
G03*
X-80502Y-100721I0J-501D01*
G01*
Y-84973D02*
G03*
X-80000Y-85474I501J0D01*
G01*
Y-60849D02*
G03*
X-80502Y-61350I0J-501D01*
G01*
Y-45602D02*
G03*
X-80000Y-46104I501J0D01*
G01*
Y-21479D02*
G03*
X-80502Y-21980I0J-501D01*
G01*
X-69997Y-21479D02*
G03*
X-70000Y-21479I-3J-501D01*
G01*
X-69997D02*
G03*
X-64480Y-15990I29J5489D01*
G01*
D02*
G03*
X-69997Y-10502I-5489J0D01*
G01*
X-70000D02*
G03*
X-69997Y-10502I0J501D01*
G01*
X-59499Y0D02*
G03*
X-70000Y-10502I-10502J0D01*
G01*
X-59501Y-49D02*
G03*
X-59499Y0I-499J49D01*
G01*
X-59501Y-46D02*
G03*
X-59501Y-49I3001J-276D01*
G01*
D02*
G03*
X-53487Y-321I3001J-273D01*
G01*
D02*
G03*
X-53499Y-49I-3013J0D01*
G01*
X-53501Y0D02*
G03*
X-53499Y-49I501J0D01*
G01*
X-53000Y6002D02*
G03*
X-53501Y5500I0J-501D01*
G01*
X-46499D02*
G03*
X-47000Y6002I-501J0D01*
G01*
X-43000D02*
G03*
X-43501Y5500I0J-501D01*
G01*
X-36498D02*
G03*
X-37000Y6002I-501J0D01*
G01*
X-33000D02*
G03*
X-33501Y5500I0J-501D01*
G01*
X-26498D02*
G03*
X-27000Y6002I-501J0D01*
G01*
X-23000D02*
G03*
X-23502Y5500I0J-501D01*
G01*
X-16499D02*
G03*
X-17000Y6002I-501J0D01*
G01*
X-13000D02*
G03*
X-13501Y5500I0J-501D01*
G01*
X-6498D02*
G03*
X-7000Y6002I-501J0D01*
G01*
X-3000D02*
G03*
X-3501Y5500I0J-501D01*
G01*
X3501D02*
G03*
X3000Y6002I-501J0D01*
G01*
X7000D02*
G03*
X6498Y5500I0J-501D01*
G01*
X13501D02*
G03*
X13000Y6002I-501J0D01*
G01*
X17000D02*
G03*
X16499Y5500I0J-501D01*
G01*
X23502D02*
G03*
X23000Y6002I-501J0D01*
G01*
X27000D02*
G03*
X26498Y5500I0J-501D01*
G01*
X33501D02*
G03*
X33000Y6002I-501J0D01*
G01*
X37000D02*
G03*
X36498Y5500I0J-501D01*
G01*
X43501D02*
G03*
X43000Y6002I-501J0D01*
G01*
X47000D02*
G03*
X46499Y5500I0J-501D01*
G01*
X53501D02*
G03*
X53000Y6002I-501J0D01*
G01*
X53501Y0D02*
G03*
X59499Y0I2998J0D01*
G01*
X80502D02*
G03*
X59499Y0I-10502J0D01*
G01*
X70000Y-10502D02*
G03*
X80502Y0I0J10502D01*
G01*
X70001Y-10502D02*
G03*
X69998Y-10502I18J-8645D01*
G01*
D02*
G03*
X62423Y-15019I21J-8645D01*
G01*
X80502Y-65500D02*
G03*
X80000Y-64999I-501J0D01*
G01*
Y-82002D02*
G03*
X80502Y-81500I0J501D01*
G01*
X62423Y-132115D02*
G03*
X69988Y-136999I7430J3208D01*
G01*
D02*
G03*
X69991Y-136999I-135J8092D01*
G01*
X70000Y-136998D02*
G03*
X69988Y-136999I0J-501D01*
G01*
X80502Y-147500D02*
G03*
X70000Y-136998I-10502J0D01*
G01*
X59499Y-147500D02*
G03*
X80502Y-147500I10502J0D01*
G01*
X59499D02*
G03*
X53501Y-147500I-2998J0D01*
G01*
X53000Y-153411D02*
G03*
X53501Y-152909I0J501D01*
G01*
X46499D02*
G03*
X47000Y-153411I501J0D01*
G01*
X43000D02*
G03*
X43501Y-152909I0J501D01*
G01*
X36498D02*
G03*
X37000Y-153411I501J0D01*
G01*
X33000D02*
G03*
X33501Y-152909I0J501D01*
G01*
X26498D02*
G03*
X27000Y-153411I501J0D01*
G01*
X23000D02*
G03*
X23502Y-152909I0J501D01*
G01*
X16499D02*
G03*
X17000Y-153411I501J0D01*
G01*
X13000D02*
G03*
X13501Y-152909I0J501D01*
G01*
X6498D02*
G03*
X7000Y-153411I501J0D01*
G01*
X3000D02*
G03*
X3501Y-152909I0J501D01*
G01*
X-3501D02*
G03*
X-3000Y-153411I501J0D01*
G01*
X-7000D02*
G03*
X-6498Y-152909I0J501D01*
G01*
X-13501D02*
G03*
X-13000Y-153411I501J0D01*
G01*
X-17000D02*
G03*
X-16499Y-152909I0J501D01*
G01*
X-23502D02*
G03*
X-23000Y-153411I501J0D01*
G01*
X-27000D02*
G03*
X-26498Y-152909I0J501D01*
G01*
X-33501D02*
G03*
X-33000Y-153411I501J0D01*
G01*
X-37000D02*
G03*
X-36498Y-152909I0J501D01*
G01*
X-43501D02*
G03*
X-43000Y-153411I501J0D01*
G01*
X-47000D02*
G03*
X-46499Y-152909I0J501D01*
G01*
X-53501D02*
G03*
X-53000Y-153411I501J0D01*
G01*
X-53501Y-147479D02*
G03*
X-53501Y-147500I501J-20D01*
G01*
X-53501Y-147479D02*
G03*
X-53499Y-147357I-2999J122D01*
G01*
D02*
G03*
X-59499Y-147479I-3001J0D01*
G01*
X-59499Y-147500D02*
G03*
X-59499Y-147479I-501J0D01*
G01*
X-69968Y-136999D02*
X-69965Y-137000D01*
X-69968Y-124843D02*
Y-124843D01*
X-80000Y-124844D02*
X-70000D01*
X-80502Y-124343D02*
Y-100721D01*
X-80000Y-100219D02*
X-62596D01*
Y-85474D01*
X-80000D02*
X-62596D01*
X-80502Y-84973D02*
Y-61350D01*
X-80000Y-60849D02*
X-62596D01*
Y-46104D01*
X-80000D02*
X-62596D01*
X-80502Y-45602D02*
Y-21980D01*
X-80000Y-21479D02*
X-70000D01*
X-69997Y-21479D02*
Y-21479D01*
Y-10502D02*
Y-10502D01*
X-59501Y-49D02*
X-59501Y-46D01*
X-53499Y-49D02*
X-53499D01*
X-53501Y0D02*
Y5500D01*
X-53000Y6002D02*
X-47000D01*
X-46499Y-6825D02*
Y5500D01*
Y-6825D02*
X-43501D01*
Y5500D01*
X-43000Y6002D02*
X-37000D01*
X-36498Y-6825D02*
Y5500D01*
Y-6825D02*
X-33501D01*
Y5500D01*
X-33000Y6002D02*
X-27000D01*
X-26498Y-6825D02*
Y5500D01*
Y-6825D02*
X-23502D01*
Y5500D01*
X-23000Y6002D02*
X-17000D01*
X-16499Y-6825D02*
Y5500D01*
Y-6825D02*
X-13501D01*
Y5500D01*
X-13000Y6002D02*
X-7000D01*
X-6498Y-6825D02*
Y5500D01*
Y-6825D02*
X-3501D01*
Y5500D01*
X-3000Y6002D02*
X3000D01*
X3501Y-6825D02*
Y5500D01*
Y-6825D02*
X6498D01*
Y5500D01*
X7000Y6002D02*
X13000D01*
X13501Y-6825D02*
Y5500D01*
Y-6825D02*
X16499D01*
Y5500D01*
X17000Y6002D02*
X23000D01*
X23502Y-6825D02*
Y5500D01*
Y-6825D02*
X26498D01*
Y5500D01*
X27000Y6002D02*
X33000D01*
X33501Y-6739D02*
Y5500D01*
Y-6739D02*
X36498D01*
Y5500D01*
X37000Y6002D02*
X43000D01*
X43501Y-6739D02*
Y5500D01*
Y-6739D02*
X46499D01*
Y5500D01*
X47000Y6002D02*
X53000D01*
X53501Y0D02*
Y5500D01*
X70000Y-10502D02*
X70001D01*
X62423Y-64999D02*
Y-15019D01*
Y-64999D02*
X80000D01*
X80502Y-81500D02*
Y-65500D01*
X62423Y-82002D02*
X80000D01*
X62423Y-132115D02*
Y-82002D01*
X69988Y-136999D02*
X69991Y-136999D01*
X69988Y-136999D02*
Y-136999D01*
X53501Y-152909D02*
Y-147500D01*
X47000Y-153411D02*
X53000D01*
X46499Y-152909D02*
Y-140584D01*
X43501D02*
X46499D01*
X43501Y-152909D02*
Y-140584D01*
X37000Y-153411D02*
X43000D01*
X36498Y-152909D02*
Y-140584D01*
X33501D02*
X36498D01*
X33501Y-152909D02*
Y-140584D01*
X27000Y-153411D02*
X33000D01*
X26498Y-152909D02*
Y-140584D01*
X23502D02*
X26498D01*
X23502Y-152909D02*
Y-140584D01*
X17000Y-153411D02*
X23000D01*
X16499Y-152909D02*
Y-140584D01*
X13501D02*
X16499D01*
X13501Y-152909D02*
Y-140584D01*
X7000Y-153411D02*
X13000D01*
X6498Y-152909D02*
Y-140584D01*
X3501D02*
X6498D01*
X3501Y-152909D02*
Y-140584D01*
X-3000Y-153411D02*
X3000D01*
X-3501Y-152909D02*
Y-140584D01*
X-6498D02*
X-3501D01*
X-6498Y-152909D02*
Y-140584D01*
X-13000Y-153411D02*
X-7000D01*
X-13501Y-152909D02*
Y-140584D01*
X-16499D02*
X-13501D01*
X-16499Y-152909D02*
Y-140584D01*
X-23000Y-153411D02*
X-17000D01*
X-23502Y-152909D02*
Y-140584D01*
X-26498D02*
X-23502D01*
X-26498Y-152909D02*
Y-140584D01*
X-33000Y-153411D02*
X-27000D01*
X-33501Y-152909D02*
Y-140671D01*
X-36498D02*
X-33501D01*
X-36498Y-152909D02*
Y-140671D01*
X-43000Y-153411D02*
X-37000D01*
X-43501Y-152909D02*
Y-140671D01*
X-46499D02*
X-43501D01*
X-46499Y-152909D02*
Y-140671D01*
X-53000Y-153411D02*
X-47000D01*
X-53501Y-152909D02*
Y-147500D01*
X-53501Y-147479D02*
X-53501Y-147479D01*
X-59499D02*
X-59499Y-147479D01*
M02*
