G04*
G04 #@! TF.GenerationSoftware,Altium Limited,Altium Designer,20.1.10 (176)*
G04*
G04 Layer_Physical_Order=1*
G04 Layer_Color=25308*
%FSLAX25Y25*%
%MOIN*%
G70*
G04*
G04 #@! TF.SameCoordinates,5BC12612-045E-4FBA-96B6-5BC6791460FD*
G04*
G04*
G04 #@! TF.FilePolarity,Positive*
G04*
G01*
G75*
%ADD11C,0.01000*%
%ADD15C,0.00800*%
%ADD16R,0.01772X0.02165*%
%ADD17R,0.02055X0.02362*%
%ADD18C,0.01200*%
%ADD19R,0.02756X0.05610*%
%ADD20R,0.09843X0.05610*%
%ADD21R,0.05512X0.01575*%
%ADD22R,0.05512X0.04921*%
%ADD23R,0.04331X0.03150*%
%ADD24R,0.02362X0.02756*%
%ADD25R,0.02362X0.03347*%
%ADD26R,0.01968X0.02559*%
%ADD27R,0.09449X0.07874*%
%ADD28R,0.02900X0.11000*%
G04:AMPARAMS|DCode=29|XSize=29mil|YSize=110mil|CornerRadius=7.25mil|HoleSize=0mil|Usage=FLASHONLY|Rotation=180.000|XOffset=0mil|YOffset=0mil|HoleType=Round|Shape=RoundedRectangle|*
%AMROUNDEDRECTD29*
21,1,0.02900,0.09550,0,0,180.0*
21,1,0.01450,0.11000,0,0,180.0*
1,1,0.01450,-0.00725,0.04775*
1,1,0.01450,0.00725,0.04775*
1,1,0.01450,0.00725,-0.04775*
1,1,0.01450,-0.00725,-0.04775*
%
%ADD29ROUNDEDRECTD29*%
%ADD30R,0.05315X0.02756*%
%ADD31R,0.03347X0.02362*%
%ADD32R,0.02362X0.04724*%
%ADD33R,0.02756X0.03347*%
%ADD34R,0.03937X0.06299*%
%ADD35R,0.06693X0.03150*%
%ADD36R,0.02559X0.01968*%
%ADD37R,0.04921X0.05512*%
%ADD38R,0.03347X0.02756*%
%ADD39R,0.02165X0.01772*%
%ADD40R,0.15000X0.07500*%
%ADD44C,0.00394*%
%ADD78C,0.03100*%
%ADD79C,0.02500*%
%ADD80C,0.00500*%
%ADD81C,0.01200*%
%ADD82C,0.02000*%
%ADD83C,0.05000*%
%ADD84R,0.10248X0.22000*%
%ADD85R,0.05000X0.09500*%
%ADD86C,0.03937*%
%ADD87C,0.05709*%
%ADD88C,0.00500*%
%ADD89C,0.03400*%
%ADD90C,0.17000*%
%ADD91C,0.01800*%
%ADD92C,0.04000*%
G36*
X61100Y-24969D02*
X60948Y-25405D01*
X60600Y-25405D01*
X55321D01*
X55288Y-24905D01*
X55615Y-24862D01*
X56431Y-24524D01*
X57132Y-23987D01*
X57669Y-23286D01*
X58007Y-22470D01*
X58090Y-21845D01*
X54739D01*
X51389D01*
X51471Y-22470D01*
X51809Y-23286D01*
X52347Y-23987D01*
X53048Y-24524D01*
X53864Y-24862D01*
X54191Y-24905D01*
X54158Y-25405D01*
X50106D01*
Y-28461D01*
X55527D01*
Y-28711D01*
X55777D01*
Y-32016D01*
X60600D01*
X60948Y-32016D01*
X61100Y-32453D01*
Y-32547D01*
X60948Y-32984D01*
X60600Y-32984D01*
X55777D01*
Y-36290D01*
X55527D01*
Y-36540D01*
X50106D01*
Y-39595D01*
X54158D01*
X54191Y-40095D01*
X53864Y-40137D01*
X53048Y-40475D01*
X52347Y-41013D01*
X51809Y-41714D01*
X51471Y-42530D01*
X51389Y-43156D01*
X54739D01*
X58090D01*
X58007Y-42530D01*
X57669Y-41714D01*
X57132Y-41013D01*
X56431Y-40475D01*
X55615Y-40137D01*
X55288Y-40095D01*
X55321Y-39595D01*
X60948Y-39595D01*
X61100Y-40031D01*
Y-51035D01*
X60600Y-51187D01*
X60565Y-51135D01*
X58679Y-49249D01*
X58613Y-48915D01*
X58281Y-48419D01*
X57785Y-48087D01*
X57200Y-47971D01*
X56615Y-48087D01*
X56119Y-48419D01*
X55787Y-48915D01*
X55671Y-49500D01*
X55787Y-50085D01*
X56119Y-50581D01*
X56615Y-50913D01*
X56935Y-50977D01*
X57199Y-51355D01*
X56999Y-51798D01*
X53959D01*
Y-56344D01*
X57521D01*
Y-52259D01*
X58021Y-52052D01*
X58477Y-52507D01*
Y-62965D01*
X57983Y-63458D01*
X57521Y-63267D01*
Y-60656D01*
X56805D01*
X56776Y-60511D01*
X56533Y-60147D01*
X56533Y-60147D01*
X54893Y-58507D01*
X54529Y-58264D01*
X54100Y-58178D01*
X54100Y-58178D01*
X50600D01*
X50600Y-58178D01*
X50171Y-58264D01*
X49807Y-58507D01*
X49807Y-58507D01*
X48148Y-60166D01*
X47905Y-60530D01*
X47880Y-60656D01*
X46479D01*
Y-61808D01*
X43458D01*
X43458Y-61808D01*
X43029Y-61893D01*
X42665Y-62136D01*
X42665Y-62136D01*
X37507Y-67294D01*
X37264Y-67658D01*
X37178Y-68087D01*
X37178Y-68087D01*
Y-74698D01*
X34407Y-77470D01*
X34164Y-77833D01*
X34078Y-78263D01*
X34078Y-78263D01*
Y-86300D01*
X34078Y-86300D01*
X34164Y-86729D01*
X34407Y-87093D01*
X37347Y-90033D01*
X37711Y-90276D01*
X38140Y-90362D01*
X38140Y-90362D01*
X42298D01*
Y-91021D01*
X44827D01*
X44951Y-91206D01*
X48110Y-94365D01*
Y-95131D01*
X48110Y-95131D01*
X48131Y-95240D01*
Y-100350D01*
X53268D01*
Y-92850D01*
X49767D01*
X46866Y-89949D01*
Y-89921D01*
X46866Y-89921D01*
X46844Y-89813D01*
Y-87640D01*
X46844Y-87459D01*
X46744Y-87001D01*
Y-85750D01*
X44571D01*
X42398D01*
Y-87001D01*
X42298Y-87459D01*
X42298Y-87619D01*
X42247Y-88119D01*
X38605D01*
X36322Y-85835D01*
Y-78727D01*
X39093Y-75956D01*
X39093Y-75956D01*
X39336Y-75592D01*
X39422Y-75163D01*
Y-68552D01*
X43922Y-64051D01*
X46479D01*
Y-65202D01*
X49860D01*
X50041Y-65202D01*
Y-65202D01*
X50319Y-65102D01*
X50319Y-65102D01*
X51750D01*
Y-62929D01*
X52250D01*
Y-65102D01*
X53681D01*
X53681Y-65102D01*
X53959Y-65202D01*
Y-65202D01*
X54140Y-65202D01*
X55586D01*
X55777Y-65664D01*
X55321Y-66121D01*
X55055Y-66518D01*
X54962Y-66986D01*
Y-68542D01*
X50350D01*
Y-69004D01*
X49660D01*
Y-68443D01*
X48841D01*
X48824Y-68361D01*
X48581Y-67997D01*
X48028Y-67444D01*
X47926Y-66930D01*
X47594Y-66433D01*
X47098Y-66102D01*
X46513Y-65985D01*
X45928Y-66102D01*
X45432Y-66433D01*
X45100Y-66930D01*
X44984Y-67515D01*
X45069Y-67943D01*
X44774Y-68443D01*
X43006D01*
X42832Y-68327D01*
X42247Y-68211D01*
X41662Y-68327D01*
X41165Y-68659D01*
X40834Y-69155D01*
X40717Y-69740D01*
X40834Y-70325D01*
X41165Y-70821D01*
X41564Y-71088D01*
X41551Y-71489D01*
X41511Y-71608D01*
X41115Y-71687D01*
X40619Y-72019D01*
X40287Y-72515D01*
X40171Y-73100D01*
X40287Y-73685D01*
X40619Y-74181D01*
X41115Y-74513D01*
X41700Y-74629D01*
X42285Y-74513D01*
X42569Y-74323D01*
X42625D01*
X43746Y-75445D01*
Y-76883D01*
X46717D01*
Y-73517D01*
X45279D01*
X44070Y-72308D01*
X44131Y-72016D01*
X44258Y-71808D01*
X45723D01*
Y-69346D01*
X46223Y-68986D01*
X46442Y-69030D01*
X46666Y-69254D01*
Y-69740D01*
X46666Y-69740D01*
X46688Y-69848D01*
Y-71808D01*
X49660D01*
Y-71247D01*
X50350D01*
Y-71710D01*
X54950D01*
Y-73449D01*
X50535Y-77865D01*
X50035Y-77658D01*
Y-76883D01*
X50654D01*
Y-73517D01*
X47683D01*
Y-76883D01*
X48302D01*
Y-77573D01*
X45896Y-79979D01*
X42298D01*
Y-81233D01*
X40325D01*
X40181Y-81019D01*
X39685Y-80687D01*
X39100Y-80571D01*
X38515Y-80687D01*
X38019Y-81019D01*
X37687Y-81515D01*
X37571Y-82100D01*
X37687Y-82685D01*
X38019Y-83181D01*
X38515Y-83513D01*
X39100Y-83629D01*
X39685Y-83513D01*
X40181Y-83181D01*
X40325Y-82967D01*
X41944D01*
X42298Y-83320D01*
Y-83541D01*
X42398Y-84000D01*
Y-85250D01*
X44571D01*
X46744D01*
Y-84000D01*
X46844Y-83541D01*
X46844Y-83360D01*
Y-81481D01*
X48799Y-79527D01*
X49299Y-79734D01*
Y-87818D01*
X49376Y-88209D01*
X49598Y-88539D01*
X50438Y-89380D01*
X50769Y-89601D01*
X51156Y-89678D01*
Y-91021D01*
X55702D01*
Y-87459D01*
X51401D01*
X51338Y-87396D01*
Y-83541D01*
X55702D01*
X55702Y-83541D01*
Y-83541D01*
X56057Y-83846D01*
X56317Y-84106D01*
Y-86049D01*
X59683D01*
Y-83077D01*
X57740D01*
X56172Y-81510D01*
X55891Y-81322D01*
X55702Y-81284D01*
Y-79979D01*
X52012D01*
X51805Y-79479D01*
X56691Y-74593D01*
X56912Y-74262D01*
X56990Y-73872D01*
Y-71710D01*
X57850D01*
Y-68804D01*
X58304Y-68520D01*
X58340Y-68518D01*
X58900Y-68629D01*
X59485Y-68513D01*
X59981Y-68181D01*
X60125Y-67967D01*
X61100D01*
Y-68869D01*
X60920Y-69017D01*
X60334Y-69134D01*
X59838Y-69465D01*
X59507Y-69961D01*
X59390Y-70547D01*
X59507Y-71132D01*
X59812Y-71589D01*
X59319Y-71919D01*
X58987Y-72415D01*
X58871Y-73000D01*
X58987Y-73585D01*
X59319Y-74081D01*
X59815Y-74413D01*
X60400Y-74529D01*
X60600Y-74490D01*
X61100Y-74892D01*
Y-75676D01*
X60713Y-75993D01*
X60600Y-75971D01*
X60015Y-76087D01*
X59519Y-76419D01*
X59187Y-76915D01*
X59071Y-77500D01*
X59187Y-78085D01*
X59519Y-78581D01*
X60015Y-78913D01*
X60600Y-79029D01*
X60713Y-79007D01*
X61100Y-79324D01*
Y-137500D01*
X59644D01*
Y-133804D01*
X43644D01*
Y-136722D01*
X43144Y-136978D01*
X42967Y-136851D01*
Y-104686D01*
X42901Y-104354D01*
X42713Y-104073D01*
X8741Y-70101D01*
Y-48000D01*
X11558D01*
X13979Y-50421D01*
X14310Y-50642D01*
X14674Y-50714D01*
X14719Y-50781D01*
X15215Y-51113D01*
X15549Y-51179D01*
X21077Y-56707D01*
Y-60606D01*
X12128D01*
X11844Y-60416D01*
X11259Y-60300D01*
X10673Y-60416D01*
X10177Y-60748D01*
X9846Y-61244D01*
X9729Y-61829D01*
X9846Y-62415D01*
X10177Y-62911D01*
X10673Y-63242D01*
X10911Y-63289D01*
X10994Y-63428D01*
X11091Y-63835D01*
X10837Y-64215D01*
X10721Y-64800D01*
X10837Y-65385D01*
X11169Y-65881D01*
X11383Y-66025D01*
Y-69493D01*
X11196Y-69619D01*
X10864Y-70115D01*
X10748Y-70700D01*
X10864Y-71285D01*
X11196Y-71781D01*
X11692Y-72113D01*
X12277Y-72229D01*
X12862Y-72113D01*
X13359Y-71781D01*
X13690Y-71285D01*
X13806Y-70700D01*
X13690Y-70115D01*
X13359Y-69619D01*
X13117Y-69457D01*
Y-66025D01*
X13331Y-65881D01*
X13663Y-65385D01*
X13779Y-64800D01*
X13663Y-64215D01*
X13331Y-63719D01*
X13083Y-63553D01*
X13235Y-63053D01*
X21077D01*
Y-76900D01*
X21170Y-77368D01*
X21435Y-77765D01*
X26820Y-83151D01*
X26887Y-83485D01*
X27219Y-83981D01*
X27715Y-84313D01*
X28300Y-84429D01*
X28885Y-84313D01*
X29381Y-83981D01*
X29713Y-83485D01*
X29829Y-82900D01*
X29713Y-82315D01*
X29381Y-81819D01*
X28885Y-81487D01*
X28551Y-81420D01*
X23524Y-76393D01*
Y-68631D01*
X24024Y-68363D01*
X24048Y-68380D01*
X24633Y-68496D01*
X25218Y-68380D01*
X25715Y-68048D01*
X25858Y-67833D01*
X33870D01*
X34202Y-67767D01*
X34483Y-67580D01*
X36265Y-65798D01*
X36519Y-65848D01*
X37104Y-65732D01*
X37600Y-65400D01*
X37931Y-64904D01*
X38048Y-64319D01*
X37931Y-63733D01*
X37600Y-63237D01*
X37104Y-62906D01*
X36519Y-62789D01*
X35933Y-62906D01*
X35437Y-63237D01*
X35106Y-63733D01*
X34989Y-64319D01*
X35040Y-64572D01*
X33511Y-66100D01*
X25858D01*
X25715Y-65885D01*
X25218Y-65554D01*
X24633Y-65437D01*
X24048Y-65554D01*
X24024Y-65570D01*
X23524Y-65303D01*
Y-63024D01*
X34461D01*
X34930Y-62930D01*
X35327Y-62665D01*
X39174Y-58818D01*
X39439Y-58421D01*
X39532Y-57953D01*
Y-57456D01*
X42505D01*
Y-55294D01*
X46479D01*
Y-56344D01*
X50041D01*
Y-51798D01*
X46479D01*
Y-52847D01*
X42505D01*
Y-50744D01*
X36384D01*
Y-57456D01*
X36422D01*
X36613Y-57918D01*
X33955Y-60576D01*
X29870D01*
X29797Y-60484D01*
X29905Y-59810D01*
X29948Y-59781D01*
X30279Y-59285D01*
X30396Y-58700D01*
X30279Y-58115D01*
X30107Y-57856D01*
X30374Y-57356D01*
X32305D01*
Y-54350D01*
X29594D01*
Y-56827D01*
X29094Y-57216D01*
X28867Y-57171D01*
X28281Y-57287D01*
X27785Y-57619D01*
X27224Y-57565D01*
X21365Y-51706D01*
X21530Y-51164D01*
X21785Y-51113D01*
X22281Y-50781D01*
X22613Y-50285D01*
X22720Y-49748D01*
X23365Y-49103D01*
X23630Y-48706D01*
X23723Y-48238D01*
Y-43120D01*
X23630Y-42652D01*
X23365Y-42255D01*
X21554Y-40444D01*
X21157Y-40179D01*
X20781Y-40104D01*
Y-37963D01*
X20223D01*
Y-36539D01*
X20984D01*
X21452Y-36446D01*
X21849Y-36181D01*
X23065Y-34965D01*
X23330Y-34568D01*
X23424Y-34100D01*
Y-32869D01*
X23613Y-32585D01*
X23729Y-32000D01*
X23613Y-31415D01*
X23281Y-30919D01*
X22785Y-30587D01*
X22200Y-30471D01*
X21615Y-30587D01*
X21281Y-30810D01*
X20788Y-30595D01*
X20781Y-30588D01*
X20781Y-28491D01*
X20681Y-28032D01*
Y-26486D01*
X17319D01*
Y-28032D01*
X17219Y-28491D01*
X17219Y-28868D01*
Y-29476D01*
X16719Y-29743D01*
X16485Y-29587D01*
X15900Y-29471D01*
X15395Y-29571D01*
X15206Y-29371D01*
X15100Y-29159D01*
X15763Y-28496D01*
X15951Y-28215D01*
X16017Y-27883D01*
Y-26093D01*
X15951Y-25761D01*
X15763Y-25480D01*
X15167Y-24884D01*
Y-24325D01*
X15381Y-24181D01*
X15713Y-23685D01*
X15829Y-23100D01*
X15713Y-22515D01*
X15381Y-22019D01*
X14885Y-21687D01*
X14300Y-21571D01*
X13715Y-21687D01*
X13500Y-21831D01*
X13000Y-21563D01*
Y-20074D01*
X14548D01*
X16727Y-22253D01*
X17008Y-22440D01*
X17340Y-22506D01*
X22178D01*
X22509Y-22440D01*
X22790Y-22253D01*
X23896Y-21147D01*
X25479D01*
Y-22554D01*
X25479Y-22554D01*
X25442Y-23039D01*
X25371Y-23400D01*
X25405Y-23574D01*
X24995Y-24074D01*
X24427D01*
Y-28030D01*
X28973D01*
Y-24074D01*
X28805D01*
X28395Y-23574D01*
X28429Y-23400D01*
X28361Y-23054D01*
X28694Y-22554D01*
X29041D01*
Y-19737D01*
X31455Y-17323D01*
X33500D01*
X33968Y-17230D01*
X34365Y-16965D01*
X35605Y-15725D01*
X35871Y-15328D01*
X35964Y-14860D01*
Y-13695D01*
X36521D01*
Y-9149D01*
X33140D01*
X32959Y-9149D01*
X32500Y-9249D01*
X31250D01*
Y-11422D01*
Y-13595D01*
X32500D01*
X32959Y-13695D01*
X33017D01*
X33378Y-13910D01*
X33424Y-14446D01*
X32993Y-14876D01*
X30948D01*
X30480Y-14970D01*
X30083Y-15235D01*
X27311Y-18007D01*
X25479D01*
Y-19414D01*
X23537D01*
X23205Y-19480D01*
X23083Y-19562D01*
X22583Y-19347D01*
Y-18402D01*
X21250D01*
Y-19788D01*
X21000D01*
Y-20038D01*
X19417D01*
Y-20773D01*
X17699D01*
X15527Y-18602D01*
X18817Y-15312D01*
X19317Y-15519D01*
Y-17337D01*
X22683D01*
Y-16933D01*
X22972D01*
X23441Y-16840D01*
X23837Y-16575D01*
X26697Y-13715D01*
X26797Y-13695D01*
X28860D01*
X29041Y-13695D01*
X29500Y-13595D01*
X30750D01*
Y-11422D01*
Y-9249D01*
X29500D01*
X29224Y-9189D01*
X29145Y-8962D01*
X29486Y-8500D01*
X38776Y-8500D01*
Y-14514D01*
X37450Y-15840D01*
X37215Y-15887D01*
X36719Y-16219D01*
X36387Y-16715D01*
X36340Y-16950D01*
X35303Y-17987D01*
X35203Y-18007D01*
X32959D01*
Y-21999D01*
X32515Y-22087D01*
X32019Y-22419D01*
X31687Y-22915D01*
X31571Y-23500D01*
X31588Y-23587D01*
X31271Y-23974D01*
X30827D01*
Y-27930D01*
X35373D01*
Y-23974D01*
X34929D01*
X34612Y-23587D01*
X34629Y-23500D01*
X34541Y-23054D01*
X34827Y-22554D01*
X36521D01*
Y-20177D01*
X36678Y-20072D01*
X37951Y-18799D01*
X38385Y-18713D01*
X38881Y-18381D01*
X39213Y-17885D01*
X39299Y-17451D01*
X40865Y-15886D01*
X41130Y-15489D01*
X41223Y-15021D01*
Y-13614D01*
X47533D01*
Y-12085D01*
X49972Y-9646D01*
X50467Y-9858D01*
X50467Y-10075D01*
Y-13614D01*
X51647D01*
X52057Y-14114D01*
X52029Y-14258D01*
X52145Y-14843D01*
X52477Y-15340D01*
X52973Y-15671D01*
X53558Y-15788D01*
X54144Y-15671D01*
X54640Y-15340D01*
X54971Y-14843D01*
X55088Y-14258D01*
X55059Y-14114D01*
X55469Y-13614D01*
X56982D01*
Y-9658D01*
X50917D01*
X50667Y-9658D01*
X50455Y-9163D01*
X51118Y-8500D01*
X61100D01*
Y-24969D01*
D02*
G37*
G36*
X-30867Y-8300D02*
Y-9500D01*
X-30801Y-9832D01*
X-30613Y-10113D01*
X-28691Y-12035D01*
X-28410Y-12223D01*
X-28078Y-12289D01*
X-16801D01*
X-13000Y-16089D01*
Y-24984D01*
X-13035Y-25157D01*
X-13000Y-25331D01*
Y-26259D01*
X-13635D01*
X-16333Y-23561D01*
Y-23100D01*
X-16399Y-22768D01*
X-16587Y-22487D01*
X-17976Y-21099D01*
Y-13283D01*
X-28624D01*
Y-16953D01*
X-31019D01*
Y-15663D01*
X-33879D01*
X-34071Y-15201D01*
X-33349Y-14480D01*
X-33015Y-14413D01*
X-32519Y-14081D01*
X-32187Y-13585D01*
X-32071Y-13000D01*
X-32187Y-12415D01*
X-32519Y-11919D01*
X-33015Y-11587D01*
X-33600Y-11471D01*
X-34185Y-11587D01*
X-34681Y-11919D01*
X-35013Y-12415D01*
X-35080Y-12749D01*
X-35907Y-13577D01*
X-36724D01*
Y-9225D01*
X-36809Y-8800D01*
X-36544Y-8300D01*
X-30867Y-8300D01*
D02*
G37*
G36*
X-50750Y-8300D02*
Y-13750D01*
X-48800D01*
Y-14000D01*
D01*
Y-13750D01*
X-46850D01*
Y-8300D01*
X-45750D01*
Y-13750D01*
X-43800D01*
Y-14000D01*
X-43550D01*
Y-20000D01*
X-43134D01*
X-42965Y-20500D01*
X-43154Y-20646D01*
X-43571Y-21189D01*
X-43833Y-21821D01*
X-43880Y-22178D01*
X-44251Y-22415D01*
X-44412Y-22458D01*
X-44925Y-22356D01*
X-45511Y-22472D01*
X-46007Y-22804D01*
X-46338Y-23300D01*
X-46455Y-23885D01*
X-46338Y-24471D01*
X-46007Y-24967D01*
X-45850Y-25071D01*
Y-37100D01*
X-41750D01*
Y-25442D01*
X-41374Y-25113D01*
X-41300Y-25122D01*
X-41226Y-25113D01*
X-40850Y-25442D01*
Y-37100D01*
X-36750D01*
Y-24900D01*
X-36750Y-24900D01*
X-36750D01*
X-36693Y-24413D01*
X-36671Y-24300D01*
X-36787Y-23715D01*
X-37119Y-23219D01*
X-37615Y-22887D01*
X-38200Y-22771D01*
X-38276Y-22786D01*
X-38696Y-22359D01*
X-38767Y-21821D01*
X-39029Y-21189D01*
X-39446Y-20646D01*
X-39471Y-20626D01*
X-39302Y-20126D01*
X-38075D01*
X-37558Y-20023D01*
X-37120Y-19730D01*
X-36827Y-19292D01*
X-36724Y-18775D01*
Y-16024D01*
X-35400D01*
X-35081Y-15960D01*
X-34581Y-16252D01*
Y-19832D01*
X-34581Y-20210D01*
X-34481Y-20668D01*
Y-22214D01*
X-32800D01*
X-31119D01*
Y-20668D01*
X-31019Y-20210D01*
X-31019Y-19832D01*
Y-18686D01*
X-28624D01*
Y-22357D01*
X-19169D01*
X-18067Y-23459D01*
Y-23920D01*
X-18001Y-24251D01*
X-17813Y-24532D01*
X-14619Y-27726D01*
X-14621Y-27780D01*
X-14777Y-28226D01*
X-18533D01*
X-18535Y-28227D01*
X-18826D01*
X-18909Y-28243D01*
X-28624D01*
Y-31914D01*
X-30665D01*
X-31019Y-31560D01*
Y-31291D01*
X-31119Y-30832D01*
Y-29286D01*
X-34481D01*
Y-30832D01*
X-34581Y-31291D01*
X-34581Y-31668D01*
Y-35837D01*
X-31019D01*
Y-33647D01*
X-28624D01*
Y-37317D01*
X-27972D01*
X-27820Y-37817D01*
X-28147Y-38036D01*
X-28479Y-38532D01*
X-28595Y-39117D01*
X-28618Y-39146D01*
X-30087D01*
X-30421Y-38646D01*
X-30352Y-38300D01*
X-30469Y-37715D01*
X-30800Y-37219D01*
X-31296Y-36887D01*
X-31882Y-36771D01*
X-32467Y-36887D01*
X-32912Y-37184D01*
X-33089Y-37238D01*
X-33476D01*
X-33500Y-37204D01*
X-33996Y-36872D01*
X-34581Y-36756D01*
X-35166Y-36872D01*
X-35662Y-37204D01*
X-35994Y-37700D01*
X-36110Y-38285D01*
X-35994Y-38870D01*
X-35662Y-39367D01*
X-35448Y-39510D01*
Y-46640D01*
X-35948Y-46792D01*
X-36206Y-46406D01*
X-36983Y-45886D01*
X-37900Y-45704D01*
X-38817Y-45886D01*
X-39594Y-46406D01*
X-40114Y-47183D01*
X-40296Y-48100D01*
X-40114Y-49017D01*
X-39594Y-49794D01*
X-38817Y-50314D01*
X-37900Y-50496D01*
X-36983Y-50314D01*
X-36206Y-49794D01*
X-35948Y-49408D01*
X-35448Y-49560D01*
Y-51318D01*
X-36763Y-52633D01*
X-41012D01*
X-41361Y-52263D01*
X-41350Y-52150D01*
X-40875Y-51439D01*
X-40708Y-50600D01*
X-40875Y-49761D01*
X-41350Y-49050D01*
X-42061Y-48575D01*
X-42567Y-48474D01*
X-42819Y-47956D01*
X-42698Y-47752D01*
X-42061Y-47625D01*
X-41350Y-47150D01*
X-40875Y-46439D01*
X-40708Y-45600D01*
X-40875Y-44761D01*
X-41350Y-44050D01*
X-42061Y-43575D01*
X-42900Y-43408D01*
X-43739Y-43575D01*
X-44450Y-44050D01*
X-44925Y-44761D01*
X-45092Y-45600D01*
X-45065Y-45735D01*
X-45249Y-45858D01*
X-45708Y-45600D01*
X-45875Y-44761D01*
X-46350Y-44050D01*
X-47061Y-43575D01*
X-47252Y-43537D01*
X-47306Y-43261D01*
X-47494Y-42980D01*
X-51737Y-38737D01*
X-52018Y-38549D01*
X-52350Y-38483D01*
X-53433D01*
Y-37786D01*
X-53470Y-37600D01*
X-53282Y-37243D01*
X-53135Y-37100D01*
X-51750D01*
Y-24900D01*
X-54335D01*
X-54505Y-24400D01*
X-54446Y-24354D01*
X-54029Y-23811D01*
X-53767Y-23179D01*
X-53678Y-22500D01*
X-53767Y-21821D01*
X-54029Y-21189D01*
X-54446Y-20646D01*
X-54505Y-20600D01*
X-54335Y-20100D01*
X-51750D01*
Y-8300D01*
X-50750D01*
D02*
G37*
G36*
X-53950Y-40217D02*
X-52709D01*
X-49384Y-43541D01*
X-49433Y-44039D01*
X-49450Y-44050D01*
X-49925Y-44761D01*
X-50092Y-45600D01*
X-49925Y-46439D01*
X-49450Y-47150D01*
X-48739Y-47625D01*
X-47900Y-47792D01*
X-47061Y-47625D01*
X-46603Y-47319D01*
X-46399Y-47397D01*
X-46111Y-47592D01*
X-46013Y-48085D01*
X-45681Y-48581D01*
X-45185Y-48913D01*
X-44986Y-48952D01*
X-44756Y-49508D01*
X-44925Y-49761D01*
X-45092Y-50600D01*
X-44925Y-51439D01*
X-44450Y-52150D01*
X-43739Y-52625D01*
X-43368Y-52699D01*
X-43237Y-52896D01*
X-42661Y-53471D01*
X-42853Y-53933D01*
X-46041D01*
X-46919Y-53055D01*
X-46880Y-52504D01*
X-46350Y-52150D01*
X-45875Y-51439D01*
X-45708Y-50600D01*
X-45875Y-49761D01*
X-46350Y-49050D01*
X-47061Y-48575D01*
X-47900Y-48408D01*
X-48739Y-48575D01*
X-49450Y-49050D01*
X-49925Y-49761D01*
X-50092Y-50600D01*
X-49925Y-51439D01*
X-49450Y-52150D01*
X-48767Y-52607D01*
Y-53300D01*
X-48701Y-53632D01*
X-48513Y-53913D01*
X-47013Y-55413D01*
X-46732Y-55601D01*
X-46400Y-55667D01*
X-35800D01*
X-35468Y-55601D01*
X-35187Y-55413D01*
X-32587Y-52813D01*
X-32399Y-52532D01*
X-32333Y-52200D01*
Y-49005D01*
X-32058Y-48869D01*
X-31833Y-48814D01*
X-31385Y-49113D01*
X-30800Y-49229D01*
X-30556Y-49430D01*
Y-55016D01*
X-25346D01*
X-25307Y-55074D01*
X-24958Y-55422D01*
X-25150Y-55884D01*
X-26950D01*
Y-58595D01*
X-23944D01*
Y-57090D01*
X-23482Y-56899D01*
X-22926Y-57455D01*
X-22645Y-57643D01*
X-22456Y-57680D01*
Y-61905D01*
X-16437D01*
X-16207Y-62369D01*
X-16213Y-62406D01*
X-16681Y-62719D01*
X-17013Y-63215D01*
X-17129Y-63800D01*
X-17013Y-64385D01*
X-16681Y-64881D01*
X-16185Y-65213D01*
X-15600Y-65329D01*
X-15347Y-65279D01*
X-11926Y-68700D01*
X-11645Y-68888D01*
X-11313Y-68954D01*
X-7661D01*
X-7518Y-69169D01*
X-7022Y-69500D01*
X-6436Y-69616D01*
X-5851Y-69500D01*
X-5355Y-69169D01*
X-5023Y-68672D01*
X-4907Y-68087D01*
X-5023Y-67502D01*
X-5355Y-67006D01*
X-5851Y-66674D01*
X-6436Y-66558D01*
X-7022Y-66674D01*
X-7518Y-67006D01*
X-7661Y-67220D01*
X-10954D01*
X-14121Y-64053D01*
X-14071Y-63800D01*
X-14187Y-63215D01*
X-14519Y-62719D01*
X-15015Y-62387D01*
X-15477Y-62295D01*
X-15682Y-61996D01*
X-15744Y-61790D01*
Y-55784D01*
X-22029D01*
X-22255Y-55496D01*
X-22042Y-55016D01*
X-15744D01*
Y-54451D01*
X-15692Y-54405D01*
X-15244Y-54229D01*
X-14885Y-54469D01*
X-14300Y-54585D01*
X-13981Y-54522D01*
X-13503Y-54853D01*
X-13481Y-54893D01*
X-13481Y-55809D01*
X-13381Y-56268D01*
Y-57814D01*
X-11700D01*
X-10019D01*
Y-56268D01*
X-9919Y-55809D01*
X-9919Y-55432D01*
Y-54760D01*
X-9081D01*
Y-55809D01*
X-9081D01*
X-8981Y-55891D01*
Y-57814D01*
X-7300D01*
Y-58064D01*
X-7050D01*
Y-60237D01*
X-5824D01*
Y-63831D01*
X-6013Y-64115D01*
X-6129Y-64700D01*
X-6013Y-65285D01*
X-5681Y-65781D01*
X-5185Y-66113D01*
X-4600Y-66229D01*
X-4015Y-66113D01*
X-3867Y-66014D01*
X-3367Y-66281D01*
Y-83400D01*
X-3301Y-83732D01*
X-3113Y-84013D01*
X6421Y-93547D01*
X6371Y-93800D01*
X6487Y-94385D01*
X6819Y-94881D01*
X7315Y-95213D01*
X7900Y-95329D01*
X8485Y-95213D01*
X8981Y-94881D01*
X9313Y-94385D01*
X9429Y-93800D01*
X9313Y-93215D01*
X8981Y-92719D01*
X8485Y-92387D01*
X7900Y-92271D01*
X7647Y-92321D01*
X6592Y-91267D01*
X6799Y-90767D01*
X7575D01*
X7719Y-90981D01*
X8215Y-91313D01*
X8800Y-91429D01*
X9385Y-91313D01*
X9881Y-90981D01*
X10213Y-90485D01*
X10329Y-89900D01*
X10213Y-89315D01*
X9881Y-88819D01*
X9385Y-88487D01*
X8800Y-88371D01*
X8215Y-88487D01*
X7719Y-88819D01*
X7575Y-89033D01*
X6559D01*
X2306Y-84781D01*
X2553Y-84320D01*
X2600Y-84329D01*
X3185Y-84213D01*
X3681Y-83881D01*
X4013Y-83385D01*
X4129Y-82800D01*
X4013Y-82215D01*
X3681Y-81719D01*
X3185Y-81387D01*
X2600Y-81271D01*
X2347Y-81321D01*
X867Y-79841D01*
Y-77049D01*
X1320Y-76894D01*
X1367Y-76892D01*
X13133Y-88659D01*
Y-90975D01*
X12919Y-91119D01*
X12587Y-91615D01*
X12471Y-92200D01*
X12587Y-92785D01*
X12919Y-93281D01*
X13415Y-93613D01*
X14000Y-93729D01*
X14585Y-93613D01*
X15081Y-93281D01*
X15413Y-92785D01*
X15529Y-92200D01*
X15413Y-91615D01*
X15081Y-91119D01*
X14867Y-90975D01*
Y-88300D01*
X14801Y-87968D01*
X14613Y-87687D01*
X2835Y-75910D01*
Y-74918D01*
X3288Y-74762D01*
X3335Y-74761D01*
X19133Y-90559D01*
Y-137500D01*
X-48777D01*
Y-126207D01*
X-35893Y-113323D01*
X-9269D01*
X-8985Y-113513D01*
X-8400Y-113629D01*
X-7815Y-113513D01*
X-7531Y-113323D01*
X-6242D01*
X-6085Y-113428D01*
X-5857Y-113473D01*
X-3665Y-115665D01*
X-3268Y-115930D01*
X-2800Y-116024D01*
X16031D01*
X16315Y-116213D01*
X16900Y-116329D01*
X17485Y-116213D01*
X17981Y-115881D01*
X18313Y-115385D01*
X18429Y-114800D01*
X18313Y-114215D01*
X17981Y-113719D01*
X17485Y-113387D01*
X16900Y-113271D01*
X16315Y-113387D01*
X16031Y-113576D01*
X-2293D01*
X-3999Y-111870D01*
X-4087Y-111430D01*
X-4419Y-110933D01*
X-4915Y-110602D01*
X-5500Y-110486D01*
X-6085Y-110602D01*
X-6496Y-110877D01*
X-7531D01*
X-7815Y-110687D01*
X-8400Y-110571D01*
X-8985Y-110687D01*
X-9269Y-110877D01*
X-36400D01*
X-36868Y-110970D01*
X-37265Y-111235D01*
X-50865Y-124835D01*
X-51130Y-125232D01*
X-51223Y-125700D01*
Y-137500D01*
X-59200D01*
Y-122467D01*
X-58500D01*
X-58168Y-122401D01*
X-57887Y-122213D01*
X-55587Y-119913D01*
X-55399Y-119632D01*
X-55333Y-119300D01*
Y-109725D01*
X-55119Y-109581D01*
X-54787Y-109085D01*
X-54671Y-108500D01*
X-54787Y-107915D01*
X-55119Y-107419D01*
X-55615Y-107087D01*
X-56200Y-106971D01*
X-56785Y-107087D01*
X-57281Y-107419D01*
X-57613Y-107915D01*
X-57729Y-108500D01*
X-57613Y-109085D01*
X-57281Y-109581D01*
X-57067Y-109725D01*
Y-118941D01*
X-58700Y-120574D01*
X-59200Y-120367D01*
Y-105423D01*
X-20500D01*
X-20032Y-105330D01*
X-19635Y-105065D01*
X-10649Y-96079D01*
X-10315Y-96013D01*
X-9819Y-95681D01*
X-9487Y-95185D01*
X-9371Y-94600D01*
X-9487Y-94015D01*
X-9819Y-93519D01*
X-10315Y-93187D01*
X-10900Y-93071D01*
X-11485Y-93187D01*
X-11981Y-93519D01*
X-12313Y-94015D01*
X-12380Y-94349D01*
X-21007Y-102977D01*
X-59200D01*
Y-54613D01*
X-58700Y-54337D01*
X-57900Y-54496D01*
X-56983Y-54314D01*
X-56206Y-53794D01*
X-55686Y-53017D01*
X-55504Y-52100D01*
X-55686Y-51183D01*
X-56206Y-50406D01*
X-56983Y-49886D01*
X-57900Y-49704D01*
X-58700Y-49863D01*
X-59200Y-49587D01*
Y-46613D01*
X-58700Y-46337D01*
X-57900Y-46496D01*
X-56983Y-46314D01*
X-56667Y-46102D01*
X-56167Y-46369D01*
Y-48200D01*
X-56101Y-48532D01*
X-55913Y-48813D01*
X-54932Y-49794D01*
X-55092Y-50600D01*
X-54925Y-51439D01*
X-54450Y-52150D01*
X-53739Y-52625D01*
X-52900Y-52792D01*
X-52061Y-52625D01*
X-51350Y-52150D01*
X-50875Y-51439D01*
X-50708Y-50600D01*
X-50875Y-49761D01*
X-51350Y-49050D01*
X-52061Y-48575D01*
X-52900Y-48408D01*
X-53706Y-48568D01*
X-54193Y-48081D01*
X-54161Y-47824D01*
X-53791Y-47589D01*
X-53621Y-47547D01*
X-53150Y-47640D01*
Y-45600D01*
Y-43560D01*
X-53700Y-43669D01*
X-53933Y-43825D01*
X-54433Y-43558D01*
Y-40605D01*
X-54051Y-40248D01*
X-53956Y-40215D01*
X-53950Y-40217D01*
D02*
G37*
G36*
X17219Y-42509D02*
X17219D01*
X17319Y-42591D01*
Y-44514D01*
X19000D01*
X20681D01*
Y-44183D01*
X21181Y-43916D01*
X21276Y-43980D01*
Y-47731D01*
X20746Y-48261D01*
X20615Y-48287D01*
X20119Y-48619D01*
X19787Y-49115D01*
X19736Y-49370D01*
X19194Y-49535D01*
X15035Y-45376D01*
Y-43060D01*
X14969Y-42728D01*
X14781Y-42447D01*
X13221Y-40887D01*
X13000Y-40739D01*
Y-39804D01*
X17219D01*
Y-42509D01*
D02*
G37*
%LPC*%
G36*
X49531Y-16203D02*
X47903D01*
Y-19258D01*
X49531D01*
Y-16203D01*
D02*
G37*
G36*
X47403D02*
X45775D01*
Y-19258D01*
X47403D01*
Y-16203D01*
D02*
G37*
G36*
X20750Y-18402D02*
X19417D01*
Y-19538D01*
X20750D01*
Y-18402D01*
D02*
G37*
G36*
X54989Y-18244D02*
Y-21344D01*
X58090D01*
X58007Y-20719D01*
X57669Y-19903D01*
X57132Y-19202D01*
X56431Y-18665D01*
X55615Y-18327D01*
X54989Y-18244D01*
D02*
G37*
G36*
X54489Y-18244D02*
X53864Y-18327D01*
X53048Y-18665D01*
X52347Y-19202D01*
X51809Y-19903D01*
X51471Y-20719D01*
X51389Y-21344D01*
X54489D01*
Y-18244D01*
D02*
G37*
G36*
X47403Y-19758D02*
X45775D01*
Y-22327D01*
X45775Y-22339D01*
X45775Y-22339D01*
X45775Y-22641D01*
X45275Y-22690D01*
X45136Y-21990D01*
X44590Y-21173D01*
X43773Y-20628D01*
X43060Y-20486D01*
Y-22953D01*
Y-25420D01*
X43773Y-25278D01*
X44590Y-24733D01*
X45136Y-23916D01*
X45283Y-23175D01*
X45327Y-22953D01*
X45374Y-22915D01*
X45809Y-22813D01*
X46203Y-22813D01*
X47403D01*
Y-19758D01*
D02*
G37*
G36*
X42560Y-20486D02*
X41847Y-20628D01*
X41030Y-21173D01*
X40485Y-21990D01*
X40343Y-22703D01*
X42560D01*
Y-20486D01*
D02*
G37*
G36*
X49531Y-19758D02*
X47903D01*
Y-22813D01*
X49531D01*
Y-19758D01*
D02*
G37*
G36*
X42560Y-23203D02*
X40343D01*
X40485Y-23916D01*
X41030Y-24733D01*
X41847Y-25278D01*
X42560Y-25420D01*
Y-23203D01*
D02*
G37*
G36*
X20681Y-24063D02*
X19250D01*
Y-25986D01*
X20681D01*
Y-24063D01*
D02*
G37*
G36*
X18750D02*
X17319D01*
Y-25986D01*
X18750D01*
Y-24063D01*
D02*
G37*
G36*
X46913Y-26094D02*
X43906D01*
Y-27132D01*
X46913D01*
Y-26094D01*
D02*
G37*
G36*
X43406D02*
X40401D01*
Y-27132D01*
X43406D01*
Y-26094D01*
D02*
G37*
G36*
X46913Y-27632D02*
X43656D01*
X40401D01*
Y-28669D01*
Y-29691D01*
X43656D01*
X46913D01*
Y-28669D01*
Y-27632D01*
D02*
G37*
G36*
X55277Y-28961D02*
X50106D01*
Y-32016D01*
X55277D01*
Y-28961D01*
D02*
G37*
G36*
X55277Y-32984D02*
X50106D01*
Y-36040D01*
X55277D01*
Y-32984D01*
D02*
G37*
G36*
X35765Y-36925D02*
X33350D01*
Y-38750D01*
X35765D01*
Y-36925D01*
D02*
G37*
G36*
X32850D02*
X30435D01*
Y-38750D01*
X32850D01*
Y-36925D01*
D02*
G37*
G36*
X35114Y-29433D02*
X29243D01*
X28912Y-29499D01*
X28631Y-29687D01*
X27748Y-30570D01*
X24427D01*
Y-34526D01*
X25533D01*
Y-37022D01*
X24619D01*
Y-40978D01*
X27483D01*
Y-43975D01*
X26956Y-44502D01*
X24619D01*
Y-48458D01*
X28181D01*
Y-45728D01*
X28963Y-44946D01*
X29151Y-44665D01*
X29217Y-44333D01*
Y-37262D01*
X32052Y-34426D01*
X35373D01*
Y-33906D01*
X35873Y-33699D01*
X37846Y-35672D01*
X38127Y-35860D01*
X38459Y-35926D01*
X40301D01*
Y-36784D01*
X40194D01*
X39765Y-36869D01*
X39401Y-37113D01*
X39401Y-37113D01*
X36807Y-39707D01*
X36564Y-40071D01*
X36478Y-40500D01*
X36478Y-40500D01*
Y-42303D01*
X34279Y-44502D01*
X32106D01*
Y-48458D01*
X33501D01*
X33865Y-48897D01*
X33859Y-48930D01*
X33975Y-49516D01*
X34307Y-50012D01*
X34803Y-50343D01*
X34806Y-50344D01*
X34757Y-50844D01*
X32805D01*
Y-53850D01*
X35516D01*
Y-50944D01*
X35516Y-50844D01*
X35663Y-50405D01*
X35973Y-50343D01*
X36470Y-50012D01*
X36801Y-49516D01*
X36917Y-48930D01*
X36801Y-48345D01*
X36470Y-47849D01*
X35973Y-47517D01*
X35690Y-47161D01*
X35669Y-47053D01*
Y-46285D01*
X38393Y-43561D01*
X38393Y-43561D01*
X38636Y-43197D01*
X38722Y-42768D01*
X38722Y-42768D01*
Y-40965D01*
X40659Y-39027D01*
X42952D01*
X42952Y-39027D01*
X43060Y-39006D01*
X47013D01*
Y-36446D01*
Y-33887D01*
Y-31113D01*
X46913D01*
Y-30191D01*
X43656D01*
X40401D01*
Y-31113D01*
X40301D01*
Y-31581D01*
X37621D01*
X35727Y-29687D01*
X35446Y-29499D01*
X35114Y-29433D01*
D02*
G37*
G36*
X35765Y-39250D02*
X33350D01*
Y-41075D01*
X35765D01*
Y-39250D01*
D02*
G37*
G36*
X32850D02*
X30435D01*
Y-41075D01*
X32850D01*
Y-39250D01*
D02*
G37*
G36*
X42560Y-39580D02*
X41847Y-39722D01*
X41030Y-40268D01*
X40485Y-41084D01*
X40343Y-41797D01*
X42560D01*
Y-39580D01*
D02*
G37*
G36*
Y-42297D02*
X40343D01*
X40485Y-43010D01*
X41030Y-43827D01*
X41847Y-44372D01*
X42560Y-44514D01*
Y-42297D01*
D02*
G37*
G36*
X47903Y-42187D02*
Y-45242D01*
X49531D01*
Y-42187D01*
X47903D01*
D02*
G37*
G36*
X43060Y-39580D02*
Y-42047D01*
Y-44514D01*
X43773Y-44372D01*
X44590Y-43827D01*
X45136Y-43010D01*
X45275Y-42310D01*
X45775Y-42359D01*
X45775Y-42661D01*
X45775Y-42661D01*
X45775Y-42673D01*
Y-45242D01*
X47403D01*
Y-42187D01*
X46205D01*
X45809Y-42187D01*
X45374Y-42085D01*
X45327Y-42047D01*
X45283Y-41825D01*
X45136Y-41084D01*
X44590Y-40268D01*
X43773Y-39722D01*
X43060Y-39580D01*
D02*
G37*
G36*
X58090Y-43656D02*
X54989D01*
Y-46756D01*
X55615Y-46674D01*
X56431Y-46336D01*
X57132Y-45798D01*
X57669Y-45097D01*
X58007Y-44281D01*
X58090Y-43656D01*
D02*
G37*
G36*
X54489D02*
X51389D01*
X51471Y-44281D01*
X51809Y-45097D01*
X52347Y-45798D01*
X53048Y-46336D01*
X53864Y-46674D01*
X54489Y-46756D01*
Y-43656D01*
D02*
G37*
G36*
X49531Y-45742D02*
X47903D01*
Y-48797D01*
X49531D01*
Y-45742D01*
D02*
G37*
G36*
X47403D02*
X45775D01*
Y-48797D01*
X47403D01*
Y-45742D01*
D02*
G37*
G36*
X32305Y-50844D02*
X29594D01*
Y-53850D01*
X32305D01*
Y-50844D01*
D02*
G37*
G36*
X14100Y-52571D02*
X13515Y-52687D01*
X13019Y-53019D01*
X12687Y-53515D01*
X12571Y-54100D01*
X12687Y-54685D01*
X13019Y-55181D01*
X13515Y-55513D01*
X14100Y-55629D01*
X14685Y-55513D01*
X15181Y-55181D01*
X15513Y-54685D01*
X15629Y-54100D01*
X15513Y-53515D01*
X15181Y-53019D01*
X14685Y-52687D01*
X14100Y-52571D01*
D02*
G37*
G36*
X35516Y-54350D02*
X32805D01*
Y-57356D01*
X35516D01*
Y-54350D01*
D02*
G37*
G36*
X59583Y-87114D02*
X58250D01*
Y-88250D01*
X59583D01*
Y-87114D01*
D02*
G37*
G36*
X57750D02*
X56417D01*
Y-88250D01*
X57750D01*
Y-87114D01*
D02*
G37*
G36*
X59583Y-88750D02*
X58250D01*
Y-89886D01*
X59583D01*
Y-88750D01*
D02*
G37*
G36*
X57750D02*
X56417D01*
Y-89886D01*
X57750D01*
Y-88750D01*
D02*
G37*
G36*
X53268Y-112850D02*
X48131D01*
Y-118050D01*
X43700D01*
Y-126750D01*
X59900D01*
Y-118050D01*
X53268D01*
Y-112850D01*
D02*
G37*
G36*
X59644Y-129304D02*
X51894D01*
Y-133304D01*
X59644D01*
Y-129304D01*
D02*
G37*
G36*
X51394D02*
X43644D01*
Y-133304D01*
X51394D01*
Y-129304D01*
D02*
G37*
G36*
X-44050Y-14250D02*
X-45750D01*
Y-20000D01*
X-44050D01*
Y-14250D01*
D02*
G37*
G36*
X-46850D02*
X-48550D01*
Y-20000D01*
X-46850D01*
Y-14250D01*
D02*
G37*
G36*
X-49050D02*
X-50750D01*
Y-20000D01*
X-49050D01*
Y-14250D01*
D02*
G37*
G36*
X-31119Y-22714D02*
X-32550D01*
Y-24637D01*
X-31119D01*
Y-22714D01*
D02*
G37*
G36*
X-33050D02*
X-34481D01*
Y-24637D01*
X-33050D01*
Y-22714D01*
D02*
G37*
G36*
X-31119Y-26863D02*
X-32550D01*
Y-28786D01*
X-31119D01*
Y-26863D01*
D02*
G37*
G36*
X-33050D02*
X-34481D01*
Y-28786D01*
X-33050D01*
Y-26863D01*
D02*
G37*
G36*
X-46750Y-24900D02*
X-50850D01*
Y-37100D01*
X-49325D01*
X-49306Y-37196D01*
X-48974Y-37692D01*
X-48478Y-38024D01*
X-47893Y-38140D01*
X-47308Y-38024D01*
X-46812Y-37692D01*
X-46480Y-37196D01*
X-46363Y-36611D01*
X-46480Y-36026D01*
X-46750Y-35622D01*
Y-24900D01*
D02*
G37*
G36*
X-52650Y-43560D02*
Y-45350D01*
X-50860D01*
X-50969Y-44800D01*
X-51422Y-44122D01*
X-52100Y-43669D01*
X-52650Y-43560D01*
D02*
G37*
G36*
X-50860Y-45850D02*
X-52650D01*
Y-47640D01*
X-52100Y-47531D01*
X-51422Y-47078D01*
X-50969Y-46400D01*
X-50860Y-45850D01*
D02*
G37*
G36*
X-27450Y-55884D02*
X-30456D01*
Y-58595D01*
X-27450D01*
Y-55884D01*
D02*
G37*
G36*
X-7550Y-58314D02*
X-8981D01*
Y-60237D01*
X-7550D01*
Y-58314D01*
D02*
G37*
G36*
X-10019D02*
X-11450D01*
Y-60237D01*
X-10019D01*
Y-58314D01*
D02*
G37*
G36*
X-11950D02*
X-13381D01*
Y-60237D01*
X-11950D01*
Y-58314D01*
D02*
G37*
G36*
X-23944Y-59095D02*
X-26950D01*
Y-61805D01*
X-23944D01*
Y-59095D01*
D02*
G37*
G36*
X-27450D02*
X-30456D01*
Y-61805D01*
X-27450D01*
Y-59095D01*
D02*
G37*
G36*
X-37200Y-58771D02*
X-37785Y-58887D01*
X-38281Y-59219D01*
X-38613Y-59715D01*
X-38729Y-60300D01*
X-38613Y-60885D01*
X-38281Y-61381D01*
X-38067Y-61525D01*
Y-86547D01*
X-38281Y-86690D01*
X-38613Y-87186D01*
X-38729Y-87772D01*
X-38613Y-88357D01*
X-38281Y-88853D01*
X-37785Y-89185D01*
X-37200Y-89301D01*
X-36615Y-89185D01*
X-36119Y-88853D01*
X-35787Y-88357D01*
X-35671Y-87772D01*
X-35787Y-87186D01*
X-36119Y-86690D01*
X-36333Y-86547D01*
Y-61525D01*
X-36119Y-61381D01*
X-35787Y-60885D01*
X-35671Y-60300D01*
X-35787Y-59715D01*
X-36119Y-59219D01*
X-36615Y-58887D01*
X-37200Y-58771D01*
D02*
G37*
G36*
X20681Y-45014D02*
X19250D01*
Y-46937D01*
X20681D01*
Y-45014D01*
D02*
G37*
G36*
X18750D02*
X17319D01*
Y-46937D01*
X18750D01*
Y-45014D01*
D02*
G37*
%LPD*%
D11*
X70941Y-73784D02*
G03*
X76736Y-73457I2888J327D01*
G01*
D02*
G03*
X70941Y-73784I-2906J0D01*
G01*
X42247Y-69740D02*
X43851D01*
X44237Y-70126D01*
X47788Y-69740D02*
X48174Y-70126D01*
X47788Y-69740D02*
Y-68790D01*
X46513Y-67515D02*
X47788Y-68790D01*
X48174Y-70126D02*
X52230D01*
X38300Y-75163D02*
Y-68087D01*
X43458Y-62929D02*
X48260D01*
X38300Y-68087D02*
X43458Y-62929D01*
X35173Y-48716D02*
X35388Y-48930D01*
X35173Y-48716D02*
Y-48358D01*
X34569Y-47753D02*
X35173Y-48358D01*
X34569Y-47753D02*
Y-47161D01*
X33887Y-46480D02*
X34569Y-47161D01*
X33887Y-46480D02*
Y-46283D01*
X49231Y-95131D02*
X50700Y-96600D01*
X49231Y-95131D02*
Y-93901D01*
X45744Y-90413D02*
X49231Y-93901D01*
X45744Y-90413D02*
Y-89921D01*
X45063Y-89240D02*
X45744Y-89921D01*
X44571Y-89240D02*
X45063D01*
X54100Y-59300D02*
X55740Y-60940D01*
Y-62929D02*
Y-60940D01*
X50600Y-59300D02*
X54100D01*
X35200Y-78263D02*
X38300Y-75163D01*
X35200Y-86300D02*
Y-78263D01*
X48941Y-60959D02*
X50600Y-59300D01*
X48941Y-62248D02*
Y-60959D01*
X48260Y-62929D02*
X48941Y-62248D01*
X52200Y-70096D02*
X52230Y-70126D01*
X35200Y-86300D02*
X38140Y-89240D01*
X44571D01*
X37600Y-42768D02*
Y-40500D01*
X34765Y-45602D02*
X37600Y-42768D01*
X34569Y-45602D02*
X34765D01*
X33887Y-46283D02*
X34569Y-45602D01*
X37600Y-40500D02*
X40194Y-37905D01*
X42952D01*
X43239Y-37618D01*
D15*
X55970Y-73872D02*
Y-70126D01*
X50318Y-79523D02*
X55970Y-73872D01*
X11811Y-46811D02*
X14700Y-49700D01*
X15800D01*
X51159Y-88659D02*
X52848D01*
X53429Y-89240D01*
X50318Y-87818D02*
X51159Y-88659D01*
X50318Y-87818D02*
Y-79523D01*
D16*
X48174Y-70126D02*
D03*
X44237D02*
D03*
X45232Y-75200D02*
D03*
X49169D02*
D03*
D17*
X65664Y-73457D02*
D03*
Y-69913D02*
D03*
X68900D02*
D03*
Y-77000D02*
D03*
X65664D02*
D03*
D18*
X11811Y-23189D02*
D03*
Y-25157D02*
D03*
Y-27126D02*
D03*
Y-31063D02*
D03*
Y-33031D02*
D03*
Y-35000D02*
D03*
Y-36968D02*
D03*
Y-38937D02*
D03*
Y-42874D02*
D03*
Y-44842D02*
D03*
Y-46811D02*
D03*
X9843Y-23189D02*
D03*
Y-25157D02*
D03*
Y-27126D02*
D03*
Y-31063D02*
D03*
Y-33031D02*
D03*
Y-35000D02*
D03*
Y-36968D02*
D03*
Y-38937D02*
D03*
Y-42874D02*
D03*
Y-44842D02*
D03*
Y-46811D02*
D03*
X7874Y-23189D02*
D03*
Y-25157D02*
D03*
Y-35000D02*
D03*
Y-44842D02*
D03*
Y-46811D02*
D03*
X3937Y-23189D02*
D03*
Y-25157D02*
D03*
Y-31063D02*
D03*
Y-33031D02*
D03*
Y-35000D02*
D03*
Y-36968D02*
D03*
Y-38937D02*
D03*
Y-44842D02*
D03*
Y-46811D02*
D03*
X1969Y-23189D02*
D03*
Y-25157D02*
D03*
Y-31063D02*
D03*
Y-33031D02*
D03*
Y-36968D02*
D03*
Y-38937D02*
D03*
Y-44842D02*
D03*
Y-46811D02*
D03*
X0Y-23189D02*
D03*
Y-25157D02*
D03*
Y-27126D02*
D03*
Y-31063D02*
D03*
Y-33031D02*
D03*
Y-36968D02*
D03*
Y-38937D02*
D03*
Y-42874D02*
D03*
Y-44842D02*
D03*
Y-46811D02*
D03*
X-1969Y-23189D02*
D03*
Y-25157D02*
D03*
Y-31063D02*
D03*
Y-33031D02*
D03*
Y-36968D02*
D03*
Y-38937D02*
D03*
Y-44842D02*
D03*
Y-46811D02*
D03*
X-3937Y-23189D02*
D03*
Y-25157D02*
D03*
Y-31063D02*
D03*
Y-33031D02*
D03*
Y-35000D02*
D03*
Y-36968D02*
D03*
Y-38937D02*
D03*
Y-44842D02*
D03*
Y-46811D02*
D03*
X-7874Y-23189D02*
D03*
Y-25157D02*
D03*
Y-35000D02*
D03*
Y-44842D02*
D03*
Y-46811D02*
D03*
X-9843Y-23189D02*
D03*
Y-25157D02*
D03*
Y-27126D02*
D03*
Y-31063D02*
D03*
Y-33031D02*
D03*
Y-35000D02*
D03*
Y-36968D02*
D03*
Y-38937D02*
D03*
Y-42874D02*
D03*
Y-44842D02*
D03*
Y-46811D02*
D03*
X-11811Y-23189D02*
D03*
Y-25157D02*
D03*
Y-27126D02*
D03*
Y-31063D02*
D03*
Y-33031D02*
D03*
Y-35000D02*
D03*
Y-36968D02*
D03*
Y-38937D02*
D03*
Y-42874D02*
D03*
Y-44842D02*
D03*
Y-46811D02*
D03*
D19*
X47653Y-19508D02*
D03*
Y-45492D02*
D03*
D20*
X55527Y-36289D02*
D03*
Y-28711D02*
D03*
D21*
X43657Y-32500D02*
D03*
Y-29941D02*
D03*
Y-27382D02*
D03*
Y-35059D02*
D03*
Y-37618D02*
D03*
D22*
X-19100Y-51955D02*
D03*
Y-58845D02*
D03*
X-27200D02*
D03*
Y-51955D02*
D03*
D23*
X33100Y-39000D02*
D03*
X-69504Y-73000D02*
D03*
D24*
X26400Y-39000D02*
D03*
Y-46480D02*
D03*
X33887D02*
D03*
D25*
X-32800Y-29036D02*
D03*
Y-33564D02*
D03*
X34740Y-20280D02*
D03*
X27260D02*
D03*
Y-11422D02*
D03*
X31000D02*
D03*
X34740D02*
D03*
X48260Y-62929D02*
D03*
X52000D02*
D03*
X55740D02*
D03*
Y-54071D02*
D03*
X48260D02*
D03*
X-7300Y-53536D02*
D03*
Y-58064D02*
D03*
X-11700Y-53536D02*
D03*
Y-58064D02*
D03*
X-18200Y-40936D02*
D03*
Y-45464D02*
D03*
X-5100Y-15414D02*
D03*
Y-10887D02*
D03*
X19000Y-40236D02*
D03*
Y-44764D02*
D03*
Y-30764D02*
D03*
Y-26236D02*
D03*
X8800Y-10736D02*
D03*
Y-15264D02*
D03*
X200Y-15564D02*
D03*
Y-11036D02*
D03*
X-32800Y-17936D02*
D03*
Y-22464D02*
D03*
D26*
X4300Y-15270D02*
D03*
Y-11530D02*
D03*
X13000Y-11130D02*
D03*
Y-14870D02*
D03*
D27*
X-23300Y-32780D02*
D03*
Y-17820D02*
D03*
D28*
X-58800Y-14000D02*
D03*
X-53800D02*
D03*
X-48800D02*
D03*
X-43800D02*
D03*
X-38800Y-31000D02*
D03*
X-43800D02*
D03*
X-48800D02*
D03*
X-53800D02*
D03*
X-58800D02*
D03*
D29*
X-38800Y-14000D02*
D03*
D30*
X44276Y-11636D02*
D03*
X53724D02*
D03*
D31*
X53429Y-81760D02*
D03*
Y-89240D02*
D03*
X44571D02*
D03*
Y-85500D02*
D03*
Y-81760D02*
D03*
D32*
X-71440Y-110113D02*
D03*
X-67700Y-117200D02*
D03*
X-75180D02*
D03*
D33*
X-74448Y-104200D02*
D03*
X-67952D02*
D03*
D34*
X50700Y-96600D02*
D03*
Y-116600D02*
D03*
D35*
X-76000Y-66307D02*
D03*
Y-79693D02*
D03*
D36*
X55970Y-70126D02*
D03*
X52230D02*
D03*
D37*
X32555Y-54100D02*
D03*
X39445D02*
D03*
D38*
X33100Y-32448D02*
D03*
Y-25952D02*
D03*
X26700Y-32548D02*
D03*
Y-26052D02*
D03*
D39*
X-24600Y-44469D02*
D03*
Y-40532D02*
D03*
X-29500Y-44568D02*
D03*
Y-40631D02*
D03*
X21000Y-15851D02*
D03*
Y-19788D02*
D03*
X58000Y-84563D02*
D03*
Y-88500D02*
D03*
D40*
X51644Y-133554D02*
D03*
X51800Y-122400D02*
D03*
D44*
X73829Y-76410D02*
D03*
D78*
X-47900Y-50600D02*
D03*
X-52900Y-45600D02*
D03*
Y-50600D02*
D03*
X-47900Y-45600D02*
D03*
X-42900Y-50600D02*
D03*
Y-45600D02*
D03*
D79*
X16485Y-36611D02*
D03*
X3335Y-18832D02*
D03*
D80*
X-12659Y-41350D02*
X-9575D01*
X-7900Y-39675D02*
Y-38018D01*
X-9575Y-41350D02*
X-7900Y-39675D01*
X-14163Y-42854D02*
X-12659Y-41350D01*
X-19838Y-37905D02*
X-17289D01*
X-20131Y-40117D02*
Y-38198D01*
X-19838Y-37905D01*
X24633Y-66967D02*
X33870D01*
X36519Y-64319D01*
X-15600Y-63800D02*
X-11313Y-68087D01*
X-6436D01*
X-12000Y-36968D02*
X-11811D01*
X-12320Y-37288D02*
X-12000Y-36968D01*
X-12401Y-37288D02*
X-12320D01*
X-14363Y-39250D02*
X-12401Y-37288D01*
X65421Y-70156D02*
X65664Y-69913D01*
X61480Y-70156D02*
X65421D01*
X60920Y-70547D02*
Y-70547D01*
X11811Y-31063D02*
X18701D01*
X-24600Y-44469D02*
X-24403D01*
X-24797D02*
X-24600D01*
X-29500Y-40631D02*
X-29303D01*
X-28667Y-41267D01*
Y-41348D02*
Y-41267D01*
Y-41348D02*
X-28364Y-41651D01*
X-27549D01*
X-27300Y-41900D01*
X-17289Y-37905D02*
X-15385Y-36002D01*
X67900Y-67100D02*
X68900Y-68100D01*
X58900Y-67100D02*
X67900D01*
X-11869Y-29093D02*
X-9902Y-27126D01*
X-9843D01*
X-18533Y-29093D02*
X-11869D01*
X8800Y-10536D02*
Y-10244D01*
X9731Y-9313D01*
X10035D01*
X10367Y-8981D01*
X10719D01*
X4300Y-11530D02*
Y-9696D01*
X5883Y-8113D02*
X8627D01*
X4300Y-9696D02*
X5883Y-8113D01*
X8627D02*
X9540Y-7200D01*
X11900D01*
X4300Y-11530D02*
X5034Y-10796D01*
X-27052Y-51807D02*
X-25359Y-50114D01*
X-27200Y-51955D02*
X-27052Y-51807D01*
X-25359Y-48706D02*
X-21600Y-44947D01*
Y-43999D01*
X-25359Y-50114D02*
Y-48706D01*
X-19131Y-42225D02*
X-18200Y-41294D01*
X-21600Y-43999D02*
X-19826Y-42225D01*
X-19131D01*
X-18200Y-41294D02*
Y-40549D01*
X-23767Y-43833D02*
Y-43753D01*
X-20131Y-40117D01*
X-24403Y-44469D02*
X-23767Y-43833D01*
X-14163Y-46463D02*
Y-42854D01*
X-33200Y-39755D02*
X-31882Y-38436D01*
Y-38300D01*
X-33200Y-52200D02*
Y-39755D01*
X-60800Y-61769D02*
Y-38350D01*
X-60000Y-36250D02*
X-60000D01*
X-60800Y-38350D02*
X-60776Y-38326D01*
Y-37026D02*
X-60000Y-36250D01*
X-60776Y-38326D02*
Y-37026D01*
X-60000Y-36250D02*
X-58800Y-35050D01*
X-71136Y-63215D02*
X-62246D01*
X-74228Y-66307D02*
X-71136Y-63215D01*
X-76000Y-66307D02*
X-74228D01*
X1800Y-21200D02*
X1969Y-21369D01*
Y-23189D02*
Y-21369D01*
X-22513Y-32780D02*
X-18826Y-29093D01*
X-18533D01*
X-18533Y-29093D01*
X-32017Y-32780D02*
X-22513D01*
X11811Y-35000D02*
X13647D01*
X14547Y-34100D02*
X15782D01*
X13647Y-35000D02*
X14547Y-34100D01*
X11811Y-36968D02*
X15550D01*
X15763Y-36756D01*
X15782Y-34100D02*
X16031Y-33851D01*
X3937Y-23189D02*
Y-19975D01*
X3335Y-19373D02*
X3937Y-19975D01*
X3335Y-19373D02*
Y-18832D01*
X-55300Y-48200D02*
Y-40380D01*
X-55913Y-39767D02*
X-55300Y-40380D01*
X-56400Y-39252D02*
Y-38900D01*
Y-39252D02*
X-55913Y-39739D01*
Y-39767D02*
Y-39739D01*
X-58800Y-31000D02*
Y-30293D01*
Y-35050D02*
Y-31000D01*
X-62246Y-63215D02*
X-60800Y-61769D01*
X7874Y-23189D02*
Y-20881D01*
X9548Y-19207D02*
X14907D01*
X7874Y-20881D02*
X9548Y-19207D01*
X29243Y-30300D02*
X35114D01*
X43187Y-32448D02*
X43239Y-32500D01*
X37262Y-32448D02*
X43187D01*
X35114Y-30300D02*
X37262Y-32448D01*
X14169Y-45735D02*
X27133Y-58700D01*
X14169Y-45735D02*
Y-43060D01*
X27133Y-58700D02*
X28867D01*
X43500Y-138900D02*
X48300D01*
X42100Y-137500D02*
Y-104686D01*
Y-137500D02*
X43500Y-138900D01*
X37300Y-133200D02*
Y-102369D01*
X6400Y-71469D02*
Y-46316D01*
Y-71469D02*
X37300Y-102369D01*
X7874Y-70460D02*
Y-46811D01*
Y-70460D02*
X42100Y-104686D01*
X-9843Y-33031D02*
X-9653D01*
X-9282Y-32682D02*
X-6900Y-30300D01*
X-9653Y-33031D02*
X-9304Y-32682D01*
X-9282D01*
X28350Y-44333D02*
Y-36903D01*
X26400Y-46283D02*
X28350Y-44333D01*
X-5400Y-49000D02*
X-1000Y-53400D01*
Y-82700D02*
X6200Y-89900D01*
X-1000Y-82700D02*
Y-53400D01*
X6200Y-89900D02*
X8800D01*
X10547Y-41500D02*
X12608D01*
X9843Y-42874D02*
X9962Y-42754D01*
Y-42085D02*
X10547Y-41500D01*
X9962Y-42754D02*
Y-42085D01*
X48300Y-138900D02*
X49793Y-140393D01*
X-41407Y-53500D02*
X-36404D01*
X-34581Y-51677D02*
Y-38285D01*
X-36404Y-53500D02*
X-34581Y-51677D01*
X-29500Y-46400D02*
Y-44568D01*
X-30800Y-47700D02*
X-29500Y-46400D01*
X-25433Y-45104D02*
X-24797Y-44469D01*
X-25433Y-45301D02*
Y-45104D01*
X-27832Y-47700D02*
X-25433Y-45301D01*
X-30800Y-47700D02*
X-27832D01*
X-56600Y-37250D02*
X-54836D01*
X-58800Y-35050D02*
X-57600Y-36250D01*
X-57600D01*
X-56600Y-37250D01*
X-60000Y-29093D02*
X-58800Y-30293D01*
X49793Y-147293D02*
X50000Y-147500D01*
X49793Y-147293D02*
Y-140393D01*
X1969Y-36968D02*
Y-35300D01*
X1900D02*
X1969D01*
X-9843Y-50502D02*
X-7300Y-53044D01*
X-9843Y-50502D02*
Y-46811D01*
X28350Y-36903D02*
X32805Y-32448D01*
X30000Y-39100D02*
X32733D01*
X32867Y-39233D01*
X-16058Y-33115D02*
X-15974Y-33031D01*
X-11811D01*
X-14737Y-31063D02*
X-11811D01*
X-15000Y-30800D02*
X-14737Y-31063D01*
X-62600Y-43400D02*
Y-30757D01*
X-62443Y-30600D01*
X1900Y-35874D02*
Y-35300D01*
X69363Y-75362D02*
X70941Y-73784D01*
X-43800Y-14000D02*
Y-9500D01*
Y-14800D02*
Y-14000D01*
X-48800D02*
Y-9800D01*
Y-14800D02*
Y-14000D01*
X-58900Y-14700D02*
Y-10100D01*
X-52900Y-45600D02*
Y-42800D01*
X-44925Y-28575D02*
X-43500Y-30000D01*
X-44925Y-28575D02*
Y-23885D01*
X-38550Y-23950D02*
X-38200Y-24300D01*
X-38550Y-30050D02*
Y-23950D01*
X-38800Y-30300D02*
X-38550Y-30050D01*
X-54836Y-37250D02*
X-54300Y-37786D01*
Y-39000D02*
X-53950Y-39350D01*
X-54300Y-39000D02*
Y-37786D01*
X-53950Y-39350D02*
X-52350D01*
X-43800Y-30300D02*
X-43500Y-30000D01*
X-11811Y-39643D02*
Y-38937D01*
X-12517Y-40350D02*
X-11811Y-39643D01*
X-17651Y-40900D02*
X-13679D01*
X-17651D02*
Y-40000D01*
X-13130Y-40350D02*
X-12517D01*
X-13679Y-40900D02*
X-13130Y-40350D01*
X-11811Y-38937D02*
X-9843D01*
X-44600Y-47500D02*
Y-47300D01*
X-42900Y-45600D01*
X-15385Y-36002D02*
X-12812D01*
X-1969Y-36968D02*
Y-35868D01*
X-1900Y-35800D01*
Y-35300D01*
X12608Y-41500D02*
X14169Y-43060D01*
X32867Y-39233D02*
X33100Y-39000D01*
X-22326Y-39200D02*
X-21800D01*
X13426Y-27126D02*
X13500Y-27200D01*
X11811Y-27126D02*
X13426D01*
X7630Y-29000D02*
X14033D01*
X15150Y-27883D01*
Y-26093D01*
X14300Y-25243D02*
X15150Y-26093D01*
X14300Y-25243D02*
Y-23100D01*
X-13000Y-22000D02*
Y-18400D01*
Y-22000D02*
X-11811Y-23189D01*
X5567Y-31063D02*
X7630Y-29000D01*
X-450Y-29550D02*
X5665D01*
X-1800Y-28200D02*
X-450Y-29550D01*
X5665D02*
X6524Y-28691D01*
X1969Y-27832D02*
Y-25157D01*
X3937Y-26937D02*
X4200Y-27200D01*
X3937Y-26937D02*
Y-25157D01*
X5524Y-26638D02*
X6524Y-27638D01*
X5524Y-26638D02*
Y-18832D01*
X6524Y-26224D02*
X7073Y-26773D01*
X6524Y-26224D02*
Y-19876D01*
Y-28691D02*
Y-27638D01*
X-1800Y-28200D02*
Y-26957D01*
X9843Y-21400D02*
X9900Y-21342D01*
X9843Y-23189D02*
Y-21400D01*
X7073Y-26773D02*
X8227D01*
X-18200Y-40549D02*
X-17651Y-40000D01*
X-13994Y-27126D02*
X-11811D01*
X-17200Y-23920D02*
X-13994Y-27126D01*
X3937Y-31063D02*
X5567D01*
X-1969Y-49968D02*
Y-49600D01*
Y-46811D01*
X-12812Y-36002D02*
X-11811Y-35000D01*
X33100Y-25952D02*
Y-23500D01*
X26900Y-25852D02*
Y-23400D01*
X26700Y-26052D02*
X26900Y-25852D01*
X6000Y-36500D02*
X8343D01*
X9843Y-35000D01*
X6000Y-43000D02*
X8000D01*
X5400Y-72400D02*
Y-46306D01*
X3937Y-44842D02*
X5400Y-46306D01*
X6400Y-46316D02*
X7874Y-44842D01*
X2600Y-42910D02*
Y-42600D01*
X-4946Y-33851D02*
X-4126Y-33031D01*
X-3937D01*
X18701Y-31063D02*
X19000Y-30764D01*
X-13163Y-44226D02*
X-11811Y-42874D01*
X-13163Y-48263D02*
Y-44226D01*
X5400Y-72400D02*
X30000Y-97000D01*
X5524Y-18832D02*
X8800Y-15556D01*
X6524Y-19876D02*
X8400Y-18000D01*
X8000Y-43000D02*
X9843Y-44842D01*
X-4794Y-42376D02*
X-2467D01*
X-6400Y-49500D02*
Y-43982D01*
X-4379Y-43376D02*
X-3435D01*
X-5400Y-44396D02*
X-4379Y-43376D01*
X-5400Y-49000D02*
Y-44396D01*
X-6400Y-43982D02*
X-4794Y-42376D01*
X13000Y-11130D02*
Y-8300D01*
X11900Y-7200D02*
X13000Y-8300D01*
X-17200Y-23920D02*
Y-23100D01*
X-22480Y-17820D02*
X-17200Y-23100D01*
X-23300Y-17820D02*
X-22480D01*
X37300Y-133200D02*
X40000Y-135900D01*
Y-147500D02*
Y-135900D01*
X30000Y-147500D02*
Y-97000D01*
X12250Y-70673D02*
X12277Y-70700D01*
X12250Y-70673D02*
Y-64800D01*
X-13820Y-53536D02*
X-11700D01*
X-14300Y-53056D02*
X-13820Y-53536D01*
X-59835Y-117200D02*
X-58135Y-115500D01*
X-67700Y-117200D02*
X-59835D01*
X-75800Y-118200D02*
X-72400Y-121600D01*
X-58500D01*
X68900Y-69913D02*
Y-68100D01*
X-6400Y-49500D02*
X-2500Y-53400D01*
X-10400Y-20000D02*
X-10376D01*
X-9843Y-20533D01*
X-20000Y-8500D02*
Y0D01*
Y-8500D02*
X-19000Y-9500D01*
X-67700Y-117200D02*
X-67157Y-116657D01*
X67900Y-79900D02*
X68900Y-78900D01*
X59400Y-79900D02*
X67900D01*
X60400Y-73000D02*
X60752D01*
X61208Y-73457D01*
X-58500Y-121600D02*
X-56200Y-119300D01*
Y-108500D01*
X1969Y-43541D02*
X2600Y-42910D01*
X1969Y-44842D02*
Y-43541D01*
X49169Y-77931D02*
Y-75200D01*
X45340Y-81760D02*
X49169Y-77931D01*
X44571Y-81760D02*
X45340D01*
X-2500Y-83400D02*
X7900Y-93800D01*
X-2500Y-83400D02*
Y-53400D01*
X14000Y-92200D02*
Y-88300D01*
X1969Y-76269D02*
X14000Y-88300D01*
X1969Y-76269D02*
Y-46811D01*
X0Y-80200D02*
Y-46811D01*
Y-80200D02*
X2600Y-82800D01*
X-2467Y-42376D02*
X0Y-44842D01*
Y-41300D02*
X300Y-41000D01*
X0Y-42874D02*
Y-41300D01*
X26995Y-32548D02*
X29243Y-30300D01*
X38459Y-35059D02*
X43239D01*
X35848Y-32448D02*
X38459Y-35059D01*
X33100Y-32448D02*
X35848D01*
X20000Y-7600D02*
Y0D01*
X18500Y-9100D02*
X20000Y-7600D01*
X18500Y-14403D02*
Y-9100D01*
X8400Y-18000D02*
X14904D01*
X18500Y-14403D01*
X14907Y-19207D02*
X17340Y-21640D01*
X-6436Y-23720D02*
Y-20013D01*
X-16950Y-9500D02*
X-6436Y-20013D01*
X-5436Y-23658D02*
Y-19599D01*
X-10000Y-15035D02*
X-5436Y-19599D01*
X-8950Y-36968D02*
X-7900Y-38018D01*
X-9843Y-36968D02*
X-8950D01*
X20000Y-147500D02*
Y-90200D01*
X3937Y-74137D02*
X20000Y-90200D01*
X3937Y-74137D02*
Y-46811D01*
X-35800Y-54800D02*
X-33200Y-52200D01*
X-46400Y-54800D02*
X-35800D01*
X6500Y-39200D02*
X8282D01*
X52000Y-65400D02*
X52100Y-65500D01*
X52000Y-65400D02*
Y-62929D01*
X44231Y-82100D02*
X44571Y-81760D01*
X39100Y-82100D02*
X44231D01*
X-14645Y-49744D02*
X-13163Y-48263D01*
X-17789Y-49744D02*
X-14645D01*
X-19100Y-51055D02*
X-17789Y-49744D01*
X-16000Y-48300D02*
X-14163Y-46463D01*
X-22126Y-48074D02*
X-21951Y-48249D01*
X-37200Y-87772D02*
Y-60300D01*
X-42624Y-52283D02*
X-41407Y-53500D01*
X-47900Y-53300D02*
X-46400Y-54800D01*
X-47900Y-53300D02*
Y-50600D01*
X-53200Y-43100D02*
X-52900Y-42800D01*
X-55300Y-48200D02*
X-52900Y-50600D01*
X-48107Y-45393D02*
Y-43593D01*
X-52350Y-39350D02*
X-48107Y-43593D01*
Y-45393D02*
X-47900Y-45600D01*
X-42624Y-52283D02*
Y-50876D01*
X-42900Y-50600D02*
X-42624Y-50876D01*
X-1800Y-26957D02*
X0Y-25157D01*
X-11811Y-53425D02*
X-11700Y-53536D01*
X-21251Y-48249D02*
X-21200Y-48300D01*
X-21951Y-48249D02*
X-21251D01*
X-21200Y-48300D02*
X-16000D01*
X-42900Y-45600D02*
X-42628D01*
X-27066Y-39117D02*
X-26925Y-39258D01*
X-25873D01*
X-25433Y-39699D01*
Y-39896D02*
Y-39699D01*
Y-39896D02*
X-24797Y-40532D01*
X-24600D01*
X-3435Y-43376D02*
X-1969Y-44842D01*
X-7300Y-60700D02*
Y-58064D01*
X-11700D02*
X-7300D01*
Y-53536D02*
Y-53044D01*
X-11811Y-53425D02*
Y-46811D01*
Y-44842D02*
X-9843D01*
X19394Y-46894D02*
X19800Y-47300D01*
X19394Y-46894D02*
Y-45158D01*
X19000Y-44764D02*
X19394Y-45158D01*
X28333Y-54300D02*
X28533Y-54100D01*
X32555D01*
X69363Y-76537D02*
Y-75362D01*
X68900Y-77000D02*
X69363Y-76537D01*
X59200Y-80100D02*
X59400Y-79900D01*
X68900Y-78900D02*
Y-77000D01*
X60600Y-77500D02*
X60952D01*
X61452Y-77000D01*
X65664D01*
X61208Y-73457D02*
X65664D01*
X44571Y-85500D02*
X47300D01*
X58000Y-90400D02*
Y-88500D01*
X57803Y-84563D02*
X58000D01*
X57167Y-83927D02*
X57803Y-84563D01*
X57167Y-83927D02*
Y-83730D01*
X55559Y-82122D02*
X57167Y-83730D01*
X53792Y-82122D02*
X55559D01*
X53429Y-81760D02*
X53792Y-82122D01*
X39445Y-54100D02*
X39474Y-54071D01*
X19000Y-40236D02*
Y-39868D01*
X7900Y-31063D02*
X9843D01*
X15670Y-11130D02*
X15800Y-11000D01*
X27260Y-9240D02*
X30000Y-6500D01*
X27260Y-11422D02*
Y-9240D01*
X30000Y-6500D02*
Y0D01*
X8800Y-15556D02*
Y-15064D01*
X8227Y-26773D02*
X9843Y-25157D01*
X1444Y-9300D02*
X1568D01*
X200Y-10544D02*
X1444Y-9300D01*
X200Y-11036D02*
Y-10544D01*
Y-15564D02*
X494Y-15270D01*
X4300D01*
X8994Y-14870D02*
X13000D01*
X8800Y-15064D02*
X8994Y-14870D01*
X13000Y-14907D02*
Y-14870D01*
X0Y-23189D02*
Y-15764D01*
X200Y-15564D01*
X0Y-6800D02*
Y0D01*
X-2400Y-9200D02*
X0Y-6800D01*
X-2400Y-17700D02*
Y-9200D01*
X-6900Y-15400D02*
X-6886Y-15414D01*
X-5100D01*
X-7000Y-10900D02*
X-6987Y-10887D01*
X-5100D01*
X-3937Y-19237D02*
X-2400Y-17700D01*
X-3937Y-23189D02*
Y-19237D01*
X-10000Y-15035D02*
Y0D01*
X-19000Y-9500D02*
X-16950D01*
X-7874Y-23189D02*
Y-19990D01*
X-16442Y-11422D02*
X-7874Y-19990D01*
X-5436Y-23658D02*
X-3937Y-25157D01*
X17340Y-21640D02*
X22178D01*
X23537Y-20280D01*
X27260D01*
X18700Y-19990D02*
X20798D01*
X21000Y-19788D01*
X12266Y-15641D02*
X13000Y-14907D01*
X-1969Y-20469D02*
X-1900Y-20400D01*
X-1969Y-23189D02*
Y-20469D01*
Y-25157D02*
Y-23189D01*
X34300Y-37800D02*
X36200D01*
X33100Y-39000D02*
X34300Y-37800D01*
X38100Y-26200D02*
X39282Y-27382D01*
X43239D01*
X37900Y-29200D02*
X38641Y-29941D01*
X43239D01*
X32231Y-25083D02*
X33100Y-25952D01*
X32805Y-32448D02*
X33100D01*
X26400Y-46480D02*
Y-46283D01*
Y-32848D02*
X26700Y-32548D01*
X26400Y-39000D02*
Y-32848D01*
X26700Y-32548D02*
X26995D01*
X17000Y-26300D02*
X17064Y-26236D01*
X19000D01*
X30900Y-8800D02*
X31000Y-8900D01*
Y-11422D02*
Y-8900D01*
X9843Y-54008D02*
X10000Y-54166D01*
X9843Y-54008D02*
Y-46811D01*
X8282Y-39200D02*
X8546Y-38937D01*
X9843D01*
X18069D02*
X19000Y-39868D01*
X11811Y-38937D02*
X18069D01*
X-22508Y-39382D02*
X-22326Y-39200D01*
X-23451Y-39382D02*
X-22508D01*
X-23767Y-39699D02*
X-23451Y-39382D01*
X-23767Y-39896D02*
Y-39699D01*
X-24403Y-40532D02*
X-23767Y-39896D01*
X-24600Y-40532D02*
X-24403D01*
X-31045Y-58845D02*
X-27200D01*
X-21103Y-56842D02*
X-19100Y-58845D01*
X-22313Y-56842D02*
X-21103D01*
X-24694Y-54461D02*
X-22313Y-56842D01*
X-24694Y-54461D02*
Y-54166D01*
X-26905Y-51955D02*
X-24694Y-54166D01*
X-9248Y-42300D02*
X-7100D01*
X-9822Y-42874D02*
X-9248Y-42300D01*
X-9843Y-42874D02*
X-9822D01*
X-9843Y-44842D02*
Y-42874D01*
X-16269Y-45464D02*
X-15805Y-45000D01*
X-18200Y-45464D02*
X-16269D01*
X-30000Y-9500D02*
Y0D01*
X-32800Y-29036D02*
Y-25800D01*
Y-22464D01*
Y-33564D02*
X-32017Y-32780D01*
X-32800Y-17936D02*
X-32684Y-17820D01*
X-23300D01*
X-7874Y-25157D02*
X-6436Y-23720D01*
X-30000Y-9500D02*
X-28078Y-11422D01*
X-16442D01*
X-9843Y-23189D02*
Y-20533D01*
D81*
X35813Y-19207D02*
X40000Y-15021D01*
X-38800Y-14800D02*
X-35400D01*
X-8400Y-112100D02*
X-5500D01*
X59700Y-63472D02*
Y-52000D01*
X56186Y-66986D02*
X59700Y-63472D01*
X56186Y-69047D02*
Y-66986D01*
X-70251Y-33600D02*
X-70000Y-33851D01*
X-76000Y-33600D02*
X-70251D01*
X-69504Y-73000D02*
X-64200D01*
X-69504Y-77765D02*
Y-73000D01*
X-76000Y-79693D02*
X-71432D01*
X-69504Y-77765D01*
X11259Y-61829D02*
X22271D01*
X22300Y-61800D01*
X38308Y-57953D02*
Y-55236D01*
X39445Y-54100D01*
X22300Y-61800D02*
X34461D01*
X38308Y-57953D01*
X22500Y-48238D02*
Y-43120D01*
X19581Y-41309D02*
X20689D01*
X22500Y-43120D01*
X19000Y-40728D02*
X19581Y-41309D01*
X19000Y-40728D02*
Y-40236D01*
X-62200Y-24226D02*
Y-21326D01*
X-58900Y-18026D01*
Y-14700D01*
X-35400Y-14800D02*
X-33600Y-13000D01*
X21200Y-49538D02*
X22500Y-48238D01*
X21200Y-49700D02*
Y-49538D01*
X22200Y-34100D02*
Y-32000D01*
X20984Y-35316D02*
X22200Y-34100D01*
X-20500Y-104200D02*
X-10900Y-94600D01*
X-67952Y-104200D02*
X-20500D01*
X-74448Y-104495D02*
X-71973Y-106970D01*
Y-109581D02*
Y-106970D01*
Y-109581D02*
X-71440Y-110113D01*
Y-109057D01*
X19000Y-39868D02*
Y-35316D01*
X20984D01*
X43132Y-73100D02*
X45232Y-75200D01*
X41700Y-73100D02*
X43132D01*
X33500Y-16100D02*
X34740Y-14860D01*
X30948Y-16100D02*
X33500D01*
X27260Y-19788D02*
X30948Y-16100D01*
X34740Y-14860D02*
Y-11422D01*
X-36400Y-112100D02*
X-8400D01*
X-50000Y-125700D02*
X-36400Y-112100D01*
X-50000Y-147500D02*
Y-125700D01*
X19000Y-35316D02*
Y-30764D01*
X22300Y-76900D02*
Y-61800D01*
Y-76900D02*
X28300Y-82900D01*
X57200Y-49500D02*
X59700Y-52000D01*
X-4600Y-64700D02*
Y-54300D01*
X-5364Y-53536D02*
X-4600Y-54300D01*
X-7300Y-53536D02*
X-5364D01*
X22300Y-61800D02*
Y-56200D01*
X15800Y-49700D02*
X22300Y-56200D01*
X-2800Y-114800D02*
X16900D01*
X-5500Y-112100D02*
X-2800Y-114800D01*
X-11700Y-53536D02*
X-7300D01*
X39474Y-54071D02*
X48260D01*
X13000Y-11130D02*
X15670D01*
X21000Y-15851D02*
X21142Y-15710D01*
X22972D01*
X26187Y-12495D01*
X26679D01*
X27260Y-11914D01*
Y-11422D01*
Y-20280D02*
Y-19788D01*
X35321Y-19207D02*
X35813D01*
X34740Y-19788D02*
X35321Y-19207D01*
X34740Y-20280D02*
Y-19788D01*
X40000Y-15021D02*
Y0D01*
X53558Y-14258D02*
Y-11802D01*
X53724Y-11636D01*
D82*
X44654Y-11258D02*
X46053D01*
X50000Y-7311D02*
Y0D01*
X46053Y-11258D02*
X50000Y-7311D01*
X44276Y-11636D02*
X44654Y-11258D01*
D83*
X10000Y-147500D02*
Y-136600D01*
D84*
X-69324Y-33665D02*
D03*
D85*
X-50000Y0D02*
D03*
X-40000D02*
D03*
X-30000D02*
D03*
X-20000D02*
D03*
X-10000D02*
D03*
X0D02*
D03*
X10000D02*
D03*
X20000D02*
D03*
X30000D02*
D03*
X40000D02*
D03*
X50000D02*
D03*
Y-147500D02*
D03*
X40000D02*
D03*
X30000D02*
D03*
X20000D02*
D03*
X10000D02*
D03*
X0D02*
D03*
X-10000D02*
D03*
X-20000D02*
D03*
X-30000D02*
D03*
X-40000D02*
D03*
X-50000D02*
D03*
D86*
X42810Y-22953D02*
D03*
Y-42047D02*
D03*
D87*
X54739Y-43406D02*
D03*
Y-21595D02*
D03*
D88*
X-41300Y-22500D02*
D03*
X-56300D02*
D03*
D89*
X-37900Y-48100D02*
D03*
X-57900Y-52100D02*
D03*
Y-44100D02*
D03*
D90*
X-70000Y0D02*
D03*
X70000D02*
D03*
Y-147500D02*
D03*
X-70000D02*
D03*
D91*
X36519Y-64319D02*
D03*
X24633Y-66967D02*
D03*
X-6436Y-68087D02*
D03*
X42247Y-69740D02*
D03*
X46513Y-67515D02*
D03*
X60920Y-70547D02*
D03*
X58900Y-67100D02*
D03*
X35388Y-48930D02*
D03*
X1800Y-21200D02*
D03*
X16031Y-33851D02*
D03*
X-64200Y-73000D02*
D03*
X-60785Y-38350D02*
D03*
X11259Y-61829D02*
D03*
X30000Y-39100D02*
D03*
X-15000Y-30800D02*
D03*
X-62200Y-24226D02*
D03*
X-62443Y-30600D02*
D03*
X-34581Y-38285D02*
D03*
X1900Y-35300D02*
D03*
X-44925Y-23885D02*
D03*
X-38200Y-24300D02*
D03*
X-47893Y-36611D02*
D03*
X-56400Y-38900D02*
D03*
X-48800Y-9800D02*
D03*
X-33600Y-13000D02*
D03*
X-58900Y-10100D02*
D03*
X-43800Y-9500D02*
D03*
X-14363Y-39250D02*
D03*
X-16058Y-33115D02*
D03*
X-62600Y-43400D02*
D03*
X-1900Y-35300D02*
D03*
X22200Y-32000D02*
D03*
X21200Y-49700D02*
D03*
X-21800Y-39200D02*
D03*
X-30800Y-47700D02*
D03*
X-31882Y-38300D02*
D03*
X15900Y-31000D02*
D03*
X13500Y-27200D02*
D03*
X-13000Y-18400D02*
D03*
X14300Y-23100D02*
D03*
X2000Y-27900D02*
D03*
X4400D02*
D03*
X9900Y-21342D02*
D03*
X-44600Y-47500D02*
D03*
X-6900Y-30300D02*
D03*
X-1969Y-49600D02*
D03*
X-15600Y-63800D02*
D03*
X26900Y-23400D02*
D03*
X33100Y-23500D02*
D03*
X6000Y-36500D02*
D03*
Y-43000D02*
D03*
X2600Y-42600D02*
D03*
X-5900Y-34100D02*
D03*
X10719Y-8981D02*
D03*
X12277Y-70700D02*
D03*
X12250Y-64800D02*
D03*
X-14300Y-53056D02*
D03*
X-57650Y-101900D02*
D03*
X-10900Y-94600D02*
D03*
X-10400Y-20000D02*
D03*
X-57800Y-65500D02*
D03*
X-58135Y-115500D02*
D03*
X-76000Y-33600D02*
D03*
X60400Y-73000D02*
D03*
X-56200Y-108500D02*
D03*
X300Y-41000D02*
D03*
X6500Y-39200D02*
D03*
X52100Y-65500D02*
D03*
X57200Y-49500D02*
D03*
X39100Y-82100D02*
D03*
X-4600Y-64700D02*
D03*
X28867Y-58700D02*
D03*
X-16269Y-45464D02*
D03*
X-22126Y-48074D02*
D03*
X-37200Y-60300D02*
D03*
X-53200Y-43100D02*
D03*
X-2800Y-94100D02*
D03*
X-13900Y-110100D02*
D03*
X-5500Y-112015D02*
D03*
X16900Y-114800D02*
D03*
X-8400Y-112100D02*
D03*
X-2700Y-110600D02*
D03*
X0Y-110500D02*
D03*
X16600Y-110100D02*
D03*
X28300Y-82900D02*
D03*
X-47Y-94326D02*
D03*
X7900Y-93800D02*
D03*
X2600Y-82800D02*
D03*
X8800Y-89900D02*
D03*
X-68104Y-66600D02*
D03*
X-27300Y-41900D02*
D03*
X-27066Y-39117D02*
D03*
X-7300Y-60700D02*
D03*
X-37200Y-87772D02*
D03*
X14000Y-92200D02*
D03*
X19800Y-47300D02*
D03*
X28333Y-54300D02*
D03*
X41700Y-73100D02*
D03*
X59200Y-80100D02*
D03*
X47300Y-85500D02*
D03*
X58000Y-90400D02*
D03*
X7900Y-31063D02*
D03*
X37800Y-17300D02*
D03*
X15800Y-11000D02*
D03*
X1568Y-9300D02*
D03*
X-6900Y-15400D02*
D03*
X-7000Y-10900D02*
D03*
X18700Y-19990D02*
D03*
X-1900Y-20400D02*
D03*
X36200Y-37800D02*
D03*
X38100Y-26200D02*
D03*
X37900Y-29200D02*
D03*
X17000Y-26300D02*
D03*
X30900Y-8800D02*
D03*
X53558Y-14258D02*
D03*
X10000Y-54166D02*
D03*
X14100Y-54100D02*
D03*
X15800Y-49700D02*
D03*
X60600Y-77500D02*
D03*
X-31045Y-58845D02*
D03*
X-7100Y-42300D02*
D03*
X-32800Y-25800D02*
D03*
D92*
X10000Y-136600D02*
D03*
M02*
