G04*
G04 #@! TF.GenerationSoftware,Altium Limited,Altium Designer,20.1.10 (176)*
G04*
G04 Layer_Color=8150272*
%FSLAX25Y25*%
%MOIN*%
G70*
G04*
G04 #@! TF.SameCoordinates,5BC12612-045E-4FBA-96B6-5BC6791460FD*
G04*
G04*
G04 #@! TF.FilePolarity,Negative*
G04*
G01*
G75*
%ADD50R,0.05131X0.03950*%
%ADD64R,0.07493X0.03950*%
%ADD71R,0.05800X0.10300*%
%ADD72C,0.00800*%
%ADD73C,0.04737*%
%ADD74C,0.06509*%
%ADD75C,0.04500*%
%ADD76C,0.04200*%
%ADD77C,0.17800*%
%ADD94R,0.02178X0.12611*%
D50*
X-69504Y-111956D02*
D03*
Y-73000D02*
D03*
Y-33826D02*
D03*
D64*
X-76000Y-118649D02*
D03*
Y-105263D02*
D03*
Y-66307D02*
D03*
Y-79693D02*
D03*
Y-27133D02*
D03*
Y-40519D02*
D03*
D71*
X-50000Y0D02*
D03*
X-40000D02*
D03*
X-30000D02*
D03*
X-20000D02*
D03*
X-10000D02*
D03*
X0D02*
D03*
X10000D02*
D03*
X20000D02*
D03*
X30000D02*
D03*
X40000D02*
D03*
X50000D02*
D03*
Y-147500D02*
D03*
X40000D02*
D03*
X30000D02*
D03*
X20000D02*
D03*
X10000D02*
D03*
X0D02*
D03*
X-10000D02*
D03*
X-20000D02*
D03*
X-30000D02*
D03*
X-40000D02*
D03*
X-50000D02*
D03*
D72*
X73829Y-73457D02*
D03*
D73*
X42810Y-22953D02*
D03*
Y-42047D02*
D03*
D74*
X54739Y-43406D02*
D03*
Y-21595D02*
D03*
D75*
X-41300Y-22500D02*
D03*
X-56300D02*
D03*
D76*
X-37900Y-48100D02*
D03*
X-57900Y-52100D02*
D03*
Y-44100D02*
D03*
D77*
X-70000Y0D02*
D03*
X70000D02*
D03*
Y-147500D02*
D03*
X-70000D02*
D03*
D94*
X16488Y-102689D02*
D03*
X13732D02*
D03*
X10976D02*
D03*
X8220D02*
D03*
X5465D02*
D03*
X2709D02*
D03*
X-47D02*
D03*
X-2803D02*
D03*
X-5559D02*
D03*
X-8315D02*
D03*
X-11071D02*
D03*
X-13827D02*
D03*
M02*
