G04*
G04 #@! TF.GenerationSoftware,Altium Limited,Altium Designer,19.0.15 (446)*
G04*
G04 Layer_Color=8150272*
%FSLAX25Y25*%
%MOIN*%
G70*
G01*
G75*
%ADD48R,0.05131X0.03950*%
%ADD60R,0.07493X0.03950*%
%ADD67C,0.04200*%
%ADD68C,0.00800*%
%ADD69R,0.05800X0.10800*%
%ADD70O,0.07099X0.03556*%
%ADD71O,0.07296X0.03162*%
%ADD72O,0.07099X0.03162*%
%ADD73C,0.06800*%
%ADD89R,0.02178X0.12611*%
D48*
X-69504Y-111956D02*
D03*
Y-73000D02*
D03*
Y-33826D02*
D03*
D60*
X-76000Y-105263D02*
D03*
Y-118649D02*
D03*
Y-66307D02*
D03*
Y-79693D02*
D03*
Y-27133D02*
D03*
Y-40519D02*
D03*
D67*
X-57900Y-44100D02*
D03*
Y-52100D02*
D03*
X-37900Y-48100D02*
D03*
D68*
X73829Y-73457D02*
D03*
D69*
X-50000Y-147500D02*
D03*
Y0D02*
D03*
X-40000D02*
D03*
X-30000D02*
D03*
X-20000D02*
D03*
X-10000D02*
D03*
X0D02*
D03*
X10000D02*
D03*
X20000D02*
D03*
X30000D02*
D03*
X40000D02*
D03*
X50000D02*
D03*
Y-147500D02*
D03*
X40000D02*
D03*
X30000D02*
D03*
X20000D02*
D03*
X10000D02*
D03*
X0D02*
D03*
X-10000D02*
D03*
X-20000D02*
D03*
X-30000D02*
D03*
X-40000D02*
D03*
D70*
X42810Y-22953D02*
D03*
Y-42047D02*
D03*
D71*
X54739Y-43406D02*
D03*
D72*
Y-21595D02*
D03*
D73*
X-70000Y0D02*
D03*
X70000D02*
D03*
Y-147500D02*
D03*
X-70000D02*
D03*
D89*
X-13827Y-102689D02*
D03*
X-11071D02*
D03*
X-8315D02*
D03*
X-5559D02*
D03*
X-2803D02*
D03*
X-47D02*
D03*
X2709D02*
D03*
X5465D02*
D03*
X8220D02*
D03*
X10976D02*
D03*
X13732D02*
D03*
X16488D02*
D03*
M02*
