M48
;Layer_Color=6321
;FILE_FORMAT=2:5
INCH,LZ
;TYPE=PLATED
T1F00S00C0.00800
T2F00S00C0.01000
T5F00S00C0.02000
T6F00S00C0.03200
T7F00S00C0.03600
T8F00S00C0.07000
;TYPE=NON_PLATED
T9F00S00C0.03500
%
T01
X-005765Y-01019
X-00109Y-00946
X0012277Y-00707
X001225Y-00648
T02
X-0058135Y-01155
X-00562Y-01085
X-00372Y-0087772
Y-00603
X-0031045Y-0058845
X-0027066Y-00461
X-00273Y-00419
X-0027066Y-0039117
X-00319Y-00389
X-0035Y-00392
X-00389Y-0044317
X-00532Y-00431
X-00565Y-00371
X-00507Y-00362
X-00465Y-00359
X-00435Y-0022
X-00389Y-0022953
X-00328Y-00258
X-00336Y-0013
X-00438Y-00095
X-00488Y-00098
X-00589Y-00101
X-00622Y-0024226
X-00674Y-0026834
X-0076Y-00336
X-0068104Y-00666
X-00578Y-00655
X-0022126Y-0048074
X-0016269Y-0045464
X-00143Y-0053056
X-00073Y-00607
X-00046Y-00647
X00095Y-00617
X001Y-0054166
X00141Y-00541
X00158Y-00497
X00198Y-00473
X00225Y-00494
X0028333Y-00543
X0028867Y-00587
X0035193Y-00486
X00362Y-00378
X00379Y-00292
X00381Y-00262
X00378Y-00173
X00309Y-00088
X00158Y-0011
X0010719Y-0008981
X0001568Y-00093
X-0007Y-00109
X-00069Y-00154
X-00104Y-002
X-0013Y-00184
X-00019Y-00204
X0001969Y-00217
X0002Y-00279
X00044
X00079Y-0031063
X00059Y-00365
X00065Y-00392
X0006Y-0043
X00026Y-00426
X00003Y-0041
X00014Y-00355
X-00059Y-0033031
X-00147Y-0032803
X-00223Y-00392
X-00071Y-00423
X-0001969Y-00496
X0016Y-00424
X00158Y-00343
X00222Y-00341
X0017Y-00263
X00187Y-001999
X00099Y-0021342
X0053558Y-0014258
X00572Y-00495
X00595Y-00672
X00602Y-007
X00604Y-0073
X00565
X0053558Y-0078442
X00592Y-00801
X00606Y-00775
X0058Y-00904
X00473Y-00855
X00391Y-00821
X00283Y-00829
X00417Y-00731
X00451Y-00681
X00521Y-00655
X00509Y-01182
X00169Y-01148
X00166Y-01101
X0Y-01105
X-00027Y-01106
X-00055Y-0112015
X-00084Y-01121
X-00139Y-01101
X-00028Y-00941
X-0000047Y-0094326
X00079Y-00938
X00088Y-00899
X0014Y-00922
X00026Y-00828
T05
X001Y-01366
T06
X0073829Y-0073457
T07
X-005Y-01475
X-004
X-003
Y0
X-004
X-005
X-002
X-001
X0
X001
X002
X003
X004
X005
Y-01475
X004
X003
X002
X001
X0
X-001
X-002
T08
X-007Y-01475
Y0
X007
Y-01475
T09
X-00579Y-00521
Y-00441
X-00379Y-00481
M30
