G04*
G04 #@! TF.GenerationSoftware,Altium Limited,Altium Designer,19.0.15 (446)*
G04*
G04 Layer_Color=20142*
%FSLAX25Y25*%
%MOIN*%
G70*
G01*
G75*
%ADD40C,0.01800*%
%ADD41C,0.03900*%
%ADD42R,0.02855X0.03162*%
%ADD43C,0.00394*%
%ADD44R,0.03162X0.04147*%
%ADD45R,0.04147X0.03162*%
%ADD46R,0.03162X0.05524*%
%ADD47R,0.03162X0.03556*%
%ADD48R,0.05131X0.03950*%
%ADD49R,0.03556X0.04147*%
%ADD50R,0.02572X0.02965*%
%ADD51R,0.03700X0.08300*%
%ADD52R,0.06115X0.03556*%
%ADD53R,0.06312X0.05721*%
%ADD54R,0.02769X0.03359*%
%ADD55R,0.10249X0.08674*%
%ADD56C,0.01400*%
%ADD57R,0.03556X0.06410*%
%ADD58R,0.10642X0.06410*%
%ADD59R,0.06312X0.02375*%
%ADD60R,0.07493X0.03950*%
%ADD61R,0.03359X0.02769*%
%ADD62R,0.05721X0.06312*%
%ADD63R,0.04147X0.03556*%
%ADD64R,0.02965X0.02572*%
%ADD65R,0.13300X0.15800*%
%ADD66R,0.13800X0.22800*%
%ADD67C,0.04200*%
%ADD68C,0.00800*%
%ADD69R,0.05800X0.10800*%
%ADD70O,0.07099X0.03556*%
%ADD71O,0.07296X0.03162*%
%ADD72O,0.07099X0.03162*%
%ADD73C,0.06800*%
D40*
X76736Y-73457D02*
G03*
X70941Y-73784I-2906J0D01*
G01*
D02*
G03*
X76736Y-73457I2888J327D01*
G01*
D41*
X-42900Y-45600D02*
D03*
Y-50600D02*
D03*
X-47900Y-45600D02*
D03*
X-52900Y-50600D02*
D03*
Y-45600D02*
D03*
X-47900Y-50600D02*
D03*
D42*
X65664Y-77000D02*
D03*
X68900D02*
D03*
Y-69913D02*
D03*
X65664D02*
D03*
Y-73457D02*
D03*
D43*
X73829Y-76410D02*
D03*
D44*
X34740Y-11422D02*
D03*
X31000D02*
D03*
X27260D02*
D03*
Y-20280D02*
D03*
X34740D02*
D03*
X-32800Y-33564D02*
D03*
Y-29036D02*
D03*
X48260Y-62929D02*
D03*
X52000D02*
D03*
X55740D02*
D03*
Y-54071D02*
D03*
X48260D02*
D03*
X-7300Y-53536D02*
D03*
Y-58064D02*
D03*
X-11700Y-53536D02*
D03*
Y-58064D02*
D03*
X-18200Y-40936D02*
D03*
Y-45464D02*
D03*
X-5100Y-15414D02*
D03*
Y-10887D02*
D03*
X19000Y-40236D02*
D03*
Y-44764D02*
D03*
Y-30764D02*
D03*
Y-26236D02*
D03*
X8800Y-10536D02*
D03*
Y-15064D02*
D03*
X200Y-15564D02*
D03*
Y-11036D02*
D03*
X-32800Y-17936D02*
D03*
Y-22464D02*
D03*
D45*
X44571Y-81760D02*
D03*
Y-85500D02*
D03*
Y-89240D02*
D03*
X53429D02*
D03*
Y-81760D02*
D03*
D46*
X-75180Y-117200D02*
D03*
X-67700D02*
D03*
X-71440Y-110113D02*
D03*
D47*
X33887Y-46480D02*
D03*
X26400D02*
D03*
Y-39000D02*
D03*
D48*
X33100D02*
D03*
X-69504Y-33800D02*
D03*
D49*
X-74448Y-104200D02*
D03*
X-67952D02*
D03*
D50*
X49169Y-75200D02*
D03*
X45232D02*
D03*
X57495Y-70113D02*
D03*
X53558D02*
D03*
X57495Y-75500D02*
D03*
X53558D02*
D03*
D51*
X-58800Y-30300D02*
D03*
Y-14800D02*
D03*
X-53800Y-30300D02*
D03*
Y-14800D02*
D03*
X-48800Y-30300D02*
D03*
Y-14800D02*
D03*
X-43800Y-30300D02*
D03*
Y-14800D02*
D03*
X-38800Y-30300D02*
D03*
Y-14800D02*
D03*
D52*
X53724Y-11636D02*
D03*
X44276D02*
D03*
D53*
X-19100Y-58845D02*
D03*
Y-51955D02*
D03*
X-27200Y-58845D02*
D03*
Y-51955D02*
D03*
D54*
X4300Y-11530D02*
D03*
Y-15270D02*
D03*
X13000Y-11130D02*
D03*
Y-14870D02*
D03*
D55*
X-23300Y-17820D02*
D03*
Y-32780D02*
D03*
D56*
X11811Y-23189D02*
D03*
Y-25157D02*
D03*
Y-27126D02*
D03*
Y-31063D02*
D03*
Y-33031D02*
D03*
Y-35000D02*
D03*
Y-36968D02*
D03*
Y-38937D02*
D03*
Y-42874D02*
D03*
Y-44842D02*
D03*
Y-46811D02*
D03*
X9843Y-23189D02*
D03*
Y-25157D02*
D03*
Y-27126D02*
D03*
Y-31063D02*
D03*
Y-33031D02*
D03*
Y-35000D02*
D03*
Y-36968D02*
D03*
Y-38937D02*
D03*
Y-42874D02*
D03*
Y-44842D02*
D03*
Y-46811D02*
D03*
X7874Y-23189D02*
D03*
Y-25157D02*
D03*
Y-35000D02*
D03*
Y-44842D02*
D03*
Y-46811D02*
D03*
X3937Y-23189D02*
D03*
Y-25157D02*
D03*
Y-31063D02*
D03*
Y-33031D02*
D03*
Y-35000D02*
D03*
Y-36968D02*
D03*
Y-38937D02*
D03*
Y-44842D02*
D03*
Y-46811D02*
D03*
X1969Y-23189D02*
D03*
Y-25157D02*
D03*
Y-31063D02*
D03*
Y-33031D02*
D03*
Y-36968D02*
D03*
Y-38937D02*
D03*
Y-44842D02*
D03*
Y-46811D02*
D03*
X0Y-23189D02*
D03*
Y-25157D02*
D03*
Y-27126D02*
D03*
Y-31063D02*
D03*
Y-33031D02*
D03*
Y-36968D02*
D03*
Y-38937D02*
D03*
Y-42874D02*
D03*
Y-44842D02*
D03*
Y-46811D02*
D03*
X-1969Y-23189D02*
D03*
Y-25157D02*
D03*
Y-31063D02*
D03*
Y-33031D02*
D03*
Y-36968D02*
D03*
Y-38937D02*
D03*
Y-44842D02*
D03*
Y-46811D02*
D03*
X-3937Y-23189D02*
D03*
Y-25157D02*
D03*
Y-31063D02*
D03*
Y-33031D02*
D03*
Y-35000D02*
D03*
Y-36968D02*
D03*
Y-38937D02*
D03*
Y-44842D02*
D03*
Y-46811D02*
D03*
X-7874Y-23189D02*
D03*
Y-25157D02*
D03*
Y-35000D02*
D03*
Y-44842D02*
D03*
Y-46811D02*
D03*
X-9843Y-23189D02*
D03*
Y-25157D02*
D03*
Y-27126D02*
D03*
Y-31063D02*
D03*
Y-33031D02*
D03*
Y-35000D02*
D03*
Y-36968D02*
D03*
Y-38937D02*
D03*
Y-42874D02*
D03*
Y-44842D02*
D03*
Y-46811D02*
D03*
X-11811Y-23189D02*
D03*
Y-25157D02*
D03*
Y-27126D02*
D03*
Y-31063D02*
D03*
Y-33031D02*
D03*
Y-35000D02*
D03*
Y-36968D02*
D03*
Y-38937D02*
D03*
Y-42874D02*
D03*
Y-44842D02*
D03*
Y-46811D02*
D03*
D57*
X47653Y-19508D02*
D03*
Y-45492D02*
D03*
D58*
X55527Y-36289D02*
D03*
Y-28711D02*
D03*
D59*
X43239Y-32500D02*
D03*
Y-29941D02*
D03*
Y-27382D02*
D03*
Y-35059D02*
D03*
Y-37618D02*
D03*
D60*
X-76000Y-27107D02*
D03*
Y-40493D02*
D03*
D61*
X48870Y-70113D02*
D03*
X45130D02*
D03*
D62*
X32555Y-54100D02*
D03*
X39445D02*
D03*
D63*
X33100Y-32448D02*
D03*
Y-25952D02*
D03*
X26700Y-32548D02*
D03*
Y-26052D02*
D03*
D64*
X-24600Y-44469D02*
D03*
Y-40532D02*
D03*
X-29500Y-44568D02*
D03*
Y-40631D02*
D03*
X21000Y-15851D02*
D03*
Y-19788D02*
D03*
X58000Y-84563D02*
D03*
Y-88500D02*
D03*
D65*
X51100Y-126500D02*
D03*
X51000Y-103000D02*
D03*
D66*
X-69500Y-73000D02*
D03*
D67*
X-57900Y-44100D02*
D03*
Y-52100D02*
D03*
X-37900Y-48100D02*
D03*
D68*
X73829Y-73457D02*
D03*
D69*
X-50000Y-147500D02*
D03*
Y0D02*
D03*
X-40000D02*
D03*
X-30000D02*
D03*
X-20000D02*
D03*
X-10000D02*
D03*
X0D02*
D03*
X10000D02*
D03*
X20000D02*
D03*
X30000D02*
D03*
X40000D02*
D03*
X50000D02*
D03*
Y-147500D02*
D03*
X40000D02*
D03*
X30000D02*
D03*
X20000D02*
D03*
X10000D02*
D03*
X0D02*
D03*
X-10000D02*
D03*
X-20000D02*
D03*
X-30000D02*
D03*
X-40000D02*
D03*
D70*
X42810Y-22953D02*
D03*
Y-42047D02*
D03*
D71*
X54739Y-43406D02*
D03*
D72*
Y-21595D02*
D03*
D73*
X-70000Y0D02*
D03*
X70000D02*
D03*
Y-147500D02*
D03*
X-70000D02*
D03*
M02*
