G04*
G04 #@! TF.GenerationSoftware,Altium Limited,Altium Designer,19.0.15 (446)*
G04*
G04 Layer_Color=15132400*
%FSLAX25Y25*%
%MOIN*%
G70*
G01*
G75*
%ADD91C,0.00100*%
D91*
X-70000Y-21980D02*
G03*
X-70000Y-10000I32J5990D01*
G01*
X-60000Y0D02*
G03*
X-53000Y0I3500J-321D01*
G01*
X70000Y-10000D02*
G03*
X61921Y-14894I19J-9146D01*
G01*
X53000Y0D02*
G03*
X60000Y0I3500J0D01*
G01*
X61921Y-132217D02*
G03*
X70000Y-137500I7932J3310D01*
G01*
X60000Y-147500D02*
G03*
X53000Y-147500I-3500J0D01*
G01*
X-53000D02*
G03*
X-60000Y-147500I-3500J143D01*
G01*
X-70000Y-137500D02*
G03*
X-70000Y-124343I421J6579D01*
G01*
Y-137500D02*
G03*
X-60000Y-147500I0J-10000D01*
G01*
X60000D02*
G03*
X70000Y-137500I10000J0D01*
G01*
Y-10000D02*
G03*
X60000Y0I0J10000D01*
G01*
X-60000D02*
G03*
X-70000Y-10000I-10000J0D01*
G01*
X53000Y-140083D02*
G03*
X53008Y-140091I8J0D01*
G01*
X-3000Y-161454D02*
X3000D01*
X7000Y-152909D02*
Y-140083D01*
Y-152909D02*
X13000D01*
Y-140466D01*
X-13000Y-152909D02*
Y-140083D01*
Y-152909D02*
X-7000D01*
Y-140083D01*
X-23000Y-152909D02*
Y-140083D01*
Y-152909D02*
X-17000D01*
Y-140083D01*
X-33000Y-152909D02*
Y-140083D01*
Y-152909D02*
X-27000D01*
Y-140083D01*
X17000Y-152909D02*
Y-140083D01*
Y-152909D02*
X23000D01*
Y-140083D01*
X27000Y-152909D02*
Y-140083D01*
Y-152909D02*
X33000D01*
Y-140083D01*
X37000Y-152909D02*
Y-140083D01*
Y-152909D02*
X43000D01*
Y-140083D01*
X33000D02*
X37000D01*
X23000D02*
X27000D01*
X13000D02*
X17000D01*
X3000Y-161454D02*
Y-140083D01*
X7000D01*
X-3000Y-161454D02*
Y-140083D01*
X-7000D02*
X-3000D01*
X-17000D02*
X-13000D01*
X-27000D02*
X-23000D01*
X-37000Y-152909D02*
Y-140169D01*
X-43000Y-152909D02*
X-37000D01*
X-43000D02*
Y-140169D01*
X-37000D02*
X-33000D01*
X43000Y-140083D02*
X47000D01*
X53000Y-152909D02*
Y-147500D01*
X47000Y-152909D02*
X53000D01*
X47000D02*
Y-140083D01*
X-47000Y-140169D02*
X-43000D01*
X-53000Y-152909D02*
Y-147500D01*
Y-152909D02*
X-47000D01*
Y-140169D01*
X47000Y-7240D02*
Y5500D01*
X53000D01*
Y0D02*
Y5500D01*
X43000Y-7240D02*
X47000D01*
X-47000Y-7327D02*
Y5500D01*
X-53000D02*
X-47000D01*
X-53000Y0D02*
Y5500D01*
X-47000Y-7327D02*
X-43000D01*
X33000Y-7240D02*
X37000D01*
X43000D02*
Y5500D01*
X37000D02*
X43000D01*
X37000Y-7240D02*
Y5500D01*
X23000Y-7327D02*
X27000D01*
X13000D02*
X17000D01*
X3000D02*
X7000D01*
X3000D02*
Y5500D01*
X-7000Y-7327D02*
X-3000D01*
Y5500D01*
X-17000Y-7327D02*
X-13000D01*
X-27000D02*
X-23000D01*
X-37000D02*
X-33000D01*
X-43000D02*
Y5500D01*
X-37000D01*
Y-7327D02*
Y5500D01*
X-33000Y-7327D02*
Y5500D01*
X-27000D01*
Y-7327D02*
Y5500D01*
X-23000Y-7327D02*
Y5500D01*
X-17000D01*
Y-7327D02*
Y5500D01*
X27000Y-7327D02*
Y5500D01*
X33000D01*
Y-7327D02*
Y5500D01*
X17000Y-7327D02*
Y5500D01*
X23000D01*
Y-7327D02*
Y5500D01*
X7000Y-7327D02*
Y5500D01*
X13000D01*
Y-7327D02*
Y5500D01*
X-13000Y-6943D02*
Y5500D01*
X-7000D01*
Y-7327D02*
Y5500D01*
X-3000D02*
X3000D01*
X61921Y-65500D02*
Y-14894D01*
Y-132217D02*
Y-81500D01*
Y-65500D02*
X80000D01*
Y-81500D02*
Y-65500D01*
X61921Y-81500D02*
X80000D01*
X-80000Y-21980D02*
X-70000D01*
X-80000Y-45602D02*
Y-21980D01*
Y-45602D02*
X-62094D01*
Y-61350D02*
Y-45602D01*
X-80000Y-61350D02*
X-62094D01*
X-80000Y-84973D02*
Y-61350D01*
Y-84973D02*
X-62094D01*
Y-100721D02*
Y-84973D01*
X-80000Y-100721D02*
X-62094D01*
X-80000Y-124343D02*
Y-100721D01*
Y-124343D02*
X-70000D01*
M02*
