G04*
G04 #@! TF.GenerationSoftware,Altium Limited,Altium Designer,19.0.15 (446)*
G04*
G04 Layer_Physical_Order=2*
G04 Layer_Color=11436288*
%FSLAX25Y25*%
%MOIN*%
G70*
G01*
G75*
%ADD11C,0.01000*%
%ADD22R,0.04331X0.03150*%
%ADD34R,0.06693X0.03150*%
%ADD75C,0.01200*%
%ADD76C,0.00500*%
%ADD78C,0.05000*%
%ADD80C,0.03400*%
%ADD81R,0.05000X0.10000*%
%ADD82O,0.06299X0.02756*%
%ADD83O,0.06496X0.02362*%
%ADD84O,0.06299X0.02362*%
%ADD85C,0.06000*%
%ADD86C,0.01800*%
%ADD87C,0.04000*%
%ADD88R,0.01378X0.11811*%
G36*
X60920Y-64906D02*
X60420Y-64955D01*
X60395Y-64829D01*
X60185Y-64515D01*
X59390Y-63721D01*
Y-60122D01*
X59317Y-59751D01*
X59107Y-59437D01*
X44094Y-44424D01*
X44285Y-43962D01*
X44582D01*
X45315Y-43816D01*
X45936Y-43401D01*
X46351Y-42780D01*
X46447Y-42297D01*
X42810D01*
X39174D01*
X39270Y-42780D01*
X39353Y-42905D01*
X39136Y-43330D01*
X38645Y-43375D01*
X31085Y-35815D01*
X30771Y-35605D01*
X30400Y-35531D01*
X23769D01*
X23502Y-35031D01*
X23707Y-34724D01*
X23771Y-34403D01*
X24637Y-33537D01*
X24925Y-33107D01*
X25025Y-32600D01*
Y-18900D01*
X24925Y-18393D01*
X24637Y-17963D01*
X19462Y-12787D01*
X19653Y-12325D01*
X30951D01*
X36229Y-17604D01*
X36293Y-17924D01*
X36647Y-18453D01*
X37176Y-18807D01*
X37800Y-18931D01*
X38424Y-18807D01*
X38954Y-18453D01*
X39307Y-17924D01*
X39431Y-17300D01*
X39307Y-16676D01*
X38954Y-16147D01*
X38424Y-15793D01*
X38104Y-15729D01*
X32437Y-10063D01*
X32007Y-9775D01*
X31500Y-9674D01*
X16696D01*
X16424Y-9493D01*
X15800Y-9369D01*
X15176Y-9493D01*
X14647Y-9847D01*
X14293Y-10376D01*
X14229Y-10696D01*
X10851Y-14074D01*
X-6004D01*
X-6276Y-13893D01*
X-6900Y-13769D01*
X-7524Y-13893D01*
X-7796Y-14074D01*
X-30651D01*
X-32029Y-12697D01*
X-32093Y-12376D01*
X-32447Y-11846D01*
X-32976Y-11493D01*
X-33600Y-11369D01*
X-34224Y-11493D01*
X-34754Y-11846D01*
X-35107Y-12376D01*
X-35231Y-13000D01*
X-35107Y-13624D01*
X-34754Y-14153D01*
X-34224Y-14507D01*
X-33904Y-14571D01*
X-32137Y-16337D01*
X-31707Y-16625D01*
X-31200Y-16725D01*
X-8807D01*
X-8600Y-17225D01*
X-9852Y-18478D01*
X-10400Y-18369D01*
X-11024Y-18493D01*
X-11553Y-18846D01*
X-11907Y-19376D01*
X-12031Y-20000D01*
X-11907Y-20624D01*
X-11553Y-21154D01*
X-11024Y-21507D01*
X-10400Y-21631D01*
X-9776Y-21507D01*
X-9504Y-21326D01*
X-9500D01*
X-8993Y-21225D01*
X-8563Y-20937D01*
X-5963Y-18337D01*
X-5675Y-17907D01*
X-5574Y-17400D01*
X-5574Y-17400D01*
Y-16725D01*
X11400D01*
X11907Y-16625D01*
X12337Y-16337D01*
X15800Y-12875D01*
X22375Y-19449D01*
Y-32051D01*
X21896Y-32529D01*
X21576Y-32593D01*
X21046Y-32947D01*
X20693Y-33476D01*
X20569Y-34100D01*
X20693Y-34724D01*
X20898Y-35031D01*
X20631Y-35531D01*
X17503D01*
X17236Y-35031D01*
X17307Y-34924D01*
X17431Y-34300D01*
X17307Y-33676D01*
X16953Y-33147D01*
X16424Y-32793D01*
X15800Y-32669D01*
X15529Y-32723D01*
X15406Y-32640D01*
X15035Y-32567D01*
X6611D01*
X5165Y-31121D01*
X4851Y-30911D01*
X4480Y-30837D01*
X-1093D01*
X-4015Y-27915D01*
X-4329Y-27705D01*
X-4700Y-27631D01*
X-14215D01*
X-14586Y-27705D01*
X-14900Y-27915D01*
X-25166Y-38181D01*
X-25809Y-38118D01*
X-25912Y-37964D01*
X-26441Y-37610D01*
X-27066Y-37486D01*
X-27690Y-37610D01*
X-28219Y-37964D01*
X-28418Y-38262D01*
X-28679Y-38313D01*
X-28781Y-38382D01*
X-29281Y-38123D01*
Y-32743D01*
X-23207Y-26669D01*
X-901D01*
X378Y-27948D01*
X493Y-28524D01*
X847Y-29054D01*
X1376Y-29407D01*
X2000Y-29531D01*
X2624Y-29407D01*
X3153Y-29054D01*
X3246D01*
X3776Y-29407D01*
X4400Y-29531D01*
X5024Y-29407D01*
X5553Y-29054D01*
X5907Y-28524D01*
X6031Y-27900D01*
X5907Y-27276D01*
X5553Y-26746D01*
X5024Y-26393D01*
X4855Y-26359D01*
X2311Y-23815D01*
X2262Y-23783D01*
X2368Y-23252D01*
X2593Y-23207D01*
X3122Y-22853D01*
X3476Y-22324D01*
X3600Y-21700D01*
X3476Y-21076D01*
X3122Y-20547D01*
X2593Y-20193D01*
X1969Y-20069D01*
X1344Y-20193D01*
X815Y-20547D01*
X691Y-20731D01*
X-867D01*
X-1237Y-20805D01*
X-1551Y-21015D01*
X-2968Y-22431D01*
X-18688D01*
X-20502Y-20618D01*
X-20816Y-20408D01*
X-21187Y-20334D01*
X-40334D01*
X-40704Y-20408D01*
X-41019Y-20618D01*
X-41432Y-21031D01*
X-42223D01*
X-42347Y-20846D01*
X-42876Y-20493D01*
X-43500Y-20369D01*
X-44124Y-20493D01*
X-44653Y-20846D01*
X-45007Y-21376D01*
X-45131Y-22000D01*
X-45007Y-22624D01*
X-44653Y-23154D01*
X-44469Y-23277D01*
Y-33033D01*
X-44395Y-33404D01*
X-44185Y-33718D01*
X-39484Y-38419D01*
X-39675Y-38881D01*
X-45531D01*
Y-37177D01*
X-45347Y-37053D01*
X-44993Y-36524D01*
X-44869Y-35900D01*
X-44993Y-35276D01*
X-45347Y-34747D01*
X-45876Y-34393D01*
X-46500Y-34269D01*
X-47124Y-34393D01*
X-47653Y-34747D01*
X-48007Y-35276D01*
X-48131Y-35900D01*
X-48007Y-36524D01*
X-47653Y-37053D01*
X-47469Y-37177D01*
Y-38454D01*
X-47969Y-38662D01*
X-48165Y-38465D01*
X-48479Y-38255D01*
X-48850Y-38181D01*
X-49730D01*
X-49784Y-38102D01*
X-49650Y-37423D01*
X-49547Y-37354D01*
X-49193Y-36824D01*
X-49069Y-36200D01*
X-49193Y-35576D01*
X-49547Y-35046D01*
X-49731Y-34923D01*
Y-8415D01*
X60920D01*
X60920Y-64906D01*
D02*
G37*
G36*
X-24254Y-24616D02*
X-24293Y-25015D01*
X-30935Y-31657D01*
X-31145Y-31971D01*
X-31219Y-32342D01*
Y-36894D01*
X-31719Y-37305D01*
X-31900Y-37269D01*
X-32524Y-37393D01*
X-33053Y-37747D01*
X-33250Y-38040D01*
X-33836Y-38063D01*
X-33847Y-38047D01*
X-34376Y-37693D01*
X-35000Y-37569D01*
X-35218Y-37612D01*
X-37931Y-34899D01*
Y-24230D01*
X-37747Y-24106D01*
X-37655Y-23969D01*
X-24901D01*
X-24254Y-24616D01*
D02*
G37*
G36*
X-51669Y-34923D02*
X-51854Y-35046D01*
X-52207Y-35576D01*
X-52331Y-36200D01*
X-52207Y-36824D01*
X-51854Y-37354D01*
X-51750Y-37423D01*
X-51616Y-38102D01*
X-51670Y-38181D01*
X-54049D01*
X-54912Y-37318D01*
X-54869Y-37100D01*
X-54993Y-36476D01*
X-55347Y-35947D01*
X-55876Y-35593D01*
X-56500Y-35469D01*
X-57124Y-35593D01*
X-57653Y-35947D01*
X-58007Y-36476D01*
X-58131Y-37100D01*
X-58007Y-37724D01*
X-58412Y-38018D01*
X-59100Y-37330D01*
X-59100Y-8415D01*
X-51669D01*
Y-34923D01*
D02*
G37*
G36*
X30555Y-54725D02*
X30348Y-55225D01*
X23299D01*
X20325Y-52251D01*
Y-51025D01*
X22200D01*
X22335Y-50999D01*
X22500Y-51031D01*
X23124Y-50907D01*
X23653Y-50554D01*
X24007Y-50024D01*
X24131Y-49400D01*
X24034Y-48911D01*
X24476Y-48646D01*
X30555Y-54725D01*
D02*
G37*
G36*
X-2179Y-32491D02*
X-1865Y-32701D01*
X-1494Y-32774D01*
X4079D01*
X5525Y-34220D01*
X5771Y-34385D01*
X5780Y-34661D01*
X5718Y-34905D01*
X5276Y-34993D01*
X4747Y-35346D01*
X4393Y-35876D01*
X4269Y-36500D01*
X4393Y-37124D01*
X4747Y-37653D01*
X5276Y-38007D01*
X5900Y-38131D01*
X6524Y-38007D01*
X7053Y-37653D01*
X7177Y-37469D01*
X29999D01*
X37615Y-45085D01*
X37929Y-45295D01*
X38300Y-45369D01*
X42299D01*
X57453Y-60523D01*
Y-64122D01*
X57527Y-64493D01*
X57737Y-64807D01*
X58407Y-65477D01*
X58367Y-66033D01*
X58346Y-66047D01*
X57993Y-66576D01*
X57969Y-66698D01*
X57469Y-66648D01*
Y-65700D01*
X57395Y-65329D01*
X57185Y-65015D01*
X38405Y-46236D01*
X38091Y-46026D01*
X37721Y-45952D01*
X27522D01*
X20785Y-39215D01*
X20471Y-39005D01*
X20100Y-38931D01*
X12900D01*
X12529Y-39005D01*
X12215Y-39215D01*
X11199Y-40231D01*
X5501D01*
X2493Y-37223D01*
X2533Y-36667D01*
X2554Y-36654D01*
X2907Y-36124D01*
X3031Y-35500D01*
X2907Y-34876D01*
X2554Y-34347D01*
X2024Y-33993D01*
X1400Y-33869D01*
X776Y-33993D01*
X246Y-34347D01*
X-107Y-34876D01*
X-231Y-35500D01*
X-107Y-36124D01*
X246Y-36654D01*
X431Y-36777D01*
Y-37500D01*
X505Y-37871D01*
X512Y-37881D01*
X245Y-38381D01*
X-383D01*
X-754Y-38455D01*
X-1068Y-38665D01*
X-2785Y-40382D01*
X-2995Y-40696D01*
X-3069Y-41067D01*
Y-44617D01*
X-2995Y-44987D01*
X-2785Y-45301D01*
X-222Y-47864D01*
Y-48434D01*
X-722Y-48585D01*
X-815Y-48447D01*
X-1344Y-48093D01*
X-1969Y-47969D01*
X-2593Y-48093D01*
X-3122Y-48447D01*
X-3246Y-48631D01*
X-5657D01*
X-6027Y-48705D01*
X-6342Y-48915D01*
X-35651Y-78224D01*
X-59100D01*
X-59100Y-54800D01*
X-58600Y-54459D01*
X-57900Y-54598D01*
X-56944Y-54408D01*
X-56134Y-53866D01*
X-55592Y-53056D01*
X-55402Y-52100D01*
X-55592Y-51144D01*
X-56134Y-50334D01*
X-56944Y-49792D01*
X-57900Y-49602D01*
X-58600Y-49741D01*
X-59100Y-49400D01*
Y-46800D01*
X-58600Y-46459D01*
X-57900Y-46598D01*
X-56944Y-46408D01*
X-56134Y-45866D01*
X-55592Y-45056D01*
X-55402Y-44100D01*
X-55592Y-43144D01*
X-55943Y-42619D01*
X-55676Y-42119D01*
X-50676D01*
X-49443Y-43352D01*
X-49129Y-43561D01*
X-48758Y-43635D01*
X-40906D01*
X-40495Y-44135D01*
X-40531Y-44317D01*
X-40407Y-44941D01*
X-40053Y-45470D01*
X-39664Y-45731D01*
X-39589Y-46282D01*
X-39666Y-46334D01*
X-40208Y-47144D01*
X-40398Y-48100D01*
X-40208Y-49056D01*
X-39666Y-49866D01*
X-38856Y-50408D01*
X-37900Y-50598D01*
X-36944Y-50408D01*
X-36134Y-49866D01*
X-35592Y-49056D01*
X-35402Y-48100D01*
X-35508Y-47569D01*
X-35097Y-47069D01*
X-28343D01*
X-28219Y-47254D01*
X-27690Y-47607D01*
X-27066Y-47731D01*
X-26441Y-47607D01*
X-25912Y-47254D01*
X-25559Y-46724D01*
X-25495Y-46404D01*
X-24917Y-45825D01*
X-22281D01*
X-22202Y-45957D01*
X-22454Y-46509D01*
X-22750Y-46567D01*
X-23279Y-46921D01*
X-23363Y-47047D01*
X-23443Y-47031D01*
X-23814Y-47105D01*
X-24128Y-47315D01*
X-35967Y-59154D01*
X-36046Y-59146D01*
X-36576Y-58793D01*
X-37200Y-58669D01*
X-37824Y-58793D01*
X-38353Y-59146D01*
X-38707Y-59676D01*
X-38831Y-60300D01*
X-38707Y-60924D01*
X-38353Y-61453D01*
X-37824Y-61807D01*
X-37200Y-61931D01*
X-36576Y-61807D01*
X-36046Y-61453D01*
X-35923Y-61269D01*
X-35743D01*
X-35372Y-61195D01*
X-35058Y-60985D01*
X-23299Y-49226D01*
X-23279Y-49228D01*
X-22750Y-49582D01*
X-22126Y-49706D01*
X-21501Y-49582D01*
X-20972Y-49228D01*
X-20618Y-48699D01*
X-20494Y-48074D01*
X-20509Y-48001D01*
X-20048Y-47755D01*
X-15632Y-52170D01*
X-15807Y-52432D01*
X-15931Y-53056D01*
X-15807Y-53680D01*
X-15453Y-54210D01*
X-14924Y-54563D01*
X-14300Y-54687D01*
X-13676Y-54563D01*
X-13147Y-54210D01*
X-12793Y-53680D01*
X-12669Y-53056D01*
X-12793Y-52432D01*
X-12975Y-52160D01*
Y-51628D01*
X-13075Y-51121D01*
X-13363Y-50691D01*
X-20491Y-43563D01*
X-20921Y-43275D01*
X-21428Y-43174D01*
X-25466D01*
X-25651Y-43211D01*
X-25951Y-42761D01*
X-25793Y-42524D01*
X-25669Y-41900D01*
X-25748Y-41502D01*
X-24243Y-39998D01*
X-23629Y-40091D01*
X-23453Y-40354D01*
X-22924Y-40707D01*
X-22300Y-40831D01*
X-21676Y-40707D01*
X-21147Y-40354D01*
X-21023Y-40169D01*
X-17500D01*
X-17129Y-40095D01*
X-16815Y-39885D01*
X-10930Y-34000D01*
X-7177D01*
X-7053Y-34185D01*
X-6524Y-34539D01*
X-5900Y-34663D01*
X-5276Y-34539D01*
X-4747Y-34185D01*
X-4393Y-33656D01*
X-4269Y-33031D01*
X-4393Y-32407D01*
X-4747Y-31878D01*
X-5276Y-31524D01*
X-5900Y-31400D01*
X-6524Y-31524D01*
X-7053Y-31878D01*
X-7177Y-32063D01*
X-11332D01*
X-11702Y-32137D01*
X-12016Y-32347D01*
X-17901Y-38231D01*
X-21023D01*
X-21147Y-38047D01*
X-21409Y-37871D01*
X-21502Y-37257D01*
X-13814Y-29569D01*
X-5101D01*
X-2179Y-32491D01*
D02*
G37*
G36*
X55531Y-66101D02*
Y-70200D01*
X55605Y-70571D01*
X55815Y-70885D01*
X55939Y-71009D01*
X55780Y-71557D01*
X55347Y-71846D01*
X55223Y-72031D01*
X50001D01*
X48385Y-70415D01*
X48071Y-70205D01*
X47700Y-70131D01*
X45652D01*
X45603Y-69631D01*
X45724Y-69607D01*
X46253Y-69253D01*
X46607Y-68724D01*
X46731Y-68100D01*
X46607Y-67476D01*
X46253Y-66947D01*
X45724Y-66593D01*
X45494Y-66547D01*
X37624Y-58677D01*
Y-49100D01*
X37574Y-48851D01*
X38035Y-48605D01*
X55531Y-66101D01*
D02*
G37*
G36*
X14612Y-40954D02*
X14765Y-41369D01*
X14493Y-41776D01*
X14369Y-42400D01*
X14493Y-43024D01*
X14846Y-43554D01*
X15376Y-43907D01*
X16000Y-44031D01*
X16624Y-43907D01*
X17154Y-43554D01*
X17277Y-43369D01*
X19199D01*
X23254Y-47424D01*
X22989Y-47866D01*
X22500Y-47769D01*
X21876Y-47893D01*
X21347Y-48246D01*
X21261Y-48375D01*
X16696D01*
X16424Y-48193D01*
X15800Y-48069D01*
X15176Y-48193D01*
X14647Y-48546D01*
X14293Y-49076D01*
X14169Y-49700D01*
X14293Y-50324D01*
X14647Y-50854D01*
X15176Y-51207D01*
X15800Y-51331D01*
X16424Y-51207D01*
X16696Y-51025D01*
X17674D01*
Y-52800D01*
X17775Y-53307D01*
X18063Y-53737D01*
X21813Y-57487D01*
X22243Y-57775D01*
X22750Y-57876D01*
X26938D01*
X27300Y-58376D01*
X27235Y-58700D01*
X27359Y-59324D01*
X27713Y-59854D01*
X27898Y-59977D01*
Y-65066D01*
X27972Y-65437D01*
X28182Y-65751D01*
X39907Y-77477D01*
X40221Y-77687D01*
X40592Y-77760D01*
X58390D01*
X59015Y-78385D01*
X59329Y-78595D01*
X59419Y-78613D01*
X59447Y-78654D01*
X59976Y-79007D01*
X60600Y-79131D01*
X60920Y-79394D01*
X60920Y-137500D01*
X969D01*
Y-136001D01*
X14417Y-122553D01*
X14627Y-122238D01*
X14701Y-121868D01*
Y-109648D01*
X15055Y-109294D01*
X15121D01*
X15538Y-109095D01*
X16238D01*
Y-102689D01*
Y-96284D01*
X15538D01*
X15121Y-96083D01*
X15055D01*
X14701Y-95730D01*
Y-93656D01*
X15154Y-93353D01*
X15507Y-92824D01*
X15631Y-92200D01*
X15507Y-91576D01*
X15154Y-91047D01*
X14624Y-90693D01*
X14000Y-90569D01*
X13376Y-90693D01*
X12846Y-91047D01*
X12493Y-91576D01*
X12424Y-91922D01*
X11914D01*
X11871Y-91706D01*
X11661Y-91391D01*
X10388Y-90118D01*
X10431Y-89900D01*
X10307Y-89276D01*
X9954Y-88747D01*
X9424Y-88393D01*
X9335Y-88375D01*
X9190Y-87897D01*
X12962Y-84124D01*
X13172Y-83810D01*
X13246Y-83439D01*
Y-71977D01*
X13431Y-71854D01*
X13784Y-71324D01*
X13908Y-70700D01*
X13784Y-70076D01*
X13431Y-69547D01*
X12901Y-69193D01*
X12277Y-69069D01*
X11653Y-69193D01*
X11124Y-69547D01*
X10770Y-70076D01*
X10646Y-70700D01*
X10770Y-71324D01*
X11124Y-71854D01*
X11309Y-71977D01*
Y-83038D01*
X4780Y-89567D01*
X4570Y-89881D01*
X4496Y-90252D01*
Y-96083D01*
X3569D01*
Y-84077D01*
X3754Y-83953D01*
X4107Y-83424D01*
X4231Y-82800D01*
X4107Y-82176D01*
X3754Y-81647D01*
X3224Y-81293D01*
X2600Y-81169D01*
X1976Y-81293D01*
X1446Y-81647D01*
X1093Y-82176D01*
X969Y-82800D01*
X1093Y-83424D01*
X1446Y-83953D01*
X1631Y-84077D01*
Y-95772D01*
X1320Y-96083D01*
X903Y-96284D01*
X203D01*
Y-102689D01*
Y-109095D01*
X903D01*
X1320Y-109294D01*
X1386D01*
X1740Y-109648D01*
Y-113279D01*
X-7512Y-122531D01*
X-34000D01*
X-34371Y-122605D01*
X-34685Y-122815D01*
X-40685Y-128815D01*
X-40895Y-129129D01*
X-40969Y-129500D01*
Y-137500D01*
X-59100D01*
X-59100Y-119719D01*
X-51950D01*
X-51579Y-119645D01*
X-51265Y-119435D01*
X-36515Y-104685D01*
X-36305Y-104371D01*
X-36231Y-104000D01*
Y-89049D01*
X-36046Y-88925D01*
X-35693Y-88396D01*
X-35569Y-87772D01*
X-35693Y-87147D01*
X-36046Y-86618D01*
X-36576Y-86264D01*
X-37200Y-86140D01*
X-37824Y-86264D01*
X-38353Y-86618D01*
X-38707Y-87147D01*
X-38831Y-87772D01*
X-38707Y-88396D01*
X-38353Y-88925D01*
X-38169Y-89049D01*
Y-103599D01*
X-52351Y-117781D01*
X-59100D01*
X-59100Y-80161D01*
X-35250D01*
X-34879Y-80088D01*
X-34565Y-79878D01*
X-5256Y-50569D01*
X-3246D01*
X-3122Y-50753D01*
X-2593Y-51107D01*
X-1969Y-51231D01*
X-1344Y-51107D01*
X-815Y-50753D01*
X-722Y-50615D01*
X-222Y-50766D01*
Y-53805D01*
X-1048Y-54631D01*
X-5049D01*
X-5420Y-54705D01*
X-5734Y-54915D01*
X-34050Y-83231D01*
X-42700D01*
X-43071Y-83305D01*
X-43385Y-83515D01*
X-55685Y-95815D01*
X-55895Y-96129D01*
X-55969Y-96500D01*
Y-106679D01*
X-56200Y-106869D01*
X-56824Y-106993D01*
X-57354Y-107346D01*
X-57707Y-107876D01*
X-57831Y-108500D01*
X-57707Y-109124D01*
X-57354Y-109653D01*
X-56824Y-110007D01*
X-56200Y-110131D01*
X-55576Y-110007D01*
X-55046Y-109653D01*
X-54693Y-109124D01*
X-54569Y-108500D01*
X-54579Y-108449D01*
X-54315Y-108185D01*
X-54105Y-107871D01*
X-54031Y-107500D01*
Y-96901D01*
X-42299Y-85169D01*
X-33649D01*
X-33278Y-85095D01*
X-32964Y-84885D01*
X-4648Y-56569D01*
X-647D01*
X-277Y-56495D01*
X38Y-56285D01*
X1431Y-54891D01*
X1641Y-54577D01*
X1715Y-54206D01*
Y-47483D01*
X1760Y-47442D01*
X2181Y-47242D01*
X4848Y-49909D01*
Y-53216D01*
X4922Y-53587D01*
X5132Y-53901D01*
X11281Y-60051D01*
Y-60586D01*
X10781Y-60738D01*
X10654Y-60546D01*
X10124Y-60193D01*
X9500Y-60069D01*
X8876Y-60193D01*
X8604Y-60374D01*
X-1600D01*
X-2107Y-60475D01*
X-2537Y-60763D01*
X-4904Y-63129D01*
X-5224Y-63193D01*
X-5754Y-63547D01*
X-6107Y-64076D01*
X-6231Y-64700D01*
X-6107Y-65324D01*
X-5754Y-65854D01*
X-5224Y-66207D01*
X-4600Y-66331D01*
X-3976Y-66207D01*
X-3447Y-65854D01*
X-3093Y-65324D01*
X-3029Y-65004D01*
X-1051Y-63025D01*
X8604D01*
X8876Y-63207D01*
X9500Y-63331D01*
X10124Y-63207D01*
X10654Y-62853D01*
X10781Y-62662D01*
X11281Y-62814D01*
Y-63523D01*
X11096Y-63647D01*
X10743Y-64176D01*
X10619Y-64800D01*
X10743Y-65424D01*
X11096Y-65953D01*
X11626Y-66307D01*
X12250Y-66431D01*
X12874Y-66307D01*
X13404Y-65953D01*
X13757Y-65424D01*
X13881Y-64800D01*
X13757Y-64176D01*
X13404Y-63647D01*
X13219Y-63523D01*
Y-59650D01*
X13145Y-59279D01*
X12935Y-58965D01*
X6785Y-52815D01*
Y-49508D01*
X6711Y-49137D01*
X6502Y-48823D01*
X2375Y-44696D01*
X2571Y-44292D01*
X2614Y-44229D01*
X3224Y-44107D01*
X3754Y-43753D01*
X3950Y-43459D01*
X4481Y-43565D01*
X4493Y-43624D01*
X4846Y-44153D01*
X5031Y-44277D01*
Y-46000D01*
X5105Y-46371D01*
X5315Y-46685D01*
X12512Y-53882D01*
X12469Y-54100D01*
X12593Y-54724D01*
X12946Y-55253D01*
X13476Y-55607D01*
X14100Y-55731D01*
X14318Y-55688D01*
X15131Y-56501D01*
Y-59100D01*
X15205Y-59471D01*
X15415Y-59785D01*
X37512Y-81882D01*
X37469Y-82100D01*
X37593Y-82724D01*
X37947Y-83254D01*
X38476Y-83607D01*
X39100Y-83731D01*
X39724Y-83607D01*
X40253Y-83254D01*
X40607Y-82724D01*
X40731Y-82100D01*
X40607Y-81476D01*
X40253Y-80946D01*
X39724Y-80593D01*
X39100Y-80469D01*
X38882Y-80512D01*
X17069Y-58699D01*
Y-56100D01*
X16995Y-55729D01*
X16785Y-55415D01*
X15688Y-54318D01*
X15731Y-54100D01*
X15607Y-53476D01*
X15254Y-52947D01*
X14724Y-52593D01*
X14100Y-52469D01*
X13882Y-52512D01*
X6969Y-45599D01*
Y-44277D01*
X7153Y-44153D01*
X7507Y-43624D01*
X7631Y-43000D01*
X7565Y-42669D01*
X7924Y-42169D01*
X11600D01*
X11971Y-42095D01*
X12285Y-41885D01*
X13301Y-40869D01*
X14543D01*
X14612Y-40954D01*
D02*
G37*
%LPC*%
G36*
X56708Y-19881D02*
X54989D01*
Y-21344D01*
X58372D01*
X58291Y-20939D01*
X57920Y-20382D01*
X57364Y-20011D01*
X56708Y-19881D01*
D02*
G37*
G36*
X44582Y-21038D02*
X43060D01*
Y-22703D01*
X46447D01*
X46351Y-22220D01*
X45936Y-21599D01*
X45315Y-21184D01*
X44582Y-21038D01*
D02*
G37*
G36*
X42560D02*
X41039D01*
X40306Y-21184D01*
X39685Y-21599D01*
X39270Y-22220D01*
X39174Y-22703D01*
X42560D01*
Y-21038D01*
D02*
G37*
G36*
X58372Y-21845D02*
X54989D01*
Y-23309D01*
X56708D01*
X57364Y-23178D01*
X57920Y-22806D01*
X58291Y-22250D01*
X58372Y-21845D01*
D02*
G37*
G36*
X53558Y-12627D02*
X52934Y-12751D01*
X52405Y-13105D01*
X52051Y-13634D01*
X51927Y-14258D01*
X52000Y-14626D01*
X49163Y-17463D01*
X48875Y-17893D01*
X48774Y-18400D01*
Y-47317D01*
X48875Y-47824D01*
X49163Y-48254D01*
X51346Y-50437D01*
X51776Y-50725D01*
X52284Y-50826D01*
X56304D01*
X56576Y-51007D01*
X57200Y-51131D01*
X57824Y-51007D01*
X58354Y-50653D01*
X58707Y-50124D01*
X58831Y-49500D01*
X58707Y-48876D01*
X58354Y-48346D01*
X57824Y-47993D01*
X57200Y-47869D01*
X56576Y-47993D01*
X56304Y-48175D01*
X52833D01*
X51425Y-46768D01*
Y-45195D01*
X51925Y-44928D01*
X52017Y-44989D01*
X52672Y-45120D01*
X54489D01*
Y-43406D01*
Y-41691D01*
X52672D01*
X52017Y-41822D01*
X51925Y-41883D01*
X51425Y-41616D01*
Y-23319D01*
X51925Y-23051D01*
X52115Y-23178D01*
X52771Y-23309D01*
X54489D01*
Y-21595D01*
Y-19881D01*
X52771D01*
X52115Y-20011D01*
X51925Y-20137D01*
X51425Y-19870D01*
Y-18949D01*
X54381Y-15994D01*
X54668Y-15564D01*
X54696Y-15422D01*
X54712Y-15412D01*
X55065Y-14883D01*
X55190Y-14258D01*
X55065Y-13634D01*
X54712Y-13105D01*
X54183Y-12751D01*
X53558Y-12627D01*
D02*
G37*
G36*
X46447Y-23203D02*
X43060D01*
Y-24868D01*
X44582D01*
X45315Y-24722D01*
X45936Y-24307D01*
X46351Y-23686D01*
X46447Y-23203D01*
D02*
G37*
G36*
X42560D02*
X39174D01*
X39270Y-23686D01*
X39685Y-24307D01*
X40306Y-24722D01*
X41039Y-24868D01*
X42560D01*
Y-23203D01*
D02*
G37*
G36*
X44582Y-40132D02*
X43060D01*
Y-41797D01*
X46447D01*
X46351Y-41315D01*
X45936Y-40693D01*
X45315Y-40278D01*
X44582Y-40132D01*
D02*
G37*
G36*
X42560D02*
X41039D01*
X40306Y-40278D01*
X39685Y-40693D01*
X39270Y-41315D01*
X39174Y-41797D01*
X42560D01*
Y-40132D01*
D02*
G37*
G36*
X56806Y-41691D02*
X54989D01*
Y-43156D01*
X58471D01*
X58390Y-42750D01*
X58018Y-42193D01*
X57462Y-41822D01*
X56806Y-41691D01*
D02*
G37*
G36*
X58471Y-43656D02*
X54989D01*
Y-45120D01*
X56806D01*
X57462Y-44989D01*
X58018Y-44618D01*
X58390Y-44061D01*
X58471Y-43656D01*
D02*
G37*
G36*
X-1236Y-96284D02*
X-1614D01*
X-1736Y-96284D01*
X-2553D01*
Y-102689D01*
Y-109095D01*
X-1736D01*
X-1614Y-109095D01*
X-1236D01*
X-1114Y-109095D01*
X-297D01*
Y-102689D01*
Y-96284D01*
X-1114D01*
X-1236Y-96284D01*
D02*
G37*
G36*
X16738Y-96284D02*
Y-102439D01*
X17677D01*
Y-96284D01*
X16738D01*
D02*
G37*
G36*
X-14076D02*
X-15016D01*
Y-102439D01*
X-14076D01*
Y-96284D01*
D02*
G37*
G36*
X17677Y-102939D02*
X16738D01*
Y-109095D01*
X17677D01*
Y-102939D01*
D02*
G37*
G36*
X-14076D02*
X-15016D01*
Y-109095D01*
X-14076D01*
Y-102939D01*
D02*
G37*
G36*
X-10900Y-92969D02*
X-11524Y-93093D01*
X-12054Y-93446D01*
X-12407Y-93976D01*
X-12531Y-94600D01*
X-12407Y-95224D01*
X-12396Y-95240D01*
Y-95884D01*
X-12540Y-96122D01*
X-12877Y-96284D01*
X-13577D01*
Y-102689D01*
Y-109095D01*
X-12877D01*
X-12460Y-109294D01*
X-12221Y-109294D01*
X-9640D01*
Y-111076D01*
X-9907Y-111476D01*
X-10031Y-112100D01*
X-9907Y-112724D01*
X-9554Y-113253D01*
X-9024Y-113607D01*
X-8400Y-113731D01*
X-7776Y-113607D01*
X-7247Y-113253D01*
X-7172Y-113142D01*
X-6774D01*
X-6608Y-113199D01*
X-6124Y-113522D01*
X-5500Y-113646D01*
X-4876Y-113522D01*
X-4346Y-113169D01*
X-3993Y-112639D01*
X-3869Y-112015D01*
X-3993Y-111391D01*
X-4234Y-111030D01*
Y-109494D01*
X-4090Y-109256D01*
X-3753Y-109095D01*
X-3053D01*
Y-102689D01*
Y-96284D01*
X-3753D01*
X-4170Y-96083D01*
X-4409Y-96083D01*
X-9410D01*
X-9633Y-95583D01*
X-9393Y-95224D01*
X-9269Y-94600D01*
X-9393Y-93976D01*
X-9747Y-93446D01*
X-10276Y-93093D01*
X-10900Y-92969D01*
D02*
G37*
G36*
X28300Y-81269D02*
X27676Y-81393D01*
X27147Y-81747D01*
X26793Y-82276D01*
X26669Y-82900D01*
X26793Y-83524D01*
X26974Y-83796D01*
Y-102851D01*
X16597Y-113229D01*
X16276Y-113293D01*
X15746Y-113646D01*
X15393Y-114176D01*
X15269Y-114800D01*
X15393Y-115424D01*
X15746Y-115954D01*
X16276Y-116307D01*
X16900Y-116431D01*
X17524Y-116307D01*
X18054Y-115954D01*
X18407Y-115424D01*
X18471Y-115103D01*
X29237Y-104337D01*
X29525Y-103907D01*
X29625Y-103400D01*
Y-83796D01*
X29807Y-83524D01*
X29931Y-82900D01*
X29807Y-82276D01*
X29454Y-81747D01*
X28924Y-81393D01*
X28300Y-81269D01*
D02*
G37*
%LPD*%
D11*
X35193Y-48600D02*
X35900D01*
X36400Y-49100D01*
Y-59184D02*
X45100Y-67883D01*
X36400Y-59184D02*
Y-49100D01*
X45100Y-68100D02*
Y-67883D01*
D22*
X-69504Y-111956D02*
D03*
Y-73000D02*
D03*
Y-33826D02*
D03*
D34*
X-76000Y-105263D02*
D03*
Y-118649D02*
D03*
Y-66307D02*
D03*
Y-79693D02*
D03*
Y-27133D02*
D03*
Y-40519D02*
D03*
D75*
Y-33530D02*
X-75904Y-33626D01*
X10281Y-8981D02*
X10719D01*
X10000Y-8700D02*
X10281Y-8981D01*
X-14300Y-53056D02*
Y-51628D01*
X-21428Y-44500D02*
X-14300Y-51628D01*
X-25466Y-44500D02*
X-21428D01*
X-11071Y-102689D02*
Y-94771D01*
X-10900Y-94600D01*
X-10400Y-20000D02*
X-9500D01*
X-6900Y-17400D01*
X-71604Y-24226D02*
X-62200D01*
X-73254Y-25875D02*
X-71604Y-24226D01*
X-73254Y-26158D02*
Y-25875D01*
X-74228Y-27133D02*
X-73254Y-26158D01*
X-76000Y-27133D02*
X-74228D01*
X-76000Y-33530D02*
Y-27133D01*
X30750Y-56550D02*
X31900Y-57700D01*
X22750Y-56550D02*
X30750D01*
X19000Y-52800D02*
X22750Y-56550D01*
X19000Y-49700D02*
X22200D01*
X15800D02*
X19000D01*
Y-52800D02*
Y-49700D01*
X31900Y-63400D02*
Y-57700D01*
Y-63400D02*
X41600Y-73100D01*
X41700D01*
X15800Y-11000D02*
X23700Y-18900D01*
Y-32600D02*
Y-18900D01*
X22200Y-34100D02*
X23700Y-32600D01*
X-6900Y-15400D02*
X11400D01*
X15800Y-11000D01*
X50100Y-47317D02*
Y-18400D01*
Y-47317D02*
X52284Y-49500D01*
X57200D01*
X-1600Y-61700D02*
X9500D01*
X-4600Y-64700D02*
X-1600Y-61700D01*
X-38900Y-44317D02*
X-38599D01*
X-5559Y-111956D02*
X-5500Y-112015D01*
X-5559Y-111956D02*
Y-102689D01*
X28300Y-103400D02*
Y-82900D01*
X16900Y-114800D02*
X28300Y-103400D01*
X-8400Y-112100D02*
X-8315Y-112015D01*
Y-102689D01*
X-27066Y-46100D02*
X-25466Y-44500D01*
X-31200Y-15400D02*
X-6900D01*
X-33600Y-13000D02*
X-31200Y-15400D01*
X31500Y-11000D02*
X37800Y-17300D01*
X15800Y-11000D02*
X31500D01*
X-6900Y-17400D02*
Y-15400D01*
X50100Y-18400D02*
X53443Y-15056D01*
Y-14373D01*
X53558Y-14258D01*
X22200Y-49700D02*
X22500Y-49400D01*
D76*
X1863Y-28063D02*
X1900D01*
X4200Y-27200D02*
Y-27074D01*
X1626Y-24500D02*
X4200Y-27074D01*
X-500Y-25700D02*
X1863Y-28063D01*
X30400Y-36500D02*
X38300Y-44400D01*
X42700D01*
X37721Y-46921D02*
X56500Y-65700D01*
X27121Y-46921D02*
X37721D01*
X5465Y-90252D02*
X12277Y-83439D01*
Y-70700D01*
X12250Y-64800D02*
Y-59650D01*
X-5049Y-55600D02*
X-647D01*
X-33649Y-84200D02*
X-5049Y-55600D01*
X-647D02*
X746Y-54206D01*
Y-47463D01*
X-42700Y-84200D02*
X-33649D01*
X-2100Y-44617D02*
X746Y-47463D01*
X-5657Y-49600D02*
X-1969D01*
X-35250Y-79193D02*
X-5657Y-49600D01*
X-73496Y-79193D02*
X-35250D01*
X-57650Y-103550D02*
Y-101900D01*
X-59363Y-105263D02*
X-57650Y-103550D01*
X-76000Y-105263D02*
X-59363D01*
X20100Y-39900D02*
X27121Y-46921D01*
X12900Y-39900D02*
X20100D01*
X11600Y-41200D02*
X12900Y-39900D01*
X56500Y-70200D02*
Y-65700D01*
X42700Y-44400D02*
X58422Y-60122D01*
X62200Y-73900D02*
Y-71700D01*
X60526Y-70026D02*
X62200Y-71700D01*
X59500Y-67200D02*
Y-65200D01*
X58422Y-64122D02*
X59500Y-65200D01*
X-27515Y-41900D02*
X-14215Y-28600D01*
X4480Y-31806D02*
X6209Y-33535D01*
X-1494Y-31806D02*
X4480D01*
X-4700Y-28600D02*
X-1494Y-31806D01*
X-56000Y-108500D02*
X-55000Y-107500D01*
X-56200Y-108500D02*
X-56000D01*
X-67400Y-30400D02*
X-57650Y-40150D01*
X-67400Y-30400D02*
Y-26834D01*
X58422Y-64122D02*
Y-60122D01*
X60700Y-75400D02*
X62200Y-73900D01*
X15035Y-33535D02*
X15800Y-34300D01*
X6209Y-33535D02*
X15035D01*
X-2567Y-23400D02*
X-867Y-21700D01*
X-19089Y-23400D02*
X-2567D01*
X-21187Y-21303D02*
X-19089Y-23400D01*
X-23608Y-25700D02*
X-500D01*
X-30250Y-32342D02*
X-23608Y-25700D01*
X-14215Y-28600D02*
X-4700D01*
X50000Y-75400D02*
X60700D01*
X-23000Y-24500D02*
X1626D01*
X-24500Y-23000D02*
X-23000Y-24500D01*
X-73496Y-40193D02*
X-65800D01*
X-64843Y-41150D01*
X-50275D01*
X-48150Y-39850D02*
X-46500D01*
X-48850Y-39150D02*
X-48150Y-39850D01*
X-54450Y-39150D02*
X-48850D01*
X-56500Y-37100D02*
X-54450Y-39150D01*
X-50700Y-36200D02*
Y-700D01*
X-57650Y-40150D02*
X-49861D01*
X-50275Y-41150D02*
X-48758Y-42667D01*
X-38217D01*
X-49861Y-40150D02*
X-49161Y-40850D01*
X-36729Y-45000D02*
X-35629Y-46100D01*
X-37915Y-45000D02*
X-36729D01*
X-38599Y-44317D02*
X-37915Y-45000D01*
X-36098Y-41850D02*
X-32517D01*
X-30250Y-39583D02*
Y-32342D01*
X5100Y-41200D02*
X11600D01*
X1400Y-37500D02*
X5100Y-41200D01*
X1400Y-37500D02*
Y-35500D01*
X5817Y-53216D02*
Y-49508D01*
X317Y-44008D02*
X5817Y-49508D01*
X317Y-44008D02*
Y-41017D01*
X5817Y-53216D02*
X12250Y-59650D01*
X5900Y-36500D02*
X30400D01*
X40592Y-76792D02*
X58792D01*
X28867Y-65066D02*
X40592Y-76792D01*
X28867Y-65066D02*
Y-58700D01*
X58792Y-76792D02*
X59700Y-77700D01*
X47700Y-73100D02*
X50000Y-75400D01*
X56500Y-70200D02*
X59500Y-73200D01*
X-56500Y-37100D02*
X-56300Y-36900D01*
X-55000Y-107500D02*
Y-96500D01*
X-42700Y-84200D01*
X-37200Y-104000D02*
Y-87772D01*
X-51950Y-118750D02*
X-37200Y-104000D01*
X-73443Y-118750D02*
X-51950D01*
X-74000Y-118193D02*
X-73443Y-118750D01*
X-2100Y-44617D02*
Y-41067D01*
X-383Y-39350D01*
X1336D01*
X2600Y-40614D01*
Y-42600D02*
Y-40614D01*
X300Y-41000D02*
X317Y-41017D01*
X6500Y-39200D02*
Y-39150D01*
X6000Y-46000D02*
X14100Y-54100D01*
X6000Y-46000D02*
Y-43000D01*
X19600Y-42400D02*
X33750Y-56550D01*
Y-61650D02*
Y-56550D01*
Y-61650D02*
X43200Y-71100D01*
X47700D01*
X49600Y-73000D01*
X56500D01*
X16000Y-42400D02*
X19600D01*
X16100Y-59100D02*
X39100Y-82100D01*
X16100Y-59100D02*
Y-56100D01*
X14100Y-54100D02*
X16100Y-56100D01*
X-22275Y-48074D02*
X-22126D01*
X-22449Y-48249D02*
X-22275Y-48074D01*
X-37200Y-60300D02*
X-35743D01*
X-23443Y-48000D01*
X-46500Y-39850D02*
X-38098D01*
X-46500D02*
Y-35900D01*
X-43500Y-33033D02*
Y-22000D01*
Y-33033D02*
X-35683Y-40850D01*
X-38098Y-39850D02*
X-36098Y-41850D01*
X-36619Y-42850D02*
X-31950D01*
X-38619Y-40850D02*
X-36619Y-42850D01*
X-49161Y-40850D02*
X-38619D01*
X-37033Y-43850D02*
X-31536D01*
X-38217Y-42667D02*
X-37033Y-43850D01*
X-35683Y-40850D02*
X-33850D01*
X-31950Y-42850D02*
X-28308Y-39208D01*
X-38900Y-35300D02*
X-35000Y-39200D01*
X-33850Y-40850D02*
X-31900Y-38900D01*
X-31536Y-43850D02*
X-29586Y-41900D01*
X-35629Y-46100D02*
X-27066D01*
X-32517Y-41850D02*
X-30250Y-39583D01*
X-11332Y-33031D02*
X-5900D01*
X-2803Y-102689D02*
Y-94103D01*
X-2800Y-94100D01*
X-13900Y-110100D02*
X-13827Y-110027D01*
Y-102689D01*
X-2803Y-110497D02*
X-2700Y-110600D01*
X-2803Y-110497D02*
Y-102689D01*
X-47Y-110453D02*
X0Y-110500D01*
X-47Y-110453D02*
Y-102689D01*
X16488Y-109988D02*
X16600Y-110100D01*
X16488Y-109988D02*
Y-102689D01*
X0Y-135600D02*
X13732Y-121868D01*
Y-102689D01*
X0Y-147500D02*
Y-135600D01*
X-10000Y-136000D02*
X-5000Y-131000D01*
X-10000Y-147500D02*
Y-136000D01*
X-5000Y-131000D02*
X2200D01*
X10976Y-122224D01*
Y-102689D01*
X8220D02*
Y-94121D01*
Y-121580D02*
Y-102689D01*
X500Y-129300D02*
X8220Y-121580D01*
X-13800Y-129300D02*
X500D01*
X-20000Y-135500D02*
X-13800Y-129300D01*
X-20000Y-147500D02*
Y-135500D01*
X-30000Y-147500D02*
Y-133900D01*
X-23200Y-127100D01*
X-3900D01*
X5465Y-117735D01*
Y-102689D01*
X-40000Y-147500D02*
Y-129500D01*
X-34000Y-123500D01*
X-7111D01*
X2709Y-113680D01*
Y-102689D01*
X-47D02*
Y-94326D01*
X7900Y-93800D02*
X8220Y-94121D01*
X2600Y-102580D02*
Y-82800D01*
Y-102580D02*
X2709Y-102689D01*
X8800Y-89900D02*
X10976Y-92076D01*
Y-102689D02*
Y-92076D01*
X5465Y-102689D02*
Y-90252D01*
X-23443Y-48000D02*
X-23194Y-48249D01*
X-22449D01*
X-68397Y-66307D02*
X-68104Y-66600D01*
X-76000Y-66307D02*
X-68397D01*
X-29586Y-41900D02*
X-27515D01*
X-28308Y-39208D02*
X-27157D01*
X-27066Y-39117D01*
X-38900Y-35300D02*
Y-22953D01*
X13732Y-102689D02*
Y-93143D01*
X13751Y-93124D01*
Y-92449D01*
X14000Y-92200D01*
X41700Y-73100D02*
X47700D01*
X53558Y-78442D02*
X55417Y-80300D01*
X58300D01*
X-867Y-21700D02*
X1969D01*
X-38900Y-22953D02*
X-38853Y-23000D01*
X-40334Y-21303D02*
X-21187D01*
X-41031Y-22000D02*
X-40334Y-21303D01*
X-43500Y-22000D02*
X-41031D01*
X-38853Y-23000D02*
X-24500D01*
X-22300Y-39200D02*
X-17500D01*
X-11332Y-33031D01*
X-50700Y-700D02*
X-50000Y0D01*
D78*
X10000Y-8700D02*
Y0D01*
D80*
X-57900Y-44100D02*
D03*
Y-52100D02*
D03*
X-37900Y-48100D02*
D03*
D81*
X-50000Y-147500D02*
D03*
Y0D02*
D03*
X-40000D02*
D03*
X-30000D02*
D03*
X-20000D02*
D03*
X-10000D02*
D03*
X0D02*
D03*
X10000D02*
D03*
X20000D02*
D03*
X30000D02*
D03*
X40000D02*
D03*
X50000D02*
D03*
Y-147500D02*
D03*
X40000D02*
D03*
X30000D02*
D03*
X20000D02*
D03*
X10000D02*
D03*
X0D02*
D03*
X-10000D02*
D03*
X-20000D02*
D03*
X-30000D02*
D03*
X-40000D02*
D03*
D82*
X42810Y-22953D02*
D03*
Y-42047D02*
D03*
D83*
X54739Y-43406D02*
D03*
D84*
Y-21595D02*
D03*
D85*
X-70000Y0D02*
D03*
X70000D02*
D03*
Y-147500D02*
D03*
X-70000D02*
D03*
D86*
X-14700Y-32803D02*
D03*
X2000Y-27900D02*
D03*
X4400D02*
D03*
X10719Y-8981D02*
D03*
X35193Y-48600D02*
D03*
X12277Y-70700D02*
D03*
X12250Y-64800D02*
D03*
X-14300Y-53056D02*
D03*
X-57650Y-101900D02*
D03*
X-10900Y-94600D02*
D03*
X-10400Y-20000D02*
D03*
X60200Y-70000D02*
D03*
X59500Y-67200D02*
D03*
X-62200Y-24226D02*
D03*
X-57800Y-65500D02*
D03*
X-58135Y-115500D02*
D03*
X-76000Y-33600D02*
D03*
X-50700Y-36200D02*
D03*
X60400Y-73000D02*
D03*
X-56200Y-108500D02*
D03*
X2600Y-42600D02*
D03*
X300Y-41000D02*
D03*
X22200Y-34100D02*
D03*
X6500Y-39200D02*
D03*
X5900Y-36500D02*
D03*
X6000Y-43000D02*
D03*
X56500Y-73000D02*
D03*
X52100Y-65500D02*
D03*
X45100Y-68100D02*
D03*
X57200Y-49500D02*
D03*
X39100Y-82100D02*
D03*
X9500Y-61700D02*
D03*
X-4600Y-64700D02*
D03*
X28867Y-58700D02*
D03*
X-16269Y-45464D02*
D03*
X-22126Y-48074D02*
D03*
X-37200Y-60300D02*
D03*
X-56500Y-37100D02*
D03*
X-46500Y-35900D02*
D03*
X-53200Y-43100D02*
D03*
X-35000Y-39200D02*
D03*
X-31900Y-38900D02*
D03*
X-5900Y-33031D02*
D03*
X-2800Y-94100D02*
D03*
X-13900Y-110100D02*
D03*
X-5500Y-112015D02*
D03*
X16900Y-114800D02*
D03*
X-8400Y-112100D02*
D03*
X-2700Y-110600D02*
D03*
X0Y-110500D02*
D03*
X16600Y-110100D02*
D03*
X28300Y-82900D02*
D03*
X-47Y-94326D02*
D03*
X7900Y-93800D02*
D03*
X2600Y-82800D02*
D03*
X8800Y-89900D02*
D03*
X-68104Y-66600D02*
D03*
X-27066Y-46100D02*
D03*
X-38900Y-44317D02*
D03*
X-33600Y-13000D02*
D03*
X-43800Y-9500D02*
D03*
X-48800Y-9800D02*
D03*
X-58900Y-10100D02*
D03*
X-27300Y-41900D02*
D03*
X-27066Y-39117D02*
D03*
X-67400Y-26834D02*
D03*
X-1969Y-49600D02*
D03*
X-7300Y-60700D02*
D03*
X-37200Y-87772D02*
D03*
X14000Y-92200D02*
D03*
X19800Y-47300D02*
D03*
X28333Y-54300D02*
D03*
X41700Y-73100D02*
D03*
X59200Y-80100D02*
D03*
X50900Y-118200D02*
D03*
X47300Y-85500D02*
D03*
X58000Y-90400D02*
D03*
X53558Y-78442D02*
D03*
X7900Y-31063D02*
D03*
X37800Y-17300D02*
D03*
X15800Y-11000D02*
D03*
X1568Y-9300D02*
D03*
X9900Y-21342D02*
D03*
X-6900Y-15400D02*
D03*
X-7000Y-10900D02*
D03*
X18700Y-19990D02*
D03*
X1969Y-21700D02*
D03*
X-38900Y-22953D02*
D03*
X-43500Y-22000D02*
D03*
X-1900Y-20400D02*
D03*
X36200Y-37800D02*
D03*
X38100Y-26200D02*
D03*
X37900Y-29200D02*
D03*
X17000Y-26300D02*
D03*
X30900Y-8800D02*
D03*
X53558Y-14258D02*
D03*
X10000Y-54166D02*
D03*
X16000Y-42400D02*
D03*
X14100Y-54100D02*
D03*
X22500Y-49400D02*
D03*
X15800Y-49700D02*
D03*
X60600Y-77500D02*
D03*
X1400Y-35500D02*
D03*
X15800Y-34300D02*
D03*
X-22300Y-39200D02*
D03*
X-31045Y-58845D02*
D03*
X-7100Y-42300D02*
D03*
X-13000Y-18400D02*
D03*
X-32800Y-25800D02*
D03*
D87*
X10000Y-136600D02*
D03*
D88*
X-13827Y-102689D02*
D03*
X-11071D02*
D03*
X-8315D02*
D03*
X-5559D02*
D03*
X-2803D02*
D03*
X-47D02*
D03*
X2709D02*
D03*
X5465D02*
D03*
X8220D02*
D03*
X10976D02*
D03*
X13732D02*
D03*
X16488D02*
D03*
M02*
